<svg viewBox="0 0 1426 400" xmlns="http://www.w3.org/2000/svg"><g><g><g><g><g><line x1="70" y1="377" x2="65" y2="377" style="visibility: inherit;" fill="rgb(0, 0, 0)" stroke="rgb(204, 204, 204)" stroke-width="1px"></line><line x1="70" y1="351.8666666666667" x2="65" y2="351.8666666666667" style="visibility: inherit;" fill="rgb(0, 0, 0)" stroke="rgb(204, 204, 204)" stroke-width="1px"></line><line x1="70" y1="326.73333333333335" x2="65" y2="326.73333333333335" style="visibility: inherit;" fill="rgb(0, 0, 0)" stroke="rgb(204, 204, 204)" stroke-width="1px"></line><line x1="70" y1="301.6" x2="65" y2="301.6" style="visibility: inherit;" fill="rgb(0, 0, 0)" stroke="rgb(204, 204, 204)" stroke-width="1px"></line><line x1="70" y1="276.4666666666667" x2="65" y2="276.4666666666667" style="visibility: inherit;" fill="rgb(0, 0, 0)" stroke="rgb(204, 204, 204)" stroke-width="1px"></line><line x1="70" y1="251.33333333333337" x2="65" y2="251.33333333333337" style="visibility: inherit;" fill="rgb(0, 0, 0)" stroke="rgb(204, 204, 204)" stroke-width="1px"></line><line x1="70" y1="226.2" x2="65" y2="226.2" style="visibility: inherit;" fill="rgb(0, 0, 0)" stroke="rgb(204, 204, 204)" stroke-width="1px"></line><line x1="70" y1="201.06666666666666" x2="65" y2="201.06666666666666" style="visibility: inherit;" fill="rgb(0, 0, 0)" stroke="rgb(204, 204, 204)" stroke-width="1px"></line><line x1="70" y1="175.93333333333334" x2="65" y2="175.93333333333334" style="visibility: inherit;" fill="rgb(0, 0, 0)" stroke="rgb(204, 204, 204)" stroke-width="1px"></line><line x1="70" y1="150.8" x2="65" y2="150.8" style="visibility: inherit;" fill="rgb(0, 0, 0)" stroke="rgb(204, 204, 204)" stroke-width="1px"></line><line x1="70" y1="125.66666666666669" x2="65" y2="125.66666666666669" style="visibility: inherit;" fill="rgb(0, 0, 0)" stroke="rgb(204, 204, 204)" stroke-width="1px"></line><line x1="70" y1="100.53333333333336" x2="65" y2="100.53333333333336" style="visibility: inherit;" fill="rgb(0, 0, 0)" stroke="rgb(204, 204, 204)" stroke-width="1px"></line><line x1="70" y1="75.39999999999998" x2="65" y2="75.39999999999998" style="visibility: inherit;" fill="rgb(0, 0, 0)" stroke="rgb(204, 204, 204)" stroke-width="1px"></line><line x1="70" y1="50.26666666666666" x2="65" y2="50.26666666666666" style="visibility: inherit;" fill="rgb(0, 0, 0)" stroke="rgb(204, 204, 204)" stroke-width="1px"></line><line x1="70" y1="25.13333333333333" x2="65" y2="25.13333333333333" style="visibility: inherit;" fill="rgb(0, 0, 0)" stroke="rgb(204, 204, 204)" stroke-width="1px"></line><line x1="70" y1="0" x2="65" y2="0" style="visibility: inherit;" fill="rgb(0, 0, 0)" stroke="rgb(204, 204, 204)" stroke-width="1px"></line></g><g transform="translate(60, 0)"><text x="0" y="377" dx="0em" dy="0.3em" style="text-anchor: end; visibility: hidden; font-family: Roboto, sans-serif; font-size: 12px; font-weight: 200;" fill="rgb(33, 33, 33)" stroke="none" stroke-width="1px">-200</text><text x="0" y="351.8666666666667" dx="0em" dy="0.3em" style="text-anchor: end; visibility: inherit; font-family: Roboto, sans-serif; font-size: 12px; font-weight: 200;" fill="rgb(33, 33, 33)" stroke="none" stroke-width="1px">0</text><text x="0" y="326.73333333333335" dx="0em" dy="0.3em" style="text-anchor: end; visibility: inherit; font-family: Roboto, sans-serif; font-size: 12px; font-weight: 200;" fill="rgb(33, 33, 33)" stroke="none" stroke-width="1px">200</text><text x="0" y="301.6" dx="0em" dy="0.3em" style="text-anchor: end; visibility: inherit; font-family: Roboto, sans-serif; font-size: 12px; font-weight: 200;" fill="rgb(33, 33, 33)" stroke="none" stroke-width="1px">400</text><text x="0" y="276.4666666666667" dx="0em" dy="0.3em" style="text-anchor: end; visibility: inherit; font-family: Roboto, sans-serif; font-size: 12px; font-weight: 200;" fill="rgb(33, 33, 33)" stroke="none" stroke-width="1px">600</text><text x="0" y="251.33333333333337" dx="0em" dy="0.3em" style="text-anchor: end; visibility: inherit; font-family: Roboto, sans-serif; font-size: 12px; font-weight: 200;" fill="rgb(33, 33, 33)" stroke="none" stroke-width="1px">800</text><text x="0" y="226.2" dx="0em" dy="0.3em" style="text-anchor: end; visibility: inherit; font-family: Roboto, sans-serif; font-size: 12px; font-weight: 200;" fill="rgb(33, 33, 33)" stroke="none" stroke-width="1px">1e+3</text><text x="0" y="201.06666666666666" dx="0em" dy="0.3em" style="text-anchor: end; visibility: inherit; font-family: Roboto, sans-serif; font-size: 12px; font-weight: 200;" fill="rgb(33, 33, 33)" stroke="none" stroke-width="1px">1.2e+3</text><text x="0" y="175.93333333333334" dx="0em" dy="0.3em" style="text-anchor: end; visibility: inherit; font-family: Roboto, sans-serif; font-size: 12px; font-weight: 200;" fill="rgb(33, 33, 33)" stroke="none" stroke-width="1px">1.4e+3</text><text x="0" y="150.8" dx="0em" dy="0.3em" style="text-anchor: end; visibility: inherit; font-family: Roboto, sans-serif; font-size: 12px; font-weight: 200;" fill="rgb(33, 33, 33)" stroke="none" stroke-width="1px">1.6e+3</text><text x="0" y="125.66666666666669" dx="0em" dy="0.3em" style="text-anchor: end; visibility: inherit; font-family: Roboto, sans-serif; font-size: 12px; font-weight: 200;" fill="rgb(33, 33, 33)" stroke="none" stroke-width="1px">1.8e+3</text><text x="0" y="100.53333333333336" dx="0em" dy="0.3em" style="text-anchor: end; visibility: inherit; font-family: Roboto, sans-serif; font-size: 12px; font-weight: 200;" fill="rgb(33, 33, 33)" stroke="none" stroke-width="1px">2e+3</text><text x="0" y="75.39999999999998" dx="0em" dy="0.3em" style="text-anchor: end; visibility: inherit; font-family: Roboto, sans-serif; font-size: 12px; font-weight: 200;" fill="rgb(33, 33, 33)" stroke="none" stroke-width="1px">2.2e+3</text><text x="0" y="50.26666666666666" dx="0em" dy="0.3em" style="text-anchor: end; visibility: inherit; font-family: Roboto, sans-serif; font-size: 12px; font-weight: 200;" fill="rgb(33, 33, 33)" stroke="none" stroke-width="1px">2.4e+3</text><text x="0" y="25.13333333333333" dx="0em" dy="0.3em" style="text-anchor: end; visibility: inherit; font-family: Roboto, sans-serif; font-size: 12px; font-weight: 200;" fill="rgb(33, 33, 33)" stroke="none" stroke-width="1px">2.6e+3</text><text x="0" y="0" dx="0em" dy="0.3em" style="text-anchor: end; visibility: hidden; font-family: Roboto, sans-serif; font-size: 12px; font-weight: 200;" fill="rgb(33, 33, 33)" stroke="none" stroke-width="1px">2.8e+3</text></g><line x1="70" y1="0" x2="70" y2="377" fill="rgb(0, 0, 0)" stroke="rgb(204, 204, 204)" stroke-width="1px"></line></g></g><g transform="translate(70, 0)" clip-path="url(#clip_0)"><clipPath id="clip_0"><rect width="1356" height="377"></rect></clipPath><g><g><g><line x1="0" y1="0" x2="0" y2="377" fill="rgb(0, 0, 0)" stroke="rgb(66, 66, 66)" stroke-width="1px" opacity="0.25"></line><line x1="96.85714285714285" y1="0" x2="96.85714285714285" y2="377" fill="rgb(0, 0, 0)" stroke="rgb(66, 66, 66)" stroke-width="1px" opacity="0.25"></line><line x1="193.7142857142857" y1="0" x2="193.7142857142857" y2="377" fill="rgb(0, 0, 0)" stroke="rgb(66, 66, 66)" stroke-width="1px" opacity="0.25"></line><line x1="290.57142857142856" y1="0" x2="290.57142857142856" y2="377" fill="rgb(0, 0, 0)" stroke="rgb(66, 66, 66)" stroke-width="1px" opacity="0.25"></line><line x1="387.4285714285714" y1="0" x2="387.4285714285714" y2="377" fill="rgb(0, 0, 0)" stroke="rgb(66, 66, 66)" stroke-width="1px" opacity="0.25"></line><line x1="484.2857142857143" y1="0" x2="484.2857142857143" y2="377" fill="rgb(0, 0, 0)" stroke="rgb(66, 66, 66)" stroke-width="1px" opacity="0.25"></line><line x1="581.1428571428571" y1="0" x2="581.1428571428571" y2="377" fill="rgb(0, 0, 0)" stroke="rgb(66, 66, 66)" stroke-width="1px" opacity="0.25"></line><line x1="678" y1="0" x2="678" y2="377" fill="rgb(0, 0, 0)" stroke="rgb(66, 66, 66)" stroke-width="1px" opacity="0.25"></line><line x1="774.8571428571428" y1="0" x2="774.8571428571428" y2="377" fill="rgb(0, 0, 0)" stroke="rgb(66, 66, 66)" stroke-width="1px" opacity="0.25"></line><line x1="871.7142857142858" y1="0" x2="871.7142857142858" y2="377" fill="rgb(0, 0, 0)" stroke="rgb(66, 66, 66)" stroke-width="1px" opacity="0.25"></line><line x1="968.5714285714286" y1="0" x2="968.5714285714286" y2="377" fill="rgb(0, 0, 0)" stroke="rgb(66, 66, 66)" stroke-width="1px" opacity="0.25"></line><line x1="1065.4285714285713" y1="0" x2="1065.4285714285713" y2="377" fill="rgb(0, 0, 0)" stroke="rgb(66, 66, 66)" stroke-width="1px" opacity="0.25"></line><line x1="1162.2857142857142" y1="0" x2="1162.2857142857142" y2="377" fill="rgb(0, 0, 0)" stroke="rgb(66, 66, 66)" stroke-width="1px" opacity="0.25"></line><line x1="1259.142857142857" y1="0" x2="1259.142857142857" y2="377" fill="rgb(0, 0, 0)" stroke="rgb(66, 66, 66)" stroke-width="1px" opacity="0.25"></line><line x1="1356" y1="0" x2="1356" y2="377" fill="rgb(0, 0, 0)" stroke="rgb(66, 66, 66)" stroke-width="1px" opacity="0.25"></line></g><g><line x1="0" y1="377" x2="1356" y2="377" fill="rgb(0, 0, 0)" stroke="rgb(66, 66, 66)" stroke-width="1px" opacity="0.25"></line><line x1="0" y1="351.8666666666667" x2="1356" y2="351.8666666666667" fill="rgb(0, 0, 0)" stroke="rgb(66, 66, 66)" stroke-width="1px" opacity="0.25"></line><line x1="0" y1="326.73333333333335" x2="1356" y2="326.73333333333335" fill="rgb(0, 0, 0)" stroke="rgb(66, 66, 66)" stroke-width="1px" opacity="0.25"></line><line x1="0" y1="301.6" x2="1356" y2="301.6" fill="rgb(0, 0, 0)" stroke="rgb(66, 66, 66)" stroke-width="1px" opacity="0.25"></line><line x1="0" y1="276.4666666666667" x2="1356" y2="276.4666666666667" fill="rgb(0, 0, 0)" stroke="rgb(66, 66, 66)" stroke-width="1px" opacity="0.25"></line><line x1="0" y1="251.33333333333337" x2="1356" y2="251.33333333333337" fill="rgb(0, 0, 0)" stroke="rgb(66, 66, 66)" stroke-width="1px" opacity="0.25"></line><line x1="0" y1="226.2" x2="1356" y2="226.2" fill="rgb(0, 0, 0)" stroke="rgb(66, 66, 66)" stroke-width="1px" opacity="0.25"></line><line x1="0" y1="201.06666666666666" x2="1356" y2="201.06666666666666" fill="rgb(0, 0, 0)" stroke="rgb(66, 66, 66)" stroke-width="1px" opacity="0.25"></line><line x1="0" y1="175.93333333333334" x2="1356" y2="175.93333333333334" fill="rgb(0, 0, 0)" stroke="rgb(66, 66, 66)" stroke-width="1px" opacity="0.25"></line><line x1="0" y1="150.8" x2="1356" y2="150.8" fill="rgb(0, 0, 0)" stroke="rgb(66, 66, 66)" stroke-width="1px" opacity="0.25"></line><line x1="0" y1="125.66666666666669" x2="1356" y2="125.66666666666669" fill="rgb(0, 0, 0)" stroke="rgb(66, 66, 66)" stroke-width="1px" opacity="0.25"></line><line x1="0" y1="100.53333333333336" x2="1356" y2="100.53333333333336" fill="rgb(0, 0, 0)" stroke="rgb(66, 66, 66)" stroke-width="1px" opacity="0.25"></line><line x1="0" y1="75.39999999999998" x2="1356" y2="75.39999999999998" fill="rgb(0, 0, 0)" stroke="rgb(66, 66, 66)" stroke-width="1px" opacity="0.25"></line><line x1="0" y1="50.26666666666666" x2="1356" y2="50.26666666666666" fill="rgb(0, 0, 0)" stroke="rgb(66, 66, 66)" stroke-width="1px" opacity="0.25"></line><line x1="0" y1="25.13333333333333" x2="1356" y2="25.13333333333333" fill="rgb(0, 0, 0)" stroke="rgb(66, 66, 66)" stroke-width="1px" opacity="0.25"></line><line x1="0" y1="0" x2="1356" y2="0" fill="rgb(0, 0, 0)" stroke="rgb(66, 66, 66)" stroke-width="1px" opacity="0.25"></line></g></g></g><g><g><line x1="0" y1="351.8666666666667" x2="1356" y2="351.8666666666667" fill="rgb(0, 0, 0)" stroke="rgb(153, 153, 153)" stroke-width="1.5px"></line></g></g><g><g><line x1="96.85714285714285" y1="0" x2="96.85714285714285" y2="377" fill="rgb(0, 0, 0)" stroke="rgb(153, 153, 153)" stroke-width="1.5px"></line></g></g><g><g><g><g><g><path stroke="rgb(0, 119, 187)" stroke-width="2px" d="M97.84896,324.91076973978676L99.83259428571428,322.2572878449286L100.0309577142857,327.81935036324126L100.626048,327.09710090685473L102.21295542857143,324.8906197997583L102.41131885714286,320.7679679852027L104.99004342857143,284.3341828847847L106.37858742857142,256.6516749769427L106.57695085714286,262.90603303266306L106.77531428571429,257.6080292320647L109.35403885714285,244.22235555275168L109.55240228571428,228.97985339743175L110.34585600000001,234.91155975354522L110.94094628571429,236.90988749584417L111.13930971428572,236.104563775921L112.32949028571429,240.2568683721559L113.32130742857142,229.5919771272577L114.70985142857144,234.84139698710646L116.69348571428571,238.6885937328764L117.48693942857143,241.46341864834042L118.28039314285714,244.18362206649437L121.05748114285714,245.7495424944103L121.85093485714286,237.3344792066166L122.04929828571429,240.17565698693534L122.44602514285714,234.1655640233203L122.842752,236.60658277317484L124.03293257142856,234.05042654517737L125.61984,227.42160109910563L126.01656685714286,230.44089975258734L126.21493028571429,224.35038191905707L126.81002057142858,226.75608430790408L128.19856457142856,224.10041940207617L128.79365485714285,224.58874494176786L129.1903817142857,225.30450839782714L129.58710857142856,225.1124670839904L131.174016,225.5406771659299L132.16583314285714,224.3757464780451L133.55437714285716,225.18540061057118L134.94292114285716,220.5048537359938L135.14128457142857,221.24694479163654L137.3232822857143,220.07968118248598L137.72000914285715,221.9838955596735L139.3069165714286,223.80382641698117L142.48073142857143,225.25130096562827L145.45618285714286,221.12116300328907L145.65454628571428,222.93065891610615L148.23327085714286,224.31645241681878L148.43163428571427,225.0962852203743L150.81199542857144,226.38256456258532L151.40708571428573,228.2787145095877L152.99399314285714,224.53556178673907L153.58908342857143,220.92595979617508L154.18417371428572,222.3139258247196L154.58090057142857,223.61237940093838L155.57271771428572,225.0386969574133L155.96944457142857,225.93475845010465L158.1514422857143,223.3287800314884L158.944896,220.09015108123188L159.7383497142857,221.17032708875246L160.13507657142858,221.79825371323324L160.33344,219.88042519369293L160.9285302857143,220.94247582812116L165.49088914285713,221.71983186632468L165.68925257142857,221.15778364536845L168.0696137142857,218.2657931766119L169.2597942857143,219.0045717355187L169.45815771428573,216.22401883939708L169.65652114285714,216.74477677027505L172.03688228571428,217.68015206880216L173.62378971428572,216.03353176904182L174.41724342857142,216.930177672759L174.81397028571428,217.50217491764136L175.80578742857142,214.95990225594923L176.7976045714286,212.4868216357295L177.19433142857142,213.71478785954508L179.37632914285714,214.81149234160827L180.56650971428573,212.45236719763338L180.76487314285714,212.6692865476583L183.54196114285713,211.48309112385277L183.74032457142857,212.3811739634864L184.1370514285714,212.97644147046714L185.52559542857145,211.70190551707034L186.715776,212.68195548768747L188.50104685714285,213.36562184038308L189.29450057142859,213.44210776477348L189.88959085714285,213.90010381520406L190.2863177142857,214.95175727026844L191.07977142857143,215.69253765852156L191.27813485714285,216.30787171503349L192.269952,214.2230019725597L192.46831542857143,214.30581643841094L193.65849599999999,214.7910518767641L198.22085485714288,212.89384740529124L198.6175817142857,210.9280621496592L198.81594514285715,211.7923362619683L199.01430857142856,209.9638557604517L199.60939885714288,210.41403427738996L200.0061257142857,209.50300453315188L202.7832137142857,210.40488009396458L202.98157714285713,211.07109702659469L203.378304,209.25129737192904L203.77503085714287,207.51444915825655L204.1717577142857,207.31516756729803L204.96521142857142,208.15441652870828L205.36193828571427,206.43368621723855L206.155392,206.91726451075868L206.55211885714286,207.8161907191593L207.34557257142856,206.72191983969773L208.53575314285715,205.08295959923515L208.93248,205.94783568646875L209.72593371428573,206.1103335792218L212.89974857142855,204.50201873765937L214.08992914285713,202.92143458894714L214.88338285714286,203.80080328342743L215.28010971428571,204.7079379207331L218.652288,205.2945788067717L218.85065142857144,203.75881459651484L220.43755885714285,204.51759790100897L220.63592228571426,203.0273328317468L221.62773942857143,203.2810715342073L221.82610285714284,203.78822244631633L223.4130102857143,204.58066781370803L224.60319085714286,203.11616297722588L224.8015542857143,202.25542909854096L225.79337142857145,200.83552342488773L227.5786422857143,199.43608843729868L227.97536914285712,200.12146107341383L229.36391314285711,200.5084571739765L230.95082057142858,201.22273165604184L231.14918400000002,201.9190448511568L232.73609142857143,202.59190579560476L234.32299885714284,201.23427354871276L234.71972571428572,202.03968259761214L237.89354057142856,202.78835863037187L240.0755382857143,202.32646911608853L240.47226514285714,202.38506260186918L240.86899200000002,202.86549413181618L241.46408228571428,203.5242529751165L242.05917257142858,202.24004302569085L242.25753600000002,202.5310488102505L244.63789714285716,203.3452831316672L248.60516571428573,202.06815644252447L250.7871634285714,202.09298423596414L250.98552685714287,202.6060683122934L252.17570742857146,201.3579640650924L253.36588799999998,200.7938531152189L256.53970285714286,199.57319081866555L256.7380662857143,200.03338356288126L257.1347931428571,198.8351841224697L257.72988342857144,199.22723074245778L259.5151542857143,198.0477482034851L262.09387885714284,196.88360984111225L263.6807862857143,195.74721927463403L264.27587657142857,195.18864154940815L267.05296457142856,194.06390047595437L268.0447817142857,194.05668552121867L268.8382354285714,194.70700928556823L269.8300525714286,193.60501538377943L272.805504,192.5163125879106L274.59077485714283,192.0295038199011L274.9875017142857,192.47441817139952L275.7809554285714,191.4118086225974L277.16949942857144,190.3618684123373L281.53349485714284,190.8297417548917L281.9302217142857,191.4328165837066L283.913856,191.7212167515522L285.3024,191.02921305784972L288.07948799999997,190.00886374896353L291.2533028571429,190.26032795458434L291.84839314285716,190.85650734741452L293.83202742857145,191.55731548214476L294.2287542857143,192.13718301563625L295.2205714285714,192.5082227068822L295.8156617142857,193.16873592057428L296.21238857142856,192.1728206737321L298.3943862857143,192.50073654748974L299.78293028571426,193.20306295298425L300.576384,192.22151839425396L300.97311085714284,191.25169373893294L302.75838171428575,190.29416822788318L306.5272868571429,189.34369432680737L309.3043748571429,189.60303278567358L309.50273828571426,190.2780133157072L309.89946514285714,190.55347342937105L310.69291885714284,190.8990323271861L312.4781897142857,191.50054812183993L314.85855085714286,191.80891128995611L315.65200457142856,192.32804980423296L316.04873142857144,192.63467467050756L316.6438217142857,193.10864807889376L317.0405485714286,192.18911657829784L317.4372754285714,191.27685952192206L319.4209097142857,190.38661010135763L320.21436342857146,190.94802663574652L320.41272685714284,191.59499354044067L321.6029074285714,192.09326586954657L321.9996342857143,192.56262151454618L322.99145142857145,193.0420733202731L324.3799954285714,192.15504583483522L325.37181257142856,192.65187545160333L325.570176,193.1446758405189L327.9505371428572,193.5409814780677L329.9341714285714,194.156140159448L330.3308982857143,193.28255486795086L330.5292617142857,193.76706598374213L331.9178057142857,194.2173856741125L332.9096228571429,193.3531221685657L333.70307657142854,192.49837353206343L333.90144,192.98394449278683L336.28180114285715,193.47911184283757L337.8687085714286,193.9911421227167L338.66216228571426,194.41858903838724L339.6539794285714,194.07530962843694L340.0507062857143,194.62092707920667L343.8196114285715,195.08593187252288L344.2163382857143,194.25685028954334L345.2081554285714,193.42664442172284L345.4065188571428,193.70991635214665L345.80324571428565,192.88974737724408L346.39833600000003,193.43270091156535L347.19178971428573,192.62411174829575L348.38197028571426,193.01346883464367L349.175424,193.43174256031904L350.1672411428571,192.6287505652911L351.35742171428575,193.04690900059634L351.952512,193.5245882687568L352.9443291428571,193.49164717821452L353.5394194285715,193.8196952398419L354.53123657142856,194.0614133489924L355.32469028571427,194.532667239814L356.11814400000003,194.91687188816638L357.9034148571428,195.18263883054652L359.29195885714284,195.53162417411235L359.88704914285717,195.74357170815392L360.08541257142855,196.13786195729196L361.87068342857145,195.35844229462217L363.85431771428574,194.58554989808462L366.8297691428572,193.81840281505214L367.6232228571428,194.2093173835359L369.80522057142855,193.4610497593658L370.003584,192.70753040307747L370.7970377142857,193.1739809915364L373.37576228571425,193.70384845966223L378.1364845714285,194.15686880317003L381.9053897142857,194.65487235678444L382.3021165714286,194.90072522801117L382.50048,195.2603775878453L384.48411428571427,195.565902108573L386.0710217142857,195.82970017111649L386.2693851428572,195.08955705746072L386.86447542857144,194.7444275427296L389.4432,195.04425306856638L389.83992685714287,195.39699179036086L392.0219245714286,195.73043176430426L392.61701485714286,196.10153286219233L393.41046857142857,196.45372270682424L394.2039222857143,196.71556810519024L394.997376,197.0513785365701L396.38592000000006,197.32844212099536L396.58428342857144,197.55940198260132L397.1793737142857,196.83953626404693L397.77446399999997,196.99368920832833L400.15482514285713,196.28099936459972L401.3450057142858,196.31960645656648L402.1384594285714,195.6130690791185L404.12209371428577,194.91130880455768L404.71718400000003,194.21527196971928L407.494272,193.52402304939662L408.0893622857143,192.83907576204842L409.08117942857143,192.92113060217085L409.67626971428575,193.2426066762426L411.4615405714286,192.56449981874687L413.64353828571427,192.66786071295718L414.6353554285714,192.77878468936112L415.0320822857143,192.11454281196401L419.7928045714286,191.4490022456901L421.379712,191.84872001467517L421.77643885714286,192.22518212956373L422.3715291428571,191.56790271731055L423.5617097142857,191.72465591355441L423.7600731428571,191.38538108142077L425.1486171428571,190.73541783877346L426.7355245714286,190.08999481194613L427.5289782857143,190.38503601973738L428.322432,190.73595432096423L429.710976,191.03863561311385L430.10770285714284,190.39919450104009L431.2978834285714,190.76271828349786L433.0831542857143,190.83215480943966L434.67006171428574,191.17247555152258L435.06678857142856,190.99914945603672L435.6618788571428,191.27175013295903L436.2569691428571,191.59785734942707L436.4553325714285,191.60211880106843L437.84387657142855,191.55843360306451L438.63733028571426,191.49972778460818L438.8356937142857,191.32105397431184L440.2242377142857,191.66927959182422L442.00950857142857,191.0499986668763L442.8029622857143,191.02149185107996L443.19968914285715,190.40799570127916L444.98496,190.81159461056478L447.16695771428573,190.86239423511503L449.150592,190.8008374790034L449.5473188571429,190.2011601813448L450.93586285714287,189.60152750723958L451.92768,189.6961364051386L452.5227702857143,189.09955601893853L454.1096777142857,188.50691078095198L457.8785828571429,188.86312507301872L460.0605805714286,188.27437760334456L461.64748799999995,187.68965254646238L463.43275885714286,187.122401040263L464.2262125714286,186.54460233111777L466.0114834285714,186.62408641022046L467.0033005714286,187.04201375334432L467.20166400000005,186.4689874388769L467.40002742857143,186.81801224789288L470.5738422857143,186.24893692996295L471.5656594285714,185.684341013758L473.7476571428571,185.30918407743317L474.34274742857144,185.6492172369748L475.532928,185.09066786065122L475.7312914285714,185.03589951304878L476.5247451428571,184.80808768145064L477.5165622857143,184.82439176627776L478.70674285714284,185.0186664240612L478.9051062857143,185.06253483796652L481.087104,185.05143729672142L481.88055771428577,185.45007191900348L482.07892114285715,185.42162873298142L482.87237485714286,185.31561252958653L483.2691017142857,185.54689795306993L485.0543725714286,185.7205637982278L485.8478262857143,185.3988030535574L486.0461897142857,185.80252843597174L486.44291657142855,185.26238689506792L486.64128,184.76862728594526L487.0380068571429,184.23477071970004L489.22000457142855,183.70404901245033L489.6167314285715,183.1763294920343L491.20363885714283,183.1019661383552L491.4020022857143,183.08640815112125L491.9970925714286,182.89315135055395L498.93981257142855,182.71797947320206L503.10544457142856,182.19962779314164L504.692352,181.70441468057925L507.0727131428572,182.09685836603273L507.66780342857146,181.996565070796L509.45307428571425,181.4855191259063L511.43670857142854,180.977486424996L513.0236160000001,180.47339869353956L513.6187062857143,179.97108327413568L514.2137965714286,180.3412400589134L515.4039771428571,179.84175641561606L516.3957942857143,179.34503633850574L516.5941577142856,179.64764155783686L517.3876114285714,179.1580649078005L517.5859748571429,178.66795026756463L518.9745188571428,179.01663594984063L520.7597897142857,179.29656160835577L521.35488,178.81589407047716L525.3221485714286,178.62739864566697L527.3057828571428,178.96423690681522L530.8763245714285,178.8208804359378L532.2648685714286,178.81665299819537L533.6534125714286,178.75091797429977L535.24032,178.2770986298112L535.6370468571429,178.11412275124536L536.4305005714285,177.6383725030274L537.6206811428572,177.16531542551297L538.4141348571428,177.325641583254L540.5961325714286,177.2199927706885L541.1912228571429,177.49805455384177L542.18304,177.40867406354573L544.7617645714286,177.27839745781816L549.5224868571428,177.22215197362775L553.291392,176.7580790828311L554.2832091428571,177.09262011142044L554.4815725714285,176.63035518171074L556.4652068571428,176.6255846545445L557.0602971428572,176.16675659101836L558.0521142857143,175.71031949048498L559.6390217142857,175.2624207435271L561.622656,174.81093060656048L563.6062902857143,175.16331504038604L564.9948342857143,174.9064784737586L567.7719222857144,174.45936488572107L570.9457371428572,174.79340348407948L571.7391908571428,174.95635279524575L571.9375542857142,174.53531235537167L572.5326445714286,174.86884476474557L572.731008,174.42710208673662L578.6819108571428,173.99036544482715L579.2770011428571,174.20673176676385L580.0704548571429,174.57124453687564L580.2688182857144,174.1365637765807L581.2606354285714,173.70467912136854L583.8393599999999,173.93648685608093L585.4262674285715,174.12316823058606L586.0213577142857,174.48428290263675L589.9886262857143,174.71866381250925L591.5755337142857,174.89620836679765L592.5673508571429,175.2387370429392L592.9640777142857,175.56026577108418L593.559168,175.7760221332716L593.9558948571429,176.09406274516198L594.1542582857143,176.4266857872692L596.336256,176.76081496137937L596.5346194285714,176.95771891980823L596.7329828571428,177.1348810432762L597.1297097142857,176.7025049803581L597.5264365714286,176.2726579575254L598.5182537142857,176.49235650893613L598.9149805714286,176.83494349352102L600.501888,177.12580404900632L605.8577005714286,177.42902032337165L606.056064,177.00085193402856L608.2380617142858,176.57745948001335L608.4364251428572,176.15538848899342L610.4200594285714,175.73422262227209L610.6184228571428,176.04072104469188L611.2135131428571,175.6249899832221L612.6020571428571,175.9800183996378L613.9906011428571,176.33298629223077L616.5693257142857,176.61213844721559L618.1562331428572,176.76320509357146L618.3545965714286,176.9778111204884L619.7431405714285,177.34641493023312L620.3382308571429,177.54074046748315L620.5365942857143,177.7256458790449L620.7349577142858,177.98570853664634L621.330048,177.57379349329477L625.0989531428571,177.16123638638624L626.6858605714285,176.74678073558638L626.884224,176.8316419333256L627.4793142857143,176.71354589607913L628.8678582857143,176.80961869589572L629.4629485714286,177.00884475083467L629.8596754285714,177.16074961483304L630.4547657142857,177.51489036827363L631.2482194285715,177.71224428737716L633.0334902857143,177.89982859363727L634.2236708571429,177.4918017899282L635.2154879999999,177.08662260729935L636.0089417142857,177.31836419442388L636.4056685714286,177.53526198930786L638.3893028571429,177.6394167474607L638.5876662857142,177.90481345937957L639.38112,177.4994520168314L640.3729371428572,177.60728688476803L640.5713005714287,177.2053501860136L640.769664,177.5161877455166L641.3647542857143,177.36679355225886L643.1500251428572,177.54002000071975L643.3483885714286,177.14283328523987L643.546752,176.74510283399894L644.5385691428571,176.349367634274L645.5303862857144,175.95451609349175L646.1254765714286,175.56250189730773L646.7205668571429,175.17058930667264L647.1172937142857,175.52022584591208L647.5140205714285,175.74401828135058L648.1091108571429,175.3534885100924L649.4976548571428,175.06569504990276L651.878016,174.68134225844935L652.2747428571429,174.9446247434316L654.8534674285714,175.2311968766924L655.0518308571428,175.4944022536436L657.2338285714286,175.1092984500509L659.2174628571429,175.426887111502L660.0109165714285,175.60186839188393L661.2010971428572,175.21864963460447L662.5896411428571,174.8358127304458L662.7880045714286,175.1498617484849L664.5732754285714,174.77120230568266L664.7716388571429,175.1097177966525L668.5405440000001,174.73060665645383L668.7389074285715,174.3519259299931L670.5241782857142,173.97498797197235L670.9209051428571,173.60067847536556L671.317632,173.22824453522958L672.9045394285714,172.85595645357225L674.4914468571428,172.4853931752726L675.2849005714286,172.11629398617632L675.8799908571428,172.3790911059908L676.2767177142857,172.70215182139134L676.4750811428571,172.91441900093344L677.0701714285714,172.54933417053815L678.260352,172.18295824615777L679.0538057142857,171.81828651702574L679.2521691428572,171.4552129265188L682.0292571428572,171.09421569006128L682.6243474285714,170.7376471821653L683.2194377142857,170.3789149049615L684.6079817142858,170.6359456093184L685.203072,170.92067764652919L685.5997988571428,171.24404425688363L686.7899794285713,170.88614972187474L687.7817965714286,171.2226227967981L688.9719771428571,171.4990699817875L689.368704,171.14211710049508L691.3523382857143,171.4717699086948L691.9474285714285,171.72998519270115L692.5425188571428,171.3741650897559L694.1294262857142,171.66881066595573L695.9146971428571,171.99706689417607L697.8983314285715,171.64203180047903L698.8901485714285,171.28842549959452L701.4688731428571,171.54020230051663L705.2377782857143,171.18961970372638L705.8328685714285,171.4624072953089L708.6099565714286,171.11133492582775L708.80832,171.324041725979L709.9985005714286,170.97450227202836L711.1886811428571,170.6263292213815L712.5772251428572,170.87266046410568L712.7755885714286,170.52621045431096L712.973952,170.18069056880344L713.3706788571429,169.83663970172776L714.1641325714286,170.16649863820086L714.9575862857142,169.8234763061919L715.75104,170.15367765117574L715.9494034285715,170.46839082126053L716.1477668571429,170.6031289961935L717.139584,170.86206427719867L717.5363108571429,170.51973408432025L719.5199451428571,170.17893319652438L720.9084891428571,169.83939634893412L726.4626651428571,169.50353880296973L727.4544822857143,169.16690778943024L729.2397531428571,169.43977161849745L729.8348434285715,169.7201232601936L730.2315702857144,169.38409693018392L731.6201142857142,169.04931063714702L732.6119314285714,169.37766336476741L734.1988388571428,169.0438085454433L734.9922925714286,169.35517433060653L735.190656,169.58376619654476L735.7857462857144,169.25078377929114L736.1824731428571,168.92055048516005L737.5710171428572,168.70410830221766L739.1579245714286,169.02220428102174L739.9513782857143,169.34521020450973L740.3481051428571,169.02154288204244L744.7121005714286,169.35592282594334L745.3071908571429,169.6579243362757L751.2580937142858,169.97182834638153L752.8450011428571,170.2703439031339L759.5893577142856,169.94173805612306L760.5811748571429,170.2055904733533L762.7631725714285,169.8764101498959L764.5484434285714,170.16918786743122L765.5402605714286,169.8411086714765L765.9369874285715,170.12620831570712L766.3337142857143,170.4347056181977L766.9288045714285,170.73399781789166L767.3255314285714,170.406165731777L768.3173485714285,170.68112296373238L768.515712,171.00476757462735L770.1026194285714,170.67780817267396L770.3009828571429,170.35192424448047L772.2846171428572,170.685020912217L773.0780708571428,170.36049130681724L775.061705142857,170.0400805265622L775.8551588571429,170.36604273035044L776.6486125714285,170.0430082982574L778.23552,169.7211484625405L779.2273371428572,169.40034005283323L782.2027885714285,169.66854235684178L782.4011519999999,169.3486200235306L783.5913325714287,169.65236137653707L784.9798765714285,169.9507475707945L785.7733302857143,169.63139753208523L787.7569645714286,169.31318725129177L787.9553280000001,168.99614370859774L788.1536914285714,169.29872749385677L788.3520548571429,169.59153245388504L789.5422354285714,169.27505487614147L789.9389622857143,169.50462387019064L790.5340525714287,169.1891137847821L791.1291428571428,169.42161711074797L791.3275062857143,169.39664480262817L791.9225965714285,169.08257676968876L794.1045942857143,168.76960074633584L795.2947748571429,169.06978302849026L796.4849554285714,169.34726641534752L798.2702262857143,169.665730277878L798.4685897142857,169.3531090570228L799.4604068571429,169.04154057195728L800.0554971428571,169.3108556336721L801.2456777142858,169.61124552886704L802.0391314285714,169.89203715142284L802.8325851428572,169.5808063297946L804.4194925714286,169.2706722588447L805.0145828571428,169.57925029146463L806.2047634285714,169.7115686598092L806.4031268571429,170.02123089256662L807.9900342857143,170.1898282260134L808.5851245714287,170.39149747479775L808.7834879999999,170.08179212367853L811.1638491428572,170.36578217176552L813.7425737142858,170.64512389171182L813.9409371428571,170.33596573651732L814.1393005714286,170.62611505350512L814.3376639999999,170.8974409008135L817.1147520000001,170.58897125486254L821.8754742857143,170.88724928401498L822.4705645714286,171.0855130173481L822.8672914285713,171.2710566672986L823.2640182857143,170.96349158615809L823.8591085714286,171.23847784617604L824.6525622857142,171.46359826835734L825.2476525714286,171.15685253551845L825.4460160000001,170.85217520801322L829.0165577142857,170.54731162386642L831.0001920000001,170.24444982825062L832.388736,169.94538861310457L833.1821897142858,170.23687572118274L833.3805531428571,169.93476293308174L834.3723702857143,169.63377103308977L834.5707337142857,169.8245703873845L835.165824,170.12090304007612L837.3478217142857,169.82044107797867L837.5461851428571,170.07665302904326L839.9265462857143,169.77881377520941L840.1249097142856,170.0735701597652L840.5216365714286,170.36458162137197L840.72,170.64300045358266L841.3150902857143,170.90926226319775L841.5134537142857,170.6097589848328L841.7118171428572,170.69516045663755L843.1003611428572,170.39670378549363L843.4970880000001,170.5800710829478L846.8692662857143,170.85631216256516L847.0676297142857,171.11095717382076L847.2659931428572,171.3203834666448L847.4643565714285,171.3093379367665L848.2578102857143,171.51810829155306L848.8529005714286,171.81726510942235L851.828352,172.1067681103237L852.2250788571428,172.2055184521226L853.4152594285715,172.41701529283267L854.60544,172.70736910720194L855.3988937142857,172.4094532851856L858.5727085714286,172.39574390387938L860.3579794285714,172.09834949461316L860.7547062857144,172.33884601413828L861.1514331428572,172.61179098948196L862.1432502857142,172.83994526075696L862.7383405714286,173.02715078466372L864.5236114285715,173.23182101501607L865.1187017142856,173.43956646736825L865.713792,173.61203174280618L871.0696045714286,173.31588021854125L872.2597851428571,173.01944616237148L872.8548754285714,172.72474283435093L873.6483291428572,172.9962327482773L874.8385097142857,172.7079928869196L875.4336,172.92727295711492L875.830326857143,173.190313416762L876.822144,172.895976005789L877.2188708571429,172.60262712815205L877.8139611428571,172.78571995960758L881.1861394285714,172.49403420662773L881.9795931428571,172.76529572373377L883.5665005714286,173.02608648268975L883.764864,173.30644261655695L885.5501348571429,173.55769930043664L886.7403154285714,173.64819688783092L886.9386788571429,173.88886108783274L887.1370422857143,173.596523067282L887.7321325714286,173.86528347338182L888.9223131428571,173.5739991120146L889.9141302857144,173.84762125008476L890.5092205714285,174.12488129388578L892.096128,174.3505556219182L892.8895817142858,174.06196585094048L893.2863085714285,174.33801051735858L895.0715794285715,174.04849651026547L896.0633965714286,173.75836347841505L897.2535771428571,174.02433859652723L898.4437577142858,173.73528563667497L899.8323017142858,173.98340488944612L903.4028434285714,173.69672862450926L903.6012068571429,173.4089253585597L906.5766582857143,173.1217452218656L906.7750217142858,173.36774051298406L907.1717485714286,173.61666562058645L907.9652022857143,173.33108738591952L908.758656,173.5841034049667L912.1308342857143,173.29803290699786L913.3210148571428,173.01561055997573L914.5111954285715,173.09440020018528L915.1062857142857,172.81011438310384L918.6768274285714,172.52708599427405L919.4702811428571,172.7833650377362L920.8588251428572,172.5013910528305L921.4539154285715,172.21955130601512L923.6359131428572,171.93853250808542L925.6195474285714,172.13834205610195L925.8179108571428,172.35422629368668L926.4130011428572,172.07384728123677L928.5949988571429,171.79471750097443L931.5704502857143,172.07287286796245L931.7688137142858,171.79385670298836L934.3475382857143,172.03454585167998L935.5377188571429,172.05329066871388L935.9344457142857,172.27086637428556L936.132809142857,171.99394344473262L937.3229897142858,172.25961133358993L939.3066239999999,172.45750502034286L939.9017142857143,172.1795725629558L940.2984411428572,172.43604114248888L940.4968045714285,172.15872104522361L940.695168,171.8865705394009L941.4886217142857,172.0683422387049L943.4722559999999,171.79272318771072L943.6706194285714,172.07272639177543L946.0509805714285,171.79756839953978L946.249344,171.99091416288368L949.6215222857143,171.7163285099346L951.8035199999999,171.4427809253378L953.5887908571428,171.16963877141507L954.5806080000001,170.89862853257446L955.5724251428571,171.06658281783265L956.7626057142858,170.79536736197855L958.5478765714286,171.07358459444265L960.1347840000001,170.80259917046544L961.9200548571429,170.9919876927674L964.1020525714287,171.25384078427717L965.0938697142857,170.98311005903489L965.6889600000001,170.71304845906783L965.8873234285713,170.59570330262898L967.2758674285714,170.32724094071898L968.8627748571428,170.05911623510755L970.4496822857143,169.79184343282685L971.243136,169.5252292335687L971.8382262857143,169.25949783722876L972.4333165714286,168.99440527334366L972.6316800000001,168.7311572249042L974.2185874285714,168.46817320351778L974.6153142857142,168.2053896899033L976.797312,167.94325699224768L978.3842194285713,167.8888488191768L980.5662171428571,167.62851847720952L981.3596708571428,167.36819034778424L982.9465782857143,167.1092875506183L987.5089371428571,166.85033834793424L988.6991177142856,166.59261375371355L989.4925714285715,166.3350581512265L992.468022857143,166.5578024012419L993.6582034285715,166.30236252797613L994.2532937142857,166.54460738591717L994.6500205714286,166.2880459698193L996.0385645714285,166.03217584500615L996.6336548571428,165.77711753556372L997.4271085714286,165.52267485416905L998.2205622857142,165.26903649472393L998.4189257142857,165.01602456478008L998.6172891428571,164.7637096159745L999.014016,164.51216355214893L1001.5927405714285,164.2616410339085L1001.9894674285715,164.01298320447836L1002.3861942857143,163.76450793670193L1003.179648,163.51549048909382L1003.7747382857142,163.26763412849337L1003.9731017142857,163.4448631276714L1004.3698285714286,163.19772240736089L1005.956736,162.95067994648988L1007.9403702857143,162.70437169540057L1010.7174582857142,162.45863231671333L1011.3125485714286,162.21357447161057L1011.907638857143,161.9691626187735L1014.6847268571429,161.7279050339176L1015.2798171428572,161.4851306343782L1018.2552685714286,161.2429433637052L1019.2470857142858,161.0019505622594L1019.4454491428571,160.76094260093976L1020.2389028571429,160.52029925663473L1021.0323565714285,160.28066067288088L1021.23072,160.29507692850572L1021.4290834285714,160.08016650866662L1021.8258102857144,159.8418607111225L1022.8176274285714,159.60415217798723L1023.0159908571429,159.3671159731578L1023.2143542857142,159.13118477394937L1024.9996251428572,158.8953943210459L1026.5865325714285,158.6601937775817L1027.3799862857143,158.42559621770667L1027.7767131428573,158.1914741611082L1028.9668937142858,157.95818938546554L1030.553801142857,157.72583082039807L1030.7521645714287,157.49359483677765L1031.9423451428572,157.26194029709265L1032.5374354285714,157.0308230300376L1034.124342857143,156.80038548185L1035.3145234285714,156.57104201257005L1035.9096137142858,156.3421674146059L1036.1079771428572,156.11363389906415L1036.7030674285713,155.8856901443104L1037.2981577142857,156.06466247482564L1037.8932479999999,155.8375854196691L1040.2736091428571,155.6107505091821L1041.067062857143,155.38582434196692L1042.4556068571428,155.16050862496843L1043.6457874285713,154.93578752274658L1044.439241142857,154.7111715308496L1044.6376045714287,154.487345345861L1045.2326948571429,154.26412659899782L1045.4310582857142,154.0416663464114L1046.8196022857142,153.89905551517788L1047.2163291428571,153.98215988767623L1047.6130560000001,153.76257658476413L1048.8032365714287,153.54154946112465L1049.9934171428572,153.3212614779447L1050.5885074285716,153.1028532839995L1051.1835977142857,152.88373929250486L1051.5803245714285,152.66503063619945L1051.9770514285715,152.44732047812673L1055.1508662857143,152.22969822990666L1055.547593142857,152.012598871428L1055.94432,151.79618649572114L1056.1426834285714,151.58016691648857L1056.3410468571428,151.36464364197096L1057.7295908571427,151.14976912701354L1057.9279542857143,150.93567688537442L1061.498496,150.7230840139293L1062.0935862857143,150.5099565912512L1065.4657645714285,150.29694607423457L1068.0444891428572,150.0860953187441L1070.6232137142856,149.8745080770259L1071.0199405714286,149.66337479507345L1073.995392,149.4528434517516L1074.7888457142858,149.24317887947615L1075.5822994285716,149.03437378436013L1076.9708434285715,148.82577340656235L1077.7642971428572,148.6174336144979L1078.7561142857141,148.40995426590837L1084.5086537142856,148.2026489057669L1084.9053805714286,147.9959000801652L1086.8890148571427,147.7894287186925L1087.0873782857143,147.5841699499702L1091.649737142857,147.37890610286408L1093.435008,147.17438530441856L1098.1957302857143,146.9704641123793L1100.5760914285715,146.76701259852928L1100.9728182857143,146.5640003846111L1101.9646354285715,146.36168711159226L1103.9482697142857,146.16025157460797L1104.54336,145.9588390896065L1104.7417234285715,145.7581009911769L1106.3286308571428,145.56122266652767L1106.7253577142856,145.36206857473925L1107.717174857143,145.16324580718182L1108.9073554285715,144.96481069095842L1109.3040822857142,144.7668589776611L1113.0729874285714,144.5692349222202L1115.0566217142857,144.3724422327301L1115.8500754285715,144.17619507753096L1116.643529142857,143.98019413892297L1118.0320731428571,143.78447368743844L1118.825526857143,143.58924060305367L1119.0238902857143,143.39443291236137L1119.420617142857,143.20028481238637L1119.6189805714284,143.00639422417615L1121.9993417142857,142.81300262876698L1123.7846125714286,142.62106192354955L1125.9666102857143,142.42886107856816L1127.9502445714286,142.23879416113877L1128.148608,142.0475910379307L1128.545334857143,141.85691354732003L1129.5371519999999,141.6669107461686L1129.9338788571429,141.47707982764263L1130.925696,141.28748296753315L1132.1158765714285,141.10197929533507L1133.5044205714285,140.91502762893907L1134.2978742857142,141.07059146641615L1136.0831451428571,141.08252839477794L1139.0585965714286,140.8948324290441L1139.25696,140.7068055883849L1140.0504137142857,140.52039637127677L1140.8438674285715,140.33605611672323L1141.4389577142858,140.2844574320328L1143.819318857143,140.10014605772582L1145.6045897142858,140.24055022251693L1146.596406857143,140.05566529632182L1146.9931337142857,140.0646951850866L1147.3898605714285,140.03073660245983L1147.7865874285715,139.92058525271003L1149.1751314285714,139.80332919691986L1151.9522194285714,139.621152224704L1152.1505828571428,139.43825557218923L1152.7456731428572,139.25621051382L1153.1424,139.21465819418984L1153.9358537142857,139.03336727395163L1154.134217142857,138.85071167106415L1155.1260342857142,138.87953471300855L1155.5227611428572,138.69879542115947L1155.919488,138.51735531877247L1156.9113051428571,138.33682615524773L1160.6802102857143,138.29945189224347L1161.8703908571429,138.23756808608832L1162.2671177142856,138.13589853097739L1162.862208,138.31561314307157L1164.647478857143,138.28104916997597L1166.8294765714286,138.46907198332255L1167.2262034285714,138.33279489689903L1168.6147474285715,138.29869680676796L1168.8131108571429,138.11959750579922L1169.6065645714284,138.13406511680108L1171.590198857143,137.95637474181433L1171.9869257142857,138.09721356703437L1172.9787428571428,137.9189852166216L1173.7721965714286,137.74107694535306L1175.1607405714285,137.5638753787555L1177.1443748571428,137.51660507564384L1177.5411017142858,137.3404715332958L1177.7394651428572,137.16486383300244L1178.532918857143,136.99000613252255L1178.9296457142857,136.81601557558676L1179.3263725714287,136.64246861709037L1179.5247359999998,136.46857098310738L1179.9214628571428,136.29538821211466L1182.1034605714285,136.12213735003084L1187.2609097142856,135.94900864741163L1187.6576365714286,135.77674213580653L1188.8478171428571,135.6044268717381L1189.4429074285713,135.43165938163946L1189.641270857143,135.2603784274683L1189.8396342857143,135.08945455758857L1190.0379977142857,134.9194660966781L1191.4265417142858,134.88680944762945L1192.2199954285713,134.71633250288312L1192.6167222857143,134.54622316510986L1193.2118125714287,134.37621597605832L1196.9807177142857,134.20676373535682L1198.3692617142858,134.03819984764678L1198.7659885714286,134.09662330597354L1199.3610788571427,134.12102150927922L1201.3447131428572,133.9532881598772L1203.7250742857143,133.78601675266523L1208.68416,133.6188326827862L1209.4776137142858,133.4512815960026L1215.8252434285714,133.283809176792L1216.4203337142858,133.11645229414017L1218.403968,132.9499848800418L1221.1810560000001,132.78386162115427L1222.172873142857,132.6177369066081L1222.5696,132.45210501786687L1225.1483245714285,132.28690394856116L1228.3221394285715,132.12192720481582L1228.9172297142857,131.95736802181835L1229.51232,131.7931508606877L1230.3057737142856,131.63039241951327L1230.900864,131.46715089160878L1232.289408,131.30416949826133L1233.677952,131.14172203595888L1234.2730422857142,130.97939548720402L1235.6615862857143,130.8178399491361L1236.2566765714287,130.65659460635717L1237.6452205714286,130.49513690504662L1238.0419474285713,130.33398770423952L1238.6370377142857,130.17311578223342L1238.835401142857,130.0126747916674L1239.0337645714285,129.8524930669678L1239.232128,129.69263460177922L1240.620672,129.5330707341572L1242.009216,129.37386246314L1243.7944868571428,129.21502972736852L1244.3895771428572,129.0563405787031L1244.5879405714286,128.8980315274114L1245.3813942857141,128.74004499741818L1247.166665142857,128.58254841075734L1249.348662857143,128.42722709276273L1251.729024,128.2708929969771L1253.9110217142859,128.11444236343127L1257.2832,127.95843911564829L1259.2668342857144,127.8025438051797L1260.6553782857143,127.646986111427L1261.2504685714287,127.49190960222607L1263.234102857143,127.3371708688427L1263.4324662857143,127.18266276743981L1263.829193142857,127.02875103839332L1265.0193737142858,126.87513874704466L1266.4079177142858,126.72131822591956L1270.3751862857143,126.56770697714938L1271.5653668571429,126.41447344837437L1274.1440914285715,126.2615543807437L1274.342454857143,126.10894436991894L1276.9211794285713,125.95703376648368L1277.9129965714285,125.83337704301475L1278.5080868571429,125.68208490823085L1280.0949942857144,125.53077325667711L1281.0868114285715,125.37980031311548L1281.285174857143,125.2291123835043L1283.4671725714286,125.07946865314081L1285.2524434285715,124.9295634438302L1286.6409874285714,124.77991381024447L1287.0377142857144,124.6305736955012" style="fill: none;" fill="none"></path></g></g></g></g><g opacity="0.2"><g><g><g><path stroke="rgb(0, 119, 187)" stroke-width="2px" d="M97.84896,324.91076973978676L99.83259428571428,319.60645943196613L100.0309577142857,338.9267947743734L100.626048,324.9346831461588L102.21295542857143,316.0867381286621L102.41131885714286,300.2164662984212L104.99004342857143,66.49530786132813L106.37858742857142,63.64768155924481L106.57695085714286,312.7162651672363L106.77531428571429,210.1637705485026L109.35403885714285,111.09962658691406L109.55240228571428,62.31498901367186L110.34585600000001,305.63105516560876L110.94094628571429,262.70702571614584L111.13930971428572,224.91422536214193L112.32949028571429,302.045478515625L113.32130742857142,60.396915608723944L114.70985142857144,323.2826408742269L116.69348571428571,307.2839775797526L117.48693942857143,293.6610252075195L118.28039314285714,298.02004935709635L121.05748114285714,278.2745439656576L121.85093485714286,54.31726904296873L122.04929828571429,304.74430134073896L122.44602514285714,91.71261328124999L122.842752,296.8450307413737L124.03293257142856,168.480143351237L125.61984,50.927429117838535L126.01656685714286,313.7663879597982L126.21493028571429,50.35017854817709L126.81002057142858,297.81924270629884L128.19856457142856,143.07893998209633L128.79365485714285,239.95997076416015L129.1903817142857,248.52740928141276L129.58710857142856,218.69608007812502L131.174016,240.26129003906252L132.16583314285714,183.2051104736328L133.55437714285716,254.58018754069013L134.94292114285716,46.069964518229156L135.14128457142857,249.61692946370445L137.3232822857143,174.33396728515626L137.72000914285715,298.43880529785156L139.3069165714286,298.6197617696126L142.48073142857143,286.1423710530599L145.45618285714286,43.42593294270834L145.65454628571428,302.51232205200193L148.23327085714286,286.5871362508138L148.43163428571427,260.8821131591797L150.81199542857144,286.63473679606125L151.40708571428573,318.9040100708008L152.99399314285714,42.0734208984375L153.58908342857143,41.54378621419271L154.18417371428572,292.60765413411457L154.58090057142857,290.6041321512858L155.57271771428572,299.9787013448079L155.96944457142857,273.8627189534505L158.1514422857143,81.47789778645834L158.944896,40.74318277994792L159.7383497142857,282.0069835611979L160.13507657142858,257.75567928059894L160.33344,108.25230708821614L160.9285302857143,283.7588078816732L165.49088914285713,268.4281418457031L165.68925257142857,186.85877062988283L168.0696137142857,39.06935555013021L169.2597942857143,265.4737786458333L169.45815771428573,38.72423242187501L169.65652114285714,250.47495115152998L172.03688228571428,279.13949173990886L173.62378971428572,106.30467317708333L174.41724342857142,277.51761399332685L174.81397028571428,256.6854877115885L175.80578742857142,38.441973307291676L176.7976045714286,38.47421834309897L177.19433142857142,301.25812898763024L179.37632914285714,294.014432027181L180.56650971428573,39.89223291015626L180.76487314285714,228.73686515299482L183.54196114285713,122.52246887207032L183.74032457142857,280.5641639404297L184.1370514285714,258.71898822021484L185.52559542857145,112.58654919433594L186.715776,289.79921812947595L188.50104685714285,267.79051236979166L189.29450057142859,219.60127278645834L189.88959085714285,251.20170701090495L190.2863177142857,301.56888630167646L191.07977142857143,277.38431559244793L191.27813485714285,268.11602309163413L192.269952,36.77980460611978L192.46831542857143,221.42983630371097L193.65849599999999,256.97588478597004L198.22085485714288,46.22652628580728L198.6175817142857,36.444867350260395L198.81594514285715,289.29204528808594L199.01430857142856,44.3407899576823L199.60939885714288,251.5999838256836L200.0061257142857,125.32790970865888L202.7832137142857,294.5518134969075L202.98157714285713,273.8339638061523L203.378304,36.16533878580729L203.77503085714287,40.74830639648438L204.1717577142857,188.00089225260416L204.96521142857142,290.25108966064454L205.36193828571427,36.55841528320313L206.155392,255.09280997721353L206.55211885714286,298.1784366048177L207.34557257142856,95.73997530110678L208.53575314285715,37.38702986653648L208.93248,295.2161655476888L209.72593371428573,223.02814388020835L212.89974857142855,35.619566243489565L214.08992914285713,35.53783382161457L214.88338285714286,297.7111673787435L215.28010971428571,302.39286048380535L218.652288,268.9899678751628L218.85065142857144,35.643496907552084L220.43755885714285,288.2542023010254L220.63592228571426,37.24270955403646L221.62773942857143,231.73350585937501L221.82610285714284,261.1062560424804L223.4130102857143,294.84468033854165L224.60319085714286,35.00454817708333L224.8015542857143,102.69006909179689L225.79337142857145,35.33374820963543L227.5786422857143,35.08542154947915L227.97536914285712,281.2163205566406L229.36391314285711,246.63954066975913L230.95082057142858,286.9947859090169L231.14918400000002,286.1462597859701L232.73609142857143,284.57309474690754L234.32299885714284,34.62987988281251L234.71972571428572,301.5827346394857L237.89354057142856,295.9749938659668L240.0755382857143,144.4318048502604L240.47226514285714,209.78054243977863L240.86899200000002,263.9233170572917L241.46408228571428,287.8199911397298L242.05917257142858,36.79207674153644L242.25753600000002,240.2752726033529L244.63789714285716,309.6614507039388L248.60516571428573,34.2021346028646L250.7871634285714,205.3778985188802L250.98552685714287,270.9358530069987L252.17570742857146,34.06149593098957L253.36588799999998,124.69222843424481L256.53970285714286,33.84446321614585L256.7380662857143,262.91078151448573L257.1347931428571,34.08861735026041L257.72988342857144,253.46947491455077L259.5151542857143,33.843420084635426L262.09387885714284,33.8145498860677L263.6807862857143,35.58891658528647L264.27587657142857,115.98565458170573L267.05296457142856,33.618195719401044L268.0447817142857,193.02128479003906L268.8382354285714,288.5897493286133L269.8300525714286,33.57597957356769L272.805504,33.48786564127603L274.59077485714283,120.50540535481773L274.9875017142857,258.2223042195638L275.7809554285714,33.47856949869794L277.16949942857144,33.418804199218734L281.53349485714284,261.1640271199544L281.9302217142857,282.6034323527019L283.913856,235.56499692789714L285.3024,85.24185375976562L288.07948799999997,33.163605143229184L291.2533028571429,229.12726479085288L291.84839314285716,283.5069223022461L293.83202742857145,301.05895989990233L294.2287542857143,283.2304771118164L295.2205714285714,251.1084464518229L295.8156617142857,298.04254955037436L296.21238857142856,33.20833707682292L298.3943862857143,245.11676041666666L299.78293028571426,306.48438276163733L300.576384,33.08162727864585L300.97311085714284,33.200360188802094L302.75838171428575,33.44669262695314L306.5272868571429,32.85747672526043L309.3043748571429,232.51695131429037L309.50273828571426,302.5327359822591L309.89946514285714,236.594092183431L310.69291885714284,248.94347302246095L312.4781897142857,293.03862084960934L314.85855085714286,244.1177472330729L315.65200457142856,280.8220782063802L316.04873142857144,245.15699001057942L316.6438217142857,274.6887026977539L317.0405485714286,33.1594939778646L317.4372754285714,32.751752278645824L319.4209097142857,34.951164388020835L320.21436342857146,289.43286037190757L320.41272685714284,305.6200754394531L321.6029074285714,280.3215361531575L321.9996342857143,276.05643986002605L322.99145142857145,278.7255832926432L324.3799954285714,32.90549145507813L325.37181257142856,282.2556783854167L325.570176,282.4252332763672L327.9505371428572,265.66371295166016L329.9341714285714,306.6100149129232L330.3308982857143,32.87407478841146L330.5292617142857,283.12847265625L331.9178057142857,277.6394686279297L332.9096228571429,32.54432250976563L333.70307657142854,32.765098225911444L333.90144,284.1205674235026L336.28180114285715,286.818611735026L337.8687085714286,290.92431983439127L338.66216228571426,275.68526912434896L339.6539794285714,128.53297729492186L340.0507062857143,299.236555460612L343.8196114285715,284.6204268391927L344.2163382857143,33.9524580078125L345.2081554285714,32.23601578776044L345.4065188571428,248.93725258382162L345.80324571428565,32.328302246093735L346.39833600000003,300.1608236694336L347.19178971428573,33.03128084309897L348.38197028571426,270.17376106770837L349.175424,276.6575137125651L350.1672411428571,32.211471516927084L351.35742171428575,276.91848067220053L351.952512,289.7158634847005L352.9443291428571,186.8319560139974L353.5394194285715,260.4024797566732L354.53123657142856,243.31452062988282L355.32469028571427,290.9313379618327L356.11814400000003,273.8141673177083L357.9034148571428,249.969408203125L359.29195885714284,267.75022141520185L359.88704914285717,239.77160882568361L360.08541257142855,278.3560923055013L361.87068342857145,32.216104248046854L363.85431771428574,32.199107340494784L366.8297691428572,32.03386303710939L367.6232228571428,276.9578282063802L369.80522057142855,34.47917805989582L370.003584,32.01717293294272L370.7970377142857,293.0125387268066L373.37576228571425,307.53200894165036L378.1364845714285,291.83168317667645L381.9053897142857,302.41855910237626L382.3021165714286,248.29357908121744L382.50048,273.64870825195317L384.48411428571427,262.3953825073242L386.0710217142857,253.73789719645185L386.2693851428572,32.038526448567715L386.86447542857144,118.44480643717446L389.4432,261.56152158610024L389.83992685714287,273.9273547566732L392.0219245714286,270.2231794230143L392.61701485714286,279.2958540852864L393.41046857142857,275.6813573811849L394.2039222857143,255.82225036621094L394.997376,273.11394995117183L396.38592000000006,260.298619140625L396.58428342857144,250.22950077311197L397.1793737142857,32.12010546875001L397.77446399999997,232.38563946533202L400.15482514285713,32.10629931640625L401.3450057142858,205.2427823079427L402.1384594285714,31.770042805989597L404.12209371428577,31.637749186197933L404.71718400000003,31.739945393880202L407.494272,31.637135579427103L408.0893622857143,31.904146565755212L409.08117942857143,212.26339485677082L409.67626971428575,269.2674868774414L411.4615405714286,31.68404581705728L413.64353828571427,217.268907430013L414.6353554285714,219.26434130859377L415.0320822857143,33.00710473632811L419.7928045714286,31.525029622395824L421.379712,288.2009105529785L421.77643885714286,283.2569235636393L422.3715291428571,32.134463867187506L423.5617097142857,229.866177734375L423.7600731428571,108.57592329915364L425.1486171428571,31.603141764322917L426.7355245714286,31.58255525716145L427.5289782857143,263.06557916259766L428.322432,277.4454001464844L429.710976,266.0566437174479L430.10770285714284,31.43667024739582L431.2978834285714,281.40607845052085L433.0831542857143,208.19795853678383L434.67006171428574,276.540230448405L435.06678857142856,147.39149108886718L435.6618788571428,260.0599567871094L436.2569691428571,274.1314250284831L436.4553325714285,192.68381640625L437.84387657142855,180.43713033040365L438.63733028571426,176.51079866536458L438.8356937142857,145.56869547526043L440.2242377142857,281.09686665852865L442.00950857142857,31.553255533854173L442.8029622857143,183.65838179524738L443.19968914285715,31.491833496093758L444.98496,295.65595286051433L447.16695771428573,204.09635009765623L449.150592,174.71905155436195L449.5473188571429,33.09224267578125L450.93586285714287,32.06236507161459L451.92768,214.62202258300783L452.5227702857143,31.48425545247397L454.1096777142857,31.495791259765646L457.8785828571429,283.4974344075521L460.0605805714286,31.431976155598953L461.64748799999995,31.490452880859394L463.43275885714286,35.175805826822895L464.2262125714286,31.3503357747396L466.0114834285714,208.03122623697917L467.0033005714286,299.90572048950196L467.20166400000005,31.302198323567715L467.40002742857143,281.58277419026695L470.5738422857143,31.323613199869808L471.5656594285714,31.568166178385408L473.7476571428571,82.63126375325521L474.34274742857144,278.96062536621093L475.532928,31.40964086914063L475.7312914285714,169.92712015787762L476.5247451428571,121.79758451334635L477.5165622857143,189.34571887207034L478.70674285714284,239.03366998291014L478.9051062857143,197.29108284505207L481.087104,181.9499471435547L481.88055771428577,297.14548329671226L482.07892114285715,177.43154630533857L482.87237485714286,155.45807307942707L483.2691017142857,250.85015635172525L485.0543725714286,234.87943709309897L485.8478262857143,94.0889589029948L486.0461897142857,300.6611969807943L486.44291657142855,31.207794921874985L486.64128,43.5902568359375L487.0380068571429,31.210985677083343L489.22000457142855,31.200769124348977L489.6167314285715,31.16017903645833L491.20363885714283,161.62781245930992L491.4020022857143,178.58262658691407L491.9970925714286,126.81136543782553L498.93981257142855,131.76015006510414L503.10544457142856,31.043102864583336L504.692352,36.945018229166664L507.0727131428572,297.09229892985024L507.66780342857146,152.5374122314453L509.45307428571425,31.015551920572914L511.43670857142854,31.036782714843763L513.0236160000001,31.34220548502604L513.6187062857143,31.011011230468743L514.2137965714286,290.37009869384764L515.4039771428571,31.02006193033854L516.3957942857143,30.998524332682294L516.5941577142856,270.2332655843099L517.3876114285714,32.25954760742187L517.5859748571429,31.2654432779948L518.9745188571428,284.1277006022135L520.7597897142857,263.8752256266276L521.35488,33.24874308268228L525.3221485714286,121.41151847330728L527.3057828571428,281.4423426106771L530.8763245714285,135.10717557779947L532.2648685714286,177.5246457926432L533.6534125714286,158.61512593587238L535.24032,32.80970743815104L535.6370468571429,127.96608133951825L536.4305005714285,30.920074707031258L537.6206811428572,30.95087776692709L538.4141348571428,226.99052494303388L540.5961325714286,144.4199162190755L541.1912228571429,264.01748268636067L542.18304,149.53629219563803L544.7617645714286,136.56346386718752L549.5224868571428,159.60531852213543L553.291392,31.086024658203122L554.2832091428571,282.33393625895184L554.4815725714285,30.892738525390634L556.4652068571428,175.11832548014323L557.0602971428572,30.885559326171883L558.0521142857143,30.874729166666647L559.6390217142857,32.830876871744785L561.622656,30.929861735026037L563.6062902857143,287.7010703125L564.9948342857143,92.7084050292969L567.7719222857144,31.061388346354168L570.9457371428572,282.1526154581706L571.7391908571428,227.4382891438802L571.9375542857142,38.643604492187485L572.5326445714286,282.7426980794271L572.731008,31.256545979817705L578.6819108571428,32.14753369140624L579.2770011428571,244.6238194173177L580.0704548571429,293.4485676981608L580.2688182857144,32.083104980468754L581.2606354285714,32.2746730143229L583.8393599999999,250.00262733968097L585.4262674285715,235.50663525390624L586.0213577142857,293.46589058430993L589.9886262857143,252.10041082763672L591.5755337142857,233.63196685791016L592.5673508571429,288.78384849039713L592.9640777142857,282.3587106323242L593.559168,247.58517006429037L593.9558948571429,282.15785412597654L594.1542582857143,287.57495494588215L596.336256,288.6345119425456L596.5346194285714,243.01621569824218L596.7329828571428,236.68782061767578L597.1297097142857,31.07295483398439L597.5264365714286,31.210280029296865L598.5182537142857,250.78033557128907L598.9149805714286,292.90232344563805L600.501888,275.8604615275065L605.8577005714286,280.55789748128257L606.056064,31.091577799479168L608.2380617142858,32.01701953125002L608.4364251428572,31.76860083007814L610.4200594285714,31.38040250651041L610.6184228571428,281.29362733968094L611.2135131428571,32.58856355794273L612.6020571428571,298.36361545817056L613.9906011428571,298.23723163859046L616.5693257142857,273.2051625976562L618.1562331428572,229.1343596191406L618.3545965714286,251.51652563476563L619.7431405714285,305.61310333251953L620.3382308571429,245.28861633300784L620.5365942857143,242.30963216145835L620.7349577142858,268.9896764119466L621.330048,33.16461759440105L625.0989531428571,32.25945556640623L626.6858605714285,30.909704752604156L626.884224,206.74719270833336L627.4793142857143,135.005592976888L628.8678582857143,210.80167614746094L629.4629485714286,247.6266728922526L629.8596754285714,231.10297888183592L630.4547657142857,303.50019443766274L631.2482194285715,248.0476991780599L633.0334902857143,244.8740099080404L634.2236708571429,31.549972737630217L635.2154879999999,31.903471598307284L636.0089417142857,260.50410837809244L636.4056685714286,255.53151580810547L638.3893028571429,215.15997163899743L638.5876662857142,273.68045473225914L639.38112,30.95505029296877L640.3729371428572,216.65999475097655L640.5713005714287,31.386845377604175L640.769664,290.4826188354492L641.3647542857143,122.97811791992189L643.1500251428572,240.71509059651692L643.3483885714286,32.03831168619792L643.546752,31.189908284505194L644.5385691428571,31.273849690755217L645.5303862857144,30.953240152994777L646.1254765714286,31.35552075195311L646.7205668571429,30.753633870442712L647.1172937142857,304.5792104390462L647.5140205714285,258.49197672526043L648.1091108571429,30.7081349283854L649.4976548571428,68.29115079752604L651.878016,31.84085302734375L652.2747428571429,272.95583882649737L654.8534674285714,282.0919680989583L655.0518308571428,273.80666597493484L657.2338285714286,31.024756022135406L659.2174628571429,294.44944471232094L660.0109165714285,241.288751566569L661.2010971428572,31.121736572265615L662.5896411428571,30.64398234049481L662.7880045714286,293.62884920247393L664.5732754285714,31.681683430989594L664.7716388571429,303.239718363444L668.5405440000001,30.999690185546864L668.7389074285715,30.54945621744793L670.5241782857142,30.60090714518228L670.9209051428571,30.99481201171875L671.317632,31.106764567057287L672.9045394285714,30.560286376953126L674.4914468571428,30.62041984049478L675.2849005714286,30.58440112304689L675.8799908571428,273.3109867553711L676.2767177142857,296.97801083374026L676.4750811428571,254.70032407633465L677.0701714285714,31.659194742838533L678.260352,30.569950683593753L679.0538057142857,30.640638183593754L679.2521691428572,30.674110432942708L682.0292571428572,30.89755533854165L682.6243474285714,32.04318986002604L683.2194377142857,30.623978759765624L684.6079817142858,270.9266182250976L685.203072,282.1934663289388L685.5997988571428,297.8118295694987L686.7899794285713,30.586456705729184L687.7817965714286,303.32903649902346L688.9719771428571,280.20568719482424L689.368704,30.562219238281266L691.3523382857143,301.49948737589517L691.9474285714285,273.7361088663737L692.5425188571428,30.595047200520842L694.1294262857142,288.42219249471026L695.9146971428571,302.26653418986L697.8983314285715,30.531508219401037L698.8901485714285,30.533072916666647L701.4688731428571,271.9129450887044L705.2377782857143,31.21672290039063L705.8328685714285,280.5386302286784L708.6099565714286,30.52199731445311L708.80832,256.6312525431315L709.9985005714286,30.580811523437497L711.1886811428571,30.57347892252605L712.5772251428572,270.1065711263021L712.7755885714286,30.753173665364578L712.973952,30.5771298828125L713.3706788571429,30.621923177083332L714.1641325714286,303.8347328491211L714.9575862857142,30.617382486979164L715.75104,304.3525977884928L715.9494034285715,298.5591719360351L716.1477668571429,225.52240938313804L717.139584,276.5572196858724L717.5363108571429,30.581241048177084L719.5199451428571,30.66444612630208L720.9084891428571,30.642172200520815L726.4626651428571,31.61685587565103L727.4544822857143,30.7645867513021L729.2397531428571,281.78528743489585L729.8348434285715,285.3132195638021L730.2315702857144,30.63836783854167L731.6201142857142,30.61937670898436L732.6119314285714,305.33965331013997L734.1988388571428,30.608270426432274L734.9922925714286,298.64740091959635L735.190656,264.6382072957357L735.7857462857144,30.593850667317724L736.1824731428571,31.215986572265606L737.5710171428572,78.3235294596354L739.1579245714286,302.03569148763023L739.9513782857143,304.5994326171875L740.3481051428571,33.30255639648436L744.7121005714286,309.7607207743327L745.3071908571429,296.64203811645507L751.2580937142858,302.1422481384277L752.8450011428571,296.13392568969726L759.5893577142856,31.20141341145832L760.5811748571429,281.75862622070315L762.7631725714285,30.513989746093735L764.5484434285714,294.28866439819336L765.5402605714286,30.567342854817724L765.9369874285715,291.31839727783205L766.3337142857143,301.74998850504556L766.9288045714285,298.3026229451497L767.3255314285714,30.4850888671875L768.3173485714285,288.1921628214518L768.515712,309.5087891743978L770.1026194285714,30.56850870768229L770.3009828571429,30.51757934570313L772.2846171428572,313.80413244628903L773.0780708571428,30.73755737304687L775.061705142857,32.006956380208315L775.8551588571429,310.97593446858724L776.6486125714285,30.512701171875015L778.23552,30.515677164713537L779.2273371428572,30.467877197265633L782.2027885714285,285.9706685384115L782.4011519999999,30.437963867187484L783.5913325714287,301.70876947021486L784.9798765714285,299.8472744445801L785.7733302857143,30.42866772460939L787.7569645714286,30.428084798177064L787.9553280000001,30.44192163085937L788.1536914285714,301.70379925537105L788.3520548571429,297.88195715332034L789.5422354285714,30.435141276041662L789.9389622857143,270.34603883870443L790.5340525714287,30.420261311848975L791.1291428571428,271.8121294962565L791.3275062857143,158.38531486002603L791.9225965714285,30.42164192708334L794.1045942857143,30.41630354817709L795.2947748571429,301.93469948323565L796.4849554285714,292.31971915690104L798.2702262857143,310.9765327351888L798.4685897142857,30.461250244140622L799.4604068571429,30.444560139973945L800.0554971428571,289.2612230529785L801.2456777142858,303.56834697469077L802.0391314285714,295.2646980082194L802.8325851428572,30.44517374674478L804.4194925714286,30.45416308593752L805.0145828571428,307.869423634847L806.2047634285714,229.0833305460612L806.4031268571429,309.13827423095705L807.9900342857143,246.02556573486328L808.5851245714287,261.2138673299154L808.7834879999999,30.43511059570311L811.1638491428572,298.57304328409833L813.7425737142858,296.90685162353515L813.9409371428571,30.428176839192705L814.1393005714286,302.0901145731608L814.3376639999999,293.98081788126626L817.1147520000001,30.48757397460938L821.8754742857143,306.5223036600749L822.4705645714286,261.34928267415364L822.8672914285713,255.84462400309243L823.2640182857143,30.603668375651047L823.8591085714286,296.87991045125324L824.6525622857142,274.4433290201823L825.2476525714286,30.672085530598967L825.4460160000001,31.149870442708323L829.0165577142857,30.594832438151048L831.0001920000001,31.047398111979163L832.388736,32.33379402669272L833.1821897142858,304.520350209554L833.3805531428571,30.593574544270833L834.3723702857143,30.647694661458353L834.5707337142857,258.0306211344401L835.165824,307.27376869710287L837.3478217142857,30.595292643229183L837.5461851428571,288.93489546712243L839.9265462857143,31.45004687499999L840.1249097142856,307.12809077962237L840.5216365714286,305.8332117513021L840.72,300.39817443847653L841.3150902857143,295.1406458943685L841.5134537142857,30.709239420572917L841.7118171428572,210.6323360188802L843.1003611428572,30.667728922526038L843.4970880000001,256.52479176839194L846.8692662857143,300.4777017110189L847.0676297142857,290.7336645406087L847.2659931428572,269.81186346435544L847.4643565714285,166.1088753255208L848.2578102857143,269.92175276692706L848.8529005714286,312.9823058878581L851.828352,308.8690044047038L852.2250788571428,218.90752897135414L853.4152594285715,272.5515026448568L854.60544,310.32977202351884L855.3988937142857,31.046385660807292L858.5727085714286,165.8833594970703L860.3579794285714,30.67088899739585L860.7547062857144,286.83410530598957L861.1514331428572,302.6977962036133L862.1432502857142,281.69781778971355L862.7383405714286,262.44509232584636L864.5236114285715,271.09841278076175L865.1187017142856,272.8848291829427L865.713792,256.25883158365883L871.0696045714286,31.24366023763022L872.2597851428571,30.65775781250002L872.8548754285714,31.04135408528644L873.6483291428572,303.6600926920573L874.8385097142857,33.833418294270814L875.4336,278.690285563151L875.830326857143,300.1957148844401L876.822144,30.627353597005225L877.2188708571429,30.66054972330729L877.8139611428571,261.4727633666992L881.1861394285714,31.05632609049481L881.9795931428571,304.43879803466797L883.5665005714286,299.75089983113605L883.764864,309.68240921020504L885.5501348571429,295.907362894694L886.7403154285714,217.76241601562498L886.9386788571429,291.3268458760579L887.1370422857143,30.793641031901036L887.7321325714286,305.2880489807129L888.9223131428571,30.98855322265623L889.9141302857144,307.92671149698896L890.5092205714285,310.12772281901044L892.096128,285.1640901082357L892.8895817142858,32.20828076171877L893.2863085714285,310.16534458414714L895.0715794285715,31.44682543945313L896.0633965714286,30.704852132161445L897.2535771428571,305.3010727844238L898.4437577142858,30.921976888020854L899.8323017142858,296.69774977620443L903.4028434285714,31.76832470703125L903.6012068571429,30.777533854166684L906.5766582857143,30.654597737630212L906.7750217142858,295.5272181599935L907.1717485714286,297.356130666097L907.9652022857143,31.228197347005207L908.758656,299.6109936523438L912.1308342857143,30.663464355468758L913.3210148571428,32.058683430989596L914.5111954285715,212.45767810058592L915.1062857142857,30.639042805989597L918.6768274285714,30.843649983723967L919.4702811428571,301.20386313883466L920.8588251428572,31.06485522460937L921.4539154285715,30.710159830729186L923.6359131428572,30.701692057291677L925.6195474285714,272.65952811686196L925.8179108571428,281.06940775553386L926.4130011428572,30.741423095703112L928.5949988571429,30.95385375976561L931.5704502857143,312.55960368855796L931.7688137142858,30.7345506998698L934.3475382857143,293.8360258585612L935.5377188571429,181.54840287272134L935.9344457142857,282.59011708577475L936.132809142857,31.447132242838524L937.3229897142858,307.22471467081704L939.3066239999999,273.08899149576825L939.9017142857143,30.711018880208318L940.2984411428572,303.1050776977539L940.4968045714285,30.730224772135422L940.695168,32.961391031901044L941.4886217142857,264.94648333740236L943.4722559999999,30.827788248697917L943.6706194285714,315.4164455973308L946.0509805714285,30.800267985026046L946.249344,271.15981947835286L949.6215222857143,30.745227457682297L951.8035199999999,30.871783854166672L953.5887908571428,30.6744785970052L954.5806080000001,31.36871329752604L955.5724251428571,257.61934352620443L956.7626057142858,30.897309895833352L958.5478765714286,314.71772006225586L960.1347840000001,30.76145735677084L961.9200548571429,268.95641892496747L964.1020525714287,306.8279450276693L965.0938697142857,30.682332763671877L965.6889600000001,30.629194417317724L965.8873234285713,109.67115002441406L967.2758674285714,30.815178629557277L968.8627748571428,30.59400406901042L970.4496822857143,30.64186539713542L971.243136,30.590598551432272L971.8382262857143,30.657911214192715L972.4333165714286,30.59946516927082L972.6316800000001,31.173617024739595L974.2185874285714,30.92329614257812L974.6153142857142,30.64030069986981L976.797312,30.594218831380214L978.3842194285713,139.3548837890625L980.5662171428571,30.976649251302067L981.3596708571428,30.594065429687518L982.9465782857143,30.96140112304689L987.5089371428571,30.55553092447916L988.6991177142856,30.820547688802073L989.4925714285715,30.53040372721352L992.468022857143,284.1120996500651L993.6582034285715,31.372425618489583L994.2532937142857,294.6186391092936L994.6500205714286,30.52423697916665L996.0385645714285,30.51395906575523L996.6336548571428,30.569152994791672L997.4271085714286,30.521751871744808L998.2205622857142,30.57605607096353L998.4189257142857,30.537306803385423L998.6172891428571,30.53749088541667L999.014016,30.57749804687499L1001.5927405714285,30.75507584635417L1001.9894674285715,31.384237548828146L1002.3861942857143,31.117441324869787L1003.179648,30.463152425130218L1003.7747382857142,30.7204991048177L1003.9731017142857,258.30459655761723L1004.3698285714286,30.803949625651043L1005.956736,30.49509065755207L1007.9403702857143,30.528440185546874L1010.7174582857142,30.474350748697905L1011.3125485714286,30.482143554687486L1011.907638857143,30.47220312500001L1014.6847268571429,31.816768961588533L1015.2798171428572,30.645424316406267L1018.2552685714286,30.608239746093766L1019.2470857142858,30.900776774088555L1019.4454491428571,30.540927083333322L1020.2389028571429,30.38691178385417L1021.0323565714285,30.580811523437497L1021.23072,168.10420182291665L1021.4290834285714,43.56730794270835L1021.8258102857144,30.5364170735677L1022.8176274285714,30.514296549479173L1023.0159908571429,30.53430013020831L1023.2143542857142,30.79149340820314L1024.9996251428572,30.52497330729167L1026.5865325714285,30.504018636067713L1027.3799862857143,30.49143969726562L1027.7767131428573,30.410412923177105L1028.9668937142858,30.52837882486978L1030.553801142857,30.69675252278647L1030.7521645714287,30.426489420572906L1031.9423451428572,30.408295979817716L1032.5374354285714,30.367061604817728L1034.124342857143,30.405227945963553L1035.3145234285714,30.67266845703125L1035.9096137142858,30.598176595052102L1036.1079771428572,30.45428580729167L1036.7030674285713,30.44824178059894L1037.2981577142857,254.63344093831378L1037.8932479999999,30.673404785156233L1040.2736091428571,30.47846191406249L1041.067062857143,31.205862060546885L1042.4556068571428,30.664783610026024L1043.6457874285713,30.668281168619778L1044.439241142857,30.40160766601561L1044.6376045714287,30.515155598958348L1045.2326948571429,30.52902311197916L1045.4310582857142,30.628089925130208L1046.8196022857142,74.71993961588544L1047.2163291428571,200.15951041666665L1047.6130560000001,31.652690511067714L1048.8032365714287,30.53086393229166L1049.9934171428572,30.62446964518231L1050.5885074285716,31.356533203124986L1051.1835977142857,30.647234456380218L1051.5803245714285,30.558169433593736L1051.9770514285715,30.801986083984392L1055.1508662857143,30.537674967447913L1055.547593142857,30.517487304687485L1055.94432,30.590445149739573L1056.1426834285714,30.499600667317694L1056.3410468571428,30.46775447591144L1057.7295908571427,30.522672281901038L1057.9279542857143,30.654045491536472L1061.498496,31.190890055338556L1062.0935862857143,30.584125L1065.4657645714285,30.343959309895837L1068.0444891428572,31.25743570963543L1070.6232137142856,30.538656738281237L1071.0199405714286,30.49171582031251L1073.995392,30.529452636718748L1074.7888457142858,30.71838216145831L1075.5822994285716,30.904887939453136L1076.9708434285715,30.721726318359366L1077.7642971428572,30.57074837239583L1078.7561142857141,30.76108919270835L1084.5086537142856,30.562894205729155L1084.9053805714286,30.582744384765636L1086.8890148571427,30.444836263020836L1087.0873782857143,30.840336507161464L1091.649737142857,30.543872395833336L1093.435008,30.6743865559896L1098.1957302857143,30.724456868489586L1100.5760914285715,30.701477294921883L1100.9728182857143,30.662083740234394L1101.9646354285715,30.772195475260435L1103.9482697142857,30.9860987955729L1104.54336,30.7118165690104L1104.7417234285715,30.811282226562486L1106.3286308571428,32.74064599609373L1106.7253577142856,31.152539632161446L1107.717174857143,31.059118001302082L1108.9073554285715,30.998800455729185L1109.3040822857142,30.99441316731771L1113.0729874285714,30.901267659505194L1115.0566217142857,31.099247884114597L1115.8500754285715,31.13391666666667L1116.643529142857,30.996836914062495L1118.0320731428571,30.880098225911443L1118.825526857143,30.883595784505193L1119.0238902857143,30.85220979817708L1119.420617142857,30.957320638020814L1119.6189805714284,30.830702880859384L1121.9993417142857,30.84469311523439L1123.7846125714286,31.412156656901058L1125.9666102857143,30.98858390299478L1127.9502445714286,31.956119059244795L1128.148608,31.025584391276034L1128.545334857143,31.06034521484375L1129.5371519999999,31.182974527994787L1129.9338788571429,31.013833821614565L1130.925696,30.881356119791658L1132.1158765714285,33.002103841145846L1133.5044205714285,31.89353116861981L1134.2978742857142,231.8528600463867L1136.0831451428571,148.05351143391928L1139.0585965714286,31.205371175130203L1139.25696,30.746025146484378L1140.0504137142857,31.428417236328105L1140.8438674285715,32.378618001302065L1141.4389577142858,110.04475984700522L1143.819318857143,32.007324544270844L1145.6045897142858,222.64109606933596L1146.596406857143,31.47400821940106L1146.9931337142857,145.37160498046876L1147.3898605714285,120.0591444905599L1147.7865874285715,75.09353409830729L1149.1751314285714,70.74683577473958L1151.9522194285714,32.25558984374999L1152.1505828571428,31.573627278645848L1152.7456731428572,31.819315429687506L1153.1424,114.67488313802083L1153.9358537142857,31.89337776692707L1154.134217142857,30.829690429687513L1155.1260342857142,155.9369931640625L1155.5227611428572,31.663796793619802L1155.919488,30.993523437499988L1156.9113051428571,31.279464192708314L1160.6802102857143,116.12060205078124L1161.8703908571429,101.48902587890626L1162.2671177142856,77.72013924153644L1162.862208,245.18133485921226L1164.647478857143,117.71390873209636L1166.8294765714286,250.42717419433595L1167.2262034285714,57.131668538411475L1168.6147474285715,117.96749707031252L1168.8131108571429,31.258386800130204L1169.6065645714284,146.77211641438802L1171.590198857143,31.79289965820311L1171.9869257142857,222.29979264322915L1172.9787428571428,31.291030680338533L1173.7721965714286,31.23332096354166L1175.1607405714285,31.408260253906267L1177.1443748571428,109.17962032063804L1177.5411017142858,31.683861735026035L1177.7394651428572,31.753598144531264L1178.532918857143,31.959217773437505L1178.9296457142857,32.23678279622396L1179.3263725714287,32.26080550130209L1179.5247359999998,31.806859212239566L1179.9214628571428,31.99514444986979L1182.1034605714285,31.71214900716144L1187.2609097142856,31.544020751953134L1187.6576365714286,31.82348795572919L1188.8478171428571,31.553593017578116L1189.4429074285713,31.039482584635433L1189.641270857143,31.698803059895816L1189.8396342857143,31.676375732421892L1190.0379977142857,32.005361002604154L1191.4265417142858,115.10302726236979L1192.2199954285713,31.37236425781249L1192.6167222857143,31.358281982421882L1193.2118125714287,31.183526774088524L1196.9807177142857,31.284495768229167L1198.3692617142858,31.589489013671855L1198.7659885714286,169.62772607421877L1199.3610788571427,148.96869059244793L1201.3447131428572,31.812688476562496L1203.7250742857143,31.861470214843767L1208.68416,31.682358398437483L1209.4776137142858,31.22580428059897L1215.8252434285714,31.04120068359374L1216.4203337142858,30.87936189778646L1218.403968,31.19165706380209L1221.1810560000001,31.17150008138021L1222.172873142857,30.940139648437494L1222.5696,31.012054361979164L1225.1483245714285,31.046845865885427L1228.3221394285715,30.955633219401054L1228.9172297142857,30.983644368489568L1229.51232,30.966003173828117L1230.3057737142856,31.63621516927083L1230.900864,31.113391520182297L1232.289408,31.0477049153646L1233.677952,31.15134309895833L1234.2730422857142,31.00119352213542L1235.6615862857143,31.252618896484368L1236.2566765714287,31.220834065755213L1237.6452205714286,30.866690917968768L1238.0419474285713,30.834353841145834L1238.6370377142857,30.78330175781252L1238.835401142857,30.827941650390617L1239.0337645714285,30.76704117838543L1239.232128,30.746331949869774L1240.620672,30.708472412109387L1242.009216,30.70905533854167L1243.7944868571428,30.72270808919269L1244.3895771428572,30.592930257161452L1244.5879405714286,30.61054077148436L1245.3813942857141,30.593052978515644L1247.166665142857,30.680430582682284L1249.348662857143,31.818671142578125L1251.729024,30.973458496093752L1253.9110217142859,30.68555419921874L1257.2832,30.749461344401034L1259.2668342857144,30.60222639973959L1260.6553782857143,30.598759521484386L1261.2504685714287,30.685707600911478L1263.234102857143,30.683836100260432L1263.4324662857143,30.615541666666665L1263.829193142857,30.77679752604166L1265.0193737142858,30.75305094401043L1266.4079177142858,30.411517415364578L1270.3751862857143,30.33165649414063L1271.5653668571429,30.35798022460939L1274.1440914285715,30.345278564453146L1274.342454857143,30.329784993489586L1276.9211794285713,30.560409098307275L1277.9129965714285,48.13370817057291L1278.5080868571429,30.56163631184894L1280.0949942857144,30.342026448567694L1281.0868114285715,30.34828523763021L1281.285174857143,30.321317220052077L1283.4671725714286,30.77409765624999L1285.2524434285715,30.404123453776037L1286.6409874285714,30.360496012369772L1287.0377142857144,30.351475992838527" style="fill: none;" fill="none"></path></g></g></g></g></g></g><g transform="translate(70, 377)" clip-path="url(#clip_1)"><clipPath id="clip_1"><rect width="1356" height="23"></rect></clipPath><g><g><line x1="0" y1="0" x2="0" y2="5" style="visibility: inherit;" fill="rgb(0, 0, 0)" stroke="rgb(204, 204, 204)" stroke-width="1px"></line><line x1="96.85714285714285" y1="0" x2="96.85714285714285" y2="5" style="visibility: inherit;" fill="rgb(0, 0, 0)" stroke="rgb(204, 204, 204)" stroke-width="1px"></line><line x1="193.7142857142857" y1="0" x2="193.7142857142857" y2="5" style="visibility: inherit;" fill="rgb(0, 0, 0)" stroke="rgb(204, 204, 204)" stroke-width="1px"></line><line x1="290.57142857142856" y1="0" x2="290.57142857142856" y2="5" style="visibility: inherit;" fill="rgb(0, 0, 0)" stroke="rgb(204, 204, 204)" stroke-width="1px"></line><line x1="387.4285714285714" y1="0" x2="387.4285714285714" y2="5" style="visibility: inherit;" fill="rgb(0, 0, 0)" stroke="rgb(204, 204, 204)" stroke-width="1px"></line><line x1="484.2857142857143" y1="0" x2="484.2857142857143" y2="5" style="visibility: inherit;" fill="rgb(0, 0, 0)" stroke="rgb(204, 204, 204)" stroke-width="1px"></line><line x1="581.1428571428571" y1="0" x2="581.1428571428571" y2="5" style="visibility: inherit;" fill="rgb(0, 0, 0)" stroke="rgb(204, 204, 204)" stroke-width="1px"></line><line x1="678" y1="0" x2="678" y2="5" style="visibility: inherit;" fill="rgb(0, 0, 0)" stroke="rgb(204, 204, 204)" stroke-width="1px"></line><line x1="774.8571428571428" y1="0" x2="774.8571428571428" y2="5" style="visibility: inherit;" fill="rgb(0, 0, 0)" stroke="rgb(204, 204, 204)" stroke-width="1px"></line><line x1="871.7142857142858" y1="0" x2="871.7142857142858" y2="5" style="visibility: inherit;" fill="rgb(0, 0, 0)" stroke="rgb(204, 204, 204)" stroke-width="1px"></line><line x1="968.5714285714286" y1="0" x2="968.5714285714286" y2="5" style="visibility: inherit;" fill="rgb(0, 0, 0)" stroke="rgb(204, 204, 204)" stroke-width="1px"></line><line x1="1065.4285714285713" y1="0" x2="1065.4285714285713" y2="5" style="visibility: inherit;" fill="rgb(0, 0, 0)" stroke="rgb(204, 204, 204)" stroke-width="1px"></line><line x1="1162.2857142857142" y1="0" x2="1162.2857142857142" y2="5" style="visibility: inherit;" fill="rgb(0, 0, 0)" stroke="rgb(204, 204, 204)" stroke-width="1px"></line><line x1="1259.142857142857" y1="0" x2="1259.142857142857" y2="5" style="visibility: inherit;" fill="rgb(0, 0, 0)" stroke="rgb(204, 204, 204)" stroke-width="1px"></line><line x1="1356" y1="0" x2="1356" y2="5" style="visibility: inherit;" fill="rgb(0, 0, 0)" stroke="rgb(204, 204, 204)" stroke-width="1px"></line></g><g transform="translate(0, 8)"><text x="0" y="0" dx="0em" dy="0.95em" style="text-anchor: middle; visibility: hidden; font-family: Roboto, sans-serif; font-size: 12px; font-weight: 200;" fill="rgb(33, 33, 33)" stroke="none" stroke-width="1px">-10M</text><text x="96.85714285714285" y="0" dx="0em" dy="0.95em" style="text-anchor: middle; visibility: inherit; font-family: Roboto, sans-serif; font-size: 12px; font-weight: 200;" fill="rgb(33, 33, 33)" stroke="none" stroke-width="1px">0</text><text x="193.7142857142857" y="0" dx="0em" dy="0.95em" style="text-anchor: middle; visibility: inherit; font-family: Roboto, sans-serif; font-size: 12px; font-weight: 200;" fill="rgb(33, 33, 33)" stroke="none" stroke-width="1px">10M</text><text x="290.57142857142856" y="0" dx="0em" dy="0.95em" style="text-anchor: middle; visibility: inherit; font-family: Roboto, sans-serif; font-size: 12px; font-weight: 200;" fill="rgb(33, 33, 33)" stroke="none" stroke-width="1px">20M</text><text x="387.4285714285714" y="0" dx="0em" dy="0.95em" style="text-anchor: middle; visibility: inherit; font-family: Roboto, sans-serif; font-size: 12px; font-weight: 200;" fill="rgb(33, 33, 33)" stroke="none" stroke-width="1px">30M</text><text x="484.2857142857143" y="0" dx="0em" dy="0.95em" style="text-anchor: middle; visibility: inherit; font-family: Roboto, sans-serif; font-size: 12px; font-weight: 200;" fill="rgb(33, 33, 33)" stroke="none" stroke-width="1px">40M</text><text x="581.1428571428571" y="0" dx="0em" dy="0.95em" style="text-anchor: middle; visibility: inherit; font-family: Roboto, sans-serif; font-size: 12px; font-weight: 200;" fill="rgb(33, 33, 33)" stroke="none" stroke-width="1px">50M</text><text x="678" y="0" dx="0em" dy="0.95em" style="text-anchor: middle; visibility: inherit; font-family: Roboto, sans-serif; font-size: 12px; font-weight: 200;" fill="rgb(33, 33, 33)" stroke="none" stroke-width="1px">60M</text><text x="774.8571428571428" y="0" dx="0em" dy="0.95em" style="text-anchor: middle; visibility: inherit; font-family: Roboto, sans-serif; font-size: 12px; font-weight: 200;" fill="rgb(33, 33, 33)" stroke="none" stroke-width="1px">70M</text><text x="871.7142857142858" y="0" dx="0em" dy="0.95em" style="text-anchor: middle; visibility: inherit; font-family: Roboto, sans-serif; font-size: 12px; font-weight: 200;" fill="rgb(33, 33, 33)" stroke="none" stroke-width="1px">80M</text><text x="968.5714285714286" y="0" dx="0em" dy="0.95em" style="text-anchor: middle; visibility: inherit; font-family: Roboto, sans-serif; font-size: 12px; font-weight: 200;" fill="rgb(33, 33, 33)" stroke="none" stroke-width="1px">90M</text><text x="1065.4285714285713" y="0" dx="0em" dy="0.95em" style="text-anchor: middle; visibility: inherit; font-family: Roboto, sans-serif; font-size: 12px; font-weight: 200;" fill="rgb(33, 33, 33)" stroke="none" stroke-width="1px">100M</text><text x="1162.2857142857142" y="0" dx="0em" dy="0.95em" style="text-anchor: middle; visibility: inherit; font-family: Roboto, sans-serif; font-size: 12px; font-weight: 200;" fill="rgb(33, 33, 33)" stroke="none" stroke-width="1px">110M</text><text x="1259.142857142857" y="0" dx="0em" dy="0.95em" style="text-anchor: middle; visibility: inherit; font-family: Roboto, sans-serif; font-size: 12px; font-weight: 200;" fill="rgb(33, 33, 33)" stroke="none" stroke-width="1px">120M</text><text x="1356" y="0" dx="0em" dy="0.95em" style="text-anchor: middle; visibility: hidden; font-family: Roboto, sans-serif; font-size: 12px; font-weight: 200;" fill="rgb(33, 33, 33)" stroke="none" stroke-width="1px">130M</text></g><line x1="0" y1="0" x2="1356" y2="0" fill="rgb(0, 0, 0)" stroke="rgb(204, 204, 204)" stroke-width="1px"></line></g></g></g></g></svg>