<svg viewBox="0 0 330 200" xmlns="http://www.w3.org/2000/svg"><g><g><g><g><g><line x1="72.34375" y1="177" x2="67.34375" y2="177" style="visibility: inherit;" fill="rgb(0, 0, 0)" stroke="rgb(204, 204, 204)" stroke-width="1px"></line><line x1="72.34375" y1="165.2" x2="67.34375" y2="165.2" style="visibility: inherit;" fill="rgb(0, 0, 0)" stroke="rgb(204, 204, 204)" stroke-width="1px"></line><line x1="72.34375" y1="153.4" x2="67.34375" y2="153.4" style="visibility: inherit;" fill="rgb(0, 0, 0)" stroke="rgb(204, 204, 204)" stroke-width="1px"></line><line x1="72.34375" y1="141.6" x2="67.34375" y2="141.6" style="visibility: inherit;" fill="rgb(0, 0, 0)" stroke="rgb(204, 204, 204)" stroke-width="1px"></line><line x1="72.34375" y1="129.8" x2="67.34375" y2="129.8" style="visibility: inherit;" fill="rgb(0, 0, 0)" stroke="rgb(204, 204, 204)" stroke-width="1px"></line><line x1="72.34375" y1="118.00000000000001" x2="67.34375" y2="118.00000000000001" style="visibility: inherit;" fill="rgb(0, 0, 0)" stroke="rgb(204, 204, 204)" stroke-width="1px"></line><line x1="72.34375" y1="106.2" x2="67.34375" y2="106.2" style="visibility: inherit;" fill="rgb(0, 0, 0)" stroke="rgb(204, 204, 204)" stroke-width="1px"></line><line x1="72.34375" y1="94.4" x2="67.34375" y2="94.4" style="visibility: inherit;" fill="rgb(0, 0, 0)" stroke="rgb(204, 204, 204)" stroke-width="1px"></line><line x1="72.34375" y1="82.6" x2="67.34375" y2="82.6" style="visibility: inherit;" fill="rgb(0, 0, 0)" stroke="rgb(204, 204, 204)" stroke-width="1px"></line><line x1="72.34375" y1="70.8" x2="67.34375" y2="70.8" style="visibility: inherit;" fill="rgb(0, 0, 0)" stroke="rgb(204, 204, 204)" stroke-width="1px"></line><line x1="72.34375" y1="59.00000000000001" x2="67.34375" y2="59.00000000000001" style="visibility: inherit;" fill="rgb(0, 0, 0)" stroke="rgb(204, 204, 204)" stroke-width="1px"></line><line x1="72.34375" y1="47.20000000000001" x2="67.34375" y2="47.20000000000001" style="visibility: inherit;" fill="rgb(0, 0, 0)" stroke="rgb(204, 204, 204)" stroke-width="1px"></line><line x1="72.34375" y1="35.39999999999999" x2="67.34375" y2="35.39999999999999" style="visibility: inherit;" fill="rgb(0, 0, 0)" stroke="rgb(204, 204, 204)" stroke-width="1px"></line><line x1="72.34375" y1="23.599999999999994" x2="67.34375" y2="23.599999999999994" style="visibility: inherit;" fill="rgb(0, 0, 0)" stroke="rgb(204, 204, 204)" stroke-width="1px"></line><line x1="72.34375" y1="11.799999999999997" x2="67.34375" y2="11.799999999999997" style="visibility: inherit;" fill="rgb(0, 0, 0)" stroke="rgb(204, 204, 204)" stroke-width="1px"></line><line x1="72.34375" y1="0" x2="67.34375" y2="0" style="visibility: inherit;" fill="rgb(0, 0, 0)" stroke="rgb(204, 204, 204)" stroke-width="1px"></line></g><g transform="translate(62.34375, 0)"><text x="0" y="177" dx="0em" dy="0.3em" style="text-anchor: end; visibility: hidden; font-family: Roboto, sans-serif; font-size: 12px; font-weight: 200;" fill="rgb(33, 33, 33)" stroke="none" stroke-width="1px">-200</text><text x="0" y="165.2" dx="0em" dy="0.3em" style="text-anchor: end; visibility: inherit; font-family: Roboto, sans-serif; font-size: 12px; font-weight: 200;" fill="rgb(33, 33, 33)" stroke="none" stroke-width="1px">0</text><text x="0" y="153.4" dx="0em" dy="0.3em" style="text-anchor: end; visibility: hidden; font-family: Roboto, sans-serif; font-size: 12px; font-weight: 200;" fill="rgb(33, 33, 33)" stroke="none" stroke-width="1px">200</text><text x="0" y="141.6" dx="0em" dy="0.3em" style="text-anchor: end; visibility: inherit; font-family: Roboto, sans-serif; font-size: 12px; font-weight: 200;" fill="rgb(33, 33, 33)" stroke="none" stroke-width="1px">400</text><text x="0" y="129.8" dx="0em" dy="0.3em" style="text-anchor: end; visibility: hidden; font-family: Roboto, sans-serif; font-size: 12px; font-weight: 200;" fill="rgb(33, 33, 33)" stroke="none" stroke-width="1px">600</text><text x="0" y="118.00000000000001" dx="0em" dy="0.3em" style="text-anchor: end; visibility: inherit; font-family: Roboto, sans-serif; font-size: 12px; font-weight: 200;" fill="rgb(33, 33, 33)" stroke="none" stroke-width="1px">800</text><text x="0" y="106.2" dx="0em" dy="0.3em" style="text-anchor: end; visibility: hidden; font-family: Roboto, sans-serif; font-size: 12px; font-weight: 200;" fill="rgb(33, 33, 33)" stroke="none" stroke-width="1px">1e+3</text><text x="0" y="94.4" dx="0em" dy="0.3em" style="text-anchor: end; visibility: inherit; font-family: Roboto, sans-serif; font-size: 12px; font-weight: 200;" fill="rgb(33, 33, 33)" stroke="none" stroke-width="1px">1.2e+3</text><text x="0" y="82.6" dx="0em" dy="0.3em" style="text-anchor: end; visibility: hidden; font-family: Roboto, sans-serif; font-size: 12px; font-weight: 200;" fill="rgb(33, 33, 33)" stroke="none" stroke-width="1px">1.4e+3</text><text x="0" y="70.8" dx="0em" dy="0.3em" style="text-anchor: end; visibility: inherit; font-family: Roboto, sans-serif; font-size: 12px; font-weight: 200;" fill="rgb(33, 33, 33)" stroke="none" stroke-width="1px">1.6e+3</text><text x="0" y="59.00000000000001" dx="0em" dy="0.3em" style="text-anchor: end; visibility: hidden; font-family: Roboto, sans-serif; font-size: 12px; font-weight: 200;" fill="rgb(33, 33, 33)" stroke="none" stroke-width="1px">1.8e+3</text><text x="0" y="47.20000000000001" dx="0em" dy="0.3em" style="text-anchor: end; visibility: inherit; font-family: Roboto, sans-serif; font-size: 12px; font-weight: 200;" fill="rgb(33, 33, 33)" stroke="none" stroke-width="1px">2e+3</text><text x="0" y="35.39999999999999" dx="0em" dy="0.3em" style="text-anchor: end; visibility: hidden; font-family: Roboto, sans-serif; font-size: 12px; font-weight: 200;" fill="rgb(33, 33, 33)" stroke="none" stroke-width="1px">2.2e+3</text><text x="0" y="23.599999999999994" dx="0em" dy="0.3em" style="text-anchor: end; visibility: inherit; font-family: Roboto, sans-serif; font-size: 12px; font-weight: 200;" fill="rgb(33, 33, 33)" stroke="none" stroke-width="1px">2.4e+3</text><text x="0" y="11.799999999999997" dx="0em" dy="0.3em" style="text-anchor: end; visibility: hidden; font-family: Roboto, sans-serif; font-size: 12px; font-weight: 200;" fill="rgb(33, 33, 33)" stroke="none" stroke-width="1px">2.6e+3</text><text x="0" y="0" dx="0em" dy="0.3em" style="text-anchor: end; visibility: hidden; font-family: Roboto, sans-serif; font-size: 12px; font-weight: 200;" fill="rgb(33, 33, 33)" stroke="none" stroke-width="1px">2.8e+3</text></g><line x1="72.34375" y1="0" x2="72.34375" y2="177" fill="rgb(0, 0, 0)" stroke="rgb(204, 204, 204)" stroke-width="1px"></line></g></g><g transform="translate(72, 0)" clip-path="url(#clip_0)"><clipPath id="clip_0"><rect width="257" height="177"></rect></clipPath><g><g><g><line x1="0" y1="0" x2="0" y2="177" fill="rgb(0, 0, 0)" stroke="rgb(66, 66, 66)" stroke-width="1px" opacity="0.25"></line><line x1="18.404017857142858" y1="0" x2="18.404017857142858" y2="177" fill="rgb(0, 0, 0)" stroke="rgb(66, 66, 66)" stroke-width="1px" opacity="0.25"></line><line x1="36.808035714285715" y1="0" x2="36.808035714285715" y2="177" fill="rgb(0, 0, 0)" stroke="rgb(66, 66, 66)" stroke-width="1px" opacity="0.25"></line><line x1="55.21205357142857" y1="0" x2="55.21205357142857" y2="177" fill="rgb(0, 0, 0)" stroke="rgb(66, 66, 66)" stroke-width="1px" opacity="0.25"></line><line x1="73.61607142857143" y1="0" x2="73.61607142857143" y2="177" fill="rgb(0, 0, 0)" stroke="rgb(66, 66, 66)" stroke-width="1px" opacity="0.25"></line><line x1="92.02008928571429" y1="0" x2="92.02008928571429" y2="177" fill="rgb(0, 0, 0)" stroke="rgb(66, 66, 66)" stroke-width="1px" opacity="0.25"></line><line x1="110.42410714285714" y1="0" x2="110.42410714285714" y2="177" fill="rgb(0, 0, 0)" stroke="rgb(66, 66, 66)" stroke-width="1px" opacity="0.25"></line><line x1="128.828125" y1="0" x2="128.828125" y2="177" fill="rgb(0, 0, 0)" stroke="rgb(66, 66, 66)" stroke-width="1px" opacity="0.25"></line><line x1="147.23214285714286" y1="0" x2="147.23214285714286" y2="177" fill="rgb(0, 0, 0)" stroke="rgb(66, 66, 66)" stroke-width="1px" opacity="0.25"></line><line x1="165.63616071428572" y1="0" x2="165.63616071428572" y2="177" fill="rgb(0, 0, 0)" stroke="rgb(66, 66, 66)" stroke-width="1px" opacity="0.25"></line><line x1="184.04017857142858" y1="0" x2="184.04017857142858" y2="177" fill="rgb(0, 0, 0)" stroke="rgb(66, 66, 66)" stroke-width="1px" opacity="0.25"></line><line x1="202.44419642857142" y1="0" x2="202.44419642857142" y2="177" fill="rgb(0, 0, 0)" stroke="rgb(66, 66, 66)" stroke-width="1px" opacity="0.25"></line><line x1="220.84821428571428" y1="0" x2="220.84821428571428" y2="177" fill="rgb(0, 0, 0)" stroke="rgb(66, 66, 66)" stroke-width="1px" opacity="0.25"></line><line x1="239.25223214285714" y1="0" x2="239.25223214285714" y2="177" fill="rgb(0, 0, 0)" stroke="rgb(66, 66, 66)" stroke-width="1px" opacity="0.25"></line><line x1="257.65625" y1="0" x2="257.65625" y2="177" fill="rgb(0, 0, 0)" stroke="rgb(66, 66, 66)" stroke-width="1px" opacity="0.25"></line></g><g><line x1="0" y1="177" x2="257.65625" y2="177" fill="rgb(0, 0, 0)" stroke="rgb(66, 66, 66)" stroke-width="1px" opacity="0.25"></line><line x1="0" y1="165.2" x2="257.65625" y2="165.2" fill="rgb(0, 0, 0)" stroke="rgb(66, 66, 66)" stroke-width="1px" opacity="0.25"></line><line x1="0" y1="153.4" x2="257.65625" y2="153.4" fill="rgb(0, 0, 0)" stroke="rgb(66, 66, 66)" stroke-width="1px" opacity="0.25"></line><line x1="0" y1="141.6" x2="257.65625" y2="141.6" fill="rgb(0, 0, 0)" stroke="rgb(66, 66, 66)" stroke-width="1px" opacity="0.25"></line><line x1="0" y1="129.8" x2="257.65625" y2="129.8" fill="rgb(0, 0, 0)" stroke="rgb(66, 66, 66)" stroke-width="1px" opacity="0.25"></line><line x1="0" y1="118.00000000000001" x2="257.65625" y2="118.00000000000001" fill="rgb(0, 0, 0)" stroke="rgb(66, 66, 66)" stroke-width="1px" opacity="0.25"></line><line x1="0" y1="106.2" x2="257.65625" y2="106.2" fill="rgb(0, 0, 0)" stroke="rgb(66, 66, 66)" stroke-width="1px" opacity="0.25"></line><line x1="0" y1="94.4" x2="257.65625" y2="94.4" fill="rgb(0, 0, 0)" stroke="rgb(66, 66, 66)" stroke-width="1px" opacity="0.25"></line><line x1="0" y1="82.6" x2="257.65625" y2="82.6" fill="rgb(0, 0, 0)" stroke="rgb(66, 66, 66)" stroke-width="1px" opacity="0.25"></line><line x1="0" y1="70.8" x2="257.65625" y2="70.8" fill="rgb(0, 0, 0)" stroke="rgb(66, 66, 66)" stroke-width="1px" opacity="0.25"></line><line x1="0" y1="59.00000000000001" x2="257.65625" y2="59.00000000000001" fill="rgb(0, 0, 0)" stroke="rgb(66, 66, 66)" stroke-width="1px" opacity="0.25"></line><line x1="0" y1="47.20000000000001" x2="257.65625" y2="47.20000000000001" fill="rgb(0, 0, 0)" stroke="rgb(66, 66, 66)" stroke-width="1px" opacity="0.25"></line><line x1="0" y1="35.39999999999999" x2="257.65625" y2="35.39999999999999" fill="rgb(0, 0, 0)" stroke="rgb(66, 66, 66)" stroke-width="1px" opacity="0.25"></line><line x1="0" y1="23.599999999999994" x2="257.65625" y2="23.599999999999994" fill="rgb(0, 0, 0)" stroke="rgb(66, 66, 66)" stroke-width="1px" opacity="0.25"></line><line x1="0" y1="11.799999999999997" x2="257.65625" y2="11.799999999999997" fill="rgb(0, 0, 0)" stroke="rgb(66, 66, 66)" stroke-width="1px" opacity="0.25"></line><line x1="0" y1="0" x2="257.65625" y2="0" fill="rgb(0, 0, 0)" stroke="rgb(66, 66, 66)" stroke-width="1px" opacity="0.25"></line></g></g></g><g><g><line x1="0" y1="165.2" x2="257.65625" y2="165.2" fill="rgb(0, 0, 0)" stroke="rgb(153, 153, 153)" stroke-width="1.5px"></line></g></g><g><g><line x1="18.404017857142858" y1="0" x2="18.404017857142858" y2="177" fill="rgb(0, 0, 0)" stroke="rgb(153, 153, 153)" stroke-width="1.5px"></line></g></g><g><g><g><g><g><path stroke="rgb(0, 119, 187)" stroke-width="2px" d="M18.592475,150.627L18.969389285714286,149.23980640320136L19.007080714285713,152.18314662791235L19.120155,151.80829807285642L19.42168642857143,150.6374992009686L19.459377857142858,148.45713902946363L19.949366428571427,129.21420075754432L20.21320642857143,114.78201390800558L20.250897857142856,118.06991108811401L20.288589285714284,115.2299742833554L20.778577857142857,108.23821339282469L20.816269285714284,100.35514962420753L20.967035000000003,103.4784246085962L21.080109285714286,104.5521312470909L21.117800714285714,104.17952552577677L21.343949285714285,106.39100160026422L21.532406428571427,100.92211546768183L21.79624642857143,103.66737533081296L22.173160714285714,105.69125718055331L22.32392642857143,107.18812964971151L22.47469214285714,108.6275699806632L23.002372142857144,109.4944036162766L23.153137857142855,105.30365236273454L23.190829285714283,106.81854435097192L23.266212142857142,103.84855444055574L23.341595,105.1372443781231L23.56774357142857,103.90201405396988L23.869275000000002,100.65346441957058L23.944657857142857,102.21731901192874L23.982349285714285,99.23929400193236L24.095423571428572,100.50273157804124L24.35926357142857,99.23611481659745L24.472337857142858,99.53955291619526L24.547720714285717,99.95568306794014L24.62310357142857,99.91768172143229L24.924635000000002,100.17698288188367L25.11309214285714,99.6576076021757L25.376932142857143,100.10975150815008L25.640772142857145,97.86375948440971L25.678463571428573,98.28380355868748L26.093069285714286,97.76878700183659L26.16845214285714,98.74790855189973L26.46998357142857,99.68988973362767L27.07304642857143,100.45753146259975L27.63841785714286,98.49729503010748L27.676109285714286,99.43588302276424L28.16609785714286,100.16883369238677L28.203789285714286,100.57554154215653L28.656086428571427,101.24558700548859L28.769160714285714,102.21287915928654L29.07069214285714,100.44281468911075L29.183766428571428,98.7408441022971L29.296840714285715,99.4564808252218L29.37222357142857,100.13326646114827L29.560680714285716,100.86036920751557L29.636063571428572,101.34276792314508L30.050669285714285,100.12230488431237L30.201435,98.59754053586505L30.352200714285715,99.15732537089617L30.42758357142857,99.4918674956009L30.465275,98.60066835646747L30.578349285714285,99.147839983714L31.445252142857143,99.54531422341867L31.482943571428574,99.2939912869895L31.93524071428571,97.94186422463493L32.161389285714286,98.33978467259598L32.199080714285714,97.04143819201241L32.23677214285714,97.31972915612286L32.68906928571429,97.79957341713919L32.99060071428571,97.0436382600935L33.14136642857143,97.51015136607083L33.216749285714286,97.81090041864071L33.40520642857143,96.62323618422297L33.59366357142857,95.46768505527982L33.66904642857143,96.0862421774358L34.08365214285715,96.63371945117227L34.309800714285714,95.52140154000116L34.34749214285714,95.63535395921319L34.875172142857146,95.09583831473118L34.91286357142857,95.54854098093794L34.98824642857142,95.86651745022688L35.25208642857143,95.28385980719179L35.478235000000005,95.7806799209037L35.817457857142855,96.1361103828906L35.968223571428574,96.20310542156341L36.08129785714286,96.44887936706327L36.15668071428571,96.97563851750498L36.30744642857143,97.3497079281912L36.34513785714286,97.66411887632414L36.533595,96.69438075336222L36.571286428571426,96.74869481557127L36.797435,96.99908255530809L37.66433785714286,96.06672340509155L37.73972071428572,95.1542158396942L37.777412142857145,95.59163348554156L37.81510357142857,94.70244400165112L37.928177857142856,94.93265275419479L38.00356071428571,94.51948903804731L38.531240714285715,94.97181709930166L38.568932142857136,95.30354585846634L38.644315,94.45929122547537L38.719697857142855,93.63160454931152L38.79508071428571,93.52376491737492L38.94584642857143,93.94398920660518L39.021229285714284,93.14393135210213L39.171995,93.38684853826956L39.24737785714286,93.83617931126541L39.39814357142857,93.30825799944304L39.62429214285714,92.54219704187238L39.699675,92.97103867983591L39.85044071428572,93.07107546122921L40.45350357142857,92.32667237236265L40.679652142857144,91.59545821966674L40.830417857142855,92.03198535986346L40.90580071428571,92.48262666716707L41.546555,92.77149686916982L41.584246428571426,92.05986731718085L41.885777857142855,92.43480874377728L41.92346928571428,91.73745234780667L42.11192642857143,91.86476773354542L42.14961785714286,92.12710167774695L42.45114928571429,92.5176037500795L42.67729785714286,91.84088647459843L42.71498928571429,91.4213629966986L42.903446428571435,90.76414550949751L43.242669285714285,90.11737353043146L43.31805214285714,90.46032392664262L43.58189214285714,90.65262097724703L43.88342357142857,91.0061426306491L43.921115,91.35518551726929L44.22264642857143,91.69360874505482L44.52417785714285,91.06690680526727L44.599560714285715,91.4616001569942L45.20262357142857,91.83158444725035L45.61722928571429,91.59507304223555L45.69261214285714,91.63010716049347L45.767995000000006,91.87651207722523L45.88106928571428,92.2062655596357L45.99414357142857,91.60513509393128L46.031835,91.75291223312742L46.48413214285715,92.15284615196276L47.23796071428572,91.56395593530753L47.652566428571426,91.59009874407336L47.69025785714286,91.85025150098274L47.916406428571435,91.2749405817731L48.142554999999994,91.0226994235162L48.745617857142854,90.46071234914405L48.78330928571428,90.68995494407189L48.85869214285714,90.13737259223551L48.97176642857143,90.33519331965073L49.310989285714285,89.79192786902397L49.800977857142854,89.2558241484937L50.10250928571429,88.72674173157316L50.21558357142857,88.45906428303617L50.74326357142857,87.94184587165519L50.93172071428571,87.95346570549613L51.08248642857143,88.27421795614775L51.270943571428575,87.76734217704113L51.836315,87.26685538125757L52.17553785714286,87.03667800984034L52.25092071428572,87.25709132645919L52.40168642857142,86.76856494113797L52.665526428571425,86.28604578012059L53.49473785714286,86.52095963499121L53.570120714285714,86.81621614369317L53.947035,86.95753886206579L54.210875,86.64394168991386L54.738555,86.17544864202561L55.34161785714286,86.30872337767096L55.45469214285714,86.59885933140778L55.83160642857143,86.94037258242356L55.90698928571429,87.22752347698747L56.09544642857143,87.40554872558036L56.20852071428571,87.72775211978035L56.283903571428574,87.26971846556597L56.69850928571428,87.43812536861043L56.96234928571428,87.77912217976849L57.113115,87.32783688814135L57.188497857142856,86.88160713487198L57.527720714285714,86.44034866051747L58.24385785714286,86.0039790677194L58.77153785714286,86.13947136352714L58.80922928571429,86.46813765020109L58.88461214285714,86.60128121067096L59.035377857142855,86.77278660121078L59.37460071428571,87.0671807911295L59.82689785714285,87.21561451060991L59.97766357142857,87.46810237797861L60.05304642857143,87.6175749730883L60.16612071428572,87.8523748119108L60.241503571428574,87.4287248065443L60.31688642857143,87.00950117279929L60.693800714285715,86.59463510646297L60.84456642857143,86.86729018346661L60.88225785714286,87.18174483948012L61.10840642857143,87.42439464078487L61.18378928571428,87.65368937870821L61.37224642857143,87.89182289374294L61.63608642857143,87.48340807249215L61.82454357142857,87.72943676808445L61.862235,87.96815119063193L62.314532142857146,88.15806482085969L62.691446428571425,88.45652262175251L62.76682928571429,88.05409505348925L62.804520714285715,88.28971731267387L63.06836071428572,88.50973936175767L63.256817857142856,88.1122843675886L63.40758357142857,87.71866464005525L63.445274999999995,87.95137663723445L63.89757214285714,88.19213865527708L64.19910357142858,88.44146085649186L64.34986928571428,88.64921676639351L64.53832642857142,88.487667142512L64.61370928571428,88.75282667757868L65.32984642857143,88.98136836584767L65.40522928571428,88.59638927343678L65.59368642857143,88.21497210974789L65.63137785714285,88.35672913811247L65.7067607142857,87.97964866574625L65.819835,88.24298558064176L65.97060071428571,87.86953066174144L66.19674928571428,88.05961343840892L66.347515,88.26362146583175L66.53597214285713,87.89453255130172L66.76212071428571,88.09832636829142L66.875195,88.33092105240905L67.06365214285714,88.32100854665539L67.17672642857144,88.48445196837542L67.36518357142857,88.60439354741955L67.51594928571429,88.8335047795185L67.66671500000001,89.02116685773585L68.00593785714285,89.15308755340742L68.26977785714286,89.32359405728386L68.38285214285715,89.43016866327534L68.42054357142857,89.62340761772663L68.75976642857142,89.26459214056679L69.13668071428572,88.90881863715785L69.70205214285714,88.55604876263382L69.85281785714285,88.74692280068349L70.26742357142857,88.39751485704461L70.305115,88.05102042500326L70.45588071428571,88.27781653470964L70.94586928571428,88.53554147033643L71.85046357142856,88.7573682565001L72.56660071428571,88.99963005464053L72.64198357142857,89.12335867830252L72.679675,89.30131986937883L73.05658928571428,89.45394186048462L73.3581207142857,89.58687056497115L73.39581214285715,89.24602998385512L73.50888642857143,89.09043850010306L73.998875,89.24001927091234L74.07425785714285,89.41136440383532L74.48886357142857,89.57635780198939L74.60193785714286,89.75917692493313L74.75270357142857,89.93246561121254L74.9034692857143,90.06302343148977L75.054235,90.22809259613415L75.31807500000001,90.3652588854086L75.35576642857143,90.48152996577774L75.46884071428572,90.14943684057887L75.581915,90.229789743066L76.03421214285714,89.9009946387224L76.26036071428572,89.92317209132132L76.41112642857144,89.59786273328373L76.78804071428571,89.27501356733262L76.901115,88.95459695010634L77.428795,88.63658565082801L77.54186928571428,88.32095284363643L77.73032642857143,88.36707011316109L77.84340071428572,88.5241437449158L78.18262357142858,88.21201645461902L78.59722928571428,88.26802213793295L78.78568642857144,88.32755356269682L78.86106928571428,88.01920608187339L79.76566357142858,87.71310702930175L80.067195,87.90697104559109L80.14257785714287,88.08995486996719L80.25565214285714,87.78642298621867L80.48180071428571,87.86734310956923L80.51949214285713,87.70886958959444L80.78333214285715,87.4096870147613L81.08486357142857,87.11263276175987L81.23562928571428,87.25587818330017L81.386395,87.42688714639023L81.65023500000001,87.57298262988817L81.72561785714285,87.27885542947467L81.95176642857142,87.45577484155564L82.29098928571429,87.49494401025859L82.59252071428571,87.66034755923565L82.66790357142857,87.5851897509274L82.78097785714286,87.71782074632145L82.89405214285713,87.87717224703806L82.93174357142857,87.88563593368461L83.19558357142857,87.87141862341561L83.34634928571428,87.8501625339434L83.3840407142857,87.7721314769196L83.64788071428572,87.94087195168751L83.98710357142858,87.65550959089616L84.13786928571429,87.64829956277072L84.21325214285714,87.36568886014612L84.552475,87.56031478516705L84.96708071428571,87.59007884720904L85.343995,87.56250194925293L85.41937785714286,87.28339341959271L85.68321785714285,87.00612321587444L85.87167500000001,87.05594457942557L85.98474928571429,86.78107084359898L86.28628071428571,86.50799023617371L87.00241785714286,86.68073393960431L87.41702357142857,86.40952713650682L87.718555,86.14007279710704L88.05777785714285,85.87235412376218L88.20854357142858,85.60635453280958L88.54776642857142,85.64914227681695L88.73622357142858,85.84968347875842L88.773915,85.5859097289578L88.81160642857144,85.75465065362074L89.41466928571428,85.49262997099663L89.60312642857143,85.2322607513574L90.01773214285714,85.0609450705596L90.13080642857143,85.2257417198233L90.356955,84.96839061286151L90.39464642857143,84.94768973207269L90.54541214285713,84.84571315906936L90.73386928571429,84.8579953469063L90.96001785714286,84.95435630344929L90.99770928571428,84.97989521739542L91.41231499999999,84.98003464059582L91.56308071428572,85.17215744991282L91.60077214285715,85.16407995336668L91.75153785714286,85.11931118448564L91.82692071428572,85.23264726167677L92.16614357142858,85.31912844600498L92.31690928571429,85.17284406949064L92.35460071428571,85.36697623858443L92.42998357142856,85.11818480181081L92.467675,84.8908253392592L92.54305785714287,84.64492344113361L92.95766357142857,84.4004818234926L93.03304642857144,84.15748763836069L93.33457785714285,84.12747629303072L93.37226928571428,84.12485832632917L93.48534357142857,84.03492879072955L94.80454357142857,83.95704670116426L95.59606357142857,83.71851401051859L95.89759500000001,83.48136981019498L96.34989214285714,83.6692035231672L96.46296642857143,83.6265400611871L96.80218928571428,83.39140722651426L97.17910357142857,83.1576278034355L97.480635,82.92519025624195L97.59370928571428,82.69408317993832L97.70678357142856,82.8714110407827L97.93293214285714,82.64156939103896L98.12138928571429,82.41303249384501L98.15908071428571,82.55901752765307L98.30984642857143,82.33181761638865L98.34753785714287,82.1058969078565L98.61137785714286,82.27314840550103L98.95060071428571,82.4081286888395L99.063675,82.18351280403652L99.81750357142857,82.09886211030724L100.19441785714287,82.26093749955669L100.87286357142857,82.19743954143927L101.13670357142858,82.19990692823028L101.40054357142857,82.17356314571612L101.70207500000001,81.95274723095399L101.77745785714286,81.88030607246813L101.92822357142857,81.661425262738L102.15437214285714,81.4437378107824L102.30513785714285,81.52263842076816L102.71974357142858,81.47722491789641L102.83281785714286,81.61161713747931L103.02127499999999,81.57366281586897L103.51126357142857,81.51351911688465L104.41585785714285,81.48524367708454L105.131995,81.27144424890226L105.32045214285714,81.4317613955841L105.35814357142857,81.21905687273758L105.73505785714285,81.21466486567479L105.84813214285714,81.00355908357142L106.03658928571429,80.79356903223622L106.33812071428571,80.58468599400577L106.715035,80.37690134178722L107.09194928571429,80.5453554970481L107.3557892857143,80.42880830440328L107.88346928571428,80.22282501620272L108.48653214285714,80.38264063233161L108.63729785714285,80.46346502616511L108.67498928571428,80.26723323366578L108.78806357142858,80.42663902816653L108.825755,80.22280688541397L109.95649785714286,80.02002268554853L110.06957214285714,80.1251587022017L110.22033785714287,80.29901443633777L110.25802928571429,80.0972477688113L110.44648642857143,79.89650826530364L110.936475,80.00958514954365L111.23800642857144,80.10151698448544L111.35108071428571,80.27385644654056L112.10490928571429,80.38760161284013L112.40644071428571,80.47517067752919L112.59489785714285,80.63860324825754L112.67028071428572,80.7914776998795L112.783355,80.89639945367207L112.85873785714286,81.04859950706054L112.89642928571429,81.20726074264185L113.311035,81.36654091955836L113.34872642857142,81.46296237880506L113.38641785714286,81.55015825864977L113.46180071428572,81.35066827475383L113.53718357142857,81.15215795071586L113.72564071428572,81.25907036069329L113.80102357142857,81.42258551694444L114.10255500000001,81.56069520975106L115.12022357142857,81.70522441208841L115.157915,81.50759399402489L115.57252071428572,81.31092059520114L115.61021214285715,81.11519737862615L115.98712642857143,80.92041757226598L116.02481785714286,81.06679660428112L116.13789214285714,80.87289757857697L116.40173214285714,81.04275168866002L116.66557214285714,81.21077253215013L117.15556071428571,81.3450093050786L117.45709214285715,81.41972255429951L117.49478357142857,81.52304546215622L117.75862357142857,81.69925322695644L117.87169785714286,81.79312293962991L117.9093892857143,81.88267634978371L117.94708071428572,82.00745111253786L118.060155,81.81447241320282L118.77629214285713,81.62239684924673L119.07782357142857,81.43121819095624L119.115515,81.47474511305492L119.22858928571428,81.4182842133381L119.49242928571428,81.46534729268966L119.60550357142857,81.5593313609226L119.68088642857143,81.6343250922721L119.79396071428572,81.80357191343359L119.94472642857143,81.89742231294147L120.28394928571429,81.98639285743823L120.51009785714285,81.79729129582162L120.698555,81.60905352726972L120.84932071428572,81.71998543591536L120.92470357142857,81.8243590009302L121.30161785714286,81.87681088651814L121.3393092857143,82.00386000711606L121.490075,81.81671247881839L121.67853214285714,81.86793412293386L121.71622357142857,81.68181579884495L121.753915,81.8295582585403L121.86698928571428,81.75732506629136L122.20621214285715,81.8396520208753L122.24390357142858,81.65490189661642L122.28159500000001,81.47097425153721L122.47005214285714,81.28786369695304L122.65850928571429,81.10556489113667L122.77158357142858,80.92407253880809L122.88465785714286,80.74338139063073L122.96004071428571,80.91019505164289L123.03542357142857,81.0175543679729L123.14849785714286,80.83753088129775L123.41233785714286,80.70032384011954L123.86463499999999,80.52175873331959L123.94001785714285,80.6465067562567L124.43000642857143,80.78286255743915L124.46769785714285,80.9079139207501L124.88230357142857,80.72998813354656L125.25921785714286,80.88082795779815L125.40998357142857,80.96345730560587L125.63613214285715,80.78626797467011L125.89997214285714,80.60984014921173L125.93766357142857,80.76000339955358L126.27688642857143,80.58422420953632L126.31457785714285,80.74484576505712L127.030715,80.56968059982613L127.06840642857144,80.39526067033466L127.40762928571428,80.22158131754045L127.48301214285715,80.04863792114335L127.558395,79.87642589918323L127.85992642857143,79.7049407076433L128.16145785714286,79.534177840058L128.31222357142858,79.3641328271259L128.42529785714285,79.48867680290752L128.50068071428572,79.64207058383158L128.53837214285716,79.74228345255572L128.65144642857143,79.57278107162104L128.87759499999999,79.40398425378156L129.0283607142857,79.23588868672587L129.06605214285713,79.06849009319947L129.59373214285716,78.90178423064904L129.7068064285714,78.73576689087145L129.81988071428572,78.57043389966671L130.08372071428573,78.69234302698132L130.196795,78.82775622428078L130.27217785714285,78.981258389786L130.4983264285714,78.81632470555326L130.68678357142858,78.97597743366325L130.91293214285713,79.10729255303505L130.988315,78.94279956850583L131.3652292857143,79.099906730086L131.47830357142857,79.22241136019989L131.59137785714285,79.05838029718035L131.89290928571427,79.19843966874572L132.23213214285713,79.35424736935558L132.60904642857145,79.19062983629583L132.79750357142856,79.02766895385082L133.28749214285713,79.14747482625565L134.00362928571428,78.98511085280782L134.11670357142856,79.11496712663049L134.6443835714286,78.95316900058694L134.682075,79.05410243165021L134.90822357142858,78.89293624912098L135.13437214285716,78.7324084740842L135.39821214285715,78.8502415633804L135.43590357142855,78.69029282723174L135.47359500000002,78.53097417148649L135.54897785714286,78.37228195965258L135.69974357142857,78.52879909657076L135.85050928571428,78.37057569692702L136.001275,78.52722029185766L136.03896642857143,78.67660162309724L136.07665785714286,78.7399187994147L136.265115,78.86282724993815L136.34049785714285,78.70493160303215L136.71741214285714,78.54764781123417L136.98125214285713,78.39097240322323L138.03661214285714,78.23490193387441L138.22506928571428,78.07943298401224L138.56429214285714,78.20874973540734L138.67736642857145,78.34142407157965L138.7527492857143,78.18635953187646L139.01658928571428,78.03188836996907L139.20504642857142,78.18759619947426L139.50657785714284,78.03355703342828L139.65734357142858,78.18116925733486L139.695035,78.2894370496799L139.8081092857143,78.1358001841231L139.88349214285714,77.98274501494147L140.14733214285715,77.8788977414647L140.44886357142857,78.02965360101759L140.5996292857143,78.18265296192766L140.67501214285713,78.03033278820716L141.50422357142858,78.18879632462007L141.61729785714286,78.33182779759412L142.7480407142857,78.48061498771534L143.04957214285713,78.62200618932884L144.3310807142857,78.4696889746284L144.51953785714286,78.59443199402568L144.93414357142856,78.44259360821603L145.27336642857142,78.5813631814739L145.4618235714286,78.42996612054695L145.53720642857144,78.56506767629816L145.61258928571428,78.71128663314272L145.72566357142856,78.85296229461366L145.80104642857142,78.70174237465383L145.98950357142857,78.83218110646867L146.027195,78.9855245540521L146.32872642857143,78.83459975079606L146.36641785714286,78.68422604780253L146.74333214285716,78.84196160812522L146.89409785714287,78.69196809665804L147.27101214285713,78.54251952448959L147.42177785714287,78.69695827235827L147.57254357142858,78.54789025988033L147.874075,78.39936111069616L148.06253214285715,78.25136798212347L148.62790357142856,78.37838611869479L148.665595,78.23082589053631L148.89174357142858,78.3747567535978L149.15558357142856,78.51614334741718L149.3063492857143,78.36883951642616L149.68326357142857,78.22206202636023L149.720955,78.07580813426542L149.75864642857144,78.21916846623147L149.79633785714287,78.35785413465094L150.02248642857143,78.21185163199257L150.0978692857143,78.32031641390847L150.21094357142857,78.17477002365126L150.32401785714285,78.28464790723112L150.36170928571428,78.2714501279945L150.47478357142856,78.12656538891216L150.8893892857143,77.98218997016137L151.11553785714287,78.12440097580945L151.34168642857145,78.25575278404423L151.6809092857143,78.40654494988284L151.7186007142857,78.26226199783206L151.90705785714286,78.1184821886292L152.02013214285714,78.24602190784593L152.24628071428572,78.38829915929576L152.39704642857143,78.5212490564367L152.54781214285714,78.37760147673656L152.84934357142856,78.23445085002511L152.96241785714287,78.38052033651557L153.18856642857142,78.4427757061073L153.22625785714285,78.58933565277654L153.52778928571428,78.66864433806491L153.64086357142858,78.76375913039473L153.678555,78.62079938163824L154.13085214285715,78.7553009231352L154.62084071428572,78.88751956431061L154.65853214285713,78.7448047145049L154.6962235714286,78.88218514361034L154.733915,79.01066313001527L155.261595,78.86819122591527L156.1661892857143,79.00933892565345L156.27926357142857,79.10332833412338L156.3546464285714,79.19105898457823L156.4300292857143,79.04887049884493L156.54310357142856,79.17903217150122L156.69386928571427,79.28571933282333L156.80694357142858,79.14382841827212L156.844635,79.0024133339843L157.5230807142857,78.86147176084923L157.89999500000002,78.72100139478837L158.16383499999998,78.58099994663375L158.31460071428572,78.71890376612974L158.35229214285715,78.57923311777677L158.5407492857143,78.44002660267994L158.5784407142857,78.53038102916915L158.691515,78.67055316116843L159.1061207142857,78.53163266246092L159.14381214285714,78.65282356189613L159.59610928571428,78.51426073488753L159.6338007142857,78.65369666709299L159.70918357142858,78.79140938048586L159.746875,78.9231115540385L159.8599492857143,79.04908226689844L159.8976407142857,78.91046251153045L159.93533214285716,78.95056477082694L160.19917214285715,78.81246914148359L160.27455500000002,78.89903995207275L160.9153092857143,79.02974532457989L160.9530007142857,79.15025033581661L160.99069214285714,79.24945796914426L161.02838357142855,79.24455471111827L161.1791492857143,79.34334071594931L161.29222357142856,79.48485266279401L161.857595,79.62179534441557L161.93297785714284,79.66828997294972L162.15912642857145,79.76823115091621L162.385275,79.90561279084892L162.53604071428572,79.7673484798012L163.1391035714286,79.76053306895298L163.47832642857142,79.62287738539305L163.5537092857143,79.736710025287L163.62909214285716,79.86586849788682L163.81754928571428,79.97425488792774L163.93062357142858,80.06282088121004L164.26984642857144,80.15947853795998L164.38292071428572,80.25767469433713L164.495995,80.33934200690364L165.5136635714286,80.2016772095685L165.73981214285715,80.06444701249795L165.85288642857142,79.92764942928075L166.00365214285716,80.05613658489591L166.22980071428572,79.91964974142583L166.342875,80.02334175001643L166.41825785714286,80.14780470678703L166.60671499999998,80.01156539457199L166.68209785714285,79.87575195270294L166.79517214285715,79.96256227266446L167.43592642857143,79.82713750719745L167.58669214285715,79.95583274235692L167.8882235714286,80.07916002496819L167.925915,80.21178775939362L168.26513785714286,80.33058293834988L168.4912864285714,80.37315611182053L168.52897785714288,80.48690815330865L168.56666928571428,80.35140483578897L168.6797435714286,80.4785703519032L168.90589214285714,80.34336595313341L169.0943492857143,80.47280714869896L169.20742357142856,80.60437168758631L169.50895500000001,80.71095118938905L169.65972071428573,80.57583358429245L169.73510357142857,80.70642353760779L170.07432642857142,80.57159281501572L170.26278357142857,80.4371732050147L170.48893214285715,80.56334768735412L170.7150807142857,80.42921933360812L170.97892071428572,80.54646176709181L171.6573664285714,80.41264035464138L171.69505785714284,80.2792242218225L172.26042928571428,80.14621159680034L172.29812071428572,80.26248095285302L172.37350357142859,80.38017637392285L172.5242692857143,80.24736336387022L172.675035,80.36698031531448L173.3157892857143,80.23446017019215L173.54193785714284,80.10233761235878L173.76808642857145,80.13926664699163L173.8811607142857,80.00759753975495L174.55960642857144,79.8763218929405L174.71037214285712,79.99796124723869L174.97421214285714,79.86696500464885L175.08728642857145,79.73635866022754L175.50189214285714,79.6061405408952L175.87880642857144,79.70056481388411L175.91649785714284,79.80230951699325L176.02957214285715,79.6723443902414L176.44417785714285,79.54276355737852L177.0095492857143,79.67425090869047L177.04724071428572,79.54491914106163L177.5372292857143,79.65857604503951L177.76337785714287,79.66704507819732L177.8387607142857,79.76978917932301L177.87645214285712,79.6407707639334L178.10260071428573,79.7663178775973L178.479515,79.86023244777135L178.5925892857143,79.7314093104058L178.66797214285714,79.8526030346961L178.70566357142857,79.72404176932379L178.743355,79.59585477658769L178.89412071428572,79.6817015428452L179.27103499999998,79.55384145812732L179.30872642857142,79.68619161301578L179.76102357142855,79.5585654958913L179.798715,79.65001432484777L180.43946928571427,79.52269986474278L180.854075,79.39575274929416L181.19329785714285,79.26917145418729L181.381755,79.14295446351501L181.57021214285714,79.2224377970594L181.79636071428573,79.09654759046664L182.13558357142855,79.22798037452317L182.437115,79.10231429992032L182.77633785714286,79.19171163068587L183.1909435714286,79.31588405805962L183.3794007142857,79.19039846006591L183.492475,79.06527039809255L183.53016642857142,79.00900401054906L183.79400642857144,78.8844550662315L184.09553785714283,78.7602596647006L184.39706928571428,78.63641636464362L184.547835,78.51292373255734L184.6609092857143,78.38978034269492L184.77398357142857,78.26698477701382L184.811675,78.14453562512357L185.11320642857143,78.02243148423437L185.18858928571427,77.90067095910585L185.603195,77.77925266199631L185.90472642857142,77.75305712314203L186.31933214285712,77.63213873632284L186.47009785714283,77.51155896400735L186.77162928571428,77.39131644591991L187.63853214285714,77.27140982904696L187.8646807142857,77.15183776758842L188.01544642857144,77.03259892290964L188.58081785714288,77.13797371037066L188.80696642857143,77.01897351962542L188.92004071428573,77.1334315451642L188.99542357142857,77.01465115421647L189.25926357142856,76.89619977809136L189.37233785714287,76.77807611069072L189.52310357142858,76.66027885280612L189.6738692857143,76.54280671207354L189.71156071428572,76.42565840292842L189.74925214285713,76.30883264656094L189.82463499999997,76.19232817087163L190.31462357142857,76.07614371042744L190.39000642857144,75.96027800641819L190.4653892857143,75.8447298066132L190.616155,75.72949786531828L190.72922928571427,75.61458094333337L190.7669207142857,75.69791409207717L190.84230357142857,75.58325471576872L191.143835,75.46890768436775L191.5207492857143,75.35487178031424L192.04842928571426,75.24114579235422L192.16150357142857,75.12772851549916L192.27457785714287,75.01461875098533L192.80225785714285,74.9018153062338L192.91533214285715,74.78931699481043L193.48070357142856,74.67712263638643L193.66916071428574,74.56523105669906L193.70685214285714,74.45364108751284L193.85761785714286,74.3423515665807L194.00838357142857,74.23136133760578L194.046075,74.23743229092956L194.0837664285714,74.13518645634483L194.1591492857143,74.02485743851369L194.34760642857142,73.91482376131337L194.38529785714286,73.80508429528078L194.42298928571427,73.69563791669091L194.76221214285715,73.58648350752061L195.06374357142855,73.4776199554123L195.21450928571429,73.36904615363832L195.28989214285716,73.26076100106522L195.5160407142857,73.15276340211831L195.81757214285713,73.04505226674686L195.85526357142857,72.93762651038924L196.08141214285715,72.83048505393823L196.19448642857145,72.72362682370702L196.49601785714285,72.61705075139504L196.72216642857143,72.51075577405425L196.83524071428573,72.40474083405569L196.87293214285714,72.29900487905608L196.98600642857144,72.19354686196509L197.09908071428572,72.2775297568824L197.212155,72.172281928977L197.66445214285716,72.06730982634484L197.81521785714287,71.96261241923001L198.07905785714286,71.85818868298477L198.30520642857144,71.75403759803781L198.45597214285715,71.65015814986286L198.49366357142858,71.5465493289476L198.60673785714286,71.44321013076257L198.6444292857143,71.3401395557306L198.90826928571428,71.27223522977819L198.98365214285715,71.31081526447417L199.05903500000002,71.20822866090396L199.28518357142858,71.10590754876291L199.51133214285713,71.00385094976907L199.62440642857143,70.90205789042774L199.7374807142857,70.80052740200243L199.81286357142855,70.69925852048559L199.88824642857145,70.59825028656988L200.4913092857143,70.49750174561959L200.56669214285714,70.39701194764217L200.642075,70.2967799472599L200.67976642857144,70.19680480368221L200.71745785714285,70.09708558067756L200.98129785714286,69.99762134654597L201.0189892857143,69.89841117409172L201.69743499999998,69.7994541405959L201.8105092857143,69.70074932778971L202.45126357142857,69.6022958218274L202.94125214285714,69.50409271325991L203.4312407142857,69.40613909700812L203.50662357142858,69.30843407233698L204.071995,69.21097674282913L204.22276071428573,69.11376621635942L204.37352642857144,69.0168016050688L204.63736642857143,68.9200820253393L204.78813214285717,68.82360659776832L204.97658928571428,68.72737444714375L206.06964071428573,68.63138470241898L206.14502357142857,68.53563649668808L206.52193785714283,68.44012896716136L206.5596292857143,68.34486125514067L207.42653214285713,68.24983250599556L207.76575499999998,68.15504186913877L208.67034928571428,68.06048849800277L209.12264642857144,67.9661715500157L209.19802928571428,67.87209018657795L209.3864864285714,67.7782435730388L209.76340071428572,67.6846308786731L209.876475,67.59125127665827L209.91416642857143,67.49810394405141L210.21569785714286,67.40518806176642L210.2910807142857,67.31250281455175L210.47953785714284,67.22004739096755L210.70568642857143,67.1278209833637L210.78106928571427,67.03582278785765L211.49720642857145,66.94405200431241L211.8741207142857,66.85250783631471L212.02488642857142,66.76118949115352L212.17565214285713,66.67009617979836L212.43949214285715,66.57922711687812L212.59025785714286,66.48858152065971L212.6279492857143,66.3981586130271L212.70333214285714,66.30795761946042L212.74102357142857,66.21797776901516L213.1933207142857,66.1282182943015L213.5325435714286,66.03867843146399L213.9471492857143,65.94935742016112L214.32406357142858,65.86025450354502L214.36175500000002,65.7713689282416L214.43713785714286,65.68269994433057L214.62559499999998,65.59424680532557L214.70097785714285,65.50600876815464L214.889435,65.41798509314066L215.11558357142857,65.33017504398198L215.37942357142856,65.24257788773319L215.53018928571427,65.31587189645239L215.86941214285713,65.32121242642248L216.43478357142857,65.23381707130514L216.472475,65.14663275491314L216.6232407142857,65.05965875723481L216.77400642857143,64.97289436151812L216.88708071428573,64.94844881562294L217.33937785714286,64.86199576177425L217.67860071428572,64.92809757472988L217.86705785714287,64.84180030168702L217.9424407142857,64.84550708199475L218.01782357142858,64.82957557765351L218.09320642857142,64.7781537225658L218.35704642857144,64.72335444068368L218.8847264285714,64.63770430175484L218.92241785714285,64.55225853936433L219.03549214285715,64.4670164654784L219.11087500000002,64.44760217316474L219.26164071428573,64.36265456875441L219.29933214285714,64.27790887060215L219.48778928571429,64.2910011432098L219.56317214285713,64.20649263893479L219.638555,64.12218440980843L219.82701214285714,64.03807578677733L220.5431492857143,64.02017098388379L220.76929785714285,63.99100108236341L220.84468071428572,63.94356279239433L220.957755,64.02906633524393L221.29697785714285,64.0129080644983L221.71158357142858,64.10233405315437L221.78696642857142,64.03862602660705L222.05080642857143,64.02268207315718L222.08849785714284,63.93925208773229L222.23926357142855,63.945692477064064L222.61617785714287,63.86250325935074L222.6915607142857,63.92896316035545L222.88001785714286,63.84591328472014L223.03078357142857,63.76305740149749L223.29462357142856,63.680394873097825L223.67153785714285,63.658254779089724L223.74692071428572,63.57587665414374L223.78461214285713,63.49369022150583L223.93537785714287,63.41169485384813L224.0107607142857,63.32988992656545L224.08614357142858,63.248274817760304L224.12383499999999,63.16684890822845L224.19921785714286,63.085611581444255L224.61382357142855,63.004562223546145L225.5938007142857,62.923700223322264L225.66918357142856,62.843024972196275L225.89533214285714,62.762535864213014L226.00840642857142,62.68223229602448L226.04609785714285,62.602113666875766L226.08378928571426,62.522179378591225L226.12148071428572,62.44242883556047L226.3853207142857,62.42713013936251L226.53608642857142,62.34763946670573L226.6114692857143,62.26833101035171L226.7245435714286,62.18920418403433L227.44068071428572,62.11025840398833L227.70452071428574,62.03149308893588L227.77990357142858,62.05915637687892L227.89297785714285,62.0703019408917L228.26989214285715,61.991753545299765L228.72218928571428,61.9133840453145L229.664475,61.83519286956354L229.81524071428572,61.75717944909377L231.02136642857144,61.679343217358365L231.13444071428572,61.60168361020428L231.511355,61.52420006585948L232.039035,61.44689202492029L232.22749214285713,61.36975893033922L232.302875,61.29280022741218L232.79286357142857,61.2160153637665L233.3959264285714,61.13940378934845L233.50900071428572,61.06296495641124L233.622075,60.9866983195028L233.7728407142857,60.910603335453864L233.885915,60.834679463365994L234.149755,60.75892616459969L234.41359500000002,60.6833429027627L234.5266692857143,60.60792914369808L234.79050928571428,60.532684355472874L234.90358357142858,60.45760800836632L235.16742357142857,60.38269957485835L235.2428064285714,60.307958529618325L235.35588071428572,60.233384349493534L235.39357214285715,60.158976513497905L235.43126357142856,60.08473450280093L235.46895500000002,60.010657800716416L235.73279499999998,59.93674589269143L235.996635,59.862998266295214L236.33585785714286,59.789414411208455L236.44893214285716,59.71599381921219L236.48662357142857,59.64273598417718L236.63738928571428,59.569640402053004L236.97661214285714,59.49670657085752L237.39121785714286,59.42393399066622L237.843515,59.35132216360167L238.25812071428572,59.2788705938231L238.898875,59.206578787515895L239.27578928571427,59.134446252881276L239.53962928571428,59.06247250012607L239.6527035714286,58.990657041452515L240.02961785714285,58.918999391047954L240.0673092857143,58.847499065074885L240.14269214285716,58.77615558166083L240.3688407142857,58.704968460888416L240.63268071428573,58.63393722478548L241.38650928571428,58.56306139731515L241.61265785714286,58.492340504366105L242.10264642857143,58.4217740737428L242.14033785714284,58.35136163515586L242.63032642857144,58.28110272021236L242.81878357142858,58.22346528754282L242.93185785714283,58.153492222306824L243.23338928571428,58.08367132987901L243.42184642857146,58.014002149227L243.45953785714286,57.944484221168345L243.87414357142856,57.87511708836109L244.21336642857145,57.805900295294535L244.47720642857144,57.73683338828033L244.5525892857143,57.667915915442975" style="fill: none;" fill="none"></path></g></g></g></g><g opacity="0.2"><g><g><g><path stroke="rgb(0, 119, 187)" stroke-width="2px" d="M18.592475,150.627L18.969389285714286,147.854L19.007080714285713,158.061L19.120155,150.68599999999998L19.42168642857143,145.966L19.459377857142858,137.588L19.949366428571427,14.159999999999993L20.21320642857143,14.159999999999993L20.250897857142856,144.255L20.288589285714284,89.79800000000002L20.778577857142857,38.704L20.816269285714284,14.159999999999993L20.967035000000003,140.715L21.080109285714286,118.41300000000001L21.117800714285714,99.00200000000001L21.343949285714285,139.299L21.532406428571427,14.159999999999993L21.79624642857143,149.91899999999998L22.173160714285714,141.777L22.32392642857143,135.34599999999998L22.47469214285714,137.11599999999999L23.002372142857144,127.499L23.153137857142855,14.159999999999993L23.190829285714283,141.246L23.266212142857142,33.45299999999999L23.341595,136.93900000000002L23.56774357142857,72.21600000000001L23.869275000000002,14.159999999999993L23.944657857142857,145.376L23.982349285714285,14.159999999999993L24.095423571428572,137.82399999999998L24.35926357142857,60.59300000000001L24.472337857142858,109.09100000000001L24.547720714285717,113.45700000000001L24.62310357142857,98.648L24.924635000000002,109.09100000000001L25.11309214285714,81.302L25.376932142857143,116.525L25.640772142857145,14.159999999999993L25.678463571428573,114.342L26.093069285714286,77.58500000000001L26.16845214285714,138.06L26.46998357142857,138.41400000000002L27.07304642857143,132.75L27.63841785714286,14.159999999999993L27.676109285714286,140.715L28.16609785714286,133.104L28.203789285714286,119.23899999999999L28.656086428571427,132.632L28.769160714285714,148.444L29.07069214285714,14.159999999999993L29.183766428571428,14.159999999999993L29.296840714285715,135.7L29.37222357142857,135.05100000000002L29.560680714285716,139.06300000000002L29.636063571428572,127.14499999999998L30.050669285714285,33.68900000000001L30.201435,14.159999999999993L30.352200714285715,130.685L30.42758357142857,118.649L30.465275,46.728L30.578349285714285,131.511L31.445252142857143,123.42800000000001L31.482943571428574,83.95700000000001L31.93524071428571,14.159999999999993L32.161389285714286,123.36900000000001L32.199080714285714,14.159999999999993L32.23677214285714,115.34499999999998L32.68906928571429,129.328L32.99060071428571,46.66900000000001L33.14136642857143,129.033L33.216749285714286,118.41300000000001L33.40520642857143,14.159999999999993L33.59366357142857,14.159999999999993L33.66904642857143,140.184L34.08365214285715,136.172L34.309800714285714,14.159999999999993L34.34749214285714,104.07600000000001L34.875172142857146,54.63399999999999L34.91286357142857,129.918L34.98824642857142,120.301L35.25208642857143,49.973L35.478235000000005,134.874L35.817457857142855,124.43100000000001L35.968223571428574,101.59800000000001L36.08129785714286,116.46599999999998L36.15668071428571,140.36100000000002L36.30744642857143,128.502L36.34513785714286,124.13600000000001L36.533595,14.159999999999993L36.571286428571426,101.42099999999999L36.797435,118.76700000000001L37.66433785714286,14.159999999999993L37.73972071428572,14.159999999999993L37.777412142857145,134.815L37.81510357142857,14.159999999999993L37.928177857142856,115.994L38.00356071428571,56.345000000000006L38.531240714285715,137.175L38.568932142857136,126.55500000000002L38.644315,14.159999999999993L38.719697857142855,14.159999999999993L38.79508071428571,83.072L38.94584642857143,135.05100000000002L39.021229285714284,14.159999999999993L39.171995,117.587L39.24737785714286,139.004L39.39814357142857,39.766000000000005L39.62429214285714,14.159999999999993L39.699675,137.234L39.85044071428572,103.486L40.45350357142857,14.159999999999993L40.679652142857144,14.159999999999993L40.830417857142855,138.65L40.90580071428571,141.01L41.546555,124.13600000000001L41.584246428571426,14.159999999999993L41.885777857142855,133.812L41.92346928571428,14.159999999999993L42.11192642857143,106.141L42.14961785714286,121.776L42.45114928571429,136.998L42.67729785714286,14.159999999999993L42.71498928571429,42.892999999999994L42.903446428571435,14.159999999999993L43.242669285714285,14.159999999999993L43.31805214285714,131.039L43.58189214285714,113.57499999999999L43.88342357142857,133.458L43.921115,133.576L44.22264642857143,132.927L44.52417785714285,14.159999999999993L44.599560714285715,140.243L45.20262357142857,137.883L45.61722928571429,61.949999999999996L45.69261214285714,96.05199999999999L45.767995000000006,123.192L45.88106928571428,134.402L45.99414357142857,14.159999999999993L46.031835,110.92L46.48413214285715,144.373L47.23796071428572,14.159999999999993L47.652566428571426,95.04899999999999L47.69025785714286,126.496L47.916406428571435,14.159999999999993L48.142554999999994,56.99399999999999L48.745617857142854,14.159999999999993L48.78330928571428,122.012L48.85869214285714,14.159999999999993L48.97176642857143,117.70500000000001L49.310989285714285,14.159999999999993L49.800977857142854,14.159999999999993L50.10250928571429,14.159999999999993L50.21558357142857,50.504L50.74326357142857,14.159999999999993L50.93172071428571,89.621L51.08248642857143,134.579L51.270943571428575,14.159999999999993L51.836315,14.159999999999993L52.17553785714286,53.217999999999996L52.25092071428572,119.82900000000001L52.40168642857142,14.159999999999993L52.665526428571425,14.159999999999993L53.49473785714286,121.83500000000001L53.570120714285714,131.452L53.947035,108.44200000000001L54.210875,38.704L54.738555,14.159999999999993L55.34161785714286,106.908L55.45469214285714,131.688L55.83160642857143,140.302L55.90698928571429,132.33700000000002L56.09544642857143,115.522L56.20852071428571,138.886L56.283903571428574,14.159999999999993L56.69850928571428,114.46000000000001L56.96234928571428,142.78L57.113115,14.159999999999993L57.188497857142856,14.159999999999993L57.527720714285714,14.159999999999993L58.24385785714286,14.159999999999993L58.77153785714286,108.55999999999999L58.80922928571429,141.12800000000001L58.88461214285714,108.855L59.035377857142855,115.581L59.37460071428571,136.762L59.82689785714285,112.395L59.97766357142857,130.508L60.05304642857143,113.22099999999999L60.16612071428572,128.266L60.241503571428574,14.159999999999993L60.31688642857143,14.159999999999993L60.693800714285715,14.159999999999993L60.84456642857143,134.697L60.88225785714286,142.603L61.10840642857143,130.39000000000001L61.18378928571428,128.443L61.37224642857143,130.44899999999998L61.63608642857143,14.159999999999993L61.82454357142857,132.101L61.862235,131.216L62.314532142857146,122.72L62.691446428571425,143.01600000000002L62.76682928571429,14.159999999999993L62.804520714285715,131.74699999999999L63.06836071428572,129.26899999999998L63.256817857142856,14.159999999999993L63.40758357142857,14.159999999999993L63.445274999999995,131.62900000000002L63.89757214285714,133.576L64.19910357142858,135.641L64.34986928571428,128.148L64.53832642857142,57.643L64.61370928571428,139.594L65.32984642857143,132.986L65.40522928571428,14.159999999999993L65.59368642857143,14.159999999999993L65.63137785714285,115.994L65.7067607142857,14.159999999999993L65.819835,140.007L65.97060071428571,14.159999999999993L66.19674928571428,125.72899999999998L66.347515,128.856L66.53597214285713,14.159999999999993L66.76212071428571,128.974L66.875195,135.169L67.06365214285714,86.31700000000001L67.17672642857144,121.658L67.36518357142857,113.04400000000001L67.51594928571429,135.7L67.66671500000001,127.558L68.00593785714285,116.348L68.26977785714286,124.60799999999999L68.38285214285715,111.56900000000002L68.42054357142857,129.918L68.75976642857142,14.159999999999993L69.13668071428572,14.159999999999993L69.70205214285714,14.159999999999993L69.85281785714285,129.151L70.26742357142857,14.159999999999993L70.305115,14.159999999999993L70.45588071428571,136.821L70.94586928571428,143.90099999999998L71.85046357142856,136.585L72.56660071428571,141.423L72.64198357142857,115.994L72.679675,128.089L73.05658928571428,122.838L73.3581207142857,118.76700000000001L73.39581214285715,14.159999999999993L73.50888642857143,54.69300000000001L73.998875,122.425L74.07425785714285,127.558L74.48886357142857,126.43699999999998L74.60193785714286,130.744L74.75270357142857,128.915L74.9034692857143,119.534L75.054235,127.61699999999999L75.31807500000001,121.53999999999999L75.35576642857143,116.997L75.46884071428572,14.159999999999993L75.581915,108.678L76.03421214285714,14.159999999999993L76.26036071428572,95.04899999999999L76.41112642857144,14.159999999999993L76.78804071428571,14.159999999999993L76.901115,14.159999999999993L77.428795,14.159999999999993L77.54186928571428,14.159999999999993L77.73032642857143,99.238L77.84340071428572,125.66999999999999L78.18262357142858,14.159999999999993L78.59722928571428,101.59800000000001L78.78568642857144,102.54199999999999L78.86106928571428,14.159999999999993L79.76566357142858,14.159999999999993L80.067195,134.63799999999998L80.14257785714287,132.33700000000002L80.25565214285714,14.159999999999993L80.48180071428571,107.557L80.51949214285713,49.029L80.78333214285715,14.159999999999993L81.08486357142857,14.159999999999993L81.23562928571428,122.543L81.386395,129.68200000000002L81.65023500000001,123.78200000000001L81.72561785714285,14.159999999999993L81.95176642857142,131.57000000000002L82.29098928571429,97.29100000000001L82.59252071428571,129.151L82.66790357142857,68.676L82.78097785714286,121.18599999999999L82.89405214285713,128.207L82.93174357142857,90.03399999999999L83.19558357142857,84.252L83.34634928571428,82.423L83.3840407142857,67.791L83.64788071428572,131.275L83.98710357142858,14.159999999999993L84.13786928571429,85.786L84.21325214285714,14.159999999999993L84.552475,138.119L84.96708071428571,95.344L85.343995,80.35799999999999L85.41937785714286,14.159999999999993L85.68321785714285,14.159999999999993L85.87167500000001,100.18200000000002L85.98474928571429,14.159999999999993L86.28628071428571,14.159999999999993L87.00241785714286,132.573L87.41702357142857,14.159999999999993L87.718555,14.159999999999993L88.05777785714285,14.159999999999993L88.20854357142858,14.159999999999993L88.54776642857142,97.17299999999999L88.73622357142858,140.007L88.773915,14.159999999999993L88.81160642857144,131.57000000000002L89.41466928571428,14.159999999999993L89.60312642857143,14.159999999999993L90.01773214285714,38.173L90.13080642857143,130.44899999999998L90.356955,14.159999999999993L90.39464642857143,79.237L90.54541214285713,56.63999999999999L90.73386928571429,88.26400000000001L90.96001785714286,111.746L90.99770928571428,92.09899999999999L91.41231499999999,85.01899999999999L91.56308071428572,139.004L91.60077214285715,82.89500000000001L91.75153785714286,72.511L91.82692071428572,117.233L92.16614357142858,109.799L92.31690928571429,43.660000000000004L92.35460071428571,140.597L92.42998357142856,14.159999999999993L92.467675,19.882999999999992L92.54305785714287,14.159999999999993L92.95766357142857,14.159999999999993L93.03304642857144,14.159999999999993L93.33457785714285,75.461L93.37226928571428,83.36699999999999L93.48534357142857,57.938L94.80454357142857,61.30100000000001L95.59606357142857,14.159999999999993L95.89759500000001,14.159999999999993L96.34989214285714,138.709L96.46296642857143,71.09499999999998L96.80218928571428,14.159999999999993L97.17910357142857,14.159999999999993L97.480635,14.159999999999993L97.59370928571428,14.159999999999993L97.70678357142856,135.582L97.93293214285714,14.159999999999993L98.12138928571429,14.159999999999993L98.15908071428571,126.26L98.30984642857143,14.159999999999993L98.34753785714287,14.159999999999993L98.61137785714286,132.691L98.95060071428571,123.192L99.063675,14.159999999999993L99.81750357142857,56.403999999999996L100.19441785714287,131.57000000000002L100.87286357142857,62.834999999999994L101.13670357142858,82.95400000000001L101.40054357142857,74.104L101.70207500000001,14.159999999999993L101.77745785714286,59.59L101.92822357142857,14.159999999999993L102.15437214285714,14.159999999999993L102.30513785714285,105.964L102.71974357142858,67.37800000000001L102.83281785714286,123.42800000000001L103.02127499999999,69.738L103.51126357142857,62.71699999999999L104.41585785714285,72.629L105.131995,14.159999999999993L105.32045214285714,131.865L105.35814357142857,14.159999999999993L105.73505785714285,79.827L105.84813214285714,14.159999999999993L106.03658928571429,14.159999999999993L106.33812071428571,14.159999999999993L106.715035,14.159999999999993L107.09194928571429,134.343L107.3557892857143,43.129000000000005L107.88346928571428,14.159999999999993L108.48653214285714,131.74699999999999L108.63729785714285,106.495L108.67498928571428,16.933000000000003L108.78806357142858,131.983L108.825755,14.159999999999993L109.95649785714286,14.159999999999993L110.06957214285714,114.342L110.22033785714287,136.998L110.25802928571429,14.159999999999993L110.44648642857143,14.159999999999993L110.936475,117.115L111.23800642857144,110.33L111.35108071428571,137.057L112.10490928571429,117.941L112.40644071428571,109.44500000000001L112.59489785714285,134.815L112.67028071428572,131.57000000000002L112.783355,115.817L112.85873785714286,131.80599999999998L112.89642928571429,134.225L113.311035,134.697L113.34872642857142,113.811L113.38641785714286,110.86100000000002L113.46180071428572,14.159999999999993L113.53718357142857,14.159999999999993L113.72564071428572,117.41L113.80102357142857,136.821L114.10255500000001,128.443L115.12022357142857,130.86200000000002L115.157915,14.159999999999993L115.57252071428572,14.159999999999993L115.61021214285715,14.159999999999993L115.98712642857143,14.159999999999993L116.02481785714286,131.334L116.13789214285714,14.159999999999993L116.40173214285714,139.594L116.66557214285714,139.23999999999998L117.15556071428571,127.794L117.45709214285715,107.32100000000001L117.49478357142857,117.41L117.75862357142857,143.01600000000002L117.87169785714286,114.519L117.9093892857143,113.16199999999999L117.94708071428572,125.66999999999999L118.060155,14.159999999999993L118.77629214285713,14.159999999999993L119.07782357142857,14.159999999999993L119.115515,96.81899999999999L119.22858928571428,61.47800000000001L119.49242928571428,98.117L119.60550357142857,114.873L119.68088642857143,108.265L119.79396071428572,142.013L119.94472642857143,115.34499999999998L120.28394928571429,113.75200000000001L120.51009785714285,14.159999999999993L120.698555,14.159999999999993L120.84932071428572,121.53999999999999L120.92470357142857,119.357L121.30161785714286,100.772L121.3393092857143,127.853L121.490075,14.159999999999993L121.67853214285714,100.418L121.71622357142857,14.159999999999993L121.753915,135.523L121.86698928571428,55.46L122.20621214285715,111.864L122.24390357142858,14.159999999999993L122.28159500000001,14.159999999999993L122.47005214285714,14.159999999999993L122.65850928571429,14.159999999999993L122.77158357142858,14.159999999999993L122.88465785714286,14.159999999999993L122.96004071428571,142.48499999999999L123.03542357142857,120.71399999999998L123.14849785714286,14.159999999999993L123.41233785714286,29.795L123.86463499999999,14.159999999999993L123.94001785714285,127.086L124.43000642857143,131.62900000000002L124.46769785714285,127.61699999999999L124.88230357142857,14.159999999999993L125.25921785714286,137.411L125.40998357142857,111.98200000000001L125.63613214285715,14.159999999999993L125.89997214285714,14.159999999999993L125.93766357142857,137.411L126.27688642857143,14.159999999999993L126.31457785714285,141.541L127.030715,14.159999999999993L127.06840642857144,14.159999999999993L127.40762928571428,14.159999999999993L127.48301214285715,14.159999999999993L127.558395,14.159999999999993L127.85992642857143,14.159999999999993L128.16145785714286,14.159999999999993L128.31222357142858,14.159999999999993L128.42529785714285,127.322L128.50068071428572,138.65L128.53837214285716,118.35400000000001L128.65144642857143,14.159999999999993L128.87759499999999,14.159999999999993L129.0283607142857,14.159999999999993L129.06605214285713,14.159999999999993L129.59373214285716,14.159999999999993L129.7068064285714,14.159999999999993L129.81988071428572,14.159999999999993L130.08372071428573,126.26L130.196795,131.74699999999999L130.27217785714285,139.06300000000002L130.4983264285714,14.159999999999993L130.68678357142858,141.659L130.91293214285713,130.744L130.988315,14.159999999999993L131.3652292857143,141.069L131.47830357142857,127.61699999999999L131.59137785714285,14.159999999999993L131.89290928571427,134.697L132.23213214285713,141.18699999999998L132.60904642857145,14.159999999999993L132.79750357142856,14.159999999999993L133.28749214285713,126.90900000000002L134.00362928571428,14.159999999999993L134.11670357142856,131.039L134.6443835714286,14.159999999999993L134.682075,119.534L134.90822357142858,14.159999999999993L135.13437214285716,14.159999999999993L135.39821214285715,126.319L135.43590357142855,14.159999999999993L135.47359500000002,14.159999999999993L135.54897785714286,14.159999999999993L135.69974357142857,141.954L135.85050928571428,14.159999999999993L136.001275,142.19L136.03896642857143,139.476L136.07665785714286,104.548L136.265115,129.033L136.34049785714285,14.159999999999993L136.71741214285714,14.159999999999993L136.98125214285713,14.159999999999993L138.03661214285714,14.159999999999993L138.22506928571428,14.159999999999993L138.56429214285714,131.452L138.67736642857145,133.04500000000002L138.7527492857143,14.159999999999993L139.01658928571428,14.159999999999993L139.20504642857142,142.662L139.50657785714284,14.159999999999993L139.65734357142858,139.476L139.695035,123.31L139.8081092857143,14.159999999999993L139.88349214285714,14.159999999999993L140.14733214285715,34.51499999999999L140.44886357142857,141.069L140.5996292857143,142.249L140.67501214285713,14.159999999999993L141.50422357142858,144.727L141.61729785714286,138.47299999999998L142.7480407142857,141.12800000000001L143.04957214285713,138.237L144.3310807142857,14.159999999999993L144.51953785714286,131.334L144.93414357142856,14.159999999999993L145.27336642857142,137.411L145.4618235714286,14.159999999999993L145.53720642857144,135.995L145.61258928571428,140.951L145.72566357142856,139.23999999999998L145.80104642857142,14.159999999999993L145.98950357142857,134.579L146.027195,144.60899999999998L146.32872642857143,14.159999999999993L146.36641785714286,14.159999999999993L146.74333214285716,146.615L146.89409785714287,14.159999999999993L147.27101214285713,14.159999999999993L147.42177785714287,145.31699999999998L147.57254357142858,14.159999999999993L147.874075,14.159999999999993L148.06253214285715,14.159999999999993L148.62790357142856,133.458L148.665595,14.159999999999993L148.89174357142858,140.951L149.15558357142856,140.066L149.3063492857143,14.159999999999993L149.68326357142857,14.159999999999993L149.720955,14.159999999999993L149.75864642857144,140.951L149.79633785714287,139.122L150.02248642857143,14.159999999999993L150.0978692857143,125.965L150.21094357142857,14.159999999999993L150.32401785714285,126.673L150.36170928571428,72.452L150.47478357142856,14.159999999999993L150.8893892857143,14.159999999999993L151.11553785714287,141.069L151.34168642857145,136.467L151.6809092857143,145.31699999999998L151.7186007142857,14.159999999999993L151.90705785714286,14.159999999999993L152.02013214285714,135.05100000000002L152.24628071428572,141.836L152.39704642857143,137.883L152.54781214285714,14.159999999999993L152.84934357142856,14.159999999999993L152.96241785714287,143.84199999999998L153.18856642857142,106.377L153.22625785714285,144.43200000000002L153.52778928571428,114.342L153.64086357142858,121.599L153.678555,14.159999999999993L154.13085214285715,139.476L154.62084071428572,138.65L154.65853214285713,14.159999999999993L154.6962235714286,141.12800000000001L154.733915,137.293L155.261595,14.159999999999993L156.1661892857143,143.19299999999998L156.27926357142857,121.89399999999999L156.3546464285714,119.18L156.4300292857143,14.159999999999993L156.54310357142856,138.65L156.69386928571427,128.089L156.80694357142858,14.159999999999993L156.844635,14.159999999999993L157.5230807142857,14.159999999999993L157.89999500000002,14.159999999999993L158.16383499999998,14.159999999999993L158.31460071428572,142.249L158.35229214285715,14.159999999999993L158.5407492857143,14.159999999999993L158.5784407142857,120.301L158.691515,143.547L159.1061207142857,14.159999999999993L159.14381214285714,134.874L159.59610928571428,14.159999999999993L159.6338007142857,143.488L159.70918357142858,142.898L159.746875,140.302L159.8599492857143,137.82399999999998L159.8976407142857,14.159999999999993L159.93533214285716,97.70400000000001L160.19917214285715,14.159999999999993L160.27455500000002,119.47500000000001L160.9153092857143,140.36100000000002L160.9530007142857,135.75900000000001L160.99069214285714,125.906L161.02838357142855,76.93599999999999L161.1791492857143,125.906L161.29222357142856,146.261L161.857595,144.314L161.93297785714284,101.65700000000001L162.15912642857145,127.086L162.385275,145.022L162.53604071428572,14.159999999999993L163.1391035714286,76.523L163.47832642857142,14.159999999999993L163.5537092857143,133.92999999999998L163.62909214285716,141.423L163.81754928571428,131.688L163.93062357142858,122.366L164.26984642857144,126.378L164.38292071428572,127.26299999999999L164.495995,119.47500000000001L165.5136635714286,14.159999999999993L165.73981214285715,14.159999999999993L165.85288642857142,14.159999999999993L166.00365214285716,141.89499999999998L166.22980071428572,14.159999999999993L166.342875,130.036L166.41825785714286,140.243L166.60671499999998,14.159999999999993L166.68209785714285,14.159999999999993L166.79517214285715,122.012L167.43592642857143,14.159999999999993L167.58669214285715,142.426L167.8882235714286,140.007L167.925915,144.727L168.26513785714286,138.178L168.4912864285714,101.126L168.52897785714288,135.995L168.56666928571428,14.159999999999993L168.6797435714286,142.662L168.90589214285714,14.159999999999993L169.0943492857143,143.90099999999998L169.20742357142856,145.14000000000001L169.50895500000001,133.04500000000002L169.65972071428573,14.159999999999993L169.73510357142857,144.963L170.07432642857142,14.159999999999993L170.26278357142857,14.159999999999993L170.48893214285715,142.839L170.7150807142857,14.159999999999993L170.97892071428572,138.53199999999998L171.6573664285714,14.159999999999993L171.69505785714284,14.159999999999993L172.26042928571428,14.159999999999993L172.29812071428572,138.001L172.37350357142859,138.886L172.5242692857143,14.159999999999993L172.675035,139.94799999999998L173.3157892857143,14.159999999999993L173.54193785714284,14.159999999999993L173.76808642857145,98.58899999999998L173.8811607142857,14.159999999999993L174.55960642857144,14.159999999999993L174.71037214285712,140.951L174.97421214285714,14.159999999999993L175.08728642857145,14.159999999999993L175.50189214285714,14.159999999999993L175.87880642857144,127.20400000000001L175.91649785714284,131.039L176.02957214285715,14.159999999999993L176.44417785714285,14.159999999999993L177.0095492857143,146.084L177.04724071428572,14.159999999999993L177.5372292857143,137.175L177.76337785714287,83.95700000000001L177.8387607142857,131.865L177.87645214285712,14.159999999999993L178.10260071428573,143.547L178.479515,127.61699999999999L178.5925892857143,14.159999999999993L178.66797214285714,141.6L178.70566357142857,14.159999999999993L178.743355,14.159999999999993L178.89412071428572,123.54599999999999L179.27103499999998,14.159999999999993L179.30872642857142,147.441L179.76102357142855,14.159999999999993L179.798715,126.55500000000002L180.43946928571427,14.159999999999993L180.854075,14.159999999999993L181.19329785714285,14.159999999999993L181.381755,14.159999999999993L181.57021214285714,120.183L181.79636071428573,14.159999999999993L182.13558357142855,147.087L182.437115,14.159999999999993L182.77633785714286,125.434L183.1909435714286,143.606L183.3794007142857,14.159999999999993L183.492475,14.159999999999993L183.53016642857142,49.796L183.79400642857144,14.159999999999993L184.09553785714283,14.159999999999993L184.39706928571428,14.159999999999993L184.547835,14.159999999999993L184.6609092857143,14.159999999999993L184.77398357142857,14.159999999999993L184.811675,14.159999999999993L185.11320642857143,14.159999999999993L185.18858928571427,14.159999999999993L185.603195,14.159999999999993L185.90472642857142,64.015L186.31933214285712,14.159999999999993L186.47009785714283,14.159999999999993L186.77162928571428,14.159999999999993L187.63853214285714,14.159999999999993L187.8646807142857,14.159999999999993L188.01544642857144,14.159999999999993L188.58081785714288,132.75L188.80696642857143,14.159999999999993L188.92004071428573,137.64700000000002L188.99542357142857,14.159999999999993L189.25926357142856,14.159999999999993L189.37233785714287,14.159999999999993L189.52310357142858,14.159999999999993L189.6738692857143,14.159999999999993L189.71156071428572,14.159999999999993L189.74925214285713,14.159999999999993L189.82463499999997,14.159999999999993L190.31462357142857,14.159999999999993L190.39000642857144,14.159999999999993L190.4653892857143,14.159999999999993L190.616155,14.159999999999993L190.72922928571427,14.159999999999993L190.7669207142857,120.301L190.84230357142857,14.159999999999993L191.143835,14.159999999999993L191.5207492857143,14.159999999999993L192.04842928571426,14.159999999999993L192.16150357142857,14.159999999999993L192.27457785714287,14.159999999999993L192.80225785714285,14.159999999999993L192.91533214285715,14.159999999999993L193.48070357142856,14.159999999999993L193.66916071428574,14.159999999999993L193.70685214285714,14.159999999999993L193.85761785714286,14.159999999999993L194.00838357142857,14.159999999999993L194.046075,77.526L194.0837664285714,18.703000000000003L194.1591492857143,14.159999999999993L194.34760642857142,14.159999999999993L194.38529785714286,14.159999999999993L194.42298928571427,14.159999999999993L194.76221214285715,14.159999999999993L195.06374357142855,14.159999999999993L195.21450928571429,14.159999999999993L195.28989214285716,14.159999999999993L195.5160407142857,14.159999999999993L195.81757214285713,14.159999999999993L195.85526357142857,14.159999999999993L196.08141214285715,14.159999999999993L196.19448642857145,14.159999999999993L196.49601785714285,14.159999999999993L196.72216642857143,14.159999999999993L196.83524071428573,14.159999999999993L196.87293214285714,14.159999999999993L196.98600642857144,14.159999999999993L197.09908071428572,118.53099999999999L197.212155,14.159999999999993L197.66445214285716,14.159999999999993L197.81521785714287,14.159999999999993L198.07905785714286,14.159999999999993L198.30520642857144,14.159999999999993L198.45597214285715,14.159999999999993L198.49366357142858,14.159999999999993L198.60673785714286,14.159999999999993L198.6444292857143,14.159999999999993L198.90826928571428,33.571L198.98365214285715,92.748L199.05903500000002,14.159999999999993L199.28518357142858,14.159999999999993L199.51133214285713,14.159999999999993L199.62440642857143,14.159999999999993L199.7374807142857,14.159999999999993L199.81286357142855,14.159999999999993L199.88824642857145,14.159999999999993L200.4913092857143,14.159999999999993L200.56669214285714,14.159999999999993L200.642075,14.159999999999993L200.67976642857144,14.159999999999993L200.71745785714285,14.159999999999993L200.98129785714286,14.159999999999993L201.0189892857143,14.159999999999993L201.69743499999998,14.159999999999993L201.8105092857143,14.159999999999993L202.45126357142857,14.159999999999993L202.94125214285714,14.159999999999993L203.4312407142857,14.159999999999993L203.50662357142858,14.159999999999993L204.071995,14.159999999999993L204.22276071428573,14.159999999999993L204.37352642857144,14.159999999999993L204.63736642857143,14.159999999999993L204.78813214285717,14.159999999999993L204.97658928571428,14.159999999999993L206.06964071428573,14.159999999999993L206.14502357142857,14.159999999999993L206.52193785714283,14.159999999999993L206.5596292857143,14.159999999999993L207.42653214285713,14.159999999999993L207.76575499999998,14.159999999999993L208.67034928571428,14.159999999999993L209.12264642857144,14.159999999999993L209.19802928571428,14.159999999999993L209.3864864285714,14.159999999999993L209.76340071428572,14.159999999999993L209.876475,14.159999999999993L209.91416642857143,14.159999999999993L210.21569785714286,14.159999999999993L210.2910807142857,14.159999999999993L210.47953785714284,14.159999999999993L210.70568642857143,14.159999999999993L210.78106928571427,14.159999999999993L211.49720642857145,14.159999999999993L211.8741207142857,14.159999999999993L212.02488642857142,14.159999999999993L212.17565214285713,14.159999999999993L212.43949214285715,14.159999999999993L212.59025785714286,14.159999999999993L212.6279492857143,14.159999999999993L212.70333214285714,14.159999999999993L212.74102357142857,14.159999999999993L213.1933207142857,14.159999999999993L213.5325435714286,14.159999999999993L213.9471492857143,14.159999999999993L214.32406357142858,14.159999999999993L214.36175500000002,14.159999999999993L214.43713785714286,14.159999999999993L214.62559499999998,14.159999999999993L214.70097785714285,14.159999999999993L214.889435,14.159999999999993L215.11558357142857,14.159999999999993L215.37942357142856,14.159999999999993L215.53018928571427,108.08800000000001L215.86941214285713,68.44000000000001L216.43478357142857,14.159999999999993L216.472475,14.159999999999993L216.6232407142857,14.159999999999993L216.77400642857143,14.159999999999993L216.88708071428573,50.62200000000001L217.33937785714286,14.159999999999993L217.67860071428572,103.72200000000001L217.86705785714287,14.159999999999993L217.9424407142857,67.024L218.01782357142858,55.46L218.09320642857142,34.51499999999999L218.35704642857144,32.45L218.8847264285714,14.159999999999993L218.92241785714285,14.159999999999993L219.03549214285715,14.159999999999993L219.11087500000002,52.982L219.26164071428573,14.159999999999993L219.29933214285714,14.159999999999993L219.48778928571429,72.039L219.56317214285713,14.159999999999993L219.638555,14.159999999999993L219.82701214285714,14.159999999999993L220.5431492857143,53.394999999999996L220.76929785714285,46.66900000000001L220.84468071428572,35.75399999999999L220.957755,114.873L221.29697785714285,54.398L221.71158357142858,117.351L221.78696642857142,26.077999999999996L222.05080642857143,54.51600000000001L222.08849785714284,14.159999999999993L222.23926357142855,67.791L222.61617785714287,14.159999999999993L222.6915607142857,103.663L222.88001785714286,14.159999999999993L223.03078357142857,14.159999999999993L223.29462357142856,14.159999999999993L223.67153785714285,50.385999999999996L223.74692071428572,14.159999999999993L223.78461214285713,14.159999999999993L223.93537785714287,14.159999999999993L224.0107607142857,14.159999999999993L224.08614357142858,14.159999999999993L224.12383499999999,14.159999999999993L224.19921785714286,14.159999999999993L224.61382357142855,14.159999999999993L225.5938007142857,14.159999999999993L225.66918357142856,14.159999999999993L225.89533214285714,14.159999999999993L226.00840642857142,14.159999999999993L226.04609785714285,14.159999999999993L226.08378928571426,14.159999999999993L226.12148071428572,14.159999999999993L226.3853207142857,53.159L226.53608642857142,14.159999999999993L226.6114692857143,14.159999999999993L226.7245435714286,14.159999999999993L227.44068071428572,14.159999999999993L227.70452071428574,14.159999999999993L227.77990357142858,78.883L227.89297785714285,68.85300000000001L228.26989214285715,14.159999999999993L228.72218928571428,14.159999999999993L229.664475,14.159999999999993L229.81524071428572,14.159999999999993L231.02136642857144,14.159999999999993L231.13444071428572,14.159999999999993L231.511355,14.159999999999993L232.039035,14.159999999999993L232.22749214285713,14.159999999999993L232.302875,14.159999999999993L232.79286357142857,14.159999999999993L233.3959264285714,14.159999999999993L233.50900071428572,14.159999999999993L233.622075,14.159999999999993L233.7728407142857,14.159999999999993L233.885915,14.159999999999993L234.149755,14.159999999999993L234.41359500000002,14.159999999999993L234.5266692857143,14.159999999999993L234.79050928571428,14.159999999999993L234.90358357142858,14.159999999999993L235.16742357142857,14.159999999999993L235.2428064285714,14.159999999999993L235.35588071428572,14.159999999999993L235.39357214285715,14.159999999999993L235.43126357142856,14.159999999999993L235.46895500000002,14.159999999999993L235.73279499999998,14.159999999999993L235.996635,14.159999999999993L236.33585785714286,14.159999999999993L236.44893214285716,14.159999999999993L236.48662357142857,14.159999999999993L236.63738928571428,14.159999999999993L236.97661214285714,14.159999999999993L237.39121785714286,14.159999999999993L237.843515,14.159999999999993L238.25812071428572,14.159999999999993L238.898875,14.159999999999993L239.27578928571427,14.159999999999993L239.53962928571428,14.159999999999993L239.6527035714286,14.159999999999993L240.02961785714285,14.159999999999993L240.0673092857143,14.159999999999993L240.14269214285716,14.159999999999993L240.3688407142857,14.159999999999993L240.63268071428573,14.159999999999993L241.38650928571428,14.159999999999993L241.61265785714286,14.159999999999993L242.10264642857143,14.159999999999993L242.14033785714284,14.159999999999993L242.63032642857144,14.159999999999993L242.81878357142858,22.006999999999994L242.93185785714283,14.159999999999993L243.23338928571428,14.159999999999993L243.42184642857146,14.159999999999993L243.45953785714286,14.159999999999993L243.87414357142856,14.159999999999993L244.21336642857145,14.159999999999993L244.47720642857144,14.159999999999993L244.5525892857143,14.159999999999993" style="fill: none;" fill="none"></path></g></g></g></g></g></g><g transform="translate(72, 177)" clip-path="url(#clip_1)"><clipPath id="clip_1"><rect width="257" height="23"></rect></clipPath><g><g><line x1="0" y1="0" x2="0" y2="5" style="visibility: inherit;" fill="rgb(0, 0, 0)" stroke="rgb(204, 204, 204)" stroke-width="1px"></line><line x1="18.404017857142858" y1="0" x2="18.404017857142858" y2="5" style="visibility: inherit;" fill="rgb(0, 0, 0)" stroke="rgb(204, 204, 204)" stroke-width="1px"></line><line x1="36.808035714285715" y1="0" x2="36.808035714285715" y2="5" style="visibility: inherit;" fill="rgb(0, 0, 0)" stroke="rgb(204, 204, 204)" stroke-width="1px"></line><line x1="55.21205357142857" y1="0" x2="55.21205357142857" y2="5" style="visibility: inherit;" fill="rgb(0, 0, 0)" stroke="rgb(204, 204, 204)" stroke-width="1px"></line><line x1="73.61607142857143" y1="0" x2="73.61607142857143" y2="5" style="visibility: inherit;" fill="rgb(0, 0, 0)" stroke="rgb(204, 204, 204)" stroke-width="1px"></line><line x1="92.02008928571429" y1="0" x2="92.02008928571429" y2="5" style="visibility: inherit;" fill="rgb(0, 0, 0)" stroke="rgb(204, 204, 204)" stroke-width="1px"></line><line x1="110.42410714285714" y1="0" x2="110.42410714285714" y2="5" style="visibility: inherit;" fill="rgb(0, 0, 0)" stroke="rgb(204, 204, 204)" stroke-width="1px"></line><line x1="128.828125" y1="0" x2="128.828125" y2="5" style="visibility: inherit;" fill="rgb(0, 0, 0)" stroke="rgb(204, 204, 204)" stroke-width="1px"></line><line x1="147.23214285714286" y1="0" x2="147.23214285714286" y2="5" style="visibility: inherit;" fill="rgb(0, 0, 0)" stroke="rgb(204, 204, 204)" stroke-width="1px"></line><line x1="165.63616071428572" y1="0" x2="165.63616071428572" y2="5" style="visibility: inherit;" fill="rgb(0, 0, 0)" stroke="rgb(204, 204, 204)" stroke-width="1px"></line><line x1="184.04017857142858" y1="0" x2="184.04017857142858" y2="5" style="visibility: inherit;" fill="rgb(0, 0, 0)" stroke="rgb(204, 204, 204)" stroke-width="1px"></line><line x1="202.44419642857142" y1="0" x2="202.44419642857142" y2="5" style="visibility: inherit;" fill="rgb(0, 0, 0)" stroke="rgb(204, 204, 204)" stroke-width="1px"></line><line x1="220.84821428571428" y1="0" x2="220.84821428571428" y2="5" style="visibility: inherit;" fill="rgb(0, 0, 0)" stroke="rgb(204, 204, 204)" stroke-width="1px"></line><line x1="239.25223214285714" y1="0" x2="239.25223214285714" y2="5" style="visibility: inherit;" fill="rgb(0, 0, 0)" stroke="rgb(204, 204, 204)" stroke-width="1px"></line><line x1="257.65625" y1="0" x2="257.65625" y2="5" style="visibility: inherit;" fill="rgb(0, 0, 0)" stroke="rgb(204, 204, 204)" stroke-width="1px"></line></g><g transform="translate(0, 8)"><text x="0" y="0" dx="0em" dy="0.95em" style="text-anchor: middle; visibility: hidden; font-family: Roboto, sans-serif; font-size: 12px; font-weight: 200;" fill="rgb(33, 33, 33)" stroke="none" stroke-width="1px">-10M</text><text x="18.404017857142858" y="0" dx="0em" dy="0.95em" style="text-anchor: middle; visibility: inherit; font-family: Roboto, sans-serif; font-size: 12px; font-weight: 200;" fill="rgb(33, 33, 33)" stroke="none" stroke-width="1px">0</text><text x="36.808035714285715" y="0" dx="0em" dy="0.95em" style="text-anchor: middle; visibility: hidden; font-family: Roboto, sans-serif; font-size: 12px; font-weight: 200;" fill="rgb(33, 33, 33)" stroke="none" stroke-width="1px">10M</text><text x="55.21205357142857" y="0" dx="0em" dy="0.95em" style="text-anchor: middle; visibility: inherit; font-family: Roboto, sans-serif; font-size: 12px; font-weight: 200;" fill="rgb(33, 33, 33)" stroke="none" stroke-width="1px">20M</text><text x="73.61607142857143" y="0" dx="0em" dy="0.95em" style="text-anchor: middle; visibility: hidden; font-family: Roboto, sans-serif; font-size: 12px; font-weight: 200;" fill="rgb(33, 33, 33)" stroke="none" stroke-width="1px">30M</text><text x="92.02008928571429" y="0" dx="0em" dy="0.95em" style="text-anchor: middle; visibility: inherit; font-family: Roboto, sans-serif; font-size: 12px; font-weight: 200;" fill="rgb(33, 33, 33)" stroke="none" stroke-width="1px">40M</text><text x="110.42410714285714" y="0" dx="0em" dy="0.95em" style="text-anchor: middle; visibility: hidden; font-family: Roboto, sans-serif; font-size: 12px; font-weight: 200;" fill="rgb(33, 33, 33)" stroke="none" stroke-width="1px">50M</text><text x="128.828125" y="0" dx="0em" dy="0.95em" style="text-anchor: middle; visibility: inherit; font-family: Roboto, sans-serif; font-size: 12px; font-weight: 200;" fill="rgb(33, 33, 33)" stroke="none" stroke-width="1px">60M</text><text x="147.23214285714286" y="0" dx="0em" dy="0.95em" style="text-anchor: middle; visibility: hidden; font-family: Roboto, sans-serif; font-size: 12px; font-weight: 200;" fill="rgb(33, 33, 33)" stroke="none" stroke-width="1px">70M</text><text x="165.63616071428572" y="0" dx="0em" dy="0.95em" style="text-anchor: middle; visibility: inherit; font-family: Roboto, sans-serif; font-size: 12px; font-weight: 200;" fill="rgb(33, 33, 33)" stroke="none" stroke-width="1px">80M</text><text x="184.04017857142858" y="0" dx="0em" dy="0.95em" style="text-anchor: middle; visibility: hidden; font-family: Roboto, sans-serif; font-size: 12px; font-weight: 200;" fill="rgb(33, 33, 33)" stroke="none" stroke-width="1px">90M</text><text x="202.44419642857142" y="0" dx="0em" dy="0.95em" style="text-anchor: middle; visibility: inherit; font-family: Roboto, sans-serif; font-size: 12px; font-weight: 200;" fill="rgb(33, 33, 33)" stroke="none" stroke-width="1px">100M</text><text x="220.84821428571428" y="0" dx="0em" dy="0.95em" style="text-anchor: middle; visibility: hidden; font-family: Roboto, sans-serif; font-size: 12px; font-weight: 200;" fill="rgb(33, 33, 33)" stroke="none" stroke-width="1px">110M</text><text x="239.25223214285714" y="0" dx="0em" dy="0.95em" style="text-anchor: middle; visibility: inherit; font-family: Roboto, sans-serif; font-size: 12px; font-weight: 200;" fill="rgb(33, 33, 33)" stroke="none" stroke-width="1px">120M</text><text x="257.65625" y="0" dx="0em" dy="0.95em" style="text-anchor: middle; visibility: hidden; font-family: Roboto, sans-serif; font-size: 12px; font-weight: 200;" fill="rgb(33, 33, 33)" stroke="none" stroke-width="1px">130M</text></g><line x1="0" y1="0" x2="257.65625" y2="0" fill="rgb(0, 0, 0)" stroke="rgb(204, 204, 204)" stroke-width="1px"></line></g></g></g></g></svg>