<svg viewBox="0 0 330 200" xmlns="http://www.w3.org/2000/svg"><g><g><g><g><g><line x1="70" y1="177" x2="65" y2="177" style="visibility: inherit;" fill="rgb(0, 0, 0)" stroke="rgb(204, 204, 204)" stroke-width="1px"></line><line x1="70" y1="165.2" x2="65" y2="165.2" style="visibility: inherit;" fill="rgb(0, 0, 0)" stroke="rgb(204, 204, 204)" stroke-width="1px"></line><line x1="70" y1="153.4" x2="65" y2="153.4" style="visibility: inherit;" fill="rgb(0, 0, 0)" stroke="rgb(204, 204, 204)" stroke-width="1px"></line><line x1="70" y1="141.6" x2="65" y2="141.6" style="visibility: inherit;" fill="rgb(0, 0, 0)" stroke="rgb(204, 204, 204)" stroke-width="1px"></line><line x1="70" y1="129.8" x2="65" y2="129.8" style="visibility: inherit;" fill="rgb(0, 0, 0)" stroke="rgb(204, 204, 204)" stroke-width="1px"></line><line x1="70" y1="118.00000000000001" x2="65" y2="118.00000000000001" style="visibility: inherit;" fill="rgb(0, 0, 0)" stroke="rgb(204, 204, 204)" stroke-width="1px"></line><line x1="70" y1="106.2" x2="65" y2="106.2" style="visibility: inherit;" fill="rgb(0, 0, 0)" stroke="rgb(204, 204, 204)" stroke-width="1px"></line><line x1="70" y1="94.4" x2="65" y2="94.4" style="visibility: inherit;" fill="rgb(0, 0, 0)" stroke="rgb(204, 204, 204)" stroke-width="1px"></line><line x1="70" y1="82.6" x2="65" y2="82.6" style="visibility: inherit;" fill="rgb(0, 0, 0)" stroke="rgb(204, 204, 204)" stroke-width="1px"></line><line x1="70" y1="70.8" x2="65" y2="70.8" style="visibility: inherit;" fill="rgb(0, 0, 0)" stroke="rgb(204, 204, 204)" stroke-width="1px"></line><line x1="70" y1="59.00000000000001" x2="65" y2="59.00000000000001" style="visibility: inherit;" fill="rgb(0, 0, 0)" stroke="rgb(204, 204, 204)" stroke-width="1px"></line><line x1="70" y1="47.20000000000001" x2="65" y2="47.20000000000001" style="visibility: inherit;" fill="rgb(0, 0, 0)" stroke="rgb(204, 204, 204)" stroke-width="1px"></line><line x1="70" y1="35.39999999999999" x2="65" y2="35.39999999999999" style="visibility: inherit;" fill="rgb(0, 0, 0)" stroke="rgb(204, 204, 204)" stroke-width="1px"></line><line x1="70" y1="23.599999999999994" x2="65" y2="23.599999999999994" style="visibility: inherit;" fill="rgb(0, 0, 0)" stroke="rgb(204, 204, 204)" stroke-width="1px"></line><line x1="70" y1="11.799999999999997" x2="65" y2="11.799999999999997" style="visibility: inherit;" fill="rgb(0, 0, 0)" stroke="rgb(204, 204, 204)" stroke-width="1px"></line><line x1="70" y1="0" x2="65" y2="0" style="visibility: inherit;" fill="rgb(0, 0, 0)" stroke="rgb(204, 204, 204)" stroke-width="1px"></line></g><g transform="translate(60, 0)"><text x="0" y="177" dx="0em" dy="0.3em" style="text-anchor: end; visibility: hidden; font-family: Roboto, sans-serif; font-size: 12px; font-weight: 200;" fill="rgb(33, 33, 33)" stroke="none" stroke-width="1px">-200</text><text x="0" y="165.2" dx="0em" dy="0.3em" style="text-anchor: end; visibility: inherit; font-family: Roboto, sans-serif; font-size: 12px; font-weight: 200;" fill="rgb(33, 33, 33)" stroke="none" stroke-width="1px">0</text><text x="0" y="153.4" dx="0em" dy="0.3em" style="text-anchor: end; visibility: hidden; font-family: Roboto, sans-serif; font-size: 12px; font-weight: 200;" fill="rgb(33, 33, 33)" stroke="none" stroke-width="1px">200</text><text x="0" y="141.6" dx="0em" dy="0.3em" style="text-anchor: end; visibility: inherit; font-family: Roboto, sans-serif; font-size: 12px; font-weight: 200;" fill="rgb(33, 33, 33)" stroke="none" stroke-width="1px">400</text><text x="0" y="129.8" dx="0em" dy="0.3em" style="text-anchor: end; visibility: hidden; font-family: Roboto, sans-serif; font-size: 12px; font-weight: 200;" fill="rgb(33, 33, 33)" stroke="none" stroke-width="1px">600</text><text x="0" y="118.00000000000001" dx="0em" dy="0.3em" style="text-anchor: end; visibility: inherit; font-family: Roboto, sans-serif; font-size: 12px; font-weight: 200;" fill="rgb(33, 33, 33)" stroke="none" stroke-width="1px">800</text><text x="0" y="106.2" dx="0em" dy="0.3em" style="text-anchor: end; visibility: hidden; font-family: Roboto, sans-serif; font-size: 12px; font-weight: 200;" fill="rgb(33, 33, 33)" stroke="none" stroke-width="1px">1e+3</text><text x="0" y="94.4" dx="0em" dy="0.3em" style="text-anchor: end; visibility: inherit; font-family: Roboto, sans-serif; font-size: 12px; font-weight: 200;" fill="rgb(33, 33, 33)" stroke="none" stroke-width="1px">1.2e+3</text><text x="0" y="82.6" dx="0em" dy="0.3em" style="text-anchor: end; visibility: hidden; font-family: Roboto, sans-serif; font-size: 12px; font-weight: 200;" fill="rgb(33, 33, 33)" stroke="none" stroke-width="1px">1.4e+3</text><text x="0" y="70.8" dx="0em" dy="0.3em" style="text-anchor: end; visibility: inherit; font-family: Roboto, sans-serif; font-size: 12px; font-weight: 200;" fill="rgb(33, 33, 33)" stroke="none" stroke-width="1px">1.6e+3</text><text x="0" y="59.00000000000001" dx="0em" dy="0.3em" style="text-anchor: end; visibility: hidden; font-family: Roboto, sans-serif; font-size: 12px; font-weight: 200;" fill="rgb(33, 33, 33)" stroke="none" stroke-width="1px">1.8e+3</text><text x="0" y="47.20000000000001" dx="0em" dy="0.3em" style="text-anchor: end; visibility: inherit; font-family: Roboto, sans-serif; font-size: 12px; font-weight: 200;" fill="rgb(33, 33, 33)" stroke="none" stroke-width="1px">2e+3</text><text x="0" y="35.39999999999999" dx="0em" dy="0.3em" style="text-anchor: end; visibility: hidden; font-family: Roboto, sans-serif; font-size: 12px; font-weight: 200;" fill="rgb(33, 33, 33)" stroke="none" stroke-width="1px">2.2e+3</text><text x="0" y="23.599999999999994" dx="0em" dy="0.3em" style="text-anchor: end; visibility: inherit; font-family: Roboto, sans-serif; font-size: 12px; font-weight: 200;" fill="rgb(33, 33, 33)" stroke="none" stroke-width="1px">2.4e+3</text><text x="0" y="11.799999999999997" dx="0em" dy="0.3em" style="text-anchor: end; visibility: hidden; font-family: Roboto, sans-serif; font-size: 12px; font-weight: 200;" fill="rgb(33, 33, 33)" stroke="none" stroke-width="1px">2.6e+3</text><text x="0" y="0" dx="0em" dy="0.3em" style="text-anchor: end; visibility: hidden; font-family: Roboto, sans-serif; font-size: 12px; font-weight: 200;" fill="rgb(33, 33, 33)" stroke="none" stroke-width="1px">2.8e+3</text></g><line x1="70" y1="0" x2="70" y2="177" fill="rgb(0, 0, 0)" stroke="rgb(204, 204, 204)" stroke-width="1px"></line></g></g><g transform="translate(70, 0)" clip-path="url(#clip_0)"><clipPath id="clip_0"><rect width="260" height="177"></rect></clipPath><g><g><g><line x1="0" y1="0" x2="0" y2="177" fill="rgb(0, 0, 0)" stroke="rgb(66, 66, 66)" stroke-width="1px" opacity="0.25"></line><line x1="18.57142857142857" y1="0" x2="18.57142857142857" y2="177" fill="rgb(0, 0, 0)" stroke="rgb(66, 66, 66)" stroke-width="1px" opacity="0.25"></line><line x1="37.14285714285714" y1="0" x2="37.14285714285714" y2="177" fill="rgb(0, 0, 0)" stroke="rgb(66, 66, 66)" stroke-width="1px" opacity="0.25"></line><line x1="55.71428571428571" y1="0" x2="55.71428571428571" y2="177" fill="rgb(0, 0, 0)" stroke="rgb(66, 66, 66)" stroke-width="1px" opacity="0.25"></line><line x1="74.28571428571428" y1="0" x2="74.28571428571428" y2="177" fill="rgb(0, 0, 0)" stroke="rgb(66, 66, 66)" stroke-width="1px" opacity="0.25"></line><line x1="92.85714285714286" y1="0" x2="92.85714285714286" y2="177" fill="rgb(0, 0, 0)" stroke="rgb(66, 66, 66)" stroke-width="1px" opacity="0.25"></line><line x1="111.42857142857142" y1="0" x2="111.42857142857142" y2="177" fill="rgb(0, 0, 0)" stroke="rgb(66, 66, 66)" stroke-width="1px" opacity="0.25"></line><line x1="130" y1="0" x2="130" y2="177" fill="rgb(0, 0, 0)" stroke="rgb(66, 66, 66)" stroke-width="1px" opacity="0.25"></line><line x1="148.57142857142856" y1="0" x2="148.57142857142856" y2="177" fill="rgb(0, 0, 0)" stroke="rgb(66, 66, 66)" stroke-width="1px" opacity="0.25"></line><line x1="167.14285714285717" y1="0" x2="167.14285714285717" y2="177" fill="rgb(0, 0, 0)" stroke="rgb(66, 66, 66)" stroke-width="1px" opacity="0.25"></line><line x1="185.71428571428572" y1="0" x2="185.71428571428572" y2="177" fill="rgb(0, 0, 0)" stroke="rgb(66, 66, 66)" stroke-width="1px" opacity="0.25"></line><line x1="204.28571428571428" y1="0" x2="204.28571428571428" y2="177" fill="rgb(0, 0, 0)" stroke="rgb(66, 66, 66)" stroke-width="1px" opacity="0.25"></line><line x1="222.85714285714283" y1="0" x2="222.85714285714283" y2="177" fill="rgb(0, 0, 0)" stroke="rgb(66, 66, 66)" stroke-width="1px" opacity="0.25"></line><line x1="241.42857142857144" y1="0" x2="241.42857142857144" y2="177" fill="rgb(0, 0, 0)" stroke="rgb(66, 66, 66)" stroke-width="1px" opacity="0.25"></line><line x1="260" y1="0" x2="260" y2="177" fill="rgb(0, 0, 0)" stroke="rgb(66, 66, 66)" stroke-width="1px" opacity="0.25"></line></g><g><line x1="0" y1="177" x2="260" y2="177" fill="rgb(0, 0, 0)" stroke="rgb(66, 66, 66)" stroke-width="1px" opacity="0.25"></line><line x1="0" y1="165.2" x2="260" y2="165.2" fill="rgb(0, 0, 0)" stroke="rgb(66, 66, 66)" stroke-width="1px" opacity="0.25"></line><line x1="0" y1="153.4" x2="260" y2="153.4" fill="rgb(0, 0, 0)" stroke="rgb(66, 66, 66)" stroke-width="1px" opacity="0.25"></line><line x1="0" y1="141.6" x2="260" y2="141.6" fill="rgb(0, 0, 0)" stroke="rgb(66, 66, 66)" stroke-width="1px" opacity="0.25"></line><line x1="0" y1="129.8" x2="260" y2="129.8" fill="rgb(0, 0, 0)" stroke="rgb(66, 66, 66)" stroke-width="1px" opacity="0.25"></line><line x1="0" y1="118.00000000000001" x2="260" y2="118.00000000000001" fill="rgb(0, 0, 0)" stroke="rgb(66, 66, 66)" stroke-width="1px" opacity="0.25"></line><line x1="0" y1="106.2" x2="260" y2="106.2" fill="rgb(0, 0, 0)" stroke="rgb(66, 66, 66)" stroke-width="1px" opacity="0.25"></line><line x1="0" y1="94.4" x2="260" y2="94.4" fill="rgb(0, 0, 0)" stroke="rgb(66, 66, 66)" stroke-width="1px" opacity="0.25"></line><line x1="0" y1="82.6" x2="260" y2="82.6" fill="rgb(0, 0, 0)" stroke="rgb(66, 66, 66)" stroke-width="1px" opacity="0.25"></line><line x1="0" y1="70.8" x2="260" y2="70.8" fill="rgb(0, 0, 0)" stroke="rgb(66, 66, 66)" stroke-width="1px" opacity="0.25"></line><line x1="0" y1="59.00000000000001" x2="260" y2="59.00000000000001" fill="rgb(0, 0, 0)" stroke="rgb(66, 66, 66)" stroke-width="1px" opacity="0.25"></line><line x1="0" y1="47.20000000000001" x2="260" y2="47.20000000000001" fill="rgb(0, 0, 0)" stroke="rgb(66, 66, 66)" stroke-width="1px" opacity="0.25"></line><line x1="0" y1="35.39999999999999" x2="260" y2="35.39999999999999" fill="rgb(0, 0, 0)" stroke="rgb(66, 66, 66)" stroke-width="1px" opacity="0.25"></line><line x1="0" y1="23.599999999999994" x2="260" y2="23.599999999999994" fill="rgb(0, 0, 0)" stroke="rgb(66, 66, 66)" stroke-width="1px" opacity="0.25"></line><line x1="0" y1="11.799999999999997" x2="260" y2="11.799999999999997" fill="rgb(0, 0, 0)" stroke="rgb(66, 66, 66)" stroke-width="1px" opacity="0.25"></line><line x1="0" y1="0" x2="260" y2="0" fill="rgb(0, 0, 0)" stroke="rgb(66, 66, 66)" stroke-width="1px" opacity="0.25"></line></g></g></g><g><g><line x1="0" y1="165.2" x2="260" y2="165.2" fill="rgb(0, 0, 0)" stroke="rgb(153, 153, 153)" stroke-width="1.5px"></line></g></g><g><g><line x1="18.57142857142857" y1="0" x2="18.57142857142857" y2="177" fill="rgb(0, 0, 0)" stroke="rgb(153, 153, 153)" stroke-width="1.5px"></line></g></g><g><g><g><g><g><path stroke="rgb(0, 119, 187)" stroke-width="2px" d="M18.7616,152.5443136444092L19.14194285714286,151.29851445239353L19.17997714285714,153.9098806745191L19.294079999999997,153.57078742841722L19.598354285714287,152.534853327738L19.636388571428572,150.59928470392805L20.130834285714286,133.49376756129146L20.397074285714286,120.49694024116405L20.43510857142857,123.43333646361106L20.473142857142857,120.94594475882084L20.96758857142857,114.66142422503196L21.005622857142857,107.50513010966955L21.15776,110.29004264291116L21.271862857142857,111.22824956701437L21.309897142857142,110.85015328471623L21.538102857142857,112.79964377154269L21.728274285714285,107.79251976531728L21.99451428571429,110.25710150323036L22.374857142857145,112.06334506822049L22.526994285714284,113.36611432561341L22.679131428571427,114.64323900734617L23.21161142857143,115.37843241780007L23.363748571428573,111.42759368586509L23.401782857142855,112.76151534930385L23.47785142857143,109.93980061572331L23.55392,111.08584920650382L23.782125714285712,109.8857440278419L24.0864,106.77353685554827L24.162468571428573,108.19108556023332L24.200502857142858,105.33161167022044L24.314605714285715,106.46107937002392L24.580845714285715,105.21425526304373L24.694948571428572,105.44352216098915L24.771017142857144,105.77957025574378L24.847085714285715,105.68940762298753L25.15136,105.8904505527045L25.34153142857143,105.34352022974531L25.60777142857143,105.72364962353076L25.87401142857143,103.52615148878223L25.912045714285714,103.87456028678957L26.33042285714286,103.32653466657831L26.406491428571428,104.22055574021806L26.710765714285714,105.07500603661981L27.319314285714288,105.75458957802707L27.889828571428573,103.81550623761848L27.92786285714286,104.66505736910024L28.422308571428573,105.31568190391756L28.460342857142855,105.68181030240386L28.916754285714287,106.2857133357496L29.030857142857144,107.17594819150403L29.335131428571426,105.4185528813072L29.449234285714283,103.72385910854905L29.56333714285714,104.37550363653943L29.639405714285715,104.98512242431323L29.829577142857143,105.65477284207468L29.905645714285715,106.07547014766187L30.324022857142857,104.85197364873594L30.47616,103.33145024238208L30.628297142857143,103.83858858013046L30.704365714285714,104.1333976319424L30.7424,103.23298477263567L30.856502857142857,103.73161331983408L31.731291428571428,104.0965788868421L31.769325714285717,103.83269948336928L32.22573714285714,102.47492146488146L32.453942857142856,102.82177505885096L32.491977142857145,101.51631653732966L32.53001142857143,101.76081031389572L32.986422857142855,102.19996529490182L33.29069714285714,101.42688361570399L33.44283428571429,101.84785529994255L33.518902857142855,102.11640573056371L33.70907428571429,100.92281883104248L33.89924571428572,99.76171731969264L33.97531428571428,100.3382425759668L34.39369142857143,100.85314096674978L34.621897142857144,99.74554109809313L34.65993142857143,99.84738386985549L35.192411428571425,99.29046983798924L35.230445714285715,99.71211615792332L35.30651428571428,99.99159188401242L35.57275428571429,99.39320232499058L35.80096,99.85333188679226L36.14326857142857,100.17431051922495L36.295405714285714,100.21022035640559L36.409508571428574,100.42524767981729L36.48557714285714,100.91899479267245L36.63771428571429,101.26678823755522L36.67574857142857,101.55568512880882L36.86592,100.57684707995509L36.903954285714285,100.61572814217172L37.13216,100.84354424983354L38.00694857142857,99.95281429903594L38.083017142857145,99.02988594294345L38.12105142857143,99.43565919991615L38.15908571428571,98.57719487957546L38.27318857142857,98.78855190211677L38.34925714285714,98.36082706198377L38.88173714285714,98.78425404942104L38.91977142857142,99.09704024856036L38.99584,98.24265155127704L39.07190857142857,97.42720822549445L39.14797714285714,97.33364631143701L39.30011428571429,97.72767035963227L39.37618285714286,96.9197943248043L39.52832,97.14683240956043L39.60438857142857,97.56887468777506L39.756525714285715,97.05511886373077L39.98473142857143,96.28563355189554L40.0608,96.69168943370018L40.21293714285714,96.7679815478044L40.821485714285714,96.01288412882151L41.04969142857143,95.27080615979746L41.20182857142857,95.68366626304152L41.27789714285714,96.10956236596753L41.92448,96.38498792784772L41.962514285714285,95.6639527415998L42.26678857142857,96.02019848402809L42.30482285714285,95.32052496344612L42.494994285714284,95.43965427468089L42.53302857142857,95.67775961007425L42.83730285714286,96.049809557099L43.06550857142857,95.36223036331295L43.103542857142855,94.95811923194098L43.29371428571429,94.29147916765287L43.636022857142855,93.63445000902352L43.712091428571426,93.95622973473276L43.97833142857142,94.13792286417464L44.282605714285715,94.47327189156341L44.320640000000004,94.80018816619298L44.62491428571428,95.11609370244572L44.92918857142857,94.47869076424975L45.00525714285715,94.85682710816273L45.61380571428571,95.20832752672632L46.03218285714286,94.99147223752698L46.10825142857143,95.01898164597041L46.18432,95.24454233774925L46.29842285714286,95.55382699362232L46.41252571428572,94.95089553195565L46.45056,95.08752158995846L46.90697142857143,95.4698013642045L47.667657142857145,94.87019546505792L48.086034285714284,94.8818520152935L48.12406857142857,95.1227429476815L48.35227428571429,94.53676296955267L48.580479999999994,94.27191512306032L49.18902857142857,93.69881903157507L49.227062857142855,93.91487769397874L49.303131428571426,93.35232782407729L49.41723428571429,93.53639215229451L49.759542857142854,92.98262979314818L50.25398857142857,92.43607146386437L50.55826285714286,91.90254061435073L50.67236571428571,91.64029059481497L51.20484571428571,91.11222913592553L51.39501714285714,91.10884174338383L51.547154285714285,91.41416616325087L51.73732571428572,90.89678441095215L52.30784,90.38564278000047L52.650148571428566,90.15708800032492L52.726217142857145,90.36597351813717L52.87835428571428,89.86708256286403L53.144594285714284,89.37413981162786L53.98134857142857,89.59380448439212L54.05741714285714,89.87694571701874L54.437760000000004,90.01234844834148L54.704,89.68745546747851L55.23648,89.20840552670171L55.84502857142857,89.32646697071996L55.959131428571425,89.60637082358718L56.33947428571429,89.93539745448176L56.41554285714286,90.20764295429076L56.605714285714285,90.38184461304549L56.71981714285714,90.69195293883726L56.79588571428572,90.22437469297238L57.214262857142856,90.37832989099651L57.48050285714285,90.70806934397405L57.63264,90.24723807899987L57.708708571428566,89.79190926204544L58.05101714285715,89.34235484439077L58.77366857142857,88.89611112956209L59.30614857142857,89.01786950414913L59.344182857142854,89.334770177401L59.420251428571426,89.46409760477103L59.57238857142857,89.62633613239241L59.914697142857136,89.90874540468347L60.37110857142857,90.05352068520486L60.523245714285714,90.29725415211998L60.599314285714286,90.44121330684308L60.713417142857146,90.66374193624455L60.78948571428571,90.23202555532816L60.86555428571428,89.80372449702973L61.245897142857146,89.38575593618117L61.39803428571429,89.64933876532396L61.43606857142857,89.95308715293899L61.664274285714285,90.18702402893831L61.740342857142856,90.40738463680285L61.93051428571429,90.63248535195845L62.196754285714285,90.21602947683246L62.38692571428572,90.44928900512942L62.42496,90.68065682698102L62.88137142857143,90.8667207469973L63.261714285714284,91.1555353003244L63.33778285714286,90.74539048177004L63.375817142857144,90.97286652287097L63.64205714285714,91.18428982577697L63.83222857142857,90.77852154863695L63.984365714285715,90.37722046465578L64.02239999999999,90.60519409873547L64.47881142857143,90.83767319942241L64.78308571428572,91.07806937856991L64.93522285714286,91.27875400476006L65.12539428571428,91.11758568762158L65.20146285714286,91.37375090986626L65.9241142857143,91.59206881017653L66.00018285714286,91.20281830570072L66.19035428571428,90.81303995396536L66.22838857142857,90.9460349982227L66.30445714285713,90.56096892777772L66.41856,90.81588345184898L66.57069714285714,90.43625405689217L66.79890285714285,90.61905565976639L66.95104,90.81543350975191L67.14121142857142,90.43843196301466L67.36941714285715,90.63475568463011L67.48352,90.85902420045079L67.67369142857143,90.84355848950655L67.7877942857143,90.9975757492096L67.97796571428572,91.11106143971261L68.13010285714286,91.33231326643786L68.28224,91.5126958201736L68.62454857142856,91.63747234219292L68.89078857142857,91.80131957246124L69.00489142857143,91.90082809640117L69.04292571428572,92.08594579957739L69.38523428571429,91.72001136909317L69.76557714285715,91.35714146408748L70.33609142857144,90.99696896091308L70.48822857142856,91.1805017954532L70.90660571428572,90.82919312309747L70.94463999999999,90.47541878340772L71.09677714285714,90.694415478785L71.59122285714285,90.94318614684407L72.50404571428571,91.15587739565278L73.22669714285715,91.38968808262824L73.30276571428571,91.50511502747473L73.3408,91.67397037943931L73.72114285714287,91.81741292630616L74.02541714285714,91.94126506707592L74.06345142857144,91.59377082008103L74.1775542857143,91.43173388610913L74.672,91.57250077754972L74.74806857142858,91.73811020396252L75.16644571428571,91.89465894504471L75.28054857142857,92.06888943397358L75.43268571428571,92.23424116474241L75.58482285714287,92.35717653745006L75.73696,92.51483819886712L76.0032,92.64491844937979L76.0412342857143,92.75335318546534L76.15533714285715,92.41537909479126L76.26944,92.48775328879076L76.72585142857143,92.15314824279615L76.95405714285715,92.17127411886543L77.10619428571428,91.83955763131027L77.48653714285714,91.5100839745536L77.60064,91.1832974499743L78.13312,90.85875883221009L78.24722285714286,90.53717880605456L78.43739428571429,90.5757032270139L78.55149714285714,90.72663496470805L78.89380571428572,90.40826649315171L79.31218285714286,90.45679402173322L79.50235428571429,90.50887238731278L79.57842285714285,90.19701346874703L80.49124571428571,89.88454482092082L80.79552,90.07221072307031L80.87158857142857,90.24895818815061L80.98569142857143,89.94036811926782L81.21389714285714,90.01396312121786L81.25193142857142,89.85467493743097L81.51817142857143,89.5495197810687L81.82244571428572,89.2464962379694L81.97458285714286,89.38501691112339L82.12671999999999,89.54977165732272L82.39296,89.69187931968476L82.46902857142857,89.39166426176152L82.69723428571427,89.56233723124436L83.03954285714285,89.59493740390138L83.34381714285715,89.754716638248L83.41988571428571,89.67334072604376L83.53398857142857,89.80132565924072L83.64809142857142,89.95443169986363L83.68612571428571,89.95643243445387L83.95236571428572,89.93592240780482L84.10450285714285,89.9083602596171L84.14253714285714,89.82447361658672L84.40877714285715,89.98796415849573L84.75108571428572,89.69721422821513L84.90322285714285,89.68383039162109L84.97929142857143,89.39579639025574L85.3216,89.58528447233412L85.73997714285714,89.60913469393995L86.12032,89.58023404186632L86.19638857142857,89.29868793659953L86.46262857142857,89.01716278191354L86.6528,89.06158128304915L86.76690285714285,88.78148916539024L87.07117714285714,88.50324458416048L87.79382857142858,88.67048577698756L88.21220571428572,88.39407118247212L88.51647999999999,88.1195450947582L88.85878857142856,87.85322276956644L89.01092571428572,87.58194857455662L89.35323428571428,87.61926603344568L89.54340571428573,87.81548125820144L89.58144,87.54644768350452L89.61947428571429,87.71031344264466L90.22802285714286,87.44313484510197L90.41819428571428,87.17805930884658L90.83657142857142,87.00192461990895L90.95067428571429,87.16156883539666L91.17888,86.89933212555773L91.21691428571428,86.87361860426958L91.36905142857142,86.76666185574739L91.55922285714286,86.77431655870335L91.78742857142856,86.86552773755659L91.82546285714285,86.88612378334238L92.24383999999999,86.88091353188247L92.39597714285715,87.0680709009645L92.43401142857144,87.05471693829632L92.58614857142857,87.00494275261755L92.66221714285714,87.11353033870923L93.00452571428572,87.19506576203268L93.15666285714286,87.04400037262509L93.19469714285714,87.23354783333421L93.27076571428572,86.97995352898414L93.30879999999999,86.74813535706183L93.38486857142858,86.49749182330744L93.80324571428571,86.24832009337854L93.87931428571429,86.000557878223L94.18358857142857,85.96564457954608L94.22162285714285,85.95834016644153L94.33572571428572,85.86760686750146L95.66692571428571,85.78536436805508L96.46564571428571,85.54200031667392L96.76992,85.30949973066983L97.22633142857144,85.49375047954322L97.3404342857143,85.44666317647452L97.68274285714286,85.2067291386881L98.0630857142857,84.96820980696097L98.36736,84.7315426226963L98.48146285714286,84.49570753188864L98.59556571428571,84.66949466956942L98.82377142857143,84.43498908637677L99.01394285714285,84.20178098651331L99.05197714285714,84.34385293298972L99.2041142857143,84.11399864371536L99.24214857142857,83.88389177018286L99.50838857142857,84.04759831066788L99.85069714285714,84.17902229357817L99.9648,83.95335079701448L100.72548571428571,83.86485294504789L101.10582857142857,84.0229971684517L101.79044571428571,83.95569187575859L102.05668571428572,83.95370711055857L102.32292571428572,83.92284477838477L102.6272,83.70038848137024L102.70326857142857,83.62387195482873L102.85540571428571,83.40050910619588L103.08361142857143,83.17841069049283L103.23574857142857,83.25368318364976L103.65412571428571,83.20408148650361L103.76822857142857,83.33463038734746L103.9584,83.29266660277877L104.45284571428571,83.2315022547316L105.36566857142857,83.20509522369261L106.08832,82.98721484790745L106.27849142857143,83.14428052976503L106.3165257142857,82.92724898451671L106.69686857142857,82.92500924099303L106.81097142857142,82.70959129074336L107.00114285714287,82.49529588810567L107.30541714285714,82.28500920849946L107.68576,82.07303638557349L108.06610285714285,82.23847947519451L108.33234285714286,82.11789572905907L108.86482285714287,81.907977678442L109.47337142857143,82.06480747130522L109.62550857142857,82.14131152455835L109.66354285714286,81.94363471326469L109.77764571428573,82.1002268524137L109.81568,81.89283042268536L110.95670857142858,81.68778430698781L111.07081142857143,81.78936743426314L111.22294857142857,81.96050472951455L111.26098285714286,81.75642384205513L111.45115428571428,81.55365571480698L111.9456,81.66248852394251L112.24987428571428,81.75013468650857L112.36397714285714,81.9196765882406L113.12466285714285,82.0297174928757L113.42893714285714,82.11307395470341L113.61910857142857,82.27388980530566L113.69517714285715,82.42484626387771L113.80928,82.52614301747764L113.88534857142857,82.67546181934661L113.92338285714285,82.83162701418209L114.34176,82.9884993320004L114.37979428571428,83.08094495704525L114.41782857142857,83.16412186912437L114.49389714285714,82.96112302791349L114.5699657142857,82.75931156096021L114.76013714285715,82.86245915671537L114.83620571428571,83.0233023828998L115.14048000000001,83.15986025643002L116.16740571428572,83.30221909081374L116.20544,83.10119573560492L116.62381714285715,82.90241466303014L116.66185142857144,82.70425401207385L117.04219428571429,82.50651831337443L117.08022857142858,82.65041810321077L117.19433142857143,82.45523402395308L117.46057142857143,82.62191845288035L117.72681142857142,82.78763547407121L118.22125714285714,82.91869630015161L118.52553142857144,82.98962148955476L118.56356571428572,83.09037816532214L118.82980571428571,83.26343618740388L118.94390857142858,83.35467125396423L118.98194285714287,83.44148360899456L119.01997714285714,83.56358199200638L119.13408,83.37018951807208L119.85673142857142,83.17649559785242L120.16100571428571,82.98191031882968L120.19904,83.02175231352423L120.31314285714285,82.96630669391513L120.57938285714286,83.0114124911765L120.69348571428571,83.10494833129373L120.76955428571428,83.17626706054496L120.88365714285715,83.34253473523722L121.03579428571429,83.43519161502853L121.37810285714286,83.52326170046099L121.60630857142857,83.3316947395684L121.79647999999999,83.14146472544293L121.94861714285715,83.25026647854915L122.02468571428571,83.3520991302586L122.40502857142857,83.4009993748025L122.44306285714286,83.52560207509333L122.5952,83.3352864906609L122.78537142857142,83.38591453210594L122.82340571428573,83.19720685125837L122.86144,83.3431438486908L122.97554285714286,83.27300386936291L123.31785142857143,83.3543329976854L123.35588571428572,83.1678554150861L123.39392000000001,82.98112255071038L123.58409142857143,82.79532644898275L123.77426285714286,82.60994522161283L123.88836571428571,82.42589611624263L124.00246857142857,82.24189471427336L124.07853714285714,82.40604767831947L124.15460571428571,82.51111733633701L124.26870857142858,82.32776516256327L124.53494857142857,82.19264727807105L124.99136,82.01219517173881L125.06742857142856,82.13580525089493L125.56187428571428,82.27034972725345L125.59990857142857,82.39392360449581L126.01828571428571,82.21311890095227L126.39862857142857,82.3622255138882L126.55076571428572,82.44437852881553L126.77897142857144,82.26445884701589L127.04521142857142,82.08471844373715L127.08324571428571,82.23216320817461L127.42555428571428,82.05438410638152L127.46358857142857,82.21331578251323L128.18624,82.03532461058973L128.2242742857143,81.85753551620365L128.56658285714286,81.68056464466606L128.64265142857144,81.50482782530425L128.71872,81.32997157224307L129.02299428571428,81.15518379915726L129.32726857142856,80.98120581438528L129.47940571428572,80.80791521366898L129.59350857142857,80.93129741581L129.66957714285715,81.0829731363031L129.70761142857143,81.18263173253374L129.82171428571428,81.01122585725531L130.04992,80.83921381848786L130.20205714285714,80.6680018926089L130.24009142857142,80.49754028645577L130.77257142857144,80.3280535202675L130.8866742857143,80.16064602451793L131.00077714285715,79.9922226476875L131.26701714285716,80.11289754071448L131.38112,80.24657809929884L131.45718857142856,80.3983974362557L131.68539428571427,80.2303673760526L131.8755657142857,80.38834014597683L132.1037714285714,80.51813099940686L132.17983999999998,80.350543041877L132.56018285714285,80.50531372371083L132.6742857142857,80.62654477217004L132.78838857142856,80.45948864956709L133.09266285714284,80.59782357526304L133.43497142857143,80.75193856835322L133.8153142857143,80.58525100446893L134.0054857142857,80.41923425312528L134.49993142857141,80.53744245939374L135.22258285714287,80.3728453250917L135.3366857142857,80.50091801397792L135.8691657142857,80.33609093334618L135.9072,80.43595592970365L136.13540571428572,80.27184854681437L136.36361142857143,80.10838268483958L136.62985142857144,80.2240342232008L136.66788571428572,80.0613773220505L136.70592000000002,79.89915711055228L136.78198857142857,79.73762659736289L136.93412571428573,79.89249405560093L137.08626285714286,79.73144643553306L137.23839999999998,79.88647465320453L137.2764342857143,80.03423123438492L137.31446857142856,80.09749027142242L137.50464,80.21905935560787L137.58070857142857,80.05833669210791L137.9610514285714,79.89833203125946L138.22729142857142,79.73892083225819L139.29225142857143,79.58123705073115L139.48242285714286,79.42319012925505L139.82473142857143,79.551298611337L139.9388342857143,79.68292259165587L140.01490285714286,79.52515956669113L140.28114285714284,79.36797873415125L140.47131428571427,79.52213903332581L140.77558857142856,79.36539552398797L140.9277257142857,79.5115805212662L140.96576,79.61890349280749L141.07986285714287,79.46256957277065L141.15593142857142,79.30752635510167L141.42217142857143,79.20590761138601L141.72644571428572,79.35525240780066L141.87858285714285,79.5069024037088L141.95465142857142,79.35494188361143L142.7914057142857,79.51193193684873L142.90550857142858,79.65372044435226L144.04653714285715,79.80109712814199L144.35081142857143,79.94124899430955L145.64397714285712,79.78696985658829L145.83414857142856,79.9108475166672L146.25252571428572,79.75629866453997L146.59483428571428,79.89375663802474L146.78500571428572,79.73972476087889L146.8610742857143,79.87357790949645L146.93714285714287,80.01841616557293L147.0512457142857,80.15893266251146L147.12731428571428,80.00501680245233L147.3174857142857,80.13410812886109L147.35552,80.28605798596563L147.6597942857143,80.13255184764799L147.69782857142857,79.97955063998155L148.07817142857144,80.13593820016554L148.23030857142857,79.98357284166221L148.6106514285714,79.83314125517643L148.7627885714286,79.98617921292315L148.91492571428572,79.83451583233835L149.2192,79.6834039200787L149.40937142857143,79.53278564814715L149.97988571428573,79.65870556276126L150.01791999999998,79.5085033001722L150.2461257142857,79.65110865688877L150.5123657142857,79.79119978787965L150.66450285714288,79.64126621532914L151.0448457142857,79.49186775458526L151.08288000000002,79.34301707273687L151.1209142857143,79.48507895600171L151.1589485714286,79.62254971972853L151.3871542857143,79.47396475617252L151.46322285714285,79.58174648547411L151.57732571428573,79.43361575571998L151.69142857142856,79.54277514218141L151.72946285714286,79.53105074287848L151.84356571428572,79.38359705102098L152.26194285714286,79.23665605331948L152.4901485714286,79.37759044043177L152.7183542857143,79.50786778651594L153.06066285714286,79.6573853028764L153.09869714285713,79.51061088353592L153.28886857142857,79.36433071946004L153.40297142857142,79.49077306938983L153.63117714285715,79.6318049299986L153.78331428571428,79.76363547958049L153.93545142857144,79.61751384714493L154.2397257142857,79.47190713478916L154.35382857142858,79.61678329334015L154.5820342857143,79.67890624081228L154.6200685714286,79.82429142701403L154.92434285714285,79.90344720425563L155.03844571428573,79.99813011416234L155.07648,79.85272468406127L155.53289142857145,79.98605688170424L156.02733714285716,80.11720670777983L156.0653714285714,79.97205818398824L156.1034057142857,80.10828213387376L156.14144,80.23566853963924L156.67392,80.09084326819806L157.58674285714287,80.23088361610253L157.7008457142857,80.32396765005467L157.77691428571427,80.41107965546911L157.85298285714288,80.26667907360738L157.9670857142857,80.39578402857602L158.11922285714286,80.50147717108554L158.2333257142857,80.35746126999142L158.27136000000002,80.21441647697172L158.95597714285714,80.07128423719989L159.33632,79.92909182917867L159.60255999999998,79.78868377856634L159.75469714285717,79.92553581604601L159.79273142857141,79.78369506407286L159.98290285714288,79.64238056460714L160.02093714285712,79.7319601022999L160.13504,79.87108710369621L160.55341714285714,79.73002140796346L160.59145142857142,79.85031189957735L161.04786285714286,79.71047755493916L161.08589714285714,79.84886450471735L161.16196571428574,79.98549322807119L161.2,80.11620976202687L161.31410285714287,80.24121862224403L161.35213714285715,80.1006030247093L161.39017142857145,80.14069867592798L161.65641142857143,80.00057445631928L161.73248,80.0866646728959L162.37906285714286,80.21635876067383L162.41709714285713,80.3359135802819L162.45513142857143,80.43423839150168L162.4931657142857,80.42905255917154L162.64530285714287,80.52706941009255L162.75940571428572,80.66752234580308L163.32992,80.80344285285756L163.40598857142857,80.84980574542625L163.6341942857143,80.94910267064027L163.8624,81.08542263123275L164.01453714285714,80.94555233813753L164.62308571428574,80.93911583816087L164.96539428571427,80.79949034627727L165.04146285714288,80.9124025053116L165.11753142857145,81.0405490852475L165.30770285714286,81.1476666078355L165.4218057142857,81.23555885646016L165.7641142857143,81.33165071527279L165.87821714285712,81.42918637857873L165.99232,81.51015813919548L167.01924571428572,81.3711161768748L167.24745142857142,81.23194156694893L167.36155428571428,81.09357952700296L167.51369142857143,81.22104296139278L167.74189714285714,81.0857154933283L167.856,81.18866661381789L167.93206857142857,81.3121630630421L168.12224,81.17397281969404L168.19830857142856,81.03624668881409L168.31241142857144,81.1222080446964L168.95899428571428,80.98526274422575L169.1111314285714,81.11261894721717L169.41540571428573,81.235059170918L169.45344,81.36668526029331L169.79574857142856,81.48464927367979L170.02395428571427,81.52713753089144L170.06198857142857,81.64012841524242L170.10002285714285,81.50287687774248L170.21412571428573,81.62905881906785L170.44233142857144,81.49230197036229L170.63250285714287,81.62076647550398L170.7466057142857,81.75093896291189L171.05088,81.85689216201465L171.20301714285714,81.72140041277576L171.2790857142857,81.85100228533813L171.6213942857143,81.71507661092039L171.81156571428573,81.57886030684209L172.03977142857144,81.70373456653931L172.26797714285715,81.56802535196677L172.53421714285716,81.68451635393093L173.21883428571428,81.54992298816482L173.25686857142858,81.41480049990734L173.82738285714285,81.27997056835599L173.86541714285715,81.395464378775L173.94148571428573,81.51233372637614L174.09362285714286,81.37825588145293L174.24576,81.49704589570055L174.89234285714286,81.3627369351157L175.12054857142857,81.23014076688516L175.3487542857143,81.26713218947691L175.46285714285713,81.13366112946784L176.14747428571428,81.00078042701992L176.2996114285714,81.12110241824749L176.56585142857142,80.9887167542467L176.6799542857143,80.85639411449516L177.09833142857144,80.7244569069791L177.47867428571428,80.81826669477465L177.51670857142855,80.91962348536484L177.63081142857143,80.78798665458596L178.04918857142857,80.65693633334874L178.61970285714284,80.78752917143065L178.65773714285714,80.6565321921192L179.15218285714286,80.76953478978079L179.38038857142857,80.7783354067967L179.45645714285715,80.88048633487676L179.49449142857142,80.75047212126704L179.72269714285716,80.8752021380515L180.10304,80.9681124366066L180.21714285714287,80.83762425369542L180.29321142857142,80.9580352313542L180.3312457142857,80.82783454908378L180.36928,80.70006096942696L180.52141714285713,80.78540205902061L180.90176,80.65600001120636L180.9397942857143,80.78746040144364L181.3962057142857,80.65827481888208L181.43424,80.7490498854918L182.08082285714286,80.62013301394808L182.4992,80.49170351136549L182.84150857142856,80.36346435687126L183.03168000000002,80.23622612802568L183.22185142857143,80.31507999670127L183.45005714285716,80.18774541928435L183.7923657142857,80.31836730296114L184.09664,80.19114072459519L184.43894857142857,80.28005788228072L184.85732571428574,80.40299686688876L185.04749714285714,80.27588986856546L185.1616,80.14909702189657L185.19963428571427,80.09400393783908L185.46587428571428,79.96796192707497L185.77014857142856,79.84207844459957L186.07442285714285,79.71659492734841L186.22656,79.5914206215959L186.34066285714286,79.46666078830104L186.4547657142857,79.34220088430193L186.49280000000002,79.21860697296563L186.79707428571427,79.09513702128024L186.87314285714285,78.97176120719598L187.29152,78.84869094861496L187.59579428571428,78.82314652783631L188.01417142857142,78.7009224680798L188.16630857142854,78.57869944710293L188.47058285714286,78.45714561395076L189.3453714285714,78.33556999359247L189.57357714285712,78.21456932203527L189.7257142857143,78.09364799142463L190.29622857142857,78.19822553055654L190.52443428571428,78.07829752639728L190.63853714285716,78.19203052336165L190.71460571428574,78.0715759593051L190.9808457142857,77.9514459537562L191.09494857142857,77.83169709229384L191.2470857142857,77.71223726575046L191.39922285714286,77.59315506516216L191.43725714285713,77.4743669707323L191.4752914285714,77.3559061061737L191.55136,77.237806230054L192.0458057142857,77.12018690451407L192.12187428571428,77.00344304295137L192.19794285714286,76.88678489335874L192.35008,76.76987219249233L192.46418285714284,76.6535046173563L192.50221714285715,76.73671292731522L192.57828571428573,76.62068134244794L192.88255999999998,76.50469588999658L193.26290285714288,76.38905514611645L193.79538285714284,76.27368148556567L193.90948571428572,76.15862780232115L194.02358857142858,76.0438774098751L194.55606857142857,75.93060793369607L194.67017142857145,75.8166263190582L195.24068571428572,75.70292035908705L195.43085714285715,75.58977519766556L195.46889142857142,75.4766229187436L195.62102857142855,75.36364182605928L195.7731657142857,75.251132464456L195.8112,75.25790083911278L195.84923428571426,75.15700125207957L195.92530285714287,75.0451176282989L196.11547428571427,74.93351441778181L196.15350857142857,74.82222686272927L196.19154285714285,74.7114581034192L196.53385142857144,74.60075542393932L196.8381257142857,74.49032970459406L196.99026285714288,74.38018708364477L197.06633142857143,74.2702677095919L197.29453714285714,74.16074143561644L197.59881142857142,74.05165001382085L197.63684571428573,73.9426161435269L197.86505142857143,73.83385525884721L197.9791542857143,73.72534662152958L198.28342857142857,73.61715710951577L198.51163428571428,73.50948126319602L198.62573714285716,73.40202555009348L198.6637714285714,73.29472997383118L198.7778742857143,73.18771128791231L198.89197714285714,73.27173808499772L199.00608,73.16512631109133L199.46249142857144,73.05862822314386L199.61462857142857,72.95302628256802L199.88086857142858,72.84724144991887L200.10907428571429,72.7417357865415L200.26121142857141,72.63627947204346L200.29924571428572,72.53119396874641L200.41334857142857,72.42639365523239L200.45138285714287,72.32194945176344L200.71762285714286,72.2549942339164L200.79369142857144,72.29401140615039L200.86976,72.19091791910677L201.09796571428572,72.0871465639763L201.32617142857143,71.98372223235069L201.44027428571428,71.88118045429154L201.55437714285713,71.77830730709114L201.6304457142857,71.67562446314935L201.7065142857143,71.57341041015498L202.31506285714286,71.47123763048668L202.3911314285714,71.3693103454715L202.4672,71.26770559613433L202.5052342857143,71.16628526317898L202.54326857142857,71.06509794331262L202.80950857142858,70.96421521347851L202.84754285714286,70.86369975785483L203.53215999999998,70.76388825057158L203.64626285714286,70.66382577361131L204.2928457142857,70.56381818339395L204.78729142857142,70.4648245926199L205.28173714285714,70.36548522449226L205.35780571428572,70.26635898866844L205.92831999999999,70.16751536063668L206.08045714285714,70.06907867816254L206.2325942857143,69.97104551679507L206.49883428571428,69.87310846939398L206.65097142857144,69.7752937659579L206.84114285714284,69.67788303730975L207.94413714285713,69.58055399554573L208.0202057142857,69.4834862445338L208.40054857142857,69.38654876182646L208.43858285714285,69.29018058659078L209.31337142857143,69.19381002707412L209.65568,69.09778832594718L210.56850285714285,69.00204813764226L211.0249142857143,68.90652846137847L211.10098285714287,68.81121503468479L211.29115428571427,68.71622975796241L211.67149714285713,68.62165657481594L211.7856,68.52709421448368L211.8236342857143,68.43284847596368L212.12790857142858,68.34041488587638L212.20397714285713,68.24691283217201L212.39414857142856,68.15356633387582L212.62235428571427,68.06040183633856L212.69842285714284,67.96746429455175L213.4210742857143,67.87468058682488L213.80141714285713,67.78228720210406L213.9535542857143,67.69014994356229L214.10569142857142,67.59812828273041L214.37193142857143,67.506238309487L214.52406857142856,67.41457715315782L214.56210285714286,67.3231157174747L214.63817142857144,67.23196395700899L214.67620571428571,67.14093309729226L215.13261714285716,67.05013651271024L215.47492571428572,66.96002111530045L215.89330285714286,66.86978358330654L216.27364571428572,66.78054792180785L216.31168000000002,66.69077881621679L216.38774857142857,66.60125649303885L216.57791999999998,66.51205093387757L216.65398857142856,66.42292607292505L216.84416,66.33391110146782L217.0723657142857,66.24681786544909L217.3386057142857,66.1590448019157L217.49074285714283,66.23208140465692L217.83305142857142,66.23768574502837L218.40356571428572,66.14956323591726L218.4416,66.06128538234518L218.59373714285715,65.97376699659414L218.74587428571428,65.88721998053053L218.85997714285716,65.8629946033682L219.31638857142858,65.77646114646544L219.65869714285714,65.8423803431976L219.84886857142857,65.75557760596543L219.92493714285715,65.75981710281255L220.00100571428572,65.74387368338299L220.07707428571427,65.69215806294343L220.34331428571429,65.63710681128599L220.87579428571428,65.5515754476727L220.91382857142858,65.46570619702254L221.02793142857143,65.38023676643539L221.104,65.36072811769655L221.25613714285714,65.27561275196138L221.29417142857142,65.18985667315214L221.48434285714285,65.2033889766645L221.56041142857143,65.1185325982632L221.63648,65.03334719210274L221.82665142857144,64.94858946811365L222.54930285714286,64.93104240033712L222.77750857142857,64.90198819956932L222.85357714285712,64.85425474796551L222.96768,64.93863004329886L223.30998857142856,64.9224023954529L223.72836571428573,65.01067835821775L223.80443428571428,64.94669680835842L224.0706742857143,64.9306878907107L224.10870857142856,64.84660148150255L224.2608457142857,64.85339396730448L224.6411885714286,64.76996904323909L224.71725714285714,64.83609231131322L224.9074285714286,64.7524148099258L225.05956571428572,64.66888758442306L225.3258057142857,64.58569215395153L225.70614857142857,64.56349893471872L225.78221714285715,64.48080493738291L225.82025142857142,64.39835782079956L225.97238857142858,64.31626282614454L226.04845714285716,64.23457495193331L226.1245257142857,64.15309534542439L226.16255999999998,64.07145109816977L226.23862857142856,63.99014247624482L226.6570057142857,63.90880188582349L227.64589714285714,63.827518648784775L227.7219657142857,63.7466402069967L227.95017142857145,63.66573887612107L228.06427428571428,63.58462522692356L228.10230857142858,63.50420950042942L228.14034285714285,63.423961423589326L228.17837714285716,63.344152517538525L228.44461714285714,63.3288203507438L228.5967542857143,63.24878210347563L228.67282285714285,63.16891644621869L228.78692571428573,63.08909874738016L229.50957714285715,63.009541594583965L229.77581714285716,62.9304015199827L229.85188571428571,62.95783110121304L229.96598857142857,62.96928596058997L230.34633142857143,62.8905358204198L230.80274285714285,62.81200256026989L231.7536,62.73351030465029L231.90573714285716,62.65484573605427L233.12283428571428,62.57621810157078L233.23693714285716,62.49764471104194L233.61728,62.41948892245994L234.14976000000001,62.34149471338012L234.33993142857142,62.26349982087436L234.416,62.185736308123175L234.91044571428571,62.108175063382824L235.51899428571429,62.03071913860053L235.63309714285714,61.953459256927985L235.7472,61.876359953161064L235.89933714285712,61.799945512609675L236.01344,61.72330426476062L236.27968,61.64678514905107L236.54592000000002,61.570516711842764L236.66002285714285,61.49430504306395L236.92626285714286,61.41845536073499L237.0403657142857,61.34275131385999L237.3066057142857,61.26694756549935L237.38267428571427,61.1912886568976L237.49677714285713,61.11575992958969L237.53481142857143,61.040433522878324L237.5728457142857,60.965228840459694L237.61088,60.89017592709528L237.87712,60.81526132611624L238.14336,60.74051367632833L238.48566857142856,60.665942338844104L238.59977142857144,60.59143841493487L238.63780571428572,60.51711294523029L238.78994285714285,60.44293889799209L239.1322514285714,60.36899487719907L239.55062857142858,60.29607213638994L240.00704000000002,60.22267390043752L240.42541714285716,60.14922095047039L241.072,60.075978046338854L241.45234285714284,60.002785818346965L241.71858285714285,59.92975210005989L241.83268571428573,59.856944296005345L242.21302857142857,59.7842950763532L242.25106285714287,59.71175413749826L242.32713142857145,59.63949319309182L242.55533714285716,59.56737283349312L242.82157714285717,59.49515471084287L243.58226285714284,59.423034840730615L243.81046857142857,59.351092308653215L244.3049142857143,59.27929741483192L244.34294857142856,59.20764762195133L244.83739428571428,59.13632619805732L245.0275657142857,59.078269858391536L245.14166857142857,59.007238803068596L245.44594285714285,58.936198584699866L245.6361142857143,58.86531738838578L245.67414857142856,58.79457000498743L246.09252571428573,58.72431286898123L246.4348342857143,58.65393296964972L246.7010742857143,58.58367306210417L246.77714285714288,58.51355847242364" style="fill: none;" fill="none"></path></g></g></g></g><g opacity="0.2"><g><g><g><path stroke="rgb(0, 119, 187)" stroke-width="2px" d="M18.7616,152.5443136444092L19.14194285714286,150.0539610595703L19.17997714285714,159.12478163146972L19.294079999999997,152.55554089355468L19.598354285714287,148.40146591186524L19.636388571428572,140.95043643188478L20.130834285714286,31.219282470703124L20.397074285714286,29.882333251953135L20.43510857142857,146.81904226684568L20.473142857142857,98.67105407714844L20.96758857142857,52.16083264160156L21.005622857142857,29.25663940429687L21.15776,143.49256436157228L21.271862857142857,123.3399033203125L21.309897142857142,105.59633392333986L21.538102857142857,141.809150390625L21.728274285714285,28.35611157226562L21.99451428571429,151.7799136199951L22.374857142857145,144.26860485839845L22.526994285714284,137.87268292236328L22.679131428571427,139.9192274169922L23.21161142857143,130.64879119873046L23.363748571428573,25.50174169921874L23.401782857142855,143.07623696899415L23.47785142857143,43.05870703124999L23.55392,139.3675608520508L23.782125714285712,79.10075695800782L24.0864,23.910225341796874L24.162468571428573,147.3120707397461L24.200502857142858,23.639208496093755L24.314605714285715,139.8249494934082L24.580845714285715,67.17499304199218L24.694948571428572,112.6602515258789L24.771017142857144,116.68262982177734L24.847085714285715,102.676939453125L25.15136,112.80171972656251L25.34153142857143,86.0140704345703L25.60777142857143,119.52438513183594L25.87401142857143,21.629665039062495L25.912045714285714,117.19415521240235L26.33042285714286,81.84910400390626L26.406491428571428,140.11583166503905L26.710765714285714,140.2007900085449L27.319314285714288,134.34270471191405L27.889828571428573,20.388302734375003L27.92786285714286,142.02833157348633L28.422308571428573,134.5515202026367L28.460342857142855,122.4831141357422L28.916754285714287,134.5738684692383L29.030857142857144,149.72416387939452L29.335131428571426,19.753303710937498L29.449234285714283,19.504642333984375L29.56333714285714,137.37812939453124L29.639405714285715,136.43748379516603L29.829577142857143,140.83880673217774L29.905645714285715,128.5774569091797L30.324022857142857,38.253548828125005L30.47616,19.128762207031254L30.628297142857143,132.40115673828123L30.704365714285714,121.01526586914062L30.7424,50.82402746582031L30.856502857142857,133.2236312866211L31.731291428571428,126.02594458007812L31.769325714285717,87.72944934082032L32.22573714285714,18.342906982421876L32.453942857142856,124.6388828125L32.491977142857145,18.180873046875003L32.53001142857143,117.59699298095704L32.986422857142855,131.0548807373047L33.29069714285714,49.90962109375L33.44283428571429,130.2934155883789L33.518902857142855,120.51281518554687L33.70907428571429,18.048353515625006L33.89924571428572,18.06349243164063L33.97531428571428,141.4394929199219L34.39369142857143,138.03860601806642L34.621897142857144,18.729244628906255L34.65993142857143,107.39104809570314L35.192411428571425,57.52381164550782L35.230445714285715,131.7237586669922L35.30651428571428,121.46753558349609L35.57275428571429,52.85893688964844L35.80096,136.05957986450196L36.14326857142857,125.72658007812501L36.295405714285714,103.10192382812501L36.409508571428574,117.93820196533203L36.48557714285714,141.58539224243165L36.63771428571429,130.23083251953125L36.67574857142857,125.87940606689455L36.86592,17.26797192382812L36.903954285714285,103.96042712402345L37.13216,120.64915545654297L38.00694857142857,21.70317016601562L38.083017142857145,17.11072021484374L38.12105142857143,135.82146423339844L38.15908571428571,20.817824462890627L38.27318857142857,118.12519134521486L38.34925714285714,58.840954956054695L38.88173714285714,138.29090447998047L38.91977142857142,128.5639564819336L38.99584,16.979482666015624L39.07190857142857,19.131167724609377L39.14797714285714,88.26567089843749L39.30011428571429,136.27173175048827L39.37618285714286,17.16403051757813L39.52832,119.76505932617187L39.60438857142857,139.99358959960938L39.756525714285715,44.94953747558594L39.98473142857143,17.553061767578132L40.0608,138.60281512451172L40.21293714285714,104.710826171875L40.821485714285714,16.72324462890624L41.04969142857143,16.684871582031242L41.20182857142857,139.7742085571289L41.27789714285714,141.9722448425293L41.92448,126.28971966552736L41.962514285714285,16.73447998046875L42.26678857142857,135.33420108032226L42.30482285714285,17.485303955078123L42.494994285714284,108.79795898437501L42.53302857142857,122.58834832763671L42.83730285714286,138.428404296875L43.06550857142857,16.43449609375L43.103542857142855,48.212578857421875L43.29371428571429,16.589054199218758L43.636022857142855,16.472465820312493L43.712091428571426,132.02994360351562L43.97833142857142,115.79628302001953L44.282605714285715,134.74291009521485L44.320640000000004,134.34453045654297L44.62491428571428,133.60593572998047L44.92918857142857,16.258590820312506L45.00525714285715,141.5918939819336L45.61380571428571,138.95908200073242L46.03218285714286,67.81015771484374L46.10825142857143,98.4911300048828L46.18432,123.910947265625L46.29842285714286,135.1303406677246L46.41252571428572,17.273733642578115L46.45056,112.8082844848633L46.90697142857143,145.38481903076172L47.667657142857145,16.057766113281257L48.086034285714284,96.42410620117187L48.12406857142857,127.20330499267578L48.35227428571429,15.991736816406245L48.580479999999994,58.54250512695313L49.18902857142857,15.889840820312507L49.227062857142855,123.43556585693361L49.303131428571426,16.004470214843746L49.41723428571429,119.00290997314454L49.759542857142854,15.889351074218755L50.25398857142857,15.875796630859371L50.55826285714286,16.70885473632813L50.67236571428571,54.454803344726564L51.20484571428571,15.783609130859375L51.39501714285714,90.62272521972656L51.547154285714285,135.49173907470703L51.73732571428572,15.763788818359366L52.30784,15.722419677734369L52.650148571428566,56.57680834960939L52.726217142857145,121.23434442138672L52.87835428571428,15.718055175781258L53.144594285714284,15.689995605468742L53.98134857142857,122.61547161865235L54.05741714285714,132.68118707275391L54.437760000000004,110.59682879638672L54.704,40.02071118164062L55.23648,15.570180664062507L55.84502857142857,107.57433917236328L55.959131428571425,133.10537200927735L56.33947428571429,141.3459838256836L56.41554285714286,132.97558209228515L56.605714285714285,117.89441650390626L56.71981714285714,139.9297911682129L56.79588571428572,15.591182128906253L57.214262857142856,115.08134375L57.48050285714285,143.89319827270506L57.63264,15.531692382812507L57.708708571428566,15.587437011718755L58.05101714285715,15.703089111328131L58.77366857142857,15.426454589843756L59.30614857142857,109.16578350830078L59.344182857142854,142.03791583251953L59.420251428571426,111.0799849243164L59.57238857142857,116.87797009277344L59.914697142857136,137.58046655273438L60.37110857142857,114.61231103515624L60.523245714285714,131.84484838867186L60.599314285714286,115.10023138427734L60.713417142857146,128.96525299072266L60.78948571428571,15.568250488281258L60.86555428571428,15.376817382812494L61.245897142857146,16.409432617187502L61.39803428571429,135.88757635498047L61.43606857142857,143.48740942382813L61.664274285714285,131.60984588623046L61.740342857142856,129.60740014648437L61.93051428571429,130.86055236816406L62.196754285714285,15.448997314453125L62.38692571428572,132.51791796875L62.42496,132.5975233154297L62.88137142857143,124.7280562133789L63.261714285714284,143.9521820678711L63.33778285714286,15.434247314453128L63.375817142857144,132.92769140625L63.64205714285714,130.3506258544922L63.83222857142857,15.279429931640626L63.984365714285715,15.383083251953119L64.02239999999999,133.39347595214844L64.47881142857143,134.66019702148438L64.78308571428572,136.58781063842773L64.93522285714286,129.43313696289061L65.12539428571428,60.34572143554687L65.20146285714286,140.49037219238284L65.9241142857143,133.6281579589844L66.00018285714286,15.9405439453125L66.19035428571428,15.134681152343758L66.22838857142857,116.87504962158204L66.30445714285713,15.178009277343742L66.41856,140.92431243896485L66.57069714285714,15.50805493164063L66.79890285714285,126.84550585937501L66.95104,129.88960192871093L67.14121142857142,15.12315771484375L67.36941714285715,130.0121248779297L67.48352,136.02044519042968L67.67369142857143,87.71685998535156L67.7877942857143,122.2579281616211L67.97796571428572,114.23519934082032L68.13010285714286,136.59110562133787L68.28224,128.554662109375L68.62454857142856,117.359642578125L68.89078857142857,125.70766363525391L69.00489142857143,112.57181634521484L69.04292571428572,130.68707781982422L69.38523428571429,15.125332763671866L69.76557714285715,15.11735278320312L70.33609142857144,15.039771240234383L70.48822857142856,130.03059838867188L70.90660571428572,16.187836914062494L70.94463999999999,15.031935302734379L71.09677714285714,137.5682210998535L71.59122285714285,144.38505459594725L72.50404571428571,137.01381411743165L73.22669714285715,141.9843102416992L73.30276571428571,116.57284747314453L73.3408,128.47697973632813L73.72114285714287,123.19358807373047L74.02541714285714,119.12893316650391L74.06345142857144,15.041960693359378L74.1775542857143,55.60936535644531L74.672,122.80209368896483L74.74806857142858,128.60780316162112L75.16644571428571,126.86870758056641L75.28054857142857,131.12829223632812L75.43268571428571,129.43130041503906L75.58482285714287,120.10752868652344L75.73696,128.22591284179686L76.0032,122.209166015625L76.0412342857143,117.48175500488281L76.15533714285715,15.080261718750005L76.26944,109.10413311767577L76.72585142857143,15.073779785156251L76.95405714285715,96.36066967773436L77.10619428571428,14.915908691406257L77.48653714285714,14.853797363281258L77.60064,14.901778076171873L78.13312,14.85350927734376L78.24722285714286,14.978869873046877L78.43739428571429,99.6568193359375L78.55149714285714,126.42001373291014L78.89380571428572,14.87553344726562L79.31218285714286,102.00688757324218L79.50235428571429,102.94373583984375L79.57842285714285,15.496704345703117L80.49124571428571,14.800875976562496L80.79552,135.30918081665038L80.87158857142857,132.9879985961914L80.98569142857143,15.087002929687502L81.21389714285714,107.921255859375L81.25193142857142,50.975963989257814L81.51817142857143,14.83754931640625L81.82244571428572,14.827884033203121L81.97458285714286,123.50824273681641L82.12671999999999,130.25951147460938L82.39296,124.91253564453125L82.46902857142857,14.759391601562495L82.69723428571427,132.1190341796875L83.03954285714285,97.74811315917968L83.34381714285715,129.83453790283204L83.41988571428571,69.19971862792968L83.53398857142857,122.09711499023439L83.64809142857142,128.70361334228517L83.68612571428571,90.46428515625L83.95236571428572,84.7145147705078L84.10450285714285,82.87111767578125L84.14253714285714,68.34392333984376L84.40877714285715,131.9738604736328L84.75108571428572,14.814127929687503L84.90322285714285,86.22687951660156L84.97929142857143,14.785290527343754L85.3216,138.80929351806643L85.73997714285714,95.82242431640624L86.12032,82.0298995361328L86.19638857142857,15.53667626953125L86.46262857142857,15.053152832031254L86.6528,100.76418566894532L86.76690285714285,14.781732666015632L87.07117714285714,14.787148681640634L87.79382857142858,133.10091748046875L88.21220571428572,14.757187744140623L88.51647999999999,14.784642333984385L88.85878857142856,16.514900878906243L89.01092571428572,14.71885791015626L89.35323428571428,97.6698330078125L89.54340571428573,140.80454251098632L89.58144,14.696257568359378L89.61947428571429,132.20199212646486L90.22802285714286,14.706311767578132L90.41819428571428,14.821128417968746L90.83657142857142,38.79504956054688L90.95067428571429,130.97090368652343L91.17888,14.746701416015627L91.21691428571428,79.78010681152345L91.36905142857142,57.183481323242184L91.55922285714286,88.89706164550782L91.78742857142856,112.2253569946289L91.82546285714285,92.62737841796874L92.24383999999999,85.42477624511719L92.39597714285715,139.50862213134766L92.43401142857144,83.30340502929688L92.58614857142857,72.98694677734375L92.66221714285714,117.77315032958984L93.00452571428572,110.27496118164062L93.15666285714286,44.17439184570313L93.19469714285714,141.15923571777344L93.27076571428572,14.651935546874993L93.30879999999999,20.4654521484375L93.38486857142858,14.653433593750004L93.80324571428571,14.648636962890635L93.87931428571429,14.629580078124999L94.18358857142857,75.88361486816407L94.22162285714285,83.84383264160157L94.33572571428572,59.53743151855469L95.66692571428571,61.860866210937495L96.46564571428571,14.57461328125L96.76992,17.3455390625L97.22633142857144,139.48365228271484L97.3404342857143,71.6157081298828L97.68274285714286,14.56167822265625L98.0630857142857,14.571645996093755L98.36736,14.715040771484373L98.48146285714286,14.559546386718747L98.59556571428571,136.3276060180664L98.82377142857143,14.563795654296873L99.01394285714285,14.553683837890626L99.05197714285714,126.87344299316406L99.2041142857143,15.145729248046875L99.24214857142857,14.67900122070313L99.50838857142857,133.39682495117188L99.85069714285714,123.88836853027344L99.9648,15.61015258789062L100.72548571428571,57.00222485351562L101.10582857142857,132.13606005859376L101.79044571428571,63.432281372070314L102.05668571428572,83.34711486816406L102.32292571428572,74.46917053222656L102.6272,15.40402709960937L102.70326857142857,60.07956604003907L102.85540571428571,14.516852050781255L103.08361142857143,14.531313964843752L103.23574857142857,106.5711483154297L103.65412571428571,67.80457604980468L103.76822857142857,123.95515765380858L103.9584,70.2066942138672L104.45284571428571,64.11600292968751L105.36566857142857,74.93406201171875L106.08832,14.594764892578125L106.27849142857143,132.5546597290039L106.3165257142857,14.504017822265629L106.69686857142857,82.21735705566407L106.81097142857142,14.50064721679688L107.00114285714287,14.495562499999991L107.30541714285714,15.413966064453122L107.68576,14.521447021484372L108.06610285714285,135.0745078125L108.33234285714286,43.52622729492188L108.86482285714287,14.583198242187501L109.47337142857143,132.46953033447267L109.62550857142857,106.78137182617188L109.66354285714286,18.143018554687494L109.77764571428573,132.74657177734375L109.81568,14.674823974609374L110.95670857142858,15.093139160156245L111.07081142857143,114.84990991210937L111.22294857142857,137.772934967041L111.26098285714286,15.062890136718753L111.45115428571428,15.152830566406243L111.9456,117.3752388305664L112.24987428571428,110.56942822265624L112.36397714285714,137.78106799316407L113.12466285714285,118.36013983154298L113.42893714285714,109.68927886962891L113.61910857142857,135.58286785888671L113.69517714285715,132.56629119873045L113.80928,116.24025225830079L113.88534857142857,132.47198986816406L113.92338285714285,135.0152971496582L114.34176,135.51275494384765L114.37979428571428,114.09514636230469L114.41782857142857,111.12399005126953L114.49389714285714,14.588628662109382L114.5699657142857,14.65310229492187L114.76013714285715,117.74036975097657L114.83620571428571,137.51647546386718L115.14048000000001,129.51538909912108L116.16740571428572,131.72081658935548L116.20544,14.5973720703125L116.62381714285715,15.03186328125001L116.66185142857144,14.915231689453131L117.04219428571429,14.732974121093747L117.08022857142858,132.0662388305664L117.19433142857143,15.300200927734384L117.46057142857143,140.08053033447266L117.72681142857142,140.02119363403318L118.22125714285714,128.26873681640623L118.52553142857144,107.57767016601562L118.56356571428572,118.08600805664064L118.82980571428571,143.48413604736328L118.94390857142858,115.16202941894532L118.98194285714287,113.76340820312501L119.01997714285714,126.28958282470703L119.13408,15.57065600585938L119.85673142857142,15.14568603515624L120.16100571428571,14.511983398437495L120.19904,97.066984375L120.31314285714285,63.38458874511718L120.57938285714286,98.97054821777344L120.69348571428571,116.25973767089843L120.76955428571428,108.50192907714843L120.88365714285715,142.49213372802734L121.03579428571429,116.45740783691407L121.37810285714286,114.9673733520508L121.60630857142857,14.81258666992188L121.79647999999999,14.978552978515621L121.94861714285715,122.30564239501955L122.02468571428571,119.97102996826172L122.40502857142857,101.01675061035158L122.44306285714286,128.49188458251953L122.5952,14.533272949218759L122.78537142857142,101.72100549316406L122.82340571428573,14.735999023437504L122.86144,136.38043377685545L122.97554285714286,57.73773706054688L123.31785142857143,113.01477728271483L123.35588571428572,15.041859863281253L123.39392000000001,14.643537841796867L123.58409142857143,14.68294799804688L123.77426285714286,14.532423095703118L123.88836571428571,14.72129223632812L124.00246857142857,14.438708740234377L124.07853714285714,142.99872744750976L124.15460571428571,121.36095458984376L124.26870857142858,14.417347167968742L124.53494857142857,32.062423583984376L124.99136,14.949153808593751L125.06742857142856,128.15168029785156L125.56187428571428,132.441056640625L125.59990857142857,128.55114025878905L126.01828571428571,14.565999511718745L126.39862857142857,138.24284274291992L126.55076571428572,113.28410882568359L126.77897142857144,14.611531494140621L127.04521142857142,14.387227783203132L127.08324571428571,137.8575764160156L127.42555428571428,14.874424316406255L127.46358857142857,142.36984124755858L128.18624,14.55423120117187L128.2242742857143,14.342848144531256L128.56658285714286,14.367004150390619L128.64265142857144,14.55194091796875L128.71872,14.604502197265623L129.02299428571428,14.347932861328125L129.32726857142856,14.376165283203118L129.47940571428572,14.359254638671882L129.59350857142857,128.31842083740236L129.66957714285715,139.42999447631837L129.70761142857143,119.58078875732423L129.82171428571428,14.86386596679687L130.04992,14.35247021484375L130.20205714285714,14.385657714843752L130.24009142857142,14.401372802734375L130.77257142857144,14.506279296874993L130.8866742857143,15.044150146484373L131.00077714285715,14.377836181640625L131.26701714285716,127.1989692993164L131.38112,132.4887096557617L131.45718857142856,139.82146905517578L131.68539428571427,14.360219726562507L131.8755657142857,142.41177575683594L132.1037714285714,131.55545526123046L132.17983999999998,14.348840332031259L132.56018285714285,141.5528097229004L132.6742857142857,128.51801397705077L132.78838857142856,14.364252929687504L133.09266285714284,135.41307180786131L133.43497142857143,141.91293515014647L133.8153142857143,14.334421630859373L134.0054857142857,14.33515624999999L134.49993142857141,127.66204583740235L135.22258285714287,14.656127197265628L135.3366857142857,131.71177069091797L135.8691657142857,14.329956298828117L135.9072,120.48735198974609L136.13540571428572,14.357569335937498L136.36361142857143,14.35412670898438L136.62985142857144,126.81396044921874L136.66788571428572,14.438492675781248L136.70592000000002,14.3558408203125L136.78198857142857,14.37687109375L136.93412571428573,142.64919818115234L137.08626285714286,14.374739257812498L137.23839999999998,142.89233370971678L137.2764342857143,140.1723433227539L137.31446857142856,105.8818739013672L137.50464,129.84251428222655L137.58070857142857,14.35777099609375L137.9610514285714,14.396835449218749L138.22729142857142,14.386377929687491L139.29225142857143,14.84398803710937L139.48242285714286,14.443851074218758L139.82473142857143,132.2970712890625L139.9388342857143,133.95342138671876L140.01490285714286,14.384591796875L140.28114285714284,14.375675537109368L140.47131428571427,143.3557523498535L140.77558857142856,14.370461181640616L140.9277257142857,140.2137664794922L140.96576,124.2465853881836L141.07986285714287,14.363691162109383L141.15593142857142,14.655781494140616L141.42217142857143,36.77258544921874L141.72644571428572,141.80455541992188L141.87858285714285,143.0082216796875L141.95465142857142,15.635417724609368L142.7914057142857,145.4314259338379L142.90550857142858,139.27225662231444L144.04653714285715,141.85458334350585L144.35081142857143,139.03369985961913L145.64397714285712,14.648939453124992L145.83414857142856,132.28455395507814L146.25252571428572,14.326196777343743L146.59483428571428,138.1673570251465L146.78500571428572,14.351245849609382L146.8610742857143,136.77282843017576L146.93714285714287,141.67041900634766L147.0512457142857,140.05189459228515L147.12731428571428,14.3126279296875L147.3174857142857,135.3050737915039L147.35552,145.31314505004883L147.6597942857143,14.351793212890625L147.69782857142857,14.327882080078128L148.07817142857144,147.32979162597655L148.23030857142857,14.431160888671872L148.6106514285714,15.02713867187499L148.7627885714286,146.00196392822266L148.91492571428572,14.325591796875008L149.2192,14.326989013671872L149.40937142857143,14.30454711914063L149.97988571428573,134.26209106445313L150.01791999999998,14.290502929687491L150.2461257142857,141.6510668334961L150.5123657142857,140.77710232543944L150.66450285714288,14.286138427734382L151.0448457142857,14.28586474609374L151.08288000000002,14.292361083984373L151.1209142857143,141.64873333740235L151.1589485714286,139.8543936767578L151.3871542857143,14.289177734374997L151.46322285714285,126.92638958740234L151.57732571428573,14.282191650390633L151.69142857142856,127.6147133178711L151.72946285714286,74.36127514648437L151.84356571428572,14.282839843750002L152.26194285714286,14.280333496093753L152.4901485714286,141.7571400756836L152.7183542857143,137.24294506835938L153.06066285714286,146.00224481201172L153.09869714285713,14.301435791015624L153.28886857142857,14.29359985351562L153.40297142857142,135.8069933166504L153.63117714285715,142.52413107299805L153.78331428571428,138.62560092163085L153.93545142857144,14.29388793945312L154.2397257142857,14.29810839843751L154.35382857142858,144.5434694519043L154.5820342857143,107.55371221923828L154.6200685714286,145.13918975830077L154.92434285714285,115.50802423095702L155.03844571428573,122.63887139892579L155.07648,14.28916333007812L155.53289142857145,140.1788558654785L156.02733714285716,139.3965855102539L156.0653714285714,14.285907958984374L156.1034057142857,141.830106842041L156.14144,138.02282431030272L156.67392,14.313794677734377L157.58674285714287,143.9110019836426L157.7008457142857,122.70244836425782L157.77691428571427,120.11803302001952L157.85298285714288,14.368300537109377L157.9670857142857,139.38393673706054L158.11922285714286,128.85005102539063L158.2333257142857,14.400422119140629L158.27136000000002,14.624740234374995L158.95597714285714,14.364152099609377L159.33632,14.5766298828125L159.60255999999998,15.180587646484382L159.75469714285717,142.9710928039551L159.79273142857141,14.3635615234375L159.98290285714288,14.38897070312501L160.02093714285712,121.14434997558594L160.13504,144.26381182861329L160.55341714285714,14.364368164062508L160.59145142857142,135.65378381347657L161.04786285714286,14.765671874999995L161.08589714285714,144.19541662597655L161.16196571428574,143.58747607421876L161.2,141.03574768066406L161.31410285714287,138.56735894775392L161.35213714285715,14.41786572265625L161.39017142857145,98.89104370117187L161.65641142857143,14.398376708984374L161.73248,120.43736907958983L162.37906285714286,141.07308541870117L162.41709714285713,136.49829873657225L162.45513142857143,126.67559637451171L162.4931657142857,77.98745605468748L162.64530285714287,126.72718896484375L162.75940571428572,146.94394732666018L163.32992,145.01276864624023L163.40598857142857,102.7762138671875L163.6341942857143,127.96184606933593L163.8624,145.69859323120116L164.01453714285714,14.576154541015626L164.62308571428574,77.8815772705078L164.96539428571427,14.399860351562507L165.04146285714288,134.66747119140624L165.11753142857145,142.11541094970704L165.30770285714286,132.2560046386719L165.4218057142857,123.21692663574218L165.7641142857143,127.27962615966797L165.87821714285712,128.1183415527344L165.99232,120.31250183105469L167.01924571428572,14.66877416992188L167.24745142857142,14.393695312500009L167.36155428571428,14.573792236328115L167.51369142857143,142.5672053222656L167.74189714285714,15.884655273437492L167.856,130.84398022460937L167.93206857142857,140.94069372558593L168.12224,14.379420654296883L168.19830857142856,14.395006103515625L168.31241142857144,122.76042205810545L168.95899428571428,14.580821533203133L169.1111314285714,142.9328043823242L169.41540571428573,140.73185482788085L169.45344,145.39465896606444L169.79574857142856,138.9273295288086L170.02395428571427,102.238587890625L170.06198857142857,136.77679501342774L170.10002285714285,14.457491943359372L170.21412571428573,143.33152432250978L170.44233142857144,14.549002441406241L170.63250285714287,144.57036587524414L170.7466057142857,145.60373193359376L171.05088,133.8834057006836L171.20301714285714,15.121659667968759L171.2790857142857,145.62139520263673L171.6213942857143,14.764159423828128L171.81156571428573,14.415805908203119L172.03977142857144,143.3376389465332L172.26797714285715,14.51774511718751L172.53421714285716,139.29841302490235L173.21883428571428,14.91510205078125L173.25686857142858,14.449929687500008L173.82738285714285,14.392211669921876L173.86541714285715,138.7488530883789L173.94148571428573,139.6075202331543L174.09362285714286,14.661514404296874L174.24576,140.66616943359375L174.89234285714286,14.396374511718754L175.12054857142857,15.051424316406255L175.3487542857143,99.74803454589843L175.46285714285713,14.384908691406256L176.14747428571428,14.480970947265629L176.2996114285714,141.41401531982422L176.56585142857142,14.584825927734373L176.6799542857143,14.41829785156251L177.09833142857144,14.414322265625005L177.47867428571428,128.0125635986328L177.51670857142855,131.96096862792967L177.63081142857143,14.432975830078119L178.04918857142857,14.532711181640618L178.61970285714284,146.74549032592773L178.65773714285714,14.42974926757813L179.15218285714286,137.95484503173827L179.38038857142857,85.23625280761718L179.45645714285715,132.67493560791016L179.49449142857142,14.764303466796868L179.72269714285716,144.24078115844728L180.10304,128.21419494628907L180.21714285714287,14.418701171874993L180.29321142857142,142.30662799072266L180.3312457142857,14.427718261718752L180.36928,15.475241943359377L180.52141714285713,124.3913197631836L180.90176,14.473523925781251L180.9397942857143,148.08676623535158L181.3962057142857,14.460603271484377L181.43424,127.30845635986329L182.08082285714286,14.434761962890628L182.4992,14.494179687500003L182.84150857142856,14.401545654296871L183.03168000000002,14.727486083984374L183.22185142857143,120.95125677490235L183.45005714285716,14.506164062500009L183.7923657142857,147.758717376709L184.09664,14.442381835937503L184.43894857142857,126.27396856689454L184.85732571428574,144.05449938964844L185.04749714285714,14.405233154296877L185.1616,14.380284912109383L185.19963428571427,51.49016857910156L185.46587428571428,14.467603759765618L185.77014857142856,14.363763183593752L186.07442285714285,14.38623388671875L186.22656,14.362164306640615L186.34066285714286,14.393767333984378L186.4547657142857,14.366327148437493L186.49280000000002,14.635889160156257L186.79707428571427,14.518364501953123L186.87314285714285,14.385499267578133L187.29152,14.363864013671877L187.59579428571428,65.4265634765625L188.01417142857142,14.543413574218743L188.16630857142854,14.363791992187508L188.47058285714286,14.536254638671883L189.3453714285714,14.345700195312498L189.57357714285712,14.470124511718746L189.7257142857143,14.333903076171866L190.29622857142857,133.38950036621094L190.52443428571428,14.72922900390625L190.63853714285716,138.32227883911133L190.71460571428574,14.33100781249999L190.9808457142857,14.326182373046885L191.09494857142857,14.352095703125002L191.2470857142857,14.329841064453133L191.39922285714286,14.35533666992187L191.43725714285713,14.337144042968752L191.4752914285714,14.33723046875L191.55136,14.356013671874996L192.0458057142857,14.439385742187502L192.12187428571428,14.734774658203134L192.19794285714286,14.609514892578122L192.35008,14.302328857421879L192.46418285714284,14.423152099609371L192.50221714285715,121.2729803466797L192.57828571428573,14.462331787109376L192.88255999999998,14.317323730468743L193.26290285714288,14.332981201171874L193.79538285714284,14.307586425781244L193.90948571428572,14.311245117187493L194.02358857142858,14.306578125000005L194.55606857142857,14.93784643554687L194.67017142857145,14.387904785156257L195.24068571428572,14.370446777343759L195.43085714285715,14.50779174804688L195.46889142857142,14.338843749999995L195.62102857142855,14.266534179687502L195.7731657142857,14.357569335937498L195.8112,78.92425390624999L195.84923428571426,20.454677734375007L195.92530285714287,14.336726318359371L196.11547428571427,14.326340820312502L196.15350857142857,14.33573242187499L196.19154285714285,14.456483642578132L196.53385142857144,14.331353515625002L196.8381257142857,14.321515380859378L196.99026285714288,14.315609619140623L197.06633142857143,14.27756787109376L197.29453714285714,14.332952392578118L197.59881142857142,14.41200317382813L197.63684571428573,14.285115722656245L197.86505142857143,14.276573974609379L197.9791542857143,14.257214599609384L198.28342857142857,14.27513354492188L198.51163428571428,14.40069580078125L198.62573714285716,14.365722167968759L198.6637714285714,14.298166015625L198.7778742857143,14.295328369140618L198.89197714285714,119.54938739013672L199.00608,14.401041503906242L199.46249142857144,14.309516601562494L199.61462857142857,14.65102807617188L199.88086857142858,14.396993896484368L200.10907428571429,14.398635986328118L200.26121142857141,14.273433837890618L200.29924571428572,14.326744140625006L200.41334857142857,14.333254882812497L200.45138285714287,14.379766357421875L200.71762285714286,35.08071435546876L200.79369142857144,93.97409375L200.86976,14.860812255859377L201.09796571428572,14.334119140624995L201.32617142857143,14.378066650390632L201.44027428571428,14.721767578124993L201.55437714285713,14.388754638671879L201.6304457142857,14.346938964843744L201.7065142857143,14.461409912109383L202.31506285714286,14.337316894531249L202.3911314285714,14.327838867187493L202.4672,14.362092285156246L202.5052342857143,14.319441162109367L202.54326857142857,14.304489501953118L202.80950857142858,14.330273193359373L202.84754285714286,14.391952392578132L203.53215999999998,14.643998779296883L203.64626285714286,14.359125L204.2928457142857,14.2463681640625L204.78729142857142,14.675241699218756L205.28173714285714,14.337777832031245L205.35780571428572,14.315739257812504L205.92831999999999,14.333456542968749L206.08045714285714,14.42215820312499L206.2325942857143,14.509721923828131L206.49883428571428,14.423728271484372L206.65097142857144,14.352844726562498L206.84114285714284,14.442208984375007L207.94413714285713,14.349157226562493L208.0202057142857,14.358476806640631L208.40054857142857,14.2937294921875L208.43858285714285,14.479415283203128L209.31337142857143,14.340226562500002L209.65568,14.401502441406258L210.56850285714285,14.425010253906251L211.0249142857143,14.41422143554688L211.10098285714287,14.395726318359385L211.29115428571427,14.447423339843759L211.67149714285713,14.547850097656243L211.7856,14.419075683593741L211.8236342857143,14.465774414062494L212.12790857142858,15.371603027343744L212.20397714285713,14.625993408203119L212.39414857142856,14.58213232421875L212.62235428571427,14.553813476562508L212.69842285714284,14.551753662109377L213.4210742857143,14.508022216796869L213.80141714285713,14.600973144531256L213.9535542857143,14.617250000000002L214.10569142857142,14.552891601562497L214.37193142857143,14.498083251953117L214.52406857142856,14.499725341796868L214.56210285714286,14.484989746093747L214.63817142857144,14.53433886718749L214.67620571428571,14.474892333984378L215.13261714285716,14.48146069335938L215.47492571428572,14.747882568359383L215.89330285714286,14.549016845703118L216.27364571428572,15.003270751953126L216.31168000000002,14.56638842773437L216.38774857142857,14.58270849609375L216.57791999999998,14.640282470703122L216.65398857142856,14.560871582031242L216.84416,14.498673828124996L217.0723657142857,15.494356445312505L217.3386057142857,14.973885986328133L217.49074285714283,108.85399530029296L217.83305142857142,69.51053454589844L218.40356571428572,14.650797607421872L218.4416,14.435136474609376L218.59373714285715,14.755516845703117L218.74587428571428,15.20163232421874L218.85997714285716,51.665576904296884L219.31638857142858,15.027311523437506L219.65869714285714,104.52910876464844L219.84886857142857,14.776921630859384L219.92493714285715,68.25139013671875L220.00100571428572,56.367290649414066L220.07707428571427,35.256115478515625L220.34331428571429,33.21535791015624L220.87579428571428,15.143871093749993L220.91382857142858,14.823692382812506L221.02793142857143,14.939041992187503L221.104,53.8394013671875L221.25613714285714,14.973813964843744L221.29417142857142,14.474416992187505L221.48434285714285,73.2117978515625L221.56041142857143,14.86602661132813L221.63648,14.551335937499994L221.82665142857144,14.68558398437499L222.54930285714286,54.51816064453125L222.77750857142857,47.648693847656254L222.85357714285712,36.48929614257812L222.96768,115.11166119384767L223.30998857142856,55.26621179199219L223.72836571428573,117.57456188964844L223.80443428571428,26.823091064453134L224.0706742857143,55.38527050781251L224.10870857142856,14.675688232421873L224.2608457142857,68.90892468261718L224.6411885714286,14.926639892578118L224.71725714285714,104.3688681640625L224.9074285714286,14.69101440429687L225.05956571428572,14.663919921874998L225.3258057142857,14.746053222656258L225.70614857142857,51.259397338867196L225.78221714285715,14.875447021484373L225.82025142857142,14.908187988281256L225.97238857142858,15.004725585937503L226.04845714285716,15.135041259765629L226.1245257142857,15.146319824218752L226.16255999999998,14.933193847656241L226.23862857142856,15.021593017578125L226.6570057142857,14.888727783203116L227.64589714285714,14.809792236328128L227.7219657142857,14.94100097656251L227.95017142857145,14.81428637695312L228.06427428571428,14.572913574218758L228.10230857142858,14.882461914062493L228.14034285714285,14.871932373046883L228.17837714285716,15.026389648437496L228.44461714285714,54.040413330078124L228.5967542857143,14.729200195312494L228.67282285714285,14.722588623046878L228.78692571428573,14.640541748046866L229.50957714285715,14.6879462890625L229.77581714285716,14.831139404296867L229.85188571428571,79.63954248046875L229.96598857142857,69.94020751953126L230.34633142857143,14.935930664062498L230.80274285714285,14.958833496093757L231.7536,14.874741210937492L231.90573714285716,14.660390869140631L233.12283428571428,14.573720214843746L233.23693714285716,14.497737548828127L233.61728,14.644358886718752L234.14976000000001,14.634895263671876L234.33993142857142,14.526272460937498L234.416,14.560036132812499L234.91044571428571,14.576370605468755L235.51899428571429,14.53354663085938L235.63309714285714,14.546697753906242L235.7472,14.53841528320312L235.89933714285712,14.8530771484375L236.01344,14.607613525390628L236.27968,14.576773925781259L236.54592000000002,14.625431640624997L236.66002285714285,14.554937011718751L236.92626285714286,14.672980224609372L237.0403657142857,14.658057373046878L237.3066057142857,14.491788574218758L237.38267428571427,14.4766064453125L237.49677714285713,14.452637695312509L237.53481142857143,14.47359594726562L237.5728457142857,14.445003417968756L237.61088,14.435280517578116L237.87712,14.417505615234381L238.14336,14.417779296875002L238.48566857142856,14.424189208984366L238.59977142857144,14.363259033203123L238.63780571428572,14.371527099609366L238.78994285714285,14.363316650390635L239.1322514285714,14.40434008789062L239.55062857142858,14.938739501953126L240.00704000000002,14.54191552734375L240.42541714285716,14.406745605468744L241.072,14.43674975585937L241.45234285714284,14.367623535156252L241.71858285714285,14.36599584960938L241.83268571428573,14.406817626953135L242.21302857142857,14.405938964843758L242.25106285714287,14.373874999999998L242.32713142857145,14.449583984374996L242.55533714285716,14.438435058593756L242.82157714285717,14.278086425781247L243.58226285714284,14.240592041015628L243.81046857142857,14.25295092773438L244.3049142857143,14.246987548828134L244.34294857142856,14.23971337890625L244.83739428571428,14.347990478515618L245.0275657142857,22.598584472656245L245.14166857142857,14.348566650390616L245.44594285714285,14.245460693359368L245.6361142857143,14.248399169921877L245.67414857142856,14.235737792968747L246.09252571428573,14.448316406249994L246.4348342857143,14.274614990234372L246.7010742857143,14.254132080078115L246.77714285714288,14.249897216796867" style="fill: none;" fill="none"></path></g></g></g></g></g></g><g transform="translate(70, 177)" clip-path="url(#clip_1)"><clipPath id="clip_1"><rect width="260" height="23"></rect></clipPath><g><g><line x1="0" y1="0" x2="0" y2="5" style="visibility: inherit;" fill="rgb(0, 0, 0)" stroke="rgb(204, 204, 204)" stroke-width="1px"></line><line x1="18.57142857142857" y1="0" x2="18.57142857142857" y2="5" style="visibility: inherit;" fill="rgb(0, 0, 0)" stroke="rgb(204, 204, 204)" stroke-width="1px"></line><line x1="37.14285714285714" y1="0" x2="37.14285714285714" y2="5" style="visibility: inherit;" fill="rgb(0, 0, 0)" stroke="rgb(204, 204, 204)" stroke-width="1px"></line><line x1="55.71428571428571" y1="0" x2="55.71428571428571" y2="5" style="visibility: inherit;" fill="rgb(0, 0, 0)" stroke="rgb(204, 204, 204)" stroke-width="1px"></line><line x1="74.28571428571428" y1="0" x2="74.28571428571428" y2="5" style="visibility: inherit;" fill="rgb(0, 0, 0)" stroke="rgb(204, 204, 204)" stroke-width="1px"></line><line x1="92.85714285714286" y1="0" x2="92.85714285714286" y2="5" style="visibility: inherit;" fill="rgb(0, 0, 0)" stroke="rgb(204, 204, 204)" stroke-width="1px"></line><line x1="111.42857142857142" y1="0" x2="111.42857142857142" y2="5" style="visibility: inherit;" fill="rgb(0, 0, 0)" stroke="rgb(204, 204, 204)" stroke-width="1px"></line><line x1="130" y1="0" x2="130" y2="5" style="visibility: inherit;" fill="rgb(0, 0, 0)" stroke="rgb(204, 204, 204)" stroke-width="1px"></line><line x1="148.57142857142856" y1="0" x2="148.57142857142856" y2="5" style="visibility: inherit;" fill="rgb(0, 0, 0)" stroke="rgb(204, 204, 204)" stroke-width="1px"></line><line x1="167.14285714285717" y1="0" x2="167.14285714285717" y2="5" style="visibility: inherit;" fill="rgb(0, 0, 0)" stroke="rgb(204, 204, 204)" stroke-width="1px"></line><line x1="185.71428571428572" y1="0" x2="185.71428571428572" y2="5" style="visibility: inherit;" fill="rgb(0, 0, 0)" stroke="rgb(204, 204, 204)" stroke-width="1px"></line><line x1="204.28571428571428" y1="0" x2="204.28571428571428" y2="5" style="visibility: inherit;" fill="rgb(0, 0, 0)" stroke="rgb(204, 204, 204)" stroke-width="1px"></line><line x1="222.85714285714283" y1="0" x2="222.85714285714283" y2="5" style="visibility: inherit;" fill="rgb(0, 0, 0)" stroke="rgb(204, 204, 204)" stroke-width="1px"></line><line x1="241.42857142857144" y1="0" x2="241.42857142857144" y2="5" style="visibility: inherit;" fill="rgb(0, 0, 0)" stroke="rgb(204, 204, 204)" stroke-width="1px"></line><line x1="260" y1="0" x2="260" y2="5" style="visibility: inherit;" fill="rgb(0, 0, 0)" stroke="rgb(204, 204, 204)" stroke-width="1px"></line></g><g transform="translate(0, 8)"><text x="0" y="0" dx="0em" dy="0.95em" style="text-anchor: middle; visibility: hidden; font-family: Roboto, sans-serif; font-size: 12px; font-weight: 200;" fill="rgb(33, 33, 33)" stroke="none" stroke-width="1px">-10M</text><text x="18.57142857142857" y="0" dx="0em" dy="0.95em" style="text-anchor: middle; visibility: inherit; font-family: Roboto, sans-serif; font-size: 12px; font-weight: 200;" fill="rgb(33, 33, 33)" stroke="none" stroke-width="1px">0</text><text x="37.14285714285714" y="0" dx="0em" dy="0.95em" style="text-anchor: middle; visibility: hidden; font-family: Roboto, sans-serif; font-size: 12px; font-weight: 200;" fill="rgb(33, 33, 33)" stroke="none" stroke-width="1px">10M</text><text x="55.71428571428571" y="0" dx="0em" dy="0.95em" style="text-anchor: middle; visibility: inherit; font-family: Roboto, sans-serif; font-size: 12px; font-weight: 200;" fill="rgb(33, 33, 33)" stroke="none" stroke-width="1px">20M</text><text x="74.28571428571428" y="0" dx="0em" dy="0.95em" style="text-anchor: middle; visibility: hidden; font-family: Roboto, sans-serif; font-size: 12px; font-weight: 200;" fill="rgb(33, 33, 33)" stroke="none" stroke-width="1px">30M</text><text x="92.85714285714286" y="0" dx="0em" dy="0.95em" style="text-anchor: middle; visibility: inherit; font-family: Roboto, sans-serif; font-size: 12px; font-weight: 200;" fill="rgb(33, 33, 33)" stroke="none" stroke-width="1px">40M</text><text x="111.42857142857142" y="0" dx="0em" dy="0.95em" style="text-anchor: middle; visibility: hidden; font-family: Roboto, sans-serif; font-size: 12px; font-weight: 200;" fill="rgb(33, 33, 33)" stroke="none" stroke-width="1px">50M</text><text x="130" y="0" dx="0em" dy="0.95em" style="text-anchor: middle; visibility: inherit; font-family: Roboto, sans-serif; font-size: 12px; font-weight: 200;" fill="rgb(33, 33, 33)" stroke="none" stroke-width="1px">60M</text><text x="148.57142857142856" y="0" dx="0em" dy="0.95em" style="text-anchor: middle; visibility: hidden; font-family: Roboto, sans-serif; font-size: 12px; font-weight: 200;" fill="rgb(33, 33, 33)" stroke="none" stroke-width="1px">70M</text><text x="167.14285714285717" y="0" dx="0em" dy="0.95em" style="text-anchor: middle; visibility: inherit; font-family: Roboto, sans-serif; font-size: 12px; font-weight: 200;" fill="rgb(33, 33, 33)" stroke="none" stroke-width="1px">80M</text><text x="185.71428571428572" y="0" dx="0em" dy="0.95em" style="text-anchor: middle; visibility: hidden; font-family: Roboto, sans-serif; font-size: 12px; font-weight: 200;" fill="rgb(33, 33, 33)" stroke="none" stroke-width="1px">90M</text><text x="204.28571428571428" y="0" dx="0em" dy="0.95em" style="text-anchor: middle; visibility: inherit; font-family: Roboto, sans-serif; font-size: 12px; font-weight: 200;" fill="rgb(33, 33, 33)" stroke="none" stroke-width="1px">100M</text><text x="222.85714285714283" y="0" dx="0em" dy="0.95em" style="text-anchor: middle; visibility: hidden; font-family: Roboto, sans-serif; font-size: 12px; font-weight: 200;" fill="rgb(33, 33, 33)" stroke="none" stroke-width="1px">110M</text><text x="241.42857142857144" y="0" dx="0em" dy="0.95em" style="text-anchor: middle; visibility: inherit; font-family: Roboto, sans-serif; font-size: 12px; font-weight: 200;" fill="rgb(33, 33, 33)" stroke="none" stroke-width="1px">120M</text><text x="260" y="0" dx="0em" dy="0.95em" style="text-anchor: middle; visibility: hidden; font-family: Roboto, sans-serif; font-size: 12px; font-weight: 200;" fill="rgb(33, 33, 33)" stroke="none" stroke-width="1px">130M</text></g><line x1="0" y1="0" x2="260" y2="0" fill="rgb(0, 0, 0)" stroke="rgb(204, 204, 204)" stroke-width="1px"></line></g></g></g></g></svg>