<svg viewBox="0 0 1426 400" xmlns="http://www.w3.org/2000/svg"><g><g><g><g><g><line x1="72.34375" y1="377" x2="67.34375" y2="377" style="visibility: inherit;" fill="rgb(0, 0, 0)" stroke="rgb(204, 204, 204)" stroke-width="1px"></line><line x1="72.34375" y1="351.8666666666667" x2="67.34375" y2="351.8666666666667" style="visibility: inherit;" fill="rgb(0, 0, 0)" stroke="rgb(204, 204, 204)" stroke-width="1px"></line><line x1="72.34375" y1="326.73333333333335" x2="67.34375" y2="326.73333333333335" style="visibility: inherit;" fill="rgb(0, 0, 0)" stroke="rgb(204, 204, 204)" stroke-width="1px"></line><line x1="72.34375" y1="301.6" x2="67.34375" y2="301.6" style="visibility: inherit;" fill="rgb(0, 0, 0)" stroke="rgb(204, 204, 204)" stroke-width="1px"></line><line x1="72.34375" y1="276.4666666666667" x2="67.34375" y2="276.4666666666667" style="visibility: inherit;" fill="rgb(0, 0, 0)" stroke="rgb(204, 204, 204)" stroke-width="1px"></line><line x1="72.34375" y1="251.33333333333337" x2="67.34375" y2="251.33333333333337" style="visibility: inherit;" fill="rgb(0, 0, 0)" stroke="rgb(204, 204, 204)" stroke-width="1px"></line><line x1="72.34375" y1="226.2" x2="67.34375" y2="226.2" style="visibility: inherit;" fill="rgb(0, 0, 0)" stroke="rgb(204, 204, 204)" stroke-width="1px"></line><line x1="72.34375" y1="201.06666666666666" x2="67.34375" y2="201.06666666666666" style="visibility: inherit;" fill="rgb(0, 0, 0)" stroke="rgb(204, 204, 204)" stroke-width="1px"></line><line x1="72.34375" y1="175.93333333333334" x2="67.34375" y2="175.93333333333334" style="visibility: inherit;" fill="rgb(0, 0, 0)" stroke="rgb(204, 204, 204)" stroke-width="1px"></line><line x1="72.34375" y1="150.8" x2="67.34375" y2="150.8" style="visibility: inherit;" fill="rgb(0, 0, 0)" stroke="rgb(204, 204, 204)" stroke-width="1px"></line><line x1="72.34375" y1="125.66666666666669" x2="67.34375" y2="125.66666666666669" style="visibility: inherit;" fill="rgb(0, 0, 0)" stroke="rgb(204, 204, 204)" stroke-width="1px"></line><line x1="72.34375" y1="100.53333333333336" x2="67.34375" y2="100.53333333333336" style="visibility: inherit;" fill="rgb(0, 0, 0)" stroke="rgb(204, 204, 204)" stroke-width="1px"></line><line x1="72.34375" y1="75.39999999999998" x2="67.34375" y2="75.39999999999998" style="visibility: inherit;" fill="rgb(0, 0, 0)" stroke="rgb(204, 204, 204)" stroke-width="1px"></line><line x1="72.34375" y1="50.26666666666666" x2="67.34375" y2="50.26666666666666" style="visibility: inherit;" fill="rgb(0, 0, 0)" stroke="rgb(204, 204, 204)" stroke-width="1px"></line><line x1="72.34375" y1="25.13333333333333" x2="67.34375" y2="25.13333333333333" style="visibility: inherit;" fill="rgb(0, 0, 0)" stroke="rgb(204, 204, 204)" stroke-width="1px"></line><line x1="72.34375" y1="0" x2="67.34375" y2="0" style="visibility: inherit;" fill="rgb(0, 0, 0)" stroke="rgb(204, 204, 204)" stroke-width="1px"></line></g><g transform="translate(62.34375, 0)"><text x="0" y="377" dx="0em" dy="0.3em" style="text-anchor: end; visibility: hidden; font-family: Roboto, sans-serif; font-size: 12px; font-weight: 200;" fill="rgb(255, 255, 255)" stroke="none" stroke-width="1px">-200</text><text x="0" y="351.8666666666667" dx="0em" dy="0.3em" style="text-anchor: end; visibility: inherit; font-family: Roboto, sans-serif; font-size: 12px; font-weight: 200;" fill="rgb(255, 255, 255)" stroke="none" stroke-width="1px">0</text><text x="0" y="326.73333333333335" dx="0em" dy="0.3em" style="text-anchor: end; visibility: inherit; font-family: Roboto, sans-serif; font-size: 12px; font-weight: 200;" fill="rgb(255, 255, 255)" stroke="none" stroke-width="1px">200</text><text x="0" y="301.6" dx="0em" dy="0.3em" style="text-anchor: end; visibility: inherit; font-family: Roboto, sans-serif; font-size: 12px; font-weight: 200;" fill="rgb(255, 255, 255)" stroke="none" stroke-width="1px">400</text><text x="0" y="276.4666666666667" dx="0em" dy="0.3em" style="text-anchor: end; visibility: inherit; font-family: Roboto, sans-serif; font-size: 12px; font-weight: 200;" fill="rgb(255, 255, 255)" stroke="none" stroke-width="1px">600</text><text x="0" y="251.33333333333337" dx="0em" dy="0.3em" style="text-anchor: end; visibility: inherit; font-family: Roboto, sans-serif; font-size: 12px; font-weight: 200;" fill="rgb(255, 255, 255)" stroke="none" stroke-width="1px">800</text><text x="0" y="226.2" dx="0em" dy="0.3em" style="text-anchor: end; visibility: inherit; font-family: Roboto, sans-serif; font-size: 12px; font-weight: 200;" fill="rgb(255, 255, 255)" stroke="none" stroke-width="1px">1e+3</text><text x="0" y="201.06666666666666" dx="0em" dy="0.3em" style="text-anchor: end; visibility: inherit; font-family: Roboto, sans-serif; font-size: 12px; font-weight: 200;" fill="rgb(255, 255, 255)" stroke="none" stroke-width="1px">1.2e+3</text><text x="0" y="175.93333333333334" dx="0em" dy="0.3em" style="text-anchor: end; visibility: inherit; font-family: Roboto, sans-serif; font-size: 12px; font-weight: 200;" fill="rgb(255, 255, 255)" stroke="none" stroke-width="1px">1.4e+3</text><text x="0" y="150.8" dx="0em" dy="0.3em" style="text-anchor: end; visibility: inherit; font-family: Roboto, sans-serif; font-size: 12px; font-weight: 200;" fill="rgb(255, 255, 255)" stroke="none" stroke-width="1px">1.6e+3</text><text x="0" y="125.66666666666669" dx="0em" dy="0.3em" style="text-anchor: end; visibility: inherit; font-family: Roboto, sans-serif; font-size: 12px; font-weight: 200;" fill="rgb(255, 255, 255)" stroke="none" stroke-width="1px">1.8e+3</text><text x="0" y="100.53333333333336" dx="0em" dy="0.3em" style="text-anchor: end; visibility: inherit; font-family: Roboto, sans-serif; font-size: 12px; font-weight: 200;" fill="rgb(255, 255, 255)" stroke="none" stroke-width="1px">2e+3</text><text x="0" y="75.39999999999998" dx="0em" dy="0.3em" style="text-anchor: end; visibility: inherit; font-family: Roboto, sans-serif; font-size: 12px; font-weight: 200;" fill="rgb(255, 255, 255)" stroke="none" stroke-width="1px">2.2e+3</text><text x="0" y="50.26666666666666" dx="0em" dy="0.3em" style="text-anchor: end; visibility: inherit; font-family: Roboto, sans-serif; font-size: 12px; font-weight: 200;" fill="rgb(255, 255, 255)" stroke="none" stroke-width="1px">2.4e+3</text><text x="0" y="25.13333333333333" dx="0em" dy="0.3em" style="text-anchor: end; visibility: inherit; font-family: Roboto, sans-serif; font-size: 12px; font-weight: 200;" fill="rgb(255, 255, 255)" stroke="none" stroke-width="1px">2.6e+3</text><text x="0" y="0" dx="0em" dy="0.3em" style="text-anchor: end; visibility: hidden; font-family: Roboto, sans-serif; font-size: 12px; font-weight: 200;" fill="rgb(255, 255, 255)" stroke="none" stroke-width="1px">2.8e+3</text></g><line x1="72.34375" y1="0" x2="72.34375" y2="377" fill="rgb(0, 0, 0)" stroke="rgb(204, 204, 204)" stroke-width="1px"></line></g></g><g transform="translate(72, 0)" clip-path="url(#clip_0)"><clipPath id="clip_0"><rect width="1353" height="377"></rect></clipPath><g><g><g><line x1="0" y1="0" x2="0" y2="377" fill="rgb(0, 0, 0)" stroke="rgb(189, 189, 189)" stroke-width="1px" opacity="0.25"></line><line x1="96.68973214285714" y1="0" x2="96.68973214285714" y2="377" fill="rgb(0, 0, 0)" stroke="rgb(189, 189, 189)" stroke-width="1px" opacity="0.25"></line><line x1="193.37946428571428" y1="0" x2="193.37946428571428" y2="377" fill="rgb(0, 0, 0)" stroke="rgb(189, 189, 189)" stroke-width="1px" opacity="0.25"></line><line x1="290.0691964285714" y1="0" x2="290.0691964285714" y2="377" fill="rgb(0, 0, 0)" stroke="rgb(189, 189, 189)" stroke-width="1px" opacity="0.25"></line><line x1="386.75892857142856" y1="0" x2="386.75892857142856" y2="377" fill="rgb(0, 0, 0)" stroke="rgb(189, 189, 189)" stroke-width="1px" opacity="0.25"></line><line x1="483.4486607142857" y1="0" x2="483.4486607142857" y2="377" fill="rgb(0, 0, 0)" stroke="rgb(189, 189, 189)" stroke-width="1px" opacity="0.25"></line><line x1="580.1383928571428" y1="0" x2="580.1383928571428" y2="377" fill="rgb(0, 0, 0)" stroke="rgb(189, 189, 189)" stroke-width="1px" opacity="0.25"></line><line x1="676.828125" y1="0" x2="676.828125" y2="377" fill="rgb(0, 0, 0)" stroke="rgb(189, 189, 189)" stroke-width="1px" opacity="0.25"></line><line x1="773.5178571428571" y1="0" x2="773.5178571428571" y2="377" fill="rgb(0, 0, 0)" stroke="rgb(189, 189, 189)" stroke-width="1px" opacity="0.25"></line><line x1="870.2075892857143" y1="0" x2="870.2075892857143" y2="377" fill="rgb(0, 0, 0)" stroke="rgb(189, 189, 189)" stroke-width="1px" opacity="0.25"></line><line x1="966.8973214285714" y1="0" x2="966.8973214285714" y2="377" fill="rgb(0, 0, 0)" stroke="rgb(189, 189, 189)" stroke-width="1px" opacity="0.25"></line><line x1="1063.5870535714284" y1="0" x2="1063.5870535714284" y2="377" fill="rgb(0, 0, 0)" stroke="rgb(189, 189, 189)" stroke-width="1px" opacity="0.25"></line><line x1="1160.2767857142856" y1="0" x2="1160.2767857142856" y2="377" fill="rgb(0, 0, 0)" stroke="rgb(189, 189, 189)" stroke-width="1px" opacity="0.25"></line><line x1="1256.966517857143" y1="0" x2="1256.966517857143" y2="377" fill="rgb(0, 0, 0)" stroke="rgb(189, 189, 189)" stroke-width="1px" opacity="0.25"></line><line x1="1353.65625" y1="0" x2="1353.65625" y2="377" fill="rgb(0, 0, 0)" stroke="rgb(189, 189, 189)" stroke-width="1px" opacity="0.25"></line></g><g><line x1="0" y1="377" x2="1353.65625" y2="377" fill="rgb(0, 0, 0)" stroke="rgb(189, 189, 189)" stroke-width="1px" opacity="0.25"></line><line x1="0" y1="351.8666666666667" x2="1353.65625" y2="351.8666666666667" fill="rgb(0, 0, 0)" stroke="rgb(189, 189, 189)" stroke-width="1px" opacity="0.25"></line><line x1="0" y1="326.73333333333335" x2="1353.65625" y2="326.73333333333335" fill="rgb(0, 0, 0)" stroke="rgb(189, 189, 189)" stroke-width="1px" opacity="0.25"></line><line x1="0" y1="301.6" x2="1353.65625" y2="301.6" fill="rgb(0, 0, 0)" stroke="rgb(189, 189, 189)" stroke-width="1px" opacity="0.25"></line><line x1="0" y1="276.4666666666667" x2="1353.65625" y2="276.4666666666667" fill="rgb(0, 0, 0)" stroke="rgb(189, 189, 189)" stroke-width="1px" opacity="0.25"></line><line x1="0" y1="251.33333333333337" x2="1353.65625" y2="251.33333333333337" fill="rgb(0, 0, 0)" stroke="rgb(189, 189, 189)" stroke-width="1px" opacity="0.25"></line><line x1="0" y1="226.2" x2="1353.65625" y2="226.2" fill="rgb(0, 0, 0)" stroke="rgb(189, 189, 189)" stroke-width="1px" opacity="0.25"></line><line x1="0" y1="201.06666666666666" x2="1353.65625" y2="201.06666666666666" fill="rgb(0, 0, 0)" stroke="rgb(189, 189, 189)" stroke-width="1px" opacity="0.25"></line><line x1="0" y1="175.93333333333334" x2="1353.65625" y2="175.93333333333334" fill="rgb(0, 0, 0)" stroke="rgb(189, 189, 189)" stroke-width="1px" opacity="0.25"></line><line x1="0" y1="150.8" x2="1353.65625" y2="150.8" fill="rgb(0, 0, 0)" stroke="rgb(189, 189, 189)" stroke-width="1px" opacity="0.25"></line><line x1="0" y1="125.66666666666669" x2="1353.65625" y2="125.66666666666669" fill="rgb(0, 0, 0)" stroke="rgb(189, 189, 189)" stroke-width="1px" opacity="0.25"></line><line x1="0" y1="100.53333333333336" x2="1353.65625" y2="100.53333333333336" fill="rgb(0, 0, 0)" stroke="rgb(189, 189, 189)" stroke-width="1px" opacity="0.25"></line><line x1="0" y1="75.39999999999998" x2="1353.65625" y2="75.39999999999998" fill="rgb(0, 0, 0)" stroke="rgb(189, 189, 189)" stroke-width="1px" opacity="0.25"></line><line x1="0" y1="50.26666666666666" x2="1353.65625" y2="50.26666666666666" fill="rgb(0, 0, 0)" stroke="rgb(189, 189, 189)" stroke-width="1px" opacity="0.25"></line><line x1="0" y1="25.13333333333333" x2="1353.65625" y2="25.13333333333333" fill="rgb(0, 0, 0)" stroke="rgb(189, 189, 189)" stroke-width="1px" opacity="0.25"></line><line x1="0" y1="0" x2="1353.65625" y2="0" fill="rgb(0, 0, 0)" stroke="rgb(189, 189, 189)" stroke-width="1px" opacity="0.25"></line></g></g></g><g><g><line x1="0" y1="351.8666666666667" x2="1353.65625" y2="351.8666666666667" fill="rgb(0, 0, 0)" stroke="rgb(153, 153, 153)" stroke-width="1.5px"></line></g></g><g><g><line x1="96.68973214285714" y1="0" x2="96.68973214285714" y2="377" fill="rgb(0, 0, 0)" stroke="rgb(153, 153, 153)" stroke-width="1.5px"></line></g></g><g><g><g><g><g><path stroke="rgb(0, 119, 187)" stroke-width="2px" d="M97.679835,320.827L99.66004071428571,317.8723560113385L99.85806128571429,324.1415043995647L100.452123,323.34309815518003L102.03628757142857,320.8493627048879L102.23430814285715,316.2053187237728L104.80857557142856,275.2189473762385L106.19471957142856,244.47920476450906L106.39274014285715,251.4822400012372L106.59076071428571,245.4333350555084L109.16502814285714,230.54127937341755L109.36304871428571,213.75079891709737L110.15513100000001,220.40319817763145L110.74919271428573,222.69013265623315L110.94721328571428,221.89650352100475L112.13533671428571,226.6068226175119L113.12543957142856,214.9584041317291L114.51158357142857,220.80565254077112L116.49178928571429,225.11640653711072L117.28387157142858,228.30466032735163L118.07595385714285,231.37058690796624L120.84824185714287,233.21689357817104L121.64032414285714,224.290830173734L121.83834471428571,227.51746452156166L122.23438585714285,221.19155380841534L122.63042700000001,223.93639056809272L123.81855042857141,221.3054197646703L125.402715,214.38619257727746L125.79875614285714,217.71711450563353L125.99677671428572,211.37408948434182L126.59083842857143,214.06514014079968L127.97698242857143,211.36731799919346L128.57104414285715,212.0136240079413L128.9670852857143,212.89995772097984L129.36312642857143,212.81901699988686L130.947291,213.37131382186521L131.93739385714284,212.26507381932336L133.32353785714287,213.2281147941954L134.70968185714287,208.44427867583312L134.90770242857144,209.33894882274112L137.08592871428573,208.24199265362932L137.48196985714284,210.32746623766212L139.06613442857144,212.33383293546683L142.23446357142856,213.9688664485882L145.20477214285714,209.7936735952007L145.4027927142857,211.79281299198936L147.97706014285714,213.353956508643L148.1750807142857,214.22022125080798L150.55132757142857,215.64738023202938L151.1453892857143,217.70765787034478L152.72955385714286,213.93752055251272L153.32361557142858,210.31241935912996L153.9176772857143,211.83668514750633L154.31371842857143,213.2782003155531L155.3038212857143,214.82688808606426L155.69986242857144,215.85437009619037L157.87808871428572,213.25485277619077L158.670171,210.0071908588764L159.46225328571427,211.19950093123086L159.85829442857144,211.9120567561669L160.05631499999998,210.01385294004652L160.6503767142857,211.17929759243037L165.20484985714285,212.0258952668296L165.40287042857145,211.4905916112714L167.77911728571428,208.61063735981563L168.9672407142857,209.45818543259145L169.16526128571428,206.69278078185692L169.36328185714285,207.28552481275887L171.7395287142857,208.3075659788784L173.32369328571428,206.69746680257205L174.11577557142857,207.6911133616311L174.51181671428571,208.33169185213305L175.50191957142857,205.8020341324975L176.49202242857143,203.3407755132231L176.88806357142857,204.6582672366853L179.06628985714286,205.82436289882455L180.2544132857143,203.45518859084993L180.45243385714286,203.69790080578176L183.22472185714287,202.54876296414494L183.4227424285714,203.51299406674352L183.81878357142855,204.19026598155668L185.20492757142858,202.94923812040284L186.393051,204.0074368936762L188.17523614285713,204.7644836968913L188.96731842857145,204.90717934423392L189.56138014285713,205.430663962615L189.95742128571428,206.55263119265183L190.74950357142856,207.3493779035485L190.94752414285713,208.01905545974125L191.937627,205.95356804529692L192.13564757142856,206.0692539292111L193.323771,206.60256566865056L197.87824414285714,204.61669335434755L198.27428528571429,202.67310379415093L198.47230585714286,203.60477866694447L198.67032642857143,201.7108553029518L199.26438814285714,202.20118693972563L199.6604292857143,201.32117156691433L202.43271728571426,202.28460478212838L202.63073785714283,202.99116829741135L203.026779,201.19295362714246L203.42282014285715,199.43002776887255L203.81886128571426,199.20033544548218L204.61094357142858,200.09538944005735L205.0069847142857,198.3913114109746L205.799067,198.9087112933764L206.19510814285712,199.86576045393818L206.98719042857144,198.74131788581937L208.17531385714287,197.10965132647397L208.57135499999998,198.02305978699516L209.3634372857143,198.23613247956732L212.53176642857142,196.65059595695323L213.71988985714285,195.09315112324498L214.51197214285713,196.0229292693137L214.90801328571428,196.9827697939095L218.274363,197.59804700382497L218.47238357142857,196.0823162631479L220.05654814285714,196.88092031866688L220.25456871428568,195.3955905939159L221.24467157142857,195.6667651725798L221.44269214285714,196.22552165260228L223.0268567142857,197.0572690044066L224.21498014285714,195.61589944024638L224.41300071428572,194.72233813421116L225.40310357142857,193.3225020174043L227.18528871428572,191.9449142427834L227.58132985714283,192.67537921098454L228.96747385714283,193.0849610645318L230.55163842857144,193.83794221330342L230.749659,194.58138384186736L232.33382357142858,195.30220619709416L233.91798814285713,193.9673664722359L234.3140292857143,194.80804101235486L237.48235842857142,195.59608664753324L239.6605847142857,195.092330717078L240.05662585714285,195.1669514096386L240.45266700000002,195.69177996109556L241.0467287142857,196.3941362484896L241.64079042857145,195.1137623187124L241.83881100000002,195.42851927620924L244.21505785714288,196.28035592819188L248.17546928571429,195.02605303734995L250.35369557142855,195.0817357430263L250.55171614285715,195.6358464173474L251.73983957142858,194.41046666287264L252.92796299999998,193.87320724669834L256.0962921428571,192.67620652896784L256.2943127142857,193.1644803046051L256.69035385714284,191.98751111453552L257.28441557142855,192.40885808761766L259.0666007142857,191.25173337074597L261.64086814285713,190.10986273436228L263.2250327142857,188.9829470779835L263.8190944285714,188.41280923561942L266.5913824285714,187.31116324075708L267.5814852857143,187.3359128303505L268.37356757142857,188.01909700264238L269.3636704285714,186.93948023019493L272.333979,185.8734716312661L274.11616414285714,185.38320683451872L274.5122052857143,185.8526747461871L275.3042875714286,184.81214114581365L276.6904315714286,183.78440259381617L281.04688414285715,184.2847558327214L281.4429252857143,184.91363551509787L283.423131,185.2146449208972L284.809275,184.54670066156794L287.581563,183.54883693809975L290.74989214285716,183.83270459537823L291.3439538571429,184.4506777849759L293.3241595714286,185.17808171510555L293.72020071428574,185.7896968973123L294.7103035714286,186.1688806188915L295.30436528571425,186.85515564495586L295.70040642857145,185.87956983908686L297.8786327142857,186.23826702805724L299.2647767142857,186.96457097046735L300.056859,186.0033587956457L300.4529001428571,185.05291463190247L302.2350852857143,184.11305901138468L305.9974761428572,183.1836164323741L308.7697641428571,183.4722073675126L308.9677847142857,184.17224798941135L309.36382585714284,184.45583625097714L310.15590814285713,184.82113304325685L311.9380932857143,185.44817603534364L314.31434014285713,185.76433147175103L315.1064224285714,186.30211636439512L315.50246357142856,186.62048454719937L316.0965252857143,187.1205949383637L316.4925664285714,186.21824436196158L316.88860757142857,185.32532170703578L318.8688132857143,184.44168042450022L319.66089557142857,185.02242033427632L319.85891614285714,185.69219098578534L321.04703957142857,186.20902135353612L321.4430807142857,186.69740619080787L322.4331835714286,187.20461712396096L323.8193275714286,186.3347166289805L324.80943042857143,186.85874385066575L325.007451,187.36719208400135L327.38369785714286,187.77169738680286L329.3639035714286,188.40739564068193L329.7599447142857,187.55024765630193L329.9579652857143,188.05210975637317L331.3441092857143,188.52074429029742L332.33421214285715,187.67418760780168L333.12629442857144,186.83579982655837L333.32431499999996,187.3314632329796L335.7005618571428,187.8442727290365L337.28472642857145,188.3753149316239L338.07680871428573,188.81782328209238L339.0669115714286,188.47373171032217L339.4629527142857,189.0385065392495L343.2253435714286,189.52528742330264L343.62138471428574,188.7053037066987L344.61148757142854,187.89290669703365L344.8095081428571,188.19484115857853L345.20554928571426,187.39168105642L345.799611,187.9525738073556L346.59169328571426,187.15713592924587L347.7798167142857,187.5620015044077L348.57189900000003,187.99652707694108L349.56200185714283,187.21038854147315L350.7501252857143,187.64445785788627L351.34418700000003,188.13987139411418L352.33428985714283,188.11875831688747L352.9283515714286,188.46688357105953L353.9184544285714,188.72235235806312L354.7105367142857,189.2103463382965L355.50261900000004,189.61005596252213L357.2848041428571,189.8910395911559L358.6709481428571,190.2542088112769L359.26500985714284,190.4812067008746L359.4630304285714,190.89279475640078L361.24521557142856,190.12853806211118L363.22542128571433,189.37076060004807L366.19572985714285,188.61938069781328L366.98781214285714,189.0259316150151L369.1660384285714,188.2817124356261L369.364059,187.5436988713346L370.1561412857143,188.0267617716697L372.73040871428566,188.57570132382392L377.4829024285714,189.04817984576576L381.2452932857143,189.56418378869765L381.64133442857144,189.82771876677995L381.839355,190.20676604946792L383.8195607142857,190.53184226781187L385.40372528571424,190.81497289827186L385.6017458571429,190.08900171702476L386.1958075714286,189.75760064711216L388.770075,190.07619923804492L389.16611614285716,190.4411546906549L391.34434242857145,190.79258130706214L391.93840414285717,191.1819757101683L392.7304864285714,191.55107082162218L393.52256871428574,191.82915160266464L394.314651,192.18073959741568L395.700795,192.4728960440624L395.8988155714286,192.72054687626104L396.4928772857143,192.01320728191092L397.086939,192.1843544244965L399.46318585714283,191.4840394282392L400.6513092857143,191.5312761493115L401.4433915714286,190.83838559575122L403.4235972857143,190.15073511234124L404.01765900000004,189.468265820283L406.789947,188.79091971956024L407.3840087142857,188.11863967260416L408.3741115714286,188.21686685119622L408.9681732857143,188.55142481261726L410.7503584285715,187.88661131859533L412.9285847142857,188.0059002598911L413.91868757142856,188.13269883128078L414.3147287142857,187.47593611788855L419.0672224285714,186.82396242964273L420.65138699999994,187.23688183156972L421.04742814285714,187.62662703942163L421.64148985714286,186.98012127573128L422.82961328571423,187.15247656670962L423.0276338571428,186.8149369224695L424.41377785714286,186.17769494104525L425.99794242857143,185.54498616487834L426.7900247142857,185.85009081979754L427.582107,186.21433024965603L428.968251,186.52550537552452L429.36429214285715,185.89903105599973L430.5524155714285,186.27585940828516L432.3346007142857,186.35928752467507L433.9187652857143,186.71158773916292L434.31480642857144,186.55150585367022L434.9088681428571,186.83400238058297L435.5029298571428,187.17341207419972L435.7009504285714,187.19143924858247L437.08709442857145,187.16115718094736L437.8791767142857,187.1158829112806L438.07719728571425,186.94968116835418L439.4633412857143,187.3090888462497L441.24552642857145,186.70128313993138L442.03760871428574,186.68592618737037L442.4336498571428,186.08398135748638L444.215835,186.498523581966L446.3940612857143,186.56191935253L448.37426700000003,186.50318211790034L448.7703081428572,185.9086967185675L450.1564521428571,185.31812684963086L451.14655500000003,185.42424353922848L451.74061671428575,184.83877801150743L453.32478128571427,184.25713174597453L457.0871721428571,184.6250660747504L459.2653984285714,184.04741090657106L460.849563,183.4734883870585L462.63174814285713,182.90326273818272L463.4238304285715,182.33669863767915L465.20601557142857,182.4278341150282L466.1961184285715,182.85497554515212L466.394139,182.29315236054853L466.59215957142857,182.65256099669503L469.7604887142857,182.09447174613408L470.7505915714285,181.53990001842791L472.92881785714286,181.17500729718063L473.52287957142863,181.52601484956716L474.711003,180.97787153134908L474.9090235714286,180.93377982481022L475.7011058571428,180.7165754857014L476.6912087142857,180.7427358518852L477.8793321428571,180.9479792451999L478.07735271428567,181.00237568902867L480.255579,181.00267265256852L481.0476612857143,181.4118833820177L481.24568185714287,181.39467877073017L482.03776414285716,181.29932382232252L482.4338052857143,181.54072326357144L484.21599042857144,181.7249233002479L485.00807271428573,181.4133458429264L485.20609328571425,181.82683639517703L485.6021344285714,181.29692469086257L485.80015499999996,180.812661880795L486.19619614285716,180.28890473055012L488.3744224285714,179.76825789523565L488.7704635714286,179.25069400938972L490.3546281428571,179.18677153939313L490.5526487142857,179.18119541822657L491.14671042857145,178.98965058816407L498.0774304285714,178.82376613750804L502.2358624285714,178.31570498285598L503.82002700000004,177.81060123414412L506.1962738571429,178.21067643070077L506.7903355714286,178.11980566704824L508.5725207142857,177.61898601353604L510.5527264285714,177.1210490502553L512.136891,176.62597020679783L512.7309527142856,176.13372519116805L513.3250144285714,176.51142351624338L514.5131378571429,176.02187378769315L515.5032407142857,175.53510310835915L515.7012612857143,175.8460429826283L516.4933435714286,175.36212000778823L516.6913641428572,174.88092166249663L518.0775081428571,175.23715790324232L519.8596932857143,175.52465828074853L520.453755,175.04623913628117L524.4141664285714,174.86593794116288L526.3943721428572,175.21114936346254L529.9587424285714,175.0759023001277L531.3448864285715,175.08115769459215L532.7310304285714,175.02504692618632L534.315195,174.5547215032184L534.7112361428572,174.4004259283643L535.5033184285714,173.9342221697866L536.6914418571429,173.47056019584724L537.4835241428572,173.63861403745534L539.6617504285714,173.54188584207313L540.2558121428572,173.82813367700396L541.245915,173.7472931162859L543.8201824285715,173.61919043539837L548.5726761428571,173.55896534610662L552.335067,173.10358464314209L553.3251698571428,173.44505110810852L553.5231904285714,172.99200249165008L555.5033961428571,172.98264776474235L556.0974578571428,172.5330043757425L557.0875607142857,172.08573743024323L558.6717252857143,171.640828360114L560.651931,171.19825879013436L562.6321367142857,171.55705662365614L564.0182807142858,171.30881768790982L566.7905687142858,170.87008492151654L569.9588978571429,171.21048315474022L570.7509801428571,171.38263454725563L570.9490007142857,170.964671915774L571.5430624285715,171.30419725208353L571.741083,170.87004630396083L577.6817001428572,170.4381274149819L578.2757618571428,170.6620611905652L579.0678441428572,171.03236408191717L579.2658647142857,170.60261247933255L580.2559675714285,170.1750486780761L582.830235,170.41589605298282L584.4143995714286,170.61170566751983L585.0084612857142,170.97877898500448L588.9688727142857,171.22104976294196L590.5530372857143,171.40756692332488L591.543140142857,171.75566906549767L591.9391812857143,172.0812830104778L592.533243,172.30476041827328L592.9292841428571,172.62893793311764L593.1273047142857,172.96687740099424L595.305531,173.30613517894633L595.5035515714286,173.51150743960173L595.7015721428571,173.69722973735009L596.0976132857143,173.2723273422723L596.4936544285714,172.84951156734397L597.4837572857143,173.07722896034673L597.8797984285715,173.42550700501724L599.463963,173.71967284788784L604.8105184285714,174.02751188337476L605.008539,173.6065702584598L607.1867652857143,173.18766703045665L607.3847858571429,172.7707876369608L609.3649915714286,172.35591765392243L609.5630121428571,172.6676967221129L610.1570738571429,172.25470275211026L611.5432178571428,172.61648241030974L612.9293618571429,172.97435731424068L615.5036292857143,173.26027405657985L617.0877938571429,173.41940905633285L617.2858144285715,173.63948101261522L618.6719584285714,174.01479359639876L619.2660201428572,174.21473078101965L619.4640407142857,174.40547448513254L619.6620612857143,174.67123768037726L620.256123,174.260203953545L624.0185138571428,173.8510938540453L625.6026784285714,173.4438941129407L625.800699,173.53660399786276L626.3947607142857,173.41634547134726L627.7809047142857,173.51658717143502L628.3749664285714,173.71676792693683L628.7710075714285,173.8765003377773L629.3650692857143,174.23698650488396L630.1571515714286,174.43688255355332L631.9393367142858,174.62638478674697L633.1274601428571,174.22360914420764L634.117563,173.82267333209427L634.9096452857143,174.05895203017002L635.3056864285714,174.28126182684005L637.2858921428572,174.39298137975896L637.4839127142857,174.66358882871614L638.275995,174.26497516674877L639.2660978571428,174.37407437483654L639.4641184285715,173.97765285968669L639.662139,174.29233595180617L640.2562007142857,174.13848333328724L642.0383858571429,174.31383509531068L642.2364064285714,173.92032776849936L642.434427,173.52857227587305L643.4245298571428,173.13855713983781L644.4146327142857,172.75027098281652L645.0086944285714,172.36370252616186L645.6027561428572,171.97884058908352L645.9987972857143,172.3341442625388L646.3948384285713,172.56281354082367L646.9889001428571,172.17937368502405L648.3750441428572,171.88713043912466L650.751291,171.5067968500649L651.1473321428572,171.77250309101004L653.7215995714286,172.06293324381107L653.9196201428571,172.32928558261463L656.0978464285714,171.95031370817543L658.0780521428571,172.27159401180734L658.8701344285714,172.44758985431307L660.0582578571428,172.07018659011655L661.4444018571428,171.69440528956397L661.6424224285714,172.01424452899266L663.4246075714285,171.63984478528357L663.6226281428571,171.98195962387874L667.385019,171.60886771827373L667.5830395714286,171.23736312269023L669.3652247142857,170.86743591363137L669.7612658571429,170.49907625011892L670.1573070000001,170.1322743728366L671.7414715714285,169.76702060328543L673.3256361428571,169.4033053429484L674.1177184285714,169.0411190724659L674.7117801428572,169.30639070449791L675.1078212857143,169.6331107915509L675.3058418571429,169.8465585401893L675.8999035714286,169.48552804520412L677.088027,169.1260003597494L677.8801092857142,168.7679662988455L678.0781298571428,168.4114167521819L680.8504178571429,168.05634268335984L681.4444795714286,167.70273512914426L682.0385412857144,167.35058519872513L683.4246852857143,167.61024475238392L684.018747,167.89866721216868L684.4147881428571,168.2256181522561L685.6029115714285,167.87431872312757L686.5930144285715,168.2143700140737L687.7811378571428,168.49406379940234L688.1771789999999,168.14370303574407L690.1573847142857,168.478332413799L690.7514464285714,168.73926035477604L691.3455081428572,168.38988345783613L692.9296727142856,168.68820200631149L694.7118578571428,169.02006360591557L696.6920635714287,168.67156750442672L697.6821664285713,168.32447003164836L700.2564338571428,168.5796497711773L704.0188247142858,168.23382368083927L704.6128864285714,168.5104102075689L707.3851744285714,168.16578934023318L707.5831949999999,168.38077184594422L708.7713184285715,168.03749698259102L709.9594418571429,167.69558189112848L711.345585857143,167.9465597140927L711.5436064285714,167.60587794274784L711.741627,167.26653820706446L712.1376681428571,166.92853276151993L712.9297504285714,167.26190542037955L713.7218327142857,166.92489851831348L714.513915,167.25854265553863L714.7119355714286,167.57671645145572L714.9099561428571,167.71157845977027L715.900059,167.973366515405L716.2961001428571,167.6370577081532L718.2763058571428,167.30205211771346L719.6624498571429,166.96834235036812L725.2070258571428,166.63592106819578L726.1971287142857,166.30478098854584L727.9793138571429,166.58021836298627L728.5733755714286,166.86280720330805L728.9694167142858,166.53252849444874L730.3555607142856,166.20351364677026L731.3456635714285,166.53516252656382L732.9298281428571,166.20706780566363L733.7219104285715,166.52147350291096L733.919931,166.75207778378152L734.5139927142858,166.4248399401944L734.9100338571429,166.09884107702223L736.2961778571429,165.8776522515943L737.8803424285715,166.19875371516176L738.6724247142857,166.52463370986854L739.0684658571429,166.2002003455034L743.4249184285715,166.53771872532073L744.0189801428572,166.84236768188126L749.9595972857143,167.15927599078353L751.5437618571428,167.46043126201678L758.2764612857143,167.1360042001972L759.2665641428571,167.4016997838852L761.4447904285714,167.07829260055053L763.2269755714286,167.3738639515009L764.2170784285715,167.05139676523277L764.6131195714286,167.33915544612657L765.0091607142857,167.6505935632475L765.6032224285714,167.95235471790593L765.9992635714285,167.6302648318898L766.9893664285714,167.9080919612355L767.1873870000001,168.23470484111664L768.7715515714285,167.9132435370063L768.9695721428573,167.5929560453195L770.9497778571429,167.92892387719328L771.7418601428571,167.60944617197788L773.7220658571428,167.2911291566812L774.5141481428572,167.6200749642885L775.3062304285714,167.3025685196321L776.890395,166.9862098233472L777.8804978571429,166.67099282068105L780.8508064285714,166.9415342754121L781.048827,166.62723932617055L782.2369504285715,166.93380393280435L783.6230944285713,167.23494938969648L784.4151767142857,166.92120055193595L786.3953824285715,166.6085727906091L786.5934030000001,166.29706026337888L786.7914235714286,166.6024096710128L786.9894441428572,166.89780230939775L788.1775675714285,166.58682522746443L788.5736087142857,166.8178490849915L789.1676704285715,166.50784349670354L789.7617321428571,166.7418771809386L789.9597527142857,166.71376665680185L790.5538144285714,166.40517034813493L792.7320407142856,166.09765886299905L793.9201641428572,166.4005602705094L795.1082875714286,166.68033220104334L796.8904727142858,167.0015109949482L797.0884932857142,166.69419645865923L798.0785961428571,166.3879535882102L798.6726578571428,166.659605984508L799.8607812857143,166.96264849183333L800.6528635714286,167.2458242614499L801.4449458571429,166.9398630323711L803.0291104285714,166.63496028508172L803.6231721428571,166.94608003879307L804.8112955714286,167.0786804587709L805.0093161428572,167.39084486495344L806.5934807142858,167.55976788390097L807.1875424285715,167.76235701784643L807.3855629999999,167.45786082981704L809.7618098571429,167.7443415142484L812.3360772857143,168.02595974997232L812.5340978571428,167.721985182872L812.7321184285714,168.01459773526045L812.9301389999999,168.28824858765964L815.7024270000001,167.98479148118673L820.4549207142858,168.28542810718275L821.0489824285713,168.48562023708766L821.4450235714285,168.67248156602258L821.8410647142858,168.36962812465842L822.4351264285714,168.64686513364947L823.2272087142857,168.87410275974236L823.8212704285714,168.5718831281841L824.0192910000001,168.27067698820383L827.5836612857142,167.97047940022688L829.5638670000001,167.67128545669615L830.9500109999999,167.37309028181315L831.7420932857143,167.66681762616335L831.9401138571428,167.3693270361686L832.9302167142857,167.0728250237872L833.1282372857142,167.26527484743937L833.722299,167.56383356926835L835.9005252857143,167.2679407556371L836.0985458571428,167.52607052449062L838.4747927142857,167.2309395313706L838.6728132857143,167.52793018923197L839.0688544285715,167.8212504883795L839.266875,168.10176867724584L839.8609367142858,168.37007917864807L840.0589572857142,168.07482693133886L840.2569778571429,168.16024247797603L841.6431218571429,167.86610658948763L842.039163,168.05049752503632L845.4055127142858,168.3288925839922L845.6035332857142,168.5855614497337L845.8015538571428,168.79686810377055L845.9995744285713,168.7864244411954L846.7916567142858,168.99683305035532L847.3857184285714,169.29824550210927L850.3560269999999,169.58992567708856L850.7520681428571,169.6889566090511L851.9401915714286,169.90182567172548L853.128315,170.19444080310757L853.9203972857143,169.89994563211894L857.0887264285715,169.8854291920637L858.8709115714285,169.5922303632383L859.2669527142858,169.83468745498982L859.662993857143,170.1097877045386L860.6530967142857,170.34064459180092L861.2471584285714,170.52928515376377L863.0293435714286,170.73516050175658L863.6234052857143,170.94431276703446L864.217467,171.11825952882864L869.5640224285715,170.82504128817698L870.7521458571429,170.5327487215352L871.3462075714285,170.24137759795957L872.1382898571429,170.51504798025854L873.3264132857144,170.22433871478836L873.9204749999999,170.44519683478075L874.3165161428573,170.71029590089668L875.306619,170.42011386301493L875.7026601428571,170.13083890490967L876.2967218571429,170.31573998188983L879.6630715714285,170.0272928825618L880.4551538571428,170.30140646253423L882.0393184285715,170.56408660685315L882.237339,170.84657618808697L884.0195241428571,171.09960320767178L885.2076475714285,171.19028166190023L885.4056681428572,171.4325670836009L885.6036887142857,171.14395267283865L886.1977504285715,171.41480803766953L887.3858738571429,171.1268303069565L888.3759767142858,171.40253274044917L888.9700384285713,171.68275777525443L890.554203,171.9097660926535L891.3462852857143,171.62197322756077L891.7423264285715,171.90012245015896L893.5245115714285,171.6129406285928L894.5146144285715,171.32663445361888L895.7027378571429,171.59537897250001L896.8908612857143,171.30969315689413L898.2770052857143,171.55941291634812L901.8413755714284,171.27438086836045L902.0393961428572,170.99021204309088L905.0097047142857,170.70690266663124L905.2077252857143,170.95454982613327L905.6037664285715,171.2052344235532L906.3958487142858,170.92235021570096L907.1879309999999,171.1771275642574L910.5542807142857,170.89486714216068L911.742404142857,170.6134535585269L912.9305275714286,170.69211031590874L913.5245892857142,170.41166255642722L917.0889595714285,170.13205284541564L917.8810418571428,170.3911377977909L919.2671858571429,170.11212320199218L919.8612475714286,169.8339390672643L922.039473857143,169.5565818300423L924.0196795714286,169.75770019680402L924.2177001428571,169.97441066613817L924.8117618571429,169.69759228881927L926.9899881428571,169.4215924357723L929.9602967142857,169.70165306540287L930.1583172857144,169.42618370723298L932.7325847142857,169.66826649141183L933.9207081428572,169.6863050535615L934.3167492857143,169.90514418420778L934.5147698571428,169.6303422486039L935.7028932857144,169.89775050765076L937.683099,170.09778323621356L938.2771607142857,169.82339723176827L938.6732018571429,170.08153301740356L938.8712224285714,169.80770478550886L939.069243,169.53467373318395L939.8613252857143,169.71752249521268L941.8415309999999,169.44518773849717L942.0395515714285,169.7270860909997L944.4157984285714,169.45524967203966L944.613819,169.65003051111646L947.9801687142857,169.37885790400014L950.1583949999999,169.10846772024803L951.9405801428571,168.838856713156L952.930683,168.57002165392745L953.9207858571428,168.73931666379318L955.1089092857144,168.47117763619164L956.8910944285714,168.75112204065104L958.475259,168.4834604015252L960.2574441428573,168.67387166535917L962.4356704285715,168.93835192027387L963.4257732857143,168.6710746861291L964.0198350000001,168.40455898350785L964.2178555714285,168.28471475693217L965.6039995714285,168.0194325421993L967.1881641428571,167.7549033536278L968.7723287142858,167.4911241213031L969.564411,167.22809179194414L970.1584727142857,166.96580332879086L970.7525344285714,166.7042557114927L970.950555,166.44344593599766L972.5347195714286,166.1833710144427L972.9307607142857,165.92402797504468L975.108987,165.66541386199216L976.6931515714285,165.60961884420647L978.8713778571428,165.3520695118289L979.663460142857,165.0952414092134L981.2476247142857,164.83913163904978L985.8020978571428,164.58373731949553L986.9902212857143,164.3290555840725L987.7823035714287,164.0750835815646L990.7526121428572,164.29952592547875L991.9407355714286,164.04606224236602L992.5347972857144,164.2898513702085L992.9308384285715,164.03685584824638L994.3169824285714,163.78456110926803L994.9110441428571,163.53296437135822L995.7031264285714,163.2820628672763L996.4952087142857,163.03185384436003L996.6932292857143,162.78233456442948L996.8912498571428,162.53350230369193L997.287291,162.2853543526475L999.8615584285714,162.03788801599518L1000.2575995714286,161.79110061254045L1000.6536407142858,161.54498947510268L1001.445723,161.2995519504237L1002.0397847142857,161.05478539907728L1002.2378052857143,161.23228029781407L1002.6338464285715,160.98806230420794L1004.2180109999999,160.74450958760815L1006.1982167142858,160.50161955468062L1008.9705047142857,160.25938962552283L1009.5645664285714,160.01781723357732L1010.1586281428572,159.77689982554503L1012.9309161428571,159.53663486130026L1013.5249778571429,159.2970198138053L1016.4952864285715,159.05805216902644L1017.4853892857144,158.81972942585054L1017.6834098571428,158.58204909600192L1018.4754921428571,158.34500870396005L1019.2675744285714,158.10860578687786L1019.465595,158.1215365744658L1019.6636155714285,157.90375872340113L1020.0596567142858,157.66876414869864L1021.0497595714286,157.4343986328539L1021.2477801428572,157.20065977017433L1021.4458007142857,156.96754516718912L1023.2279858571428,156.73505244257214L1024.8121504285714,156.5031792270646L1025.6042327142857,156.27192316339915L1026.000273857143,156.04128190622365L1027.1883972857142,155.81125312202602L1028.7725618571428,155.5818344890597L1028.9705824285716,155.35302369726972L1030.1587058571429,155.12481844821872L1030.7527675714286,154.8972164550144L1032.3369321428572,154.6702154422369L1033.5250555714285,154.44381314586695L1034.1191172857143,154.21800731321466L1034.3171378571428,153.99279570284827L1034.9111995714286,153.76817608452453L1035.5052612857144,153.94705490590206L1036.099323,153.7228829786685L1038.475569857143,153.4992983306893L1039.267652142857,153.27629876864248L1040.6537961428571,153.05388211008622L1041.8419195714287,152.83204618339127L1042.634001857143,152.610788827674L1042.8320224285715,152.3901078927302L1043.426084142857,152.17000123896884L1043.6241047142857,151.95046673734709L1045.0102487142856,151.80583435947105L1045.4062898571428,151.88800765371053L1045.802331,151.66950398395926L1046.9904544285714,151.45156579595266L1048.1785778571427,151.23419100600532L1048.7726395714285,151.0173775406286L1049.3667012857143,150.80112333646846L1049.7627424285713,150.58542634024332L1050.1587835714286,150.37028450868272L1053.3271127142857,150.1556958084666L1053.7231538571427,149.9416582161644L1054.119195,149.72816971817505L1054.3172155714285,149.51522831066777L1054.515236142857,149.30283199952225L1055.901380142857,149.09097880027022L1056.0994007142858,148.87966673803714L1059.663771,148.66889384748393L1060.2578327142858,148.45865817274984L1063.6241824285714,148.2489577673951L1066.1984498571428,148.03979069434456L1068.7727172857142,147.83115502583087L1069.1687584285714,147.6230488433392L1072.1390669999998,147.41547023755132L1072.9311492857144,147.20841730829096L1073.7232315714286,147.00188816446857L1075.1093755714285,146.79588092402778L1075.901457857143,146.5903937138907L1076.8915607142856,146.38542466990503L1082.6341572857143,146.1809719367907L1083.0301984285713,145.97703366808707L1085.0104041428572,145.77360802610076L1085.2084247142857,145.57069318185327L1089.762897857143,145.36828731503007L1091.545083,145.16638861392835L1096.2975767142857,144.96499527540703L1098.6738235714286,144.7641055048357L1099.0698647142858,144.56371751604456L1100.0599675714286,144.36382953127472L1102.0401732857142,144.1644397811286L1102.634235,143.96554650452072L1102.8322555714285,143.76714794862926L1104.416420142857,143.56924236884714L1104.8124612857143,143.3718280287345L1105.8025641428571,143.17490319997043L1106.9906875714285,142.97846616230575L1107.3867287142857,142.78251520351603L1111.1491195714286,142.5870486193547L1113.1293252857142,142.39206471350647L1113.9214075714285,142.19756179754168L1114.7134898571428,142.00353819086996L1116.0996338571429,141.8099922206952L1116.8917161428571,141.6169222219701L1117.0897367142857,141.42432653735153L1117.485777857143,141.23220351715582L1117.6837984285714,141.04055151931476L1120.0600452857143,140.84936890933145L1121.8422304285714,140.65865406023687L1124.0204567142857,140.46840535254657L1126.0006624285713,140.27862117421736L1126.198683,140.089299920605L1126.594724142857,139.9004399944216L1127.584827,139.71203980569345L1127.9808681428572,139.5240977717192L1128.970971,139.33661231702843L1130.1590944285713,139.14958187334014L1131.5452384285713,138.9630048795221L1132.3373207142856,139.11911697718955L1134.1195058571427,139.13049200430098L1137.0898144285713,138.94434483549176L1137.287835,138.75864716724436L1138.0799172857144,138.5733974659747L1138.8719995714287,138.38859420504141L1139.4660612857144,138.33652657338897L1141.842308142857,138.1523864530446L1143.6244932857144,138.29317958007437L1144.6145961428572,138.10937126404522L1145.0106372857142,138.1172664966781L1145.4066784285715,138.08333329251624L1145.8027195714285,137.97380764636895L1147.1888635714286,137.85708827196467L1149.9611515714284,137.67465831503714L1150.1591721428572,137.49266366858959L1150.753233857143,137.3111028671489L1151.149275,137.26975152137348L1151.9413572857143,137.08881792327915L1152.1393778571428,136.90831437410742L1153.1294807142858,136.93620017508528L1153.5255218571428,136.7562018354713L1153.9215629999999,136.5766300706089L1154.911665857143,136.39748345545226L1158.6740567142856,136.35934723685983L1159.8621801428571,136.29721699463846L1160.2582212857142,136.1961761171337L1160.852283,136.37829383269468L1162.6344681428573,136.34387762890316L1164.8126944285714,136.53434993242482L1165.2087355714286,136.39865543520258L1166.5948795714287,136.3646957151427L1166.7929001428572,136.18699455974618L1167.5849824285713,136.20071222515904L1169.565188142857,136.02352389138548L1169.9612292857144,136.16507972572884L1170.9513321428572,135.988188182709L1171.7434144285714,135.8117098325681L1173.1295584285713,135.63564331727616L1175.109764142857,135.58848616789166L1175.5058052857144,135.4130254158881L1175.7038258571429,135.2379729576706L1176.4959081428572,135.06332745706635L1176.8919492857144,134.88908758370155L1177.2879904285714,134.71525201296967L1177.486011,134.54181942600073L1177.882052142857,134.36878850962987L1180.0602784285713,134.19615795636665L1185.2088132857143,134.02392646436437L1185.6048544285713,133.85209273738982L1186.792977857143,133.68065548479268L1187.3870395714284,133.50961342147588L1187.5850601428572,133.33896526786535L1187.7830807142857,133.16870974988075L1187.9811012857142,132.99884559890563L1189.3672452857143,132.9662602403371L1190.1593275714285,132.79694959857662L1190.5553687142858,132.62802706724628L1191.1494304285716,132.45949139763243L1194.9118212857143,132.29134134634802L1196.2979652857143,132.12357567530412L1196.6940064285716,132.18249691572515L1197.2880681428571,132.2062363373795L1199.268273857143,132.03893269253115L1201.6445207142856,131.8720100852179L1206.595035,131.7054672984489L1207.3871172857143,131.53930312038617L1213.7237755714286,131.37351634431695L1214.3178372857144,131.2081057686272L1216.298043,131.04307019677415L1219.0703310000001,130.8784084372596L1220.0604338571427,130.71411930360387L1220.456475,130.55020161431858L1223.0307424285713,130.3866541928812L1226.1990715714285,130.22347586770826L1226.7931332857142,130.06066547213015L1227.387195,129.8982218443647L1228.1792772857143,129.73614382749213L1228.773339,129.57443026942926L1230.1594830000001,129.4130800229044L1231.545627,129.25209194543243L1232.1396887142857,129.09146489928912L1233.5258327142858,128.93119775148742L1234.1198944285716,128.77128937375198L1235.5060384285714,128.6117386424949L1235.9020795714284,128.45254443879156L1236.4961412857142,128.29370564835628L1236.694161857143,128.13522116151813L1236.8921824285715,127.97708987319746L1237.090203,127.81931068288186L1238.476347,127.66188249460265L1239.8624909999999,127.50480421691128L1241.6446761428572,127.34807476285643L1242.238737857143,127.19169304996042L1242.4367584285715,127.03565800019658L1243.2288407142858,126.879968539966L1245.0110258571428,126.72462360007505L1247.1892521428572,126.5696221157128L1249.565499,126.41496302642841L1251.7437252857144,126.26064527610909L1255.110075,126.10666781295758L1257.0902807142857,125.95302958947029L1258.4764247142857,125.79972956241542L1259.0704864285715,125.64676669281128L1261.050692142857,125.49413994590441L1261.2487127142858,125.3418482911482L1261.6447538571429,125.18989070218154L1262.8328772857144,125.03826615680752L1264.2190212857142,124.88697363697246L1268.1794327142857,124.73601212874469L1269.3675561428572,124.58538062229391L1271.9418235714286,124.43507811187027L1272.139844142857,124.28510359578395L1274.7141115714285,124.13545607638451L1275.7042144285715,124.01269160115052L1276.298276142857,123.86365292547838L1277.8824407142858,123.71493836929032L1278.8725435714287,123.56654695061343L1279.0705641428572,123.41847769141506L1281.2487904285715,123.27072961758266L1283.0309755714286,123.12330175890419L1284.4171195714287,122.97619314904907L1284.8131607142857,122.82940282554804" style="fill: none;" fill="none"></path></g></g></g></g><g opacity="0.2"><g><g><g><path stroke="rgb(0, 119, 187)" stroke-width="2px" d="M97.679835,320.827L99.66004071428571,314.9206666666667L99.85806128571429,336.661L100.452123,320.95266666666663L102.03628757142857,310.89933333333335L102.23430814285715,293.05466666666666L104.80857557142856,30.159999999999986L106.19471957142856,30.159999999999986L106.39274014285715,307.255L106.59076071428571,191.2646666666667L109.16502814285714,82.43733333333334L109.36304871428571,30.159999999999986L110.15513100000001,299.71500000000003L110.74919271428573,252.21300000000002L110.94721328571428,210.86866666666668L112.13533671428571,296.699L113.12543957142856,30.159999999999986L114.51158357142857,319.319L116.49178928571429,301.977L117.28387157142858,288.2793333333333L118.07595385714285,292.0493333333333L120.84824185714287,271.56566666666663L121.64032414285714,30.159999999999986L121.83834471428571,300.846L122.23438585714285,71.25299999999999L122.63042700000001,291.67233333333337L123.81855042857141,153.816L125.402715,30.159999999999986L125.79875614285714,309.6426666666667L125.99677671428572,30.159999999999986L126.59083842857143,293.5573333333333L127.97698242857143,129.0596666666667L128.57104414285715,232.3576666666667L128.9670852857143,241.657L129.36312642857143,210.11466666666666L130.947291,232.3576666666667L131.93739385714284,173.1686666666667L133.32353785714287,248.19166666666666L134.70968185714287,30.159999999999986L134.90770242857144,243.542L137.08592871428573,165.25166666666667L137.48196985714284,294.06L139.06613442857144,294.814L142.23446357142856,282.75L145.20477214285714,30.159999999999986L145.4027927142857,299.71500000000003L147.97706014285714,283.504L148.1750807142857,253.97233333333332L150.55132757142857,282.4986666666667L151.1453892857143,316.1773333333333L152.72955385714286,30.159999999999986L153.32361557142858,30.159999999999986L153.9176772857143,289.0333333333333L154.31371842857143,287.651L155.3038212857143,296.19633333333337L155.69986242857144,270.81166666666667L157.87808871428572,71.75566666666667L158.670171,30.159999999999986L159.46225328571427,278.35166666666663L159.85829442857144,252.71566666666666L160.05631499999998,99.528L160.6503767142857,280.111L165.20484985714285,262.8946666666667L165.40287042857145,178.8236666666667L167.77911728571428,30.159999999999986L168.9672407142857,262.769L169.16526128571428,30.159999999999986L169.36328185714285,245.6783333333333L171.7395287142857,275.46133333333336L173.32369328571428,99.40233333333335L174.11577557142857,274.83299999999997L174.51181671428571,252.21300000000002L175.50191957142857,30.159999999999986L176.49202242857143,30.159999999999986L176.88806357142857,298.584L179.06628985714286,290.03866666666664L180.2544132857143,30.159999999999986L180.45243385714286,221.67600000000002L183.22472185714287,116.36733333333332L183.4227424285714,276.718L183.81878357142855,256.2343333333333L185.20492757142858,106.43966666666667L186.393051,287.274L188.17523614285713,265.031L188.96731842857145,216.39800000000002L189.56138014285713,248.06599999999997L189.95742128571428,298.961L190.74950357142856,273.702L190.94752414285713,264.4026666666667L191.937627,30.159999999999986L192.13564757142856,216.021L193.323771,252.967L197.87824414285714,30.159999999999986L198.27428528571429,30.159999999999986L198.47230585714286,287.14833333333337L198.67032642857143,30.159999999999986L199.26438814285714,247.06066666666666L199.6604292857143,120.01166666666667L202.43271728571426,292.175L202.63073785714283,269.555L203.026779,30.159999999999986L203.42282014285715,30.159999999999986L203.81886128571426,176.93866666666668L204.61094357142858,287.651L205.0069847142857,30.159999999999986L205.799067,250.45366666666666L206.19510814285712,296.0706666666667L206.98719042857144,84.69933333333334L208.17531385714287,30.159999999999986L208.57135499999998,292.30066666666664L209.3634372857143,220.41933333333333L212.53176642857142,30.159999999999986L213.71988985714285,30.159999999999986L214.51197214285713,295.31666666666666L214.90801328571428,300.3433333333333L218.274363,264.4026666666667L218.47238357142857,30.159999999999986L220.05654814285714,285.012L220.25456871428568,30.159999999999986L221.24467157142857,226.07433333333333L221.44269214285714,259.376L223.0268567142857,291.798L224.21498014285714,30.159999999999986L224.41300071428572,91.35966666666666L225.40310357142857,30.159999999999986L227.18528871428572,30.159999999999986L227.58132985714283,279.10566666666665L228.96747385714283,241.9083333333333L230.55163842857144,284.258L230.749659,284.50933333333336L232.33382357142858,283.127L233.91798814285713,30.159999999999986L234.3140292857143,298.7096666666667L237.48235842857142,293.683L239.6605847142857,131.95L240.05662585714285,204.58533333333332L240.45266700000002,262.392L241.0467287142857,286.26866666666666L241.64079042857145,30.159999999999986L241.83881100000002,236.25333333333336L244.21505785714288,307.5063333333333L248.17546928571429,30.159999999999986L250.35369557142855,202.44899999999998L250.55171614285715,269.4293333333333L251.73983957142858,30.159999999999986L252.92796299999998,121.39399999999998L256.0962921428571,30.159999999999986L256.2943127142857,259.8786666666667L256.69035385714284,30.159999999999986L257.28441557142855,250.705L259.0666007142857,30.159999999999986L261.64086814285713,30.159999999999986L263.2250327142857,30.159999999999986L263.8190944285714,107.57066666666667L266.5913824285714,30.159999999999986L267.5814852857143,190.88766666666666L268.37356757142857,286.64566666666667L269.3636704285714,30.159999999999986L272.333979,30.159999999999986L274.11616414285714,113.35133333333333L274.5122052857143,255.229L275.3042875714286,30.159999999999986L276.6904315714286,30.159999999999986L281.04688414285715,259.50166666666667L281.4429252857143,279.9853333333333L283.423131,230.97533333333334L284.809275,82.43733333333334L287.581563,30.159999999999986L290.74989214285716,227.708L291.3439538571429,280.488L293.3241595714286,298.8353333333333L293.72020071428574,281.87033333333335L294.7103035714286,246.05533333333335L295.30436528571425,295.8193333333333L295.70040642857145,30.159999999999986L297.8786327142857,243.79333333333335L299.2647767142857,304.11333333333334L300.056859,30.159999999999986L300.4529001428571,30.159999999999986L302.2350852857143,30.159999999999986L305.9974761428572,30.159999999999986L308.7697641428571,231.22666666666666L308.9677847142857,300.5946666666667L309.36382585714284,231.855L310.15590814285713,246.181L311.9380932857143,291.2953333333333L314.31434014285713,239.395L315.1064224285714,277.9746666666667L315.50246357142856,241.1543333333333L316.0965252857143,273.19933333333336L316.4925664285714,30.159999999999986L316.88860757142857,30.159999999999986L318.8688132857143,30.159999999999986L319.66089557142857,286.897L319.85891614285714,303.73633333333333L321.04703957142857,277.72333333333336L321.4430807142857,273.57633333333337L322.4331835714286,277.849L323.8193275714286,30.159999999999986L324.80943042857143,281.36766666666665L325.007451,279.4826666666667L327.38369785714286,261.38666666666666L329.3639035714286,304.61600000000004L329.7599447142857,30.159999999999986L329.9579652857143,280.61366666666663L331.3441092857143,275.33566666666667L332.33421214285715,30.159999999999986L333.12629442857144,30.159999999999986L333.32431499999996,280.36233333333337L335.7005618571428,284.50933333333336L337.28472642857145,288.90766666666667L338.07680871428573,272.948L339.0669115714286,122.77633333333333L339.4629527142857,297.32733333333334L343.2253435714286,283.25266666666664L343.62138471428574,30.159999999999986L344.61148757142854,30.159999999999986L344.8095081428571,247.06066666666666L345.20554928571426,30.159999999999986L345.799611,298.207L346.59169328571426,30.159999999999986L347.7798167142857,267.79566666666665L348.57189900000003,274.456L349.56200185714283,30.159999999999986L350.7501252857143,274.70733333333334L351.34418700000003,287.90233333333333L352.33428985714283,183.85033333333334L352.9283515714286,259.12466666666666L353.9184544285714,240.77733333333336L354.7105367142857,289.0333333333333L355.50261900000004,271.6913333333333L357.2848041428571,247.81466666666665L358.6709481428571,265.40799999999996L359.26500985714284,237.6356666666667L359.4630304285714,276.718L361.24521557142856,30.159999999999986L363.22542128571433,30.159999999999986L366.19572985714285,30.159999999999986L366.98781214285714,275.08433333333335L369.1660384285714,30.159999999999986L369.364059,30.159999999999986L370.1561412857143,291.421L372.73040871428566,306.501L377.4829024285714,290.91833333333335L381.2452932857143,301.22299999999996L381.64133442857144,247.06066666666666L381.839355,272.82233333333335L383.8195607142857,261.638L385.40372528571424,252.967L385.6017458571429,30.159999999999986L386.1958075714286,116.49300000000002L388.770075,260.7583333333333L389.16611614285716,271.6913333333333L391.34434242857145,269.30366666666663L391.93840414285717,278.4773333333333L392.7304864285714,274.58166666666665L393.52256871428574,254.60066666666668L394.314651,271.817L395.700795,258.87333333333333L395.8988155714286,249.197L396.4928772857143,30.159999999999986L397.086939,231.478L399.46318585714283,30.159999999999986L400.6513092857143,202.44899999999998L401.4433915714286,30.159999999999986L403.4235972857143,30.159999999999986L404.01765900000004,30.159999999999986L406.789947,30.159999999999986L407.3840087142857,30.159999999999986L408.3741115714286,211.37133333333333L408.9681732857143,267.66999999999996L410.7503584285715,30.159999999999986L412.9285847142857,216.39800000000002L413.91868757142856,218.40866666666665L414.3147287142857,30.159999999999986L419.0672224285714,30.159999999999986L420.65138699999994,286.7713333333333L421.04742814285714,281.87033333333335L421.64148985714286,30.159999999999986L422.82961328571423,229.09033333333335L423.0276338571428,104.429L424.41377785714286,30.159999999999986L425.99794242857143,30.159999999999986L426.7900247142857,261.0096666666667L427.582107,276.2153333333333L428.968251,263.64866666666666L429.36429214285715,30.159999999999986L430.5524155714285,280.2366666666667L432.3346007142857,207.22433333333336L433.9187652857143,275.08433333333335L434.31480642857144,146.276L434.9088681428571,258.1193333333333L435.5029298571428,273.07366666666667L435.7009504285714,191.7673333333333L437.08709442857145,179.452L437.8791767142857,175.55633333333333L438.07719728571425,144.391L439.4633412857143,279.60833333333335L441.24552642857145,30.159999999999986L442.03760871428574,182.71933333333334L442.4336498571428,30.159999999999986L444.215835,294.1856666666667L446.3940612857143,203.0773333333333L448.37426700000003,171.158L448.7703081428572,30.159999999999986L450.1564521428571,30.159999999999986L451.14655500000003,213.38200000000003L451.74061671428575,30.159999999999986L453.32478128571427,30.159999999999986L457.0871721428571,282.373L459.2653984285714,30.159999999999986L460.849563,30.159999999999986L462.63174814285713,30.159999999999986L463.4238304285715,30.159999999999986L465.20601557142857,206.97299999999998L466.1961184285715,298.207L466.394139,30.159999999999986L466.59215957142857,280.2366666666667L469.7604887142857,30.159999999999986L470.7505915714285,30.159999999999986L472.92881785714286,81.30633333333334L473.52287957142863,277.849L474.711003,30.159999999999986L474.9090235714286,168.77033333333333L475.7011058571428,120.63999999999999L476.6912087142857,187.99733333333336L477.8793321428571,238.01266666666666L478.07735271428567,196.16566666666665L480.255579,181.08566666666664L481.0476612857143,296.0706666666667L481.24568185714287,176.5616666666667L482.03776414285716,154.4443333333333L482.4338052857143,249.69966666666667L484.21599042857144,233.8656666666667L485.00807271428573,92.99333333333334L485.20609328571425,299.46366666666665L485.6021344285714,30.159999999999986L485.80015499999996,42.34966666666665L486.19619614285716,30.159999999999986L488.3744224285714,30.159999999999986L488.7704635714286,30.159999999999986L490.3546281428571,160.72766666666666L490.5526487142857,177.56699999999998L491.14671042857145,123.40466666666669L498.0774304285714,130.5676666666667L502.2358624285714,30.159999999999986L503.82002700000004,30.159999999999986L506.1962738571429,295.44233333333335L506.7903355714286,151.4283333333333L508.5725207142857,30.159999999999986L510.5527264285714,30.159999999999986L512.136891,30.159999999999986L512.7309527142856,30.159999999999986L513.3250144285714,288.782L514.5131378571429,30.159999999999986L515.5032407142857,30.159999999999986L515.7012612857143,268.9266666666667L516.4933435714286,30.159999999999986L516.6913641428572,30.159999999999986L518.0775081428571,282.62433333333337L519.8596932857143,262.392L520.453755,30.159999999999986L524.4141664285714,120.13733333333333L526.3943721428572,280.2366666666667L529.9587424285714,133.83499999999998L531.3448864285715,176.68733333333333L532.7310304285714,157.83733333333333L534.315195,30.159999999999986L534.7112361428572,126.92333333333333L535.5033184285714,30.159999999999986L536.6914418571429,30.159999999999986L537.4835241428572,225.69733333333335L539.6617504285714,143.51133333333334L540.2558121428572,262.8946666666667L541.245915,148.538L543.8201824285715,133.58366666666666L548.5726761428571,154.69566666666665L552.335067,30.159999999999986L553.3251698571428,280.865L553.5231904285714,30.159999999999986L555.5033961428571,170.027L556.0974578571428,30.159999999999986L557.0875607142857,30.159999999999986L558.6717252857143,30.159999999999986L560.651931,30.159999999999986L562.6321367142857,286.14300000000003L564.0182807142858,91.86233333333334L566.7905687142858,30.159999999999986L569.9588978571429,280.61366666666663L570.7509801428571,226.82833333333335L570.9490007142857,36.06633333333334L571.5430624285715,281.11633333333333L571.741083,30.159999999999986L577.6817001428572,30.159999999999986L578.2757618571428,243.542L579.0678441428572,291.798L579.2658647142857,30.159999999999986L580.2559675714285,30.159999999999986L582.830235,249.44833333333332L584.4143995714286,234.99666666666664L585.0084612857142,291.92366666666663L588.9688727142857,251.20766666666665L590.5530372857143,233.11166666666668L591.543140142857,287.14833333333337L591.9391812857143,280.2366666666667L592.533243,246.68366666666665L592.9292841428571,280.7393333333333L593.1273047142857,285.89166666666665L595.305531,286.897L595.5035515714286,242.411L595.7015721428571,236.1276666666667L596.0976132857143,30.159999999999986L596.4936544285714,30.159999999999986L597.4837572857143,250.07666666666665L597.8797984285715,291.421L599.463963,273.57633333333337L604.8105184285714,278.7286666666667L605.008539,30.159999999999986L607.1867652857143,30.159999999999986L607.3847858571429,30.159999999999986L609.3649915714286,30.159999999999986L609.5630121428571,279.734L610.1570738571429,30.159999999999986L611.5432178571428,297.32733333333334L612.9293618571429,296.5733333333333L615.5036292857143,272.194L617.0877938571429,228.58766666666668L617.2858144285715,250.07666666666665L618.6719584285714,304.61600000000004L619.2660201428572,243.919L619.4640407142857,241.02866666666665L619.6620612857143,267.66999999999996L620.256123,30.159999999999986L624.0185138571428,30.159999999999986L625.6026784285714,30.159999999999986L625.800699,206.21899999999997L626.3947607142857,130.94466666666668L627.7809047142857,208.98366666666666L628.3749664285714,244.673L628.7710075714285,230.59833333333333L629.3650692857143,302.4796666666667L630.1571515714286,245.6783333333333L631.9393367142858,242.28533333333334L633.1274601428571,30.159999999999986L634.117563,30.159999999999986L634.9096452857143,258.87333333333333L635.3056864285714,254.22366666666667L637.2858921428572,214.63866666666667L637.4839127142857,272.31966666666665L638.275995,30.159999999999986L639.2660978571428,213.88466666666667L639.4641184285715,30.159999999999986L639.662139,288.65633333333335L640.2562007142857,118.12666666666668L642.0383858571429,238.264L642.2364064285714,30.159999999999986L642.434427,30.159999999999986L643.4245298571428,30.159999999999986L644.4146327142857,30.159999999999986L645.0086944285714,30.159999999999986L645.6027561428572,30.159999999999986L645.9987972857143,303.48499999999996L646.3948384285713,257.114L646.9889001428571,30.159999999999986L648.3750441428572,63.461666666666666L650.751291,30.159999999999986L651.1473321428572,270.686L653.7215995714286,280.36233333333337L653.9196201428571,271.817L656.0978464285714,30.159999999999986L658.0780521428571,292.67766666666665L658.8701344285714,238.51533333333336L660.0582578571428,30.159999999999986L661.4444018571428,30.159999999999986L661.6424224285714,292.67766666666665L663.4246075714285,30.159999999999986L663.6226281428571,301.47433333333333L667.385019,30.159999999999986L667.5830395714286,30.159999999999986L669.3652247142857,30.159999999999986L669.7612658571429,30.159999999999986L670.1573070000001,30.159999999999986L671.7414715714285,30.159999999999986L673.3256361428571,30.159999999999986L674.1177184285714,30.159999999999986L674.7117801428572,271.1886666666667L675.1078212857143,295.31666666666666L675.3058418571429,252.08733333333336L675.8999035714286,30.159999999999986L677.088027,30.159999999999986L677.8801092857142,30.159999999999986L678.0781298571428,30.159999999999986L680.8504178571429,30.159999999999986L681.4444795714286,30.159999999999986L682.0385412857144,30.159999999999986L683.4246852857143,268.9266666666667L684.018747,280.61366666666663L684.4147881428571,296.19633333333337L685.6029115714285,30.159999999999986L686.5930144285715,301.72566666666665L687.7811378571428,278.4773333333333L688.1771789999999,30.159999999999986L690.1573847142857,300.469L690.7514464285714,271.817L691.3455081428572,30.159999999999986L692.9296727142856,286.897L694.7118578571428,300.7203333333333L696.6920635714287,30.159999999999986L697.6821664285713,30.159999999999986L700.2564338571428,270.309L704.0188247142858,30.159999999999986L704.6128864285714,279.10566666666665L707.3851744285714,30.159999999999986L707.5831949999999,254.60066666666668L708.7713184285715,30.159999999999986L709.9594418571429,30.159999999999986L711.345585857143,269.0523333333333L711.5436064285714,30.159999999999986L711.741627,30.159999999999986L712.1376681428571,30.159999999999986L712.9297504285714,302.35400000000004L713.7218327142857,30.159999999999986L714.513915,302.8566666666667L714.7119355714286,297.076L714.9099561428571,222.68133333333333L715.900059,274.83299999999997L716.2961001428571,30.159999999999986L718.2763058571428,30.159999999999986L719.6624498571429,30.159999999999986L725.2070258571428,30.159999999999986L726.1971287142857,30.159999999999986L727.9793138571429,279.9853333333333L728.5733755714286,283.37833333333333L728.9694167142858,30.159999999999986L730.3555607142856,30.159999999999986L731.3456635714285,303.862L732.9298281428571,30.159999999999986L733.7219104285715,297.076L733.919931,262.6433333333333L734.5139927142858,30.159999999999986L734.9100338571429,30.159999999999986L736.2961778571429,73.51499999999999L737.8803424285715,300.469L738.6724247142857,302.9823333333333L739.0684658571429,30.159999999999986L743.4249184285715,308.26033333333334L744.0189801428572,294.93966666666665L749.9595972857143,300.5946666666667L751.5437618571428,294.437L758.2764612857143,30.159999999999986L759.2665641428571,279.734L761.4447904285714,30.159999999999986L763.2269755714286,292.67766666666665L764.2170784285715,30.159999999999986L764.6131195714286,289.66166666666663L765.0091607142857,300.2176666666667L765.6032224285714,296.5733333333333L765.9992635714285,30.159999999999986L766.9893664285714,286.64566666666667L767.1873870000001,308.00899999999996L768.7715515714285,30.159999999999986L768.9695721428573,30.159999999999986L770.9497778571429,312.2816666666667L771.7418601428571,30.159999999999986L773.7220658571428,30.159999999999986L774.5141481428572,309.517L775.3062304285714,30.159999999999986L776.890395,30.159999999999986L777.8804978571429,30.159999999999986L780.8508064285714,284.258L781.048827,30.159999999999986L782.2369504285715,300.2176666666667L783.6230944285713,298.3326666666667L784.4151767142857,30.159999999999986L786.3953824285715,30.159999999999986L786.5934030000001,30.159999999999986L786.7914235714286,300.2176666666667L786.9894441428572,296.322L788.1775675714285,30.159999999999986L788.5736087142857,268.29833333333335L789.1676704285715,30.159999999999986L789.7617321428571,269.8063333333333L789.9597527142857,154.31866666666667L790.5538144285714,30.159999999999986L792.7320407142856,30.159999999999986L793.9201641428572,300.469L795.1082875714286,290.66700000000003L796.8904727142858,309.517L797.0884932857142,30.159999999999986L798.0785961428571,30.159999999999986L798.6726578571428,287.651L799.8607812857143,302.10266666666666L800.6528635714286,293.683L801.4449458571429,30.159999999999986L803.0291104285714,30.159999999999986L803.6231721428571,306.37533333333334L804.8112955714286,226.577L805.0093161428572,307.632L806.5934807142858,243.542L807.1875424285715,258.999L807.3855629999999,30.159999999999986L809.7618098571429,297.076L812.3360772857143,295.31666666666666L812.5340978571428,30.159999999999986L812.7321184285714,300.5946666666667L812.9301389999999,292.42633333333333L815.7024270000001,30.159999999999986L820.4549207142858,304.993L821.0489824285713,259.62733333333335L821.4450235714285,253.84666666666666L821.8410647142858,30.159999999999986L822.4351264285714,295.31666666666666L823.2272087142857,272.82233333333335L823.8212704285714,30.159999999999986L824.0192910000001,30.159999999999986L827.5836612857142,30.159999999999986L829.5638670000001,30.159999999999986L830.9500109999999,30.159999999999986L831.7420932857143,302.9823333333333L831.9401138571428,30.159999999999986L832.9302167142857,30.159999999999986L833.1282372857142,256.2343333333333L833.722299,305.74699999999996L835.9005252857143,30.159999999999986L836.0985458571428,287.274L838.4747927142857,30.159999999999986L838.6728132857143,305.6213333333333L839.0688544285715,304.36466666666666L839.266875,298.8353333333333L839.8609367142858,293.5573333333333L840.0589572857142,30.159999999999986L840.2569778571429,208.104L841.6431218571429,30.159999999999986L842.039163,254.47500000000002L845.4055127142858,298.961L845.6035332857142,289.159L845.8015538571428,268.17266666666666L845.9995744285713,163.86933333333332L846.7916567142858,268.17266666666666L847.3857184285714,311.5276666666667L850.3560269999999,307.3806666666667L850.7520681428571,216.52366666666668L851.9401915714286,270.686L853.128315,308.88866666666667L853.9203972857143,30.159999999999986L857.0887264285715,162.98966666666666L858.8709115714285,30.159999999999986L859.2669527142858,285.2633333333333L859.662993857143,301.22299999999996L860.6530967142857,280.488L861.2471584285714,260.6326666666667L863.0293435714286,269.178L863.6234052857143,271.063L864.217467,254.47500000000002L869.5640224285715,30.159999999999986L870.7521458571429,30.159999999999986L871.3462075714285,30.159999999999986L872.1382898571429,302.2283333333333L873.3264132857144,30.159999999999986L873.9204749999999,276.96933333333334L874.3165161428573,298.7096666666667L875.306619,30.159999999999986L875.7026601428571,30.159999999999986L876.2967218571429,259.8786666666667L879.6630715714285,30.159999999999986L880.4551538571428,303.3593333333333L882.0393184285715,298.207L882.237339,308.26033333333334L884.0195241428571,294.3113333333333L885.2076475714285,215.39266666666668L885.4056681428572,289.66166666666663L885.6036887142857,30.159999999999986L886.1977504285715,303.862L887.3858738571429,30.159999999999986L888.3759767142858,306.501L888.9700384285713,309.14000000000004L890.554203,283.37833333333333L891.3462852857143,30.159999999999986L891.7423264285715,308.763L893.5245115714285,30.159999999999986L894.5146144285715,30.159999999999986L895.7027378571429,304.239L896.8908612857143,30.159999999999986L898.2770052857143,295.06533333333334L901.8413755714284,30.159999999999986L902.0393961428572,30.159999999999986L905.0097047142857,30.159999999999986L905.2077252857143,293.93433333333337L905.6037664285715,295.8193333333333L906.3958487142858,30.159999999999986L907.1879309999999,298.0813333333333L910.5542807142857,30.159999999999986L911.742404142857,30.159999999999986L912.9305275714286,209.98899999999998L913.5245892857142,30.159999999999986L917.0889595714285,30.159999999999986L917.8810418571428,300.2176666666667L919.2671858571429,30.159999999999986L919.8612475714286,30.159999999999986L922.039473857143,30.159999999999986L924.0196795714286,270.93733333333336L924.2177001428571,279.10566666666665L924.8117618571429,30.159999999999986L926.9899881428571,30.159999999999986L929.9602967142857,311.15066666666667L930.1583172857144,30.159999999999986L932.7325847142857,292.175L933.9207081428572,178.8236666666667L934.3167492857143,280.865L934.5147698571428,30.159999999999986L935.7028932857144,305.74699999999996L937.683099,271.817L938.2771607142857,30.159999999999986L938.6732018571429,301.6L938.8712224285714,30.159999999999986L939.069243,30.159999999999986L939.8613252857143,263.14599999999996L941.8415309999999,30.159999999999986L942.0395515714285,314.041L944.4157984285714,30.159999999999986L944.613819,269.555L947.9801687142857,30.159999999999986L950.1583949999999,30.159999999999986L951.9405801428571,30.159999999999986L952.930683,30.159999999999986L953.9207858571428,255.983L955.1089092857144,30.159999999999986L956.8910944285714,313.287L958.475259,30.159999999999986L960.2574441428573,267.1673333333333L962.4356704285715,305.87266666666665L963.4257732857143,30.159999999999986L964.0198350000001,30.159999999999986L964.2178555714285,106.06266666666666L965.6039995714285,30.159999999999986L967.1881641428571,30.159999999999986L968.7723287142858,30.159999999999986L969.564411,30.159999999999986L970.1584727142857,30.159999999999986L970.7525344285714,30.159999999999986L970.950555,30.159999999999986L972.5347195714286,30.159999999999986L972.9307607142857,30.159999999999986L975.108987,30.159999999999986L976.6931515714285,136.34833333333333L978.8713778571428,30.159999999999986L979.663460142857,30.159999999999986L981.2476247142857,30.159999999999986L985.8020978571428,30.159999999999986L986.9902212857143,30.159999999999986L987.7823035714287,30.159999999999986L990.7526121428572,282.75L991.9407355714286,30.159999999999986L992.5347972857144,293.18033333333335L992.9308384285715,30.159999999999986L994.3169824285714,30.159999999999986L994.9110441428571,30.159999999999986L995.7031264285714,30.159999999999986L996.4952087142857,30.159999999999986L996.6932292857143,30.159999999999986L996.8912498571428,30.159999999999986L997.287291,30.159999999999986L999.8615584285714,30.159999999999986L1000.2575995714286,30.159999999999986L1000.6536407142858,30.159999999999986L1001.445723,30.159999999999986L1002.0397847142857,30.159999999999986L1002.2378052857143,256.2343333333333L1002.6338464285715,30.159999999999986L1004.2180109999999,30.159999999999986L1006.1982167142858,30.159999999999986L1008.9705047142857,30.159999999999986L1009.5645664285714,30.159999999999986L1010.1586281428572,30.159999999999986L1012.9309161428571,30.159999999999986L1013.5249778571429,30.159999999999986L1016.4952864285715,30.159999999999986L1017.4853892857144,30.159999999999986L1017.6834098571428,30.159999999999986L1018.4754921428571,30.159999999999986L1019.2675744285714,30.159999999999986L1019.465595,165.12599999999998L1019.6636155714285,39.83633333333334L1020.0596567142858,30.159999999999986L1021.0497595714286,30.159999999999986L1021.2477801428572,30.159999999999986L1021.4458007142857,30.159999999999986L1023.2279858571428,30.159999999999986L1024.8121504285714,30.159999999999986L1025.6042327142857,30.159999999999986L1026.000273857143,30.159999999999986L1027.1883972857142,30.159999999999986L1028.7725618571428,30.159999999999986L1028.9705824285716,30.159999999999986L1030.1587058571429,30.159999999999986L1030.7527675714286,30.159999999999986L1032.3369321428572,30.159999999999986L1033.5250555714285,30.159999999999986L1034.1191172857143,30.159999999999986L1034.3171378571428,30.159999999999986L1034.9111995714286,30.159999999999986L1035.5052612857144,252.46433333333331L1036.099323,30.159999999999986L1038.475569857143,30.159999999999986L1039.267652142857,30.159999999999986L1040.6537961428571,30.159999999999986L1041.8419195714287,30.159999999999986L1042.634001857143,30.159999999999986L1042.8320224285715,30.159999999999986L1043.426084142857,30.159999999999986L1043.6241047142857,30.159999999999986L1045.0102487142856,71.50433333333332L1045.4062898571428,197.548L1045.802331,30.159999999999986L1046.9904544285714,30.159999999999986L1048.1785778571427,30.159999999999986L1048.7726395714285,30.159999999999986L1049.3667012857143,30.159999999999986L1049.7627424285713,30.159999999999986L1050.1587835714286,30.159999999999986L1053.3271127142857,30.159999999999986L1053.7231538571427,30.159999999999986L1054.119195,30.159999999999986L1054.3172155714285,30.159999999999986L1054.515236142857,30.159999999999986L1055.901380142857,30.159999999999986L1056.0994007142858,30.159999999999986L1059.663771,30.159999999999986L1060.2578327142858,30.159999999999986L1063.6241824285714,30.159999999999986L1066.1984498571428,30.159999999999986L1068.7727172857142,30.159999999999986L1069.1687584285714,30.159999999999986L1072.1390669999998,30.159999999999986L1072.9311492857144,30.159999999999986L1073.7232315714286,30.159999999999986L1075.1093755714285,30.159999999999986L1075.901457857143,30.159999999999986L1076.8915607142856,30.159999999999986L1082.6341572857143,30.159999999999986L1083.0301984285713,30.159999999999986L1085.0104041428572,30.159999999999986L1085.2084247142857,30.159999999999986L1089.762897857143,30.159999999999986L1091.545083,30.159999999999986L1096.2975767142857,30.159999999999986L1098.6738235714286,30.159999999999986L1099.0698647142858,30.159999999999986L1100.0599675714286,30.159999999999986L1102.0401732857142,30.159999999999986L1102.634235,30.159999999999986L1102.8322555714285,30.159999999999986L1104.416420142857,30.159999999999986L1104.8124612857143,30.159999999999986L1105.8025641428571,30.159999999999986L1106.9906875714285,30.159999999999986L1107.3867287142857,30.159999999999986L1111.1491195714286,30.159999999999986L1113.1293252857142,30.159999999999986L1113.9214075714285,30.159999999999986L1114.7134898571428,30.159999999999986L1116.0996338571429,30.159999999999986L1116.8917161428571,30.159999999999986L1117.0897367142857,30.159999999999986L1117.485777857143,30.159999999999986L1117.6837984285714,30.159999999999986L1120.0600452857143,30.159999999999986L1121.8422304285714,30.159999999999986L1124.0204567142857,30.159999999999986L1126.0006624285713,30.159999999999986L1126.198683,30.159999999999986L1126.594724142857,30.159999999999986L1127.584827,30.159999999999986L1127.9808681428572,30.159999999999986L1128.970971,30.159999999999986L1130.1590944285713,30.159999999999986L1131.5452384285713,30.159999999999986L1132.3373207142856,230.22133333333335L1134.1195058571427,145.77333333333334L1137.0898144285713,30.159999999999986L1137.287835,30.159999999999986L1138.0799172857144,30.159999999999986L1138.8719995714287,30.159999999999986L1139.4660612857144,107.82200000000002L1141.842308142857,30.159999999999986L1143.6244932857144,220.92200000000003L1144.6145961428572,30.159999999999986L1145.0106372857142,142.75733333333335L1145.4066784285715,118.12666666666668L1145.8027195714285,73.51499999999999L1147.1888635714286,69.11666666666667L1149.9611515714284,30.159999999999986L1150.1591721428572,30.159999999999986L1150.753233857143,30.159999999999986L1151.149275,112.84866666666667L1151.9413572857143,30.159999999999986L1152.1393778571428,30.159999999999986L1153.1294807142858,153.43900000000002L1153.5255218571428,30.159999999999986L1153.9215629999999,30.159999999999986L1154.911665857143,30.159999999999986L1158.6740567142856,113.72833333333332L1159.8621801428571,99.40233333333335L1160.2582212857142,76.15399999999998L1160.852283,244.673L1162.6344681428573,115.86466666666668L1164.8126944285714,249.95100000000002L1165.2087355714286,55.54466666666666L1166.5948795714287,116.11600000000001L1166.7929001428572,30.159999999999986L1167.5849824285713,144.391L1169.565188142857,30.159999999999986L1169.9612292857144,220.79633333333334L1170.9513321428572,30.159999999999986L1171.7434144285714,30.159999999999986L1173.1295584285713,30.159999999999986L1175.109764142857,107.31933333333332L1175.5058052857144,30.159999999999986L1175.7038258571429,30.159999999999986L1176.4959081428572,30.159999999999986L1176.8919492857144,30.159999999999986L1177.2879904285714,30.159999999999986L1177.486011,30.159999999999986L1177.882052142857,30.159999999999986L1180.0602784285713,30.159999999999986L1185.2088132857143,30.159999999999986L1185.6048544285713,30.159999999999986L1186.792977857143,30.159999999999986L1187.3870395714284,30.159999999999986L1187.5850601428572,30.159999999999986L1187.7830807142857,30.159999999999986L1187.9811012857142,30.159999999999986L1189.3672452857143,113.22566666666667L1190.1593275714285,30.159999999999986L1190.5553687142858,30.159999999999986L1191.1494304285716,30.159999999999986L1194.9118212857143,30.159999999999986L1196.2979652857143,30.159999999999986L1196.6940064285716,168.01633333333334L1197.2880681428571,146.653L1199.268273857143,30.159999999999986L1201.6445207142856,30.159999999999986L1206.595035,30.159999999999986L1207.3871172857143,30.159999999999986L1213.7237755714286,30.159999999999986L1214.3178372857144,30.159999999999986L1216.298043,30.159999999999986L1219.0703310000001,30.159999999999986L1220.0604338571427,30.159999999999986L1220.456475,30.159999999999986L1223.0307424285713,30.159999999999986L1226.1990715714285,30.159999999999986L1226.7931332857142,30.159999999999986L1227.387195,30.159999999999986L1228.1792772857143,30.159999999999986L1228.773339,30.159999999999986L1230.1594830000001,30.159999999999986L1231.545627,30.159999999999986L1232.1396887142857,30.159999999999986L1233.5258327142858,30.159999999999986L1234.1198944285716,30.159999999999986L1235.5060384285714,30.159999999999986L1235.9020795714284,30.159999999999986L1236.4961412857142,30.159999999999986L1236.694161857143,30.159999999999986L1236.8921824285715,30.159999999999986L1237.090203,30.159999999999986L1238.476347,30.159999999999986L1239.8624909999999,30.159999999999986L1241.6446761428572,30.159999999999986L1242.238737857143,30.159999999999986L1242.4367584285715,30.159999999999986L1243.2288407142858,30.159999999999986L1245.0110258571428,30.159999999999986L1247.1892521428572,30.159999999999986L1249.565499,30.159999999999986L1251.7437252857144,30.159999999999986L1255.110075,30.159999999999986L1257.0902807142857,30.159999999999986L1258.4764247142857,30.159999999999986L1259.0704864285715,30.159999999999986L1261.050692142857,30.159999999999986L1261.2487127142858,30.159999999999986L1261.6447538571429,30.159999999999986L1262.8328772857144,30.159999999999986L1264.2190212857142,30.159999999999986L1268.1794327142857,30.159999999999986L1269.3675561428572,30.159999999999986L1271.9418235714286,30.159999999999986L1272.139844142857,30.159999999999986L1274.7141115714285,30.159999999999986L1275.7042144285715,46.87366666666665L1276.298276142857,30.159999999999986L1277.8824407142858,30.159999999999986L1278.8725435714287,30.159999999999986L1279.0705641428572,30.159999999999986L1281.2487904285715,30.159999999999986L1283.0309755714286,30.159999999999986L1284.4171195714287,30.159999999999986L1284.8131607142857,30.159999999999986" style="fill: none;" fill="none"></path></g></g></g></g></g></g><g transform="translate(72, 377)" clip-path="url(#clip_1)"><clipPath id="clip_1"><rect width="1353" height="23"></rect></clipPath><g><g><line x1="0" y1="0" x2="0" y2="5" style="visibility: inherit;" fill="rgb(0, 0, 0)" stroke="rgb(204, 204, 204)" stroke-width="1px"></line><line x1="96.68973214285714" y1="0" x2="96.68973214285714" y2="5" style="visibility: inherit;" fill="rgb(0, 0, 0)" stroke="rgb(204, 204, 204)" stroke-width="1px"></line><line x1="193.37946428571428" y1="0" x2="193.37946428571428" y2="5" style="visibility: inherit;" fill="rgb(0, 0, 0)" stroke="rgb(204, 204, 204)" stroke-width="1px"></line><line x1="290.0691964285714" y1="0" x2="290.0691964285714" y2="5" style="visibility: inherit;" fill="rgb(0, 0, 0)" stroke="rgb(204, 204, 204)" stroke-width="1px"></line><line x1="386.75892857142856" y1="0" x2="386.75892857142856" y2="5" style="visibility: inherit;" fill="rgb(0, 0, 0)" stroke="rgb(204, 204, 204)" stroke-width="1px"></line><line x1="483.4486607142857" y1="0" x2="483.4486607142857" y2="5" style="visibility: inherit;" fill="rgb(0, 0, 0)" stroke="rgb(204, 204, 204)" stroke-width="1px"></line><line x1="580.1383928571428" y1="0" x2="580.1383928571428" y2="5" style="visibility: inherit;" fill="rgb(0, 0, 0)" stroke="rgb(204, 204, 204)" stroke-width="1px"></line><line x1="676.828125" y1="0" x2="676.828125" y2="5" style="visibility: inherit;" fill="rgb(0, 0, 0)" stroke="rgb(204, 204, 204)" stroke-width="1px"></line><line x1="773.5178571428571" y1="0" x2="773.5178571428571" y2="5" style="visibility: inherit;" fill="rgb(0, 0, 0)" stroke="rgb(204, 204, 204)" stroke-width="1px"></line><line x1="870.2075892857143" y1="0" x2="870.2075892857143" y2="5" style="visibility: inherit;" fill="rgb(0, 0, 0)" stroke="rgb(204, 204, 204)" stroke-width="1px"></line><line x1="966.8973214285714" y1="0" x2="966.8973214285714" y2="5" style="visibility: inherit;" fill="rgb(0, 0, 0)" stroke="rgb(204, 204, 204)" stroke-width="1px"></line><line x1="1063.5870535714284" y1="0" x2="1063.5870535714284" y2="5" style="visibility: inherit;" fill="rgb(0, 0, 0)" stroke="rgb(204, 204, 204)" stroke-width="1px"></line><line x1="1160.2767857142856" y1="0" x2="1160.2767857142856" y2="5" style="visibility: inherit;" fill="rgb(0, 0, 0)" stroke="rgb(204, 204, 204)" stroke-width="1px"></line><line x1="1256.966517857143" y1="0" x2="1256.966517857143" y2="5" style="visibility: inherit;" fill="rgb(0, 0, 0)" stroke="rgb(204, 204, 204)" stroke-width="1px"></line><line x1="1353.65625" y1="0" x2="1353.65625" y2="5" style="visibility: inherit;" fill="rgb(0, 0, 0)" stroke="rgb(204, 204, 204)" stroke-width="1px"></line></g><g transform="translate(0, 8)"><text x="0" y="0" dx="0em" dy="0.95em" style="text-anchor: middle; visibility: hidden; font-family: Roboto, sans-serif; font-size: 12px; font-weight: 200;" fill="rgb(255, 255, 255)" stroke="none" stroke-width="1px">-10M</text><text x="96.68973214285714" y="0" dx="0em" dy="0.95em" style="text-anchor: middle; visibility: inherit; font-family: Roboto, sans-serif; font-size: 12px; font-weight: 200;" fill="rgb(255, 255, 255)" stroke="none" stroke-width="1px">0</text><text x="193.37946428571428" y="0" dx="0em" dy="0.95em" style="text-anchor: middle; visibility: inherit; font-family: Roboto, sans-serif; font-size: 12px; font-weight: 200;" fill="rgb(255, 255, 255)" stroke="none" stroke-width="1px">10M</text><text x="290.0691964285714" y="0" dx="0em" dy="0.95em" style="text-anchor: middle; visibility: inherit; font-family: Roboto, sans-serif; font-size: 12px; font-weight: 200;" fill="rgb(255, 255, 255)" stroke="none" stroke-width="1px">20M</text><text x="386.75892857142856" y="0" dx="0em" dy="0.95em" style="text-anchor: middle; visibility: inherit; font-family: Roboto, sans-serif; font-size: 12px; font-weight: 200;" fill="rgb(255, 255, 255)" stroke="none" stroke-width="1px">30M</text><text x="483.4486607142857" y="0" dx="0em" dy="0.95em" style="text-anchor: middle; visibility: inherit; font-family: Roboto, sans-serif; font-size: 12px; font-weight: 200;" fill="rgb(255, 255, 255)" stroke="none" stroke-width="1px">40M</text><text x="580.1383928571428" y="0" dx="0em" dy="0.95em" style="text-anchor: middle; visibility: inherit; font-family: Roboto, sans-serif; font-size: 12px; font-weight: 200;" fill="rgb(255, 255, 255)" stroke="none" stroke-width="1px">50M</text><text x="676.828125" y="0" dx="0em" dy="0.95em" style="text-anchor: middle; visibility: inherit; font-family: Roboto, sans-serif; font-size: 12px; font-weight: 200;" fill="rgb(255, 255, 255)" stroke="none" stroke-width="1px">60M</text><text x="773.5178571428571" y="0" dx="0em" dy="0.95em" style="text-anchor: middle; visibility: inherit; font-family: Roboto, sans-serif; font-size: 12px; font-weight: 200;" fill="rgb(255, 255, 255)" stroke="none" stroke-width="1px">70M</text><text x="870.2075892857143" y="0" dx="0em" dy="0.95em" style="text-anchor: middle; visibility: inherit; font-family: Roboto, sans-serif; font-size: 12px; font-weight: 200;" fill="rgb(255, 255, 255)" stroke="none" stroke-width="1px">80M</text><text x="966.8973214285714" y="0" dx="0em" dy="0.95em" style="text-anchor: middle; visibility: inherit; font-family: Roboto, sans-serif; font-size: 12px; font-weight: 200;" fill="rgb(255, 255, 255)" stroke="none" stroke-width="1px">90M</text><text x="1063.5870535714284" y="0" dx="0em" dy="0.95em" style="text-anchor: middle; visibility: inherit; font-family: Roboto, sans-serif; font-size: 12px; font-weight: 200;" fill="rgb(255, 255, 255)" stroke="none" stroke-width="1px">100M</text><text x="1160.2767857142856" y="0" dx="0em" dy="0.95em" style="text-anchor: middle; visibility: inherit; font-family: Roboto, sans-serif; font-size: 12px; font-weight: 200;" fill="rgb(255, 255, 255)" stroke="none" stroke-width="1px">110M</text><text x="1256.966517857143" y="0" dx="0em" dy="0.95em" style="text-anchor: middle; visibility: inherit; font-family: Roboto, sans-serif; font-size: 12px; font-weight: 200;" fill="rgb(255, 255, 255)" stroke="none" stroke-width="1px">120M</text><text x="1353.65625" y="0" dx="0em" dy="0.95em" style="text-anchor: middle; visibility: hidden; font-family: Roboto, sans-serif; font-size: 12px; font-weight: 200;" fill="rgb(255, 255, 255)" stroke="none" stroke-width="1px">130M</text></g><line x1="0" y1="0" x2="1353.65625" y2="0" fill="rgb(0, 0, 0)" stroke="rgb(204, 204, 204)" stroke-width="1px"></line></g></g></g></g></svg>