<svg viewBox="0 0 330 200" xmlns="http://www.w3.org/2000/svg"><g><g><g><g><g><line x1="30.78125" y1="177" x2="25.78125" y2="177" style="visibility: inherit;" fill="rgb(0, 0, 0)" stroke="rgb(204, 204, 204)" stroke-width="1px"></line><line x1="30.78125" y1="163.3846153846154" x2="25.78125" y2="163.3846153846154" style="visibility: inherit;" fill="rgb(0, 0, 0)" stroke="rgb(204, 204, 204)" stroke-width="1px"></line><line x1="30.78125" y1="149.76923076923077" x2="25.78125" y2="149.76923076923077" style="visibility: inherit;" fill="rgb(0, 0, 0)" stroke="rgb(204, 204, 204)" stroke-width="1px"></line><line x1="30.78125" y1="136.15384615384613" x2="25.78125" y2="136.15384615384613" style="visibility: inherit;" fill="rgb(0, 0, 0)" stroke="rgb(204, 204, 204)" stroke-width="1px"></line><line x1="30.78125" y1="122.53846153846153" x2="25.78125" y2="122.53846153846153" style="visibility: inherit;" fill="rgb(0, 0, 0)" stroke="rgb(204, 204, 204)" stroke-width="1px"></line><line x1="30.78125" y1="108.92307692307693" x2="25.78125" y2="108.92307692307693" style="visibility: inherit;" fill="rgb(0, 0, 0)" stroke="rgb(204, 204, 204)" stroke-width="1px"></line><line x1="30.78125" y1="95.3076923076923" x2="25.78125" y2="95.3076923076923" style="visibility: inherit;" fill="rgb(0, 0, 0)" stroke="rgb(204, 204, 204)" stroke-width="1px"></line><line x1="30.78125" y1="81.6923076923077" x2="25.78125" y2="81.6923076923077" style="visibility: inherit;" fill="rgb(0, 0, 0)" stroke="rgb(204, 204, 204)" stroke-width="1px"></line><line x1="30.78125" y1="68.07692307692307" x2="25.78125" y2="68.07692307692307" style="visibility: inherit;" fill="rgb(0, 0, 0)" stroke="rgb(204, 204, 204)" stroke-width="1px"></line><line x1="30.78125" y1="54.46153846153847" x2="25.78125" y2="54.46153846153847" style="visibility: inherit;" fill="rgb(0, 0, 0)" stroke="rgb(204, 204, 204)" stroke-width="1px"></line><line x1="30.78125" y1="40.84615384615384" x2="25.78125" y2="40.84615384615384" style="visibility: inherit;" fill="rgb(0, 0, 0)" stroke="rgb(204, 204, 204)" stroke-width="1px"></line><line x1="30.78125" y1="27.230769230769234" x2="25.78125" y2="27.230769230769234" style="visibility: inherit;" fill="rgb(0, 0, 0)" stroke="rgb(204, 204, 204)" stroke-width="1px"></line><line x1="30.78125" y1="13.615384615384606" x2="25.78125" y2="13.615384615384606" style="visibility: inherit;" fill="rgb(0, 0, 0)" stroke="rgb(204, 204, 204)" stroke-width="1px"></line><line x1="30.78125" y1="0" x2="25.78125" y2="0" style="visibility: inherit;" fill="rgb(0, 0, 0)" stroke="rgb(204, 204, 204)" stroke-width="1px"></line></g><g transform="translate(20.78125, 0)"><text x="0" y="177" dx="0em" dy="0.3em" style="text-anchor: end; visibility: hidden; font-family: Roboto, sans-serif; font-size: 12px; font-weight: 200;" fill="rgb(33, 33, 33)" stroke="none" stroke-width="1px">10</text><text x="0" y="163.3846153846154" dx="0em" dy="0.3em" style="text-anchor: end; visibility: inherit; font-family: Roboto, sans-serif; font-size: 12px; font-weight: 200;" fill="rgb(33, 33, 33)" stroke="none" stroke-width="1px">15</text><text x="0" y="149.76923076923077" dx="0em" dy="0.3em" style="text-anchor: end; visibility: hidden; font-family: Roboto, sans-serif; font-size: 12px; font-weight: 200;" fill="rgb(33, 33, 33)" stroke="none" stroke-width="1px">20</text><text x="0" y="136.15384615384613" dx="0em" dy="0.3em" style="text-anchor: end; visibility: inherit; font-family: Roboto, sans-serif; font-size: 12px; font-weight: 200;" fill="rgb(33, 33, 33)" stroke="none" stroke-width="1px">25</text><text x="0" y="122.53846153846153" dx="0em" dy="0.3em" style="text-anchor: end; visibility: hidden; font-family: Roboto, sans-serif; font-size: 12px; font-weight: 200;" fill="rgb(33, 33, 33)" stroke="none" stroke-width="1px">30</text><text x="0" y="108.92307692307693" dx="0em" dy="0.3em" style="text-anchor: end; visibility: inherit; font-family: Roboto, sans-serif; font-size: 12px; font-weight: 200;" fill="rgb(33, 33, 33)" stroke="none" stroke-width="1px">35</text><text x="0" y="95.3076923076923" dx="0em" dy="0.3em" style="text-anchor: end; visibility: hidden; font-family: Roboto, sans-serif; font-size: 12px; font-weight: 200;" fill="rgb(33, 33, 33)" stroke="none" stroke-width="1px">40</text><text x="0" y="81.6923076923077" dx="0em" dy="0.3em" style="text-anchor: end; visibility: inherit; font-family: Roboto, sans-serif; font-size: 12px; font-weight: 200;" fill="rgb(33, 33, 33)" stroke="none" stroke-width="1px">45</text><text x="0" y="68.07692307692307" dx="0em" dy="0.3em" style="text-anchor: end; visibility: hidden; font-family: Roboto, sans-serif; font-size: 12px; font-weight: 200;" fill="rgb(33, 33, 33)" stroke="none" stroke-width="1px">50</text><text x="0" y="54.46153846153847" dx="0em" dy="0.3em" style="text-anchor: end; visibility: inherit; font-family: Roboto, sans-serif; font-size: 12px; font-weight: 200;" fill="rgb(33, 33, 33)" stroke="none" stroke-width="1px">55</text><text x="0" y="40.84615384615384" dx="0em" dy="0.3em" style="text-anchor: end; visibility: hidden; font-family: Roboto, sans-serif; font-size: 12px; font-weight: 200;" fill="rgb(33, 33, 33)" stroke="none" stroke-width="1px">60</text><text x="0" y="27.230769230769234" dx="0em" dy="0.3em" style="text-anchor: end; visibility: inherit; font-family: Roboto, sans-serif; font-size: 12px; font-weight: 200;" fill="rgb(33, 33, 33)" stroke="none" stroke-width="1px">65</text><text x="0" y="13.615384615384606" dx="0em" dy="0.3em" style="text-anchor: end; visibility: hidden; font-family: Roboto, sans-serif; font-size: 12px; font-weight: 200;" fill="rgb(33, 33, 33)" stroke="none" stroke-width="1px">70</text><text x="0" y="0" dx="0em" dy="0.3em" style="text-anchor: end; visibility: hidden; font-family: Roboto, sans-serif; font-size: 12px; font-weight: 200;" fill="rgb(33, 33, 33)" stroke="none" stroke-width="1px">75</text></g><line x1="30.78125" y1="0" x2="30.78125" y2="177" fill="rgb(0, 0, 0)" stroke="rgb(204, 204, 204)" stroke-width="1px"></line></g></g><g transform="translate(30, 0)" clip-path="url(#clip_0)"><clipPath id="clip_0"><rect width="299" height="177"></rect></clipPath><g><g><g><line x1="0" y1="0" x2="0" y2="177" fill="rgb(0, 0, 0)" stroke="rgb(66, 66, 66)" stroke-width="1px" opacity="0.25"></line><line x1="21.372767857142858" y1="0" x2="21.372767857142858" y2="177" fill="rgb(0, 0, 0)" stroke="rgb(66, 66, 66)" stroke-width="1px" opacity="0.25"></line><line x1="42.745535714285715" y1="0" x2="42.745535714285715" y2="177" fill="rgb(0, 0, 0)" stroke="rgb(66, 66, 66)" stroke-width="1px" opacity="0.25"></line><line x1="64.11830357142857" y1="0" x2="64.11830357142857" y2="177" fill="rgb(0, 0, 0)" stroke="rgb(66, 66, 66)" stroke-width="1px" opacity="0.25"></line><line x1="85.49107142857143" y1="0" x2="85.49107142857143" y2="177" fill="rgb(0, 0, 0)" stroke="rgb(66, 66, 66)" stroke-width="1px" opacity="0.25"></line><line x1="106.86383928571429" y1="0" x2="106.86383928571429" y2="177" fill="rgb(0, 0, 0)" stroke="rgb(66, 66, 66)" stroke-width="1px" opacity="0.25"></line><line x1="128.23660714285714" y1="0" x2="128.23660714285714" y2="177" fill="rgb(0, 0, 0)" stroke="rgb(66, 66, 66)" stroke-width="1px" opacity="0.25"></line><line x1="149.609375" y1="0" x2="149.609375" y2="177" fill="rgb(0, 0, 0)" stroke="rgb(66, 66, 66)" stroke-width="1px" opacity="0.25"></line><line x1="170.98214285714286" y1="0" x2="170.98214285714286" y2="177" fill="rgb(0, 0, 0)" stroke="rgb(66, 66, 66)" stroke-width="1px" opacity="0.25"></line><line x1="192.35491071428572" y1="0" x2="192.35491071428572" y2="177" fill="rgb(0, 0, 0)" stroke="rgb(66, 66, 66)" stroke-width="1px" opacity="0.25"></line><line x1="213.72767857142858" y1="0" x2="213.72767857142858" y2="177" fill="rgb(0, 0, 0)" stroke="rgb(66, 66, 66)" stroke-width="1px" opacity="0.25"></line><line x1="235.10044642857142" y1="0" x2="235.10044642857142" y2="177" fill="rgb(0, 0, 0)" stroke="rgb(66, 66, 66)" stroke-width="1px" opacity="0.25"></line><line x1="256.4732142857143" y1="0" x2="256.4732142857143" y2="177" fill="rgb(0, 0, 0)" stroke="rgb(66, 66, 66)" stroke-width="1px" opacity="0.25"></line><line x1="277.84598214285717" y1="0" x2="277.84598214285717" y2="177" fill="rgb(0, 0, 0)" stroke="rgb(66, 66, 66)" stroke-width="1px" opacity="0.25"></line><line x1="299.21875" y1="0" x2="299.21875" y2="177" fill="rgb(0, 0, 0)" stroke="rgb(66, 66, 66)" stroke-width="1px" opacity="0.25"></line></g><g><line x1="0" y1="177" x2="299.21875" y2="177" fill="rgb(0, 0, 0)" stroke="rgb(66, 66, 66)" stroke-width="1px" opacity="0.25"></line><line x1="0" y1="163.3846153846154" x2="299.21875" y2="163.3846153846154" fill="rgb(0, 0, 0)" stroke="rgb(66, 66, 66)" stroke-width="1px" opacity="0.25"></line><line x1="0" y1="149.76923076923077" x2="299.21875" y2="149.76923076923077" fill="rgb(0, 0, 0)" stroke="rgb(66, 66, 66)" stroke-width="1px" opacity="0.25"></line><line x1="0" y1="136.15384615384613" x2="299.21875" y2="136.15384615384613" fill="rgb(0, 0, 0)" stroke="rgb(66, 66, 66)" stroke-width="1px" opacity="0.25"></line><line x1="0" y1="122.53846153846153" x2="299.21875" y2="122.53846153846153" fill="rgb(0, 0, 0)" stroke="rgb(66, 66, 66)" stroke-width="1px" opacity="0.25"></line><line x1="0" y1="108.92307692307693" x2="299.21875" y2="108.92307692307693" fill="rgb(0, 0, 0)" stroke="rgb(66, 66, 66)" stroke-width="1px" opacity="0.25"></line><line x1="0" y1="95.3076923076923" x2="299.21875" y2="95.3076923076923" fill="rgb(0, 0, 0)" stroke="rgb(66, 66, 66)" stroke-width="1px" opacity="0.25"></line><line x1="0" y1="81.6923076923077" x2="299.21875" y2="81.6923076923077" fill="rgb(0, 0, 0)" stroke="rgb(66, 66, 66)" stroke-width="1px" opacity="0.25"></line><line x1="0" y1="68.07692307692307" x2="299.21875" y2="68.07692307692307" fill="rgb(0, 0, 0)" stroke="rgb(66, 66, 66)" stroke-width="1px" opacity="0.25"></line><line x1="0" y1="54.46153846153847" x2="299.21875" y2="54.46153846153847" fill="rgb(0, 0, 0)" stroke="rgb(66, 66, 66)" stroke-width="1px" opacity="0.25"></line><line x1="0" y1="40.84615384615384" x2="299.21875" y2="40.84615384615384" fill="rgb(0, 0, 0)" stroke="rgb(66, 66, 66)" stroke-width="1px" opacity="0.25"></line><line x1="0" y1="27.230769230769234" x2="299.21875" y2="27.230769230769234" fill="rgb(0, 0, 0)" stroke="rgb(66, 66, 66)" stroke-width="1px" opacity="0.25"></line><line x1="0" y1="13.615384615384606" x2="299.21875" y2="13.615384615384606" fill="rgb(0, 0, 0)" stroke="rgb(66, 66, 66)" stroke-width="1px" opacity="0.25"></line><line x1="0" y1="0" x2="299.21875" y2="0" fill="rgb(0, 0, 0)" stroke="rgb(66, 66, 66)" stroke-width="1px" opacity="0.25"></line></g></g></g><g><g><line x1="0" y1="204.23076923076923" x2="299.21875" y2="204.23076923076923" fill="rgb(0, 0, 0)" stroke="rgb(153, 153, 153)" stroke-width="1.5px"></line></g></g><g><g><line x1="21.372767857142858" y1="0" x2="21.372767857142858" y2="177" fill="rgb(0, 0, 0)" stroke="rgb(153, 153, 153)" stroke-width="1.5px"></line></g></g><g><g><g><g><g><path stroke="rgb(0, 119, 187)" stroke-width="2px" d="M21.63539642857143,10.115929941030648L22.07311071428571,44.50620605160841L22.116882142857143,56.29115444911346L22.24819642857143,64.4233176073953L22.598367857142858,79.62953856730931L22.642139285714283,89.92036830556462L23.211167857142858,99.58488608606635L23.517567857142858,106.12844130643487L23.561339285714286,111.1003862751348L23.60511071428571,114.56527614791858L24.174139285714283,116.56226699428953L24.217910714285715,119.06546483739689L24.39299642857143,123.7516635595963L24.524310714285715,128.15669581215116L24.56808214285714,131.2764522079605L24.830710714285715,132.35801390080437L25.049567857142858,131.98284428718318L25.355967857142858,131.16783071191108L25.793682142857143,131.76350189826684L25.968767857142854,133.74803097285928L26.143853571428572,135.1172124909273L26.756653571428572,134.87436551348023L26.931739285714283,135.3298175845684L26.975510714285715,135.76234449965764L27.063053571428572,137.49559273656388L27.15059642857143,138.29022133235807L27.413225,138.25359677713737L27.763396428571426,137.98748710276183L27.850939285714286,137.75345951502516L27.894710714285715,137.4389326777611L28.026025,137.24840673124527L28.332424999999997,137.40942140522534L28.463739285714283,138.6218221896523L28.551282142857143,139.80108754614488L28.638825,140.98791161097625L28.98899642857143,141.88201214533905L29.207853571428572,142.82677162981582L29.514253571428572,143.62588973833255L29.820653571428572,143.62521004184265L29.864424999999997,144.18085569273524L30.345910714285715,145.05579759318735L30.433453571428572,145.9965077134779L30.783625,145.81059868768037L31.483967857142858,146.52317451476878L32.14053928571429,146.3018349294901L32.184310714285715,146.6046863884115L32.75333928571428,146.46959228310473L32.797110714285715,146.0936812523502L33.32236785714286,146.14186414588616L33.45368214285714,146.2065726509772L33.803853571428576,146.4018447797729L33.93516785714286,146.57899969424366L34.06648214285715,147.1262478104247L34.154025,147.04443582992536L34.372882142857144,147.62983024183097L34.460425,148.10222409501193L34.94191071428571,148.3160774090326L35.116996428571426,148.30778216091798L35.29208214285715,147.96076799092376L35.379625,148.39991694871728L35.42339642857143,148.6808924547277L35.55471071428571,148.5996238311612L36.56145357142857,148.76734517023124L36.605225,148.75373012861888L37.13048214285715,148.54478740497916L37.39311071428572,148.34630616683475L37.436882142857144,148.12677880974707L37.48065357142857,148.13285761921145L38.00591071428571,148.28385521109502L38.35608214285714,148.655271529563L38.531167857142854,148.801900660504L38.61871071428571,148.61621323795137L38.83756785714286,148.44679742641114L39.056425000000004,148.4087021746965L39.143967857142854,148.14240485302892L39.62545357142857,148.03980802418423L39.888082142857144,147.87739445604146L39.93185357142857,147.81812962277684L40.54465357142857,147.9962007140606L40.588424999999994,148.54541165782516L40.67596785714286,149.08196710744866L40.98236785714286,149.1502649189922L41.24499642857143,149.5174437055812L41.63893928571429,149.9207560748971L41.814025,150.22041703460928L41.94533928571428,150.51491109582503L42.03288214285715,150.73642764566728L42.207967857142854,150.95093170014613L42.25173928571428,150.89400007908284L42.470596428571426,150.66530069738178L42.51436785714286,150.67286022645672L42.77699642857143,150.39623884774304L43.78373928571429,150.3167085929679L43.87128214285714,150.31332861130826L43.91505357142857,150.25792556708893L43.958825,150.22231886181416L44.09013928571429,150.00879680913843L44.177682142857144,150.21206336775325L44.79048214285714,150.19293934916635L44.834253571428576,150.09040340390362L44.921796428571426,150.12676685909284L45.00933928571428,150.06334416829057L45.09688214285715,149.9108742101217L45.271967857142855,149.7918080203234L45.35951071428572,149.95991944214137L45.534596428571426,150.21839032106988L45.62213928571428,150.51984512107535L45.797225,150.43853070732712L46.05985357142857,150.44337140287212L46.147396428571426,150.42315824033417L46.32248214285714,150.55826936865907L47.022825,150.46318720492255L47.28545357142857,150.22139213739408L47.46053928571428,150.05212582072554L47.54808214285714,149.75288237965685L48.29219642857143,149.80035782690393L48.335967857142855,149.74774247758054L48.68613928571428,149.5437661211147L48.729910714285715,149.54430704027834L48.948767857142855,149.3607672107758L48.99253928571429,149.26485580633272L49.342710714285715,149.0875044456782L49.60533928571429,149.00618243677297L49.64911071428571,148.90274265674697L49.86796785714286,148.85413889044838L50.26191071428571,149.0325316442351L50.34945357142857,149.1137054090599L50.65585357142857,149.0963085635626L51.006025,149.1571554391106L51.049796428571426,149.16238469909666L51.399967857142855,148.94434584594728L51.75013928571429,148.89873796838697L51.83768214285715,148.83155547004083L52.538025,148.61528155313545L53.019510714285715,148.49774251938143L53.107053571428565,148.75119883857903L53.19459642857143,148.9239255305657L53.32591071428571,149.04886205955358L53.457225,149.04324474833692L53.50099642857143,148.94413198953038L54.026253571428576,148.89365022220724L54.90168214285714,148.98104088950768L55.38316785714286,148.8865891651866L55.42693928571429,148.86336806207092L55.68956785714286,148.91754200646574L55.95219642857143,148.98190890912414L56.65253928571428,148.9804937660549L56.69631071428571,148.94224156585247L56.78385357142857,148.83133220927235L56.915167857142855,148.6907625285923L57.309110714285715,148.58533884036672L57.87813928571429,148.405369387387L58.22831071428572,148.48940077285525L58.359624999999994,148.57490428159196L58.972425,148.51829768625174L59.19128214285714,148.72916233829028L59.366367857142855,148.99164653822413L59.585225,148.96332701058694L60.241796428571426,148.80998744799533L60.63573928571429,148.94745272818986L60.723282142857144,148.9684715223948L60.89836785714285,148.82650594930544L61.20476785714286,148.7921767934403L62.16773928571428,148.98783269477L62.25528214285714,149.1931102761973L62.692996428571426,149.44337357884692L62.99939642857143,149.52550570799363L63.61219642857143,149.41580910779638L64.3125392857143,149.57915647598807L64.44385357142858,149.77625963562795L64.88156785714285,149.6807240601876L64.96911071428572,149.534817049806L65.18796785714285,149.48589857505183L65.31928214285713,149.48705886285202L65.406825,149.4490254594553L65.88831071428571,149.24224496924109L66.19471071428572,149.1810802269287L66.36979642857143,149.0919926951123L66.45733928571428,149.06541976385734L66.85128214285714,148.93056017609348L67.68293928571428,148.9572539645363L68.29573928571429,149.0188660796417L68.33951071428571,149.2261234835245L68.42705357142857,149.23088220821197L68.60213928571429,149.1281460515564L68.99608214285715,149.24473688550594L69.52133928571429,149.0820015184059L69.696425,149.13183036948269L69.78396785714285,149.11201683189907L69.91528214285714,149.10157543688592L70.002825,149.0808845555129L70.09036785714287,148.9526393286762L70.52808214285714,148.87666991135876L70.70316785714286,148.75923376105825L70.74693928571429,148.78590306445486L71.00956785714286,148.76953560441524L71.09711071428572,148.7858554904983L71.31596785714285,148.79755613724754L71.62236785714286,148.83991596798447L71.841225,148.87968764673718L71.88499642857143,148.86795945458744L72.41025357142857,148.9058074143927L72.84796785714285,148.9082627731152L72.93551071428571,148.93258800031683L72.97928214285714,148.90110610469344L73.28568214285714,148.83107866988325L73.50453928571429,148.70771182902294L73.679625,148.65533009804994L73.72339642857143,148.59976452092403L74.24865357142858,148.48844278811617L74.598825,148.48909359680732L74.7739107142857,148.59312276653588L74.99276785714285,148.52442297051192L75.08031071428572,148.44858322154604L75.91196785714286,148.45497306982432L75.99951071428572,148.42175077419472L76.21836785714285,148.56647280413645L76.26213928571428,148.50708861944838L76.34968214285715,148.45592312947247L76.48099642857143,148.41686639604367L76.65608214285714,148.44848272670197L76.91871071428572,148.39902722020383L77.09379642857144,148.43243124854246L77.31265357142857,148.54496688583345L77.57528214285715,148.64237014199153L77.70659642857143,148.65673984238748L77.92545357142856,148.65042308917893L78.05676785714286,148.64665592701476L78.275625,148.72575399187497L78.4507107142857,148.73316001488504L78.62579642857143,148.8468771904479L79.01973928571428,148.89114425471683L79.32613928571429,148.90286863119707L79.45745357142857,148.850224364219L79.50122499999999,148.92783597926726L79.89516785714285,148.90595099846388L80.33288214285714,148.91142999614627L80.98945357142857,148.9325418293339L81.16453928571428,148.98831566450613L81.646025,148.98526997236166L81.68979642857143,148.9365595279394L81.86488214285714,148.90492833964453L82.43391071428572,149.0452359174348L83.48442499999999,149.16776490413653L84.31608214285714,149.33730077174093L84.403625,149.4910480881213L84.44739642857142,149.66344791875056L84.88511071428572,149.83812751024377L85.23528214285714,149.87123218199886L85.27905357142858,149.99948578531428L85.41036785714286,150.13419928826863L85.97939642857143,150.18529506536606L86.06693928571428,150.25889444034323L86.548425,150.3762791513905L86.67973928571428,150.4929603967868L86.85482499999999,150.61993588208193L87.02991071428572,150.7559754510229L87.20499642857143,150.84572150737543L87.51139642857143,150.95479844260862L87.55516785714286,151.08895594809326L87.68648214285714,151.19449879535145L87.81779642857143,151.34389189421918L88.34305357142857,151.41082039774855L88.60568214285715,151.40981643929746L88.78076785714286,151.36244513995925L89.21848214285714,151.33656400199095L89.34979642857142,151.27897722520598L89.96259642857143,151.28386706206365L90.09391071428571,151.2699260631847L90.31276785714286,151.32880234141453L90.44408214285714,151.39486589133847L90.838025,151.39196643910816L91.31951071428571,151.501881962683L91.53836785714286,151.47201179636883L91.62591071428571,151.4944889887545L92.676425,151.47268565781505L93.02659642857144,151.41703851745766L93.11413928571429,151.39957827380474L93.24545357142857,151.41544509356464L93.50808214285713,151.38938377186713L93.55185357142858,151.41114846139865L93.85825357142858,151.4675566366655L94.208425,151.49504732463782L94.38351071428572,151.4725782550335L94.55859642857142,151.49851783109324L94.86499642857143,151.51958237547208L94.95253928571428,151.45514872090743L95.21516785714286,151.55020983665838L95.6091107142857,151.55961533099273L95.95928214285715,151.70316872195104L96.046825,151.76690537805848L96.17813928571428,151.78801231950396L96.30945357142856,151.93503555193914L96.35322500000001,151.98832496474574L96.65962499999999,152.0776960519977L96.8347107142857,152.14799176281903L96.87848214285715,152.22787674437959L97.18488214285715,152.26300011531413L97.57882500000001,152.2535634169821L97.75391071428571,152.20964205853733L97.84145357142857,152.18071134874057L98.23539642857143,152.1737096532948L98.71688214285714,152.27031472865747L99.15459642857144,152.36491105155753L99.24213928571429,152.48648293544784L99.54853928571428,152.5818928142302L99.76739642857143,152.670187384727L99.89871071428571,152.73804675274624L100.24888214285716,152.64369441380066L101.08053928571428,152.75648829119592L101.562025,152.80865290637152L101.91219642857143,152.74614725450374L102.30613928571428,152.65964715465154L102.48122500000001,152.57246507792914L102.87516785714286,152.66273727528468L103.094025,152.67038731145064L103.13779642857143,152.68553867707308L103.18156785714287,152.66611875473973L103.88191071428571,152.61323810672232L104.10076785714287,152.6709972325421L104.58225357142857,152.81916543108903L104.71356785714286,152.73050989554844L104.97619642857143,152.76687751707559L105.01996785714286,152.84983083878333L105.19505357142856,152.97404089855587L105.41391071428572,153.06472672601572L105.67653928571428,153.18999457283923L105.7203107142857,153.32371055094106L106.20179642857143,153.47071342867923L106.37688214285716,153.57754587732174L106.42065357142857,153.71121425266804L106.59573928571429,153.83902713277558L106.68328214285714,153.9559046488406L107.077225,154.08726085595563L107.25231071428571,154.21550061078975L107.29608214285714,154.33691482276257L107.383625,154.45951648134184L107.42739642857143,154.54574428314857L107.51493928571429,154.48739567936758L107.996425,154.52554144692078L108.08396785714287,154.49168922999849L108.43413928571428,154.57470685161115L108.47791071428571,154.6691611722694L108.60922500000001,154.77637938995596L110.14122499999999,154.90086242016085L111.060425,154.99525505862914L111.41059642857144,154.97868570017846L111.93585357142858,155.03539157274227L112.06716785714286,155.1191732108797L112.46111071428572,155.14276969453232L112.89882499999999,155.18643380290507L113.24899642857143,155.1298110095843L113.38031071428571,155.1385775557978L113.511625,155.14780434030357L113.77425357142857,155.2154265161306L113.9931107142857,155.2364949819948L114.03688214285714,155.18682966019404L114.21196785714287,155.10084687270106L114.25573928571428,155.06211515050992L114.56213928571428,155.03951973153778L114.95608214285714,155.00399599072034L115.08739642857142,154.9324937230759L115.96282500000001,154.9725524379065L116.40053928571429,155.0827344116356L117.188425,155.21196404099828L117.494825,155.32449364442903L117.801225,155.39469610722625L118.15139642857143,155.45388668534807L118.23893928571428,155.5545688424463L118.414025,155.58832625550826L118.67665357142857,155.57087637522136L118.85173928571429,155.61642742767873L119.333225,155.734068843297L119.46453928571428,155.8557481508757L119.68339642857144,155.97685374929904L120.252425,155.88537348953963L121.30293928571427,155.9854488026943L122.13459642857143,156.00091131947565L122.35345357142856,155.98784497916228L122.39722499999999,156.0114646399105L122.83493928571428,155.97042751624133L122.96625357142857,155.94164296382175L123.18511071428571,155.92574744493038L123.53528214285714,155.92907577209215L123.97299642857142,155.9422779024555L124.41071071428571,156.01044966302354L124.71711071428572,156.0276336834974L125.32991071428572,156.03686531845656L126.03025357142857,156.11219855074717L126.20533928571427,156.15914146513342L126.2491107142857,156.2146799782854L126.380425,156.2571200340109L126.42419642857143,156.26804579352077L127.73733928571428,156.3083608493522L127.86865357142857,156.34320278331404L128.04373928571428,156.3949008382186L128.0875107142857,156.44170246709928L128.30636785714285,156.52854100552466L128.87539642857143,156.61366773219765L129.22556785714286,156.6934912755151L129.35688214285713,156.78189943033126L130.23231071428572,156.80122040176983L130.58248214285715,156.87699036345646L130.8013392857143,156.90860361996207L130.88888214285714,156.91274782671047L131.02019642857144,156.93370131941177L131.10773928571427,156.9494017175237L131.1515107142857,156.9944295346803L131.63299642857143,156.98522457208253L131.67676785714286,157.04924122498642L131.7205392857143,157.11578173544368L131.80808214285713,157.18979408083092L131.895625,157.15218407488948L132.11448214285716,157.20044647069855L132.202025,157.2854702879316L132.55219642857142,157.38934050829081L133.734025,157.46011828978112L133.77779642857143,157.46512338014864L134.25928214285716,157.42206080495535L134.30305357142856,157.4454812521513L134.74076785714286,157.45534791926707L134.7845392857143,157.49060577074096L134.91585357142858,157.56724297179957L135.22225357142858,157.63985656140875L135.52865357142858,157.72566688412573L136.09768214285714,157.7494831685139L136.44785357142857,157.80188721247006L136.491625,157.84436672415882L136.798025,157.85071347183782L136.9293392857143,157.89024311177687L136.97311071428572,157.9305989172645L137.01688214285716,157.98554354712468L137.14819642857142,158.04085995737591L137.97985357142858,158.06603728174284L138.330025,158.04863333359748L138.37379642857144,158.0999807088059L138.5051107142857,158.07869063213L138.8115107142857,158.09503443710096L138.942825,158.14634930556662L139.03036785714286,158.18650122582073L139.16168214285716,158.22485523227385L139.33676785714286,158.22397032735964L139.73071071428572,158.31345229927638L139.99333928571428,158.35557354758103L140.21219642857145,158.3877958176509L140.38728214285715,158.37468523899452L140.474825,158.35511176166992L140.9125392857143,158.36512743525034L140.9563107142857,158.4049920930876L141.13139642857143,158.39347568018061L141.35025357142857,158.37276453007513L141.394025,158.35286871764546L141.43779642857143,158.35561674881868L141.56911071428573,158.35246009819429L141.9630535714286,158.28741416487176L142.006825,158.29267869390662L142.05059642857142,158.25294855466723L142.26945357142856,158.26569462656028L142.48831071428572,158.28129943630677L142.619625,158.27393838329496L142.75093928571428,158.26723616531106L142.83848214285715,158.2629716794665L142.92602499999998,158.2786756177831L143.05733928571428,158.28443877644227L143.36373928571427,158.30106034719384L143.88899642857143,158.28833015046914L143.97653928571427,158.30458447780626L144.54556785714286,158.334351113073L144.5893392857143,158.3475869594341L145.07082499999999,158.35607249046677L145.50853928571428,158.31532119855243L145.683625,158.33623518492465L145.94625357142857,158.31049675385523L146.25265357142857,158.28921721500987L146.296425,158.2712122005963L146.69036785714286,158.25005785673596L146.7341392857143,158.2455533332412L147.56579642857145,158.2359532000501L147.60956785714285,158.2095777340623L148.0035107142857,158.19342070346295L148.09105357142857,158.14909151985708L148.17859642857144,158.0797789952128L148.52876785714284,158.0725711920813L148.8789392857143,158.01777355466567L149.054025,158.03766626704717L149.1853392857143,158.0391595229145L149.27288214285716,158.02403316677987L149.31665357142856,158.02039091022797L149.44796785714286,157.994185634888L149.71059642857142,157.98818864819492L149.88568214285715,157.97830946300544L149.92945357142858,157.96163419371842L150.54225357142857,157.92864320308558L150.67356785714287,157.89253612033428L150.80488214285714,157.85107315719344L151.11128214285714,157.79980112269965L151.24259642857143,157.76808283507776L151.3301392857143,157.73926067195399L151.59276785714286,157.7100483621773L151.81162500000002,157.7146635165836L152.07425357142859,157.6906793291655L152.16179642857142,157.64873451261602L152.5995107142857,157.66691368642608L152.730825,157.6725589216215L152.8621392857143,157.6337809995227L153.2123107142857,157.58702800885885L153.60625357142857,157.53284839118902L154.04396785714286,157.4824454098745L154.262825,157.41961046478195L154.83185357142858,157.36078402613424L155.6635107142857,157.31811105948563L155.794825,157.24686508947673L156.407625,157.2234374051417L156.45139642857143,157.16911102662777L156.714025,157.10976907470908L156.97665357142856,157.0427601830208L157.28305357142855,157.02065216548078L157.326825,157.0041556074997L157.37059642857142,156.95489368221223L157.45813928571428,156.93443591333892L157.63322499999998,156.90968944634184L157.80831071428574,156.8742868173129L157.98339642857144,156.92544854767638L158.02716785714284,156.91499070031682L158.0709392857143,156.86061385325524L158.28979642857144,156.80513942021767L158.3773392857143,156.81337459285635L158.81505357142856,156.81659938950523L159.1214535714286,156.78693848758462L160.34705357142857,156.76334692527826L160.56591071428574,156.72784870986467L160.95985357142857,156.73887612076155L161.09116785714286,156.74680266481L161.1787107142857,156.7242859092908L161.48511071428572,156.69703013473733L161.70396785714286,156.67774082775864L162.05413928571429,156.6818794783088L162.22922499999999,156.64595923149133L162.27299642857145,156.64656789056926L162.4043107142857,156.6285431131636L162.49185357142855,156.56972647269154L162.79825357142857,156.54515310801392L163.14842499999997,156.53101683289134L163.32351071428573,156.51176290881065L163.4110535714286,156.48682235982443L164.37402500000002,156.4197723653419L164.50533928571429,156.39204989894316L165.81848214285714,156.42510023140005L166.1686535714286,156.4559513395168L167.65688214285714,156.46102970411195L167.8757392857143,156.454756256521L168.357225,156.4540633750478L168.75116785714283,156.4761924233902L168.970025,156.4873389418407L169.05756785714286,156.46484811900865L169.1451107142857,156.4542597463227L169.276425,156.45689327706378L169.36396785714285,156.44151126654282L169.582825,156.42352733029497L169.62659642857142,156.4191832688279L169.97676785714287,156.39194531444392L170.02053928571428,156.4415195501151L170.45825357142854,156.41039137383657L170.6333392857143,156.3956040646855L171.07105357142856,156.3918672738787L171.2461392857143,156.3874656267954L171.421225,156.39484956103914L171.77139642857145,156.37085636442498L171.99025357142855,156.35893779644286L172.64682499999998,156.3632196128643L172.69059642857144,156.34664277373776L172.953225,156.31869058617573L173.259625,156.31312237649186L173.4347107142857,156.29988278817257L173.87242500000002,156.29641007724584L173.91619642857142,156.283913166464L173.95996785714286,156.24154145235747L174.0037392857143,156.19117938571546L174.26636785714285,156.1742044222836L174.3539107142857,156.17472831548875L174.48522499999999,156.14162424575477L174.61653928571428,156.10658600419777L174.6603107142857,156.0813960708958L174.791625,156.05310478059207L175.2731107142857,156.00246823694778L175.53573928571427,156.01590353939667L175.79836785714284,156.00051445882804L176.1923107142857,155.97998871405028L176.23608214285716,155.97159259407536L176.45493928571426,155.95903151346639L176.58625357142859,155.94111717495187L176.84888214285712,155.91574549596663L177.02396785714285,155.85206163636406L177.19905357142858,155.82221959592317L177.549225,155.77343565167044L177.68053928571427,155.79562920824836L177.94316785714287,155.78891926357815L177.98693928571427,155.79292398662352L178.33711071428573,155.80849048425898L178.468425,155.76445360174174L178.51219642857143,155.79713515106047L179.03745357142856,155.79413698843936L179.60648214285715,155.79805503470303L179.65025357142858,155.7913682514774L179.69402499999998,155.77907260686814L179.73779642857144,155.76607212051053L180.3505964285714,155.75996165114086L181.4011107142857,155.77514373348006L181.532425,155.81220090883528L181.61996785714285,155.84059064444745L181.70751071428572,155.87621337938756L181.838825,155.9045571620466L182.01391071428571,155.90311679528347L182.145225,155.90022745737596L182.18899642857141,155.89710743530054L182.97688214285716,155.93213788800554L183.41459642857143,155.95292626035015L183.72099642857142,155.99341135301455L183.89608214285715,156.0329739213306L183.93985357142859,156.07973980618843L184.15871071428572,156.11953239682393L184.20248214285715,156.12084111233648L184.33379642857142,156.1581560422958L184.81528214285714,156.1973461877239L184.85905357142857,156.22395965562072L185.3843107142857,156.26401024227312L185.42808214285714,156.28578787435433L185.515625,156.2760592038938L185.55939642857143,156.30766139015486L185.6907107142857,156.35781034670723L185.73448214285716,156.37764034027643L185.77825357142856,156.38459054245925L186.08465357142856,156.43053966597623L186.17219642857143,156.45496166326862L186.91631071428571,156.4814750956879L186.96008214285715,156.51648453909226L187.00385357142855,156.53656667089973L187.047625,156.57522492939768L187.2227107142857,156.58171226985976L187.354025,156.60775176118673L188.01059642857143,156.6461378469635L188.0981392857143,156.6831393074085L188.36076785714286,156.72614921587333L188.62339642857143,156.7760080251325L188.79848214285713,156.7830526211117L189.49882499999998,156.793191612022L189.89276785714287,156.84598300564045L189.9803107142857,156.8906406512165L190.06785357142857,156.89049785696835L190.28671071428573,156.9061687046786L190.41802499999997,156.93249992342427L190.81196785714286,156.98052862869204L190.94328214285716,157.01302630749333L191.07459642857145,157.04222967578121L192.256425,157.05007662041407L192.51905357142857,157.05088664323492L192.65036785714287,157.0517848550437L192.82545357142857,157.073995724437L193.08808214285713,157.13146342257406L193.21939642857143,157.14629171637327L193.3069392857143,157.17781875661836L193.52579642857143,157.23206139746353L193.6133392857143,157.26540108091464L193.74465357142856,157.30549692987L194.48876785714288,157.3450380399088L194.66385357142858,157.3702036056538L195.014025,157.39039059941388L195.05779642857144,157.42755701253253L195.45173928571427,157.44108534463496L195.71436785714286,157.45029581423094L195.75813928571426,157.46542039932558L195.80191071428573,157.49884195047966L195.933225,157.5067695922075L196.1958535714286,157.50103974077777L196.4147107142857,157.51689338899186L196.54602500000001,157.49682037666392L196.89619642857141,157.50651217651105L197.07128214285711,157.5337421224714L197.158825,157.53577529907565L197.55276785714284,157.55057034664202L197.771625,157.57999951435391L198.03425357142856,157.59452523712946L198.29688214285716,157.62617513320163L198.60328214285713,157.62882293426867L199.39116785714285,157.6240665117211L199.4349392857143,157.65743009121346L200.09151071428573,157.6831287255043L200.13528214285714,157.70919319767899L200.222825,157.70424710042766L200.3979107142857,157.7069646465207L200.57299642857143,157.7320532988802L201.31711071428572,157.74164996352522L201.57973928571428,157.748830758769L201.84236785714285,157.75105405051352L201.97368214285714,157.76371789710024L202.76156785714286,157.75247359928537L202.9366535714286,157.74952065363314L203.24305357142856,157.76563567533654L203.37436785714286,157.7889485665067L203.85585357142858,157.80758526682507L204.29356785714285,157.81496012740632L204.33733928571428,157.83250746275323L204.46865357142858,157.82271042767536L204.9501392857143,157.8616965902759L205.60671071428573,157.85518338391324L205.65048214285713,157.86652283830486L206.21951071428572,157.87319004115656L206.48213928571428,157.8920404169808L206.56968214285712,157.90871117727534L206.61345357142858,157.9253059161067L206.87608214285714,157.93299050852744L207.31379642857144,157.93347932391666L207.4451107142857,157.9345509648931L207.53265357142857,157.90197379357883L207.576425,157.89732587935873L207.6201964285714,157.93418036301753L207.79528214285716,157.94471610300093L208.23299642857143,157.9450855959593L208.2767678571429,157.97646556740278L208.802025,157.9824362356737L208.84579642857145,158.00453873844617L209.58991071428574,158.01136920504737L210.07139642857143,158.01479012005623L210.46533928571426,158.02829197450066L210.68419642857143,158.0300927140732L210.9030535714286,158.0399019135451L211.16568214285715,158.05958862199566L211.559625,158.03908169189654L211.9097964285714,158.02459918259564L212.30373928571427,158.0099329876217L212.785225,158.00329052358313L213.00408214285716,158.00877014797166L213.13539642857143,157.99225673360397L213.17916785714286,157.9991242605404L213.48556785714285,157.9957356081803L213.83573928571428,158.0046613527264L214.1859107142857,157.9818314213348L214.36099642857144,157.99078875078914L214.4923107142857,157.98925154221433L214.623625,158.0112066869091L214.6673964285714,158.00908198980207L215.01756785714286,157.99569724742898L215.10511071428573,158.00532260120448L215.58659642857145,158.01716975766863L215.93676785714285,158.01064532267478L216.41825357142858,158.01089751214366L216.59333928571428,157.9969609855844L216.9435107142857,157.99439307162032L217.9502535714286,158.00380262923565L218.21288214285715,157.98771591751927L218.38796785714285,158.00846048795495L219.04453928571428,157.9834195235584L219.30716785714284,157.96051920579902L219.43848214285714,157.95521472211868L219.526025,157.9538188218751L219.832425,157.95555630601044L219.9637392857143,157.9410040665358L220.138825,157.93674727251312L220.31391071428573,157.914658937711L220.35768214285713,157.91275631817027L220.40145357142856,157.90204755521478L220.48899642857143,157.89084317620774L221.058025,157.8791223001807L221.14556785714285,157.8945276222171L221.23311071428571,157.87960087417113L221.40819642857142,157.87655459600347L221.5395107142857,157.88649373683162L221.58328214285717,157.8845665544143L221.670825,157.87337648705795L222.02099642857144,157.86916877667326L222.4587107142857,157.85159200914993L223.07151071428572,157.8480100225751L223.202825,157.84340177007124L223.3341392857143,157.8284382411242L223.9469392857143,157.80622619586163L224.07825357142858,157.76943793367755L224.734825,157.76445280724923L224.95368214285713,157.7478846559407L224.9974535714286,157.75340254804328L225.1725392857143,157.7433093020714L225.347625,157.72470259179653L225.39139642857143,157.72882908078208L225.43516785714286,157.7302836542335L225.52271071428572,157.71176113608246L225.74156785714285,157.68399106651864L225.7853392857143,157.6700558545142L225.82911071428572,157.655847107843L226.22305357142858,157.65191523986732L226.573225,157.64336894307942L226.7483107142857,157.62663759305406L226.83585357142857,157.60350419948458L227.09848214285714,157.6032931871011L227.44865357142857,157.59532748490926L227.492425,157.57919144583985L227.7550535714286,157.5462991797991L227.88636785714286,157.51906431461325L228.23653928571426,157.5170334548739L228.49916785714288,157.48482700965883L228.63048214285712,157.46803762742127L228.67425357142858,157.4412924035975L228.80556785714288,157.45301777402986L228.93688214285714,157.44490107643023L229.06819642857144,157.41234176880212L229.59345357142857,157.40342077339102L229.76853928571427,157.3882604776745L230.0749392857143,157.377617828154L230.33756785714286,157.37740101290547L230.5126535714286,157.34794619869393L230.556425,157.3218638426156L230.6877392857143,157.30894081846535L230.73151071428572,157.31875264764068L231.03791071428572,157.32979097737078L231.12545357142858,157.30216191081956L231.21299642857142,157.3044557834285L231.47562499999998,157.2878134374038L231.73825357142857,157.2859366464171L231.86956785714284,157.2772067066957L232.00088214285714,157.26369482034912L232.088425,157.25586140898073L232.17596785714287,157.24463794890727L232.87631071428572,157.22185356143177L232.9638535714286,157.2208257685555L233.05139642857142,157.22763498347317L233.09516785714285,157.21987364151914L233.1389392857143,157.20727158901335L233.44533928571428,157.2031716563799L233.48911071428572,157.1836228126119L234.27699642857144,157.1648364264137L234.40831071428573,157.14457346689665L235.15242500000002,157.11740271192065L235.72145357142858,157.09871591338825L236.29048214285714,157.09881117227894L236.378025,157.06382725206444L237.03459642857143,157.04097462387446L237.20968214285713,157.0324513131177L237.38476785714286,157.01031741803823L237.69116785714286,157.0182137688296L237.86625357142856,157.01344231096533L238.08511071428572,157.01314335280674L239.35448214285717,156.98217388265678L239.442025,156.9691235524639L239.8797392857143,156.94299377298202L239.92351071428573,156.9327854110878L240.93025357142858,156.92588588451326L241.32419642857144,156.91289891111185L242.37471071428573,156.8999583240597L242.89996785714285,156.89746749006062L242.98751071428572,156.88073867076852L243.20636785714285,156.88914288586145L243.64408214285714,156.91151866885832L243.77539642857144,156.9142356551337L243.81916785714287,156.93021560627474L244.1693392857143,156.96296401089387L244.25688214285714,156.98778129265457L244.4757392857143,157.00621514388288L244.73836785714286,157.02996136596573L244.82591071428573,157.0490671038401L245.65756785714285,157.0591932533441L246.09528214285714,157.06204242472012L246.27036785714287,157.07196150671896L246.44545357142857,157.0995519347468L246.75185357142857,157.12270305933603L246.9269392857143,157.13513055699772L246.9707107142857,157.14227322419023L247.05825357142857,157.16010874213143L247.102025,157.16342399489275L247.62728214285713,157.1697912951153L248.021225,157.16224970004043L248.5027107142857,157.1683862570255L248.940425,157.18402788877125L248.98419642857144,157.20024896473484L249.07173928571427,157.22777765196125L249.29059642857143,157.25245777696264L249.3781392857143,157.2742770936885L249.59699642857143,157.29351739679768L249.859625,157.33315646196482L250.16602500000002,157.35359516026645L250.34111071428572,157.37800994860189L250.73505357142858,157.4148385581881L251.391625,157.46126699095555L251.4353964285714,157.49658093791464L251.61048214285717,157.5275225260874L251.78556785714287,157.5617951296909L251.91688214285713,157.603379820813L252.4421392857143,157.64762304266517L252.83608214285715,157.69273596344811L253.05493928571428,157.7430361519943L253.14248214285712,157.77743144785484L253.23002499999998,157.8265533966469L253.31756785714288,157.88439408771416L253.62396785714284,157.91982681348L254.23676785714287,157.95717861707985L254.28053928571427,157.99314917882984L254.41185357142857,158.03183530698206L254.49939642857143,158.06363871595727L254.67448214285713,158.10402943219216L254.7182535714286,158.14922690344375L254.93711071428572,158.19671971362789L255.0246535714286,158.24208096041937L255.11219642857145,158.2942716479112L255.33105357142855,158.34370269546653L256.1627107142857,158.40180933004342L256.4253392857143,158.46061939518435L256.51288214285717,158.5185661263082L256.64419642857143,158.56709844547422L257.0381392857143,158.61708174339162L257.51962499999996,158.64825553880578L257.6071678571428,158.6828121793358L257.9135678571428,158.72761711938654L257.9573392857143,158.7760261907883L258.132425,158.81669943487464L258.5701392857143,158.86190646860905L258.65768214285714,158.90794097430495L258.8765392857143,158.94225227198498L259.051625,158.9757256212811L259.358025,159.0259845689191L259.79573928571426,159.06675005181668L259.8832821428571,159.1083880684813L259.9270535714286,159.14967734087412L260.10213928571426,159.18896819633645L260.1896821428571,159.23473859172853L260.277225,159.27393911574705L260.32099642857145,159.32189412408493L260.4085392857143,159.36742573756442L260.890025,159.40689702310465L262.02808214285716,159.44796137556503L262.115625,159.48037705807846L262.37825357142856,159.52921377429104L262.5095678571429,159.56701388873267L262.5533392857143,159.6035780754001L262.5971107142857,159.64397076202573L262.64088214285715,159.68276687826545L262.94728214285715,159.71668509805096L263.1223678571428,159.74966795949882L263.2099107142857,159.7858628756973L263.341225,159.82447032321758L264.17288214285713,159.83840637817445L264.47928214285713,159.8738439058221L264.566825,159.90396097280777L264.6981392857143,159.9240945981887L265.1358535714286,159.94678259191002L265.6611107142857,159.98550848271861L266.75539642857143,160.0167702379496L266.93048214285716,160.0201116466349L268.3311678571429,160.00267059966907L268.46248214285714,159.96923958581715L268.90019642857146,159.94811545430287L269.5129964285714,159.93336782066183L269.7318535714286,159.91058300766096L269.81939642857145,159.89938663429646L270.388425,159.8793407928332L271.0887678571429,159.85635051765624L271.2200821428571,159.83552704727094L271.35139642857143,159.8346782616265L271.52648214285716,159.83682659213005L271.65779642857143,159.83016802189857L271.9641964285714,159.82757558893127L272.2705964285714,159.82889269689437L272.40191071428575,159.84876802671704L272.70831071428574,159.84883906462883L272.839625,159.867942086494L273.146025,159.87886050212302L273.2335678571429,159.89190554658379L273.36488214285714,159.90150356698865L273.40865357142854,159.91208549705877L273.452425,159.9252358457357L273.4961964285714,159.93021813399997L273.8025964285714,159.94375925088173L274.10899642857146,159.92110293867876L274.5029392857143,159.91864546309773L274.6342535714286,159.89739115813913L274.678025,159.85807913638757L274.8531107142857,159.82567992431495L275.2470535714286,159.80317883374747L275.7285392857143,159.78352646776386L276.25379642857143,159.76864953542182L276.73528214285716,159.76898567105178L277.4793964285714,159.736147293189L277.91711071428574,159.72526586599278L278.2235107142857,159.70470981195487L278.354825,159.68695923404874L278.7925392857143,159.66090001061352L278.83631071428573,159.63331733470088L278.9238535714286,159.61132569908276L279.18648214285713,159.59877000829627L279.4928821428571,159.5773938490217L280.3683107142857,159.5514012425653L280.6309392857143,159.52960944239405L281.19996785714284,159.4871524202946L281.2437392857143,159.4498450437629L281.8127678571429,159.44559537991339L282.03162499999996,159.48291584000077L282.1629392857143,159.49214132916322L282.5131107142857,159.53186864366913L282.7319678571429,159.49148030943007L282.7757392857143,159.43504271661786L283.257225,159.39546603641008L283.65116785714287,159.34203236570258L283.95756785714286,159.28954848745695L284.0013392857143,159.2286022177876" style="fill: none;" fill="none"></path></g></g></g></g><g opacity="0.2"><g><g><g><path stroke="rgb(0, 119, 187)" stroke-width="2px" d="M21.63539642857143,10.115929941030648L22.07311071428571,78.86209188608024L22.116882142857143,79.82570818387545L22.24819642857143,88.77104662381686L22.598367857142858,140.3025121835562L22.642139285714283,141.22036021305965L23.211167857142858,157.36937581575833L23.517567857142858,151.75047428424543L23.561339285714286,150.69737302339996L23.60511071428571,145.5937800187331L24.174139285714283,136.4226698068472L24.217910714285715,146.4359795203576L24.39299642857143,179.62186163388768L24.524310714285715,185.0228561914884L24.56808214285714,174.6268825677725L24.830710714285715,148.45225560114935L25.049567857142858,126.03089931194599L25.355967857142858,117.43663444519042L25.793682142857143,142.3842983832726L25.968767857142854,171.07927564474252L26.143853571428572,162.21512757814847L26.756653571428572,129.83030442457934L26.931739285714283,145.23533636239858L26.975510714285715,145.59195697490986L27.063053571428572,178.57754058837892L27.15059642857143,157.89973614032453L27.413225,137.31410707327035L27.763396428571426,130.90224899878868L27.850939285714286,131.29485265291655L27.894710714285715,128.45320516733022L28.026025,131.6203724494347L28.332424999999997,142.32180589529185L28.463739285714283,176.78506521078256L28.551282142857143,178.06227880624627L28.638825,180.64147550142727L28.98899642857143,172.61857905754675L29.207853571428572,176.21618204850418L29.514253571428572,172.63816249553975L29.820653571428572,143.5998790740967L29.864424999999997,165.42307183192327L30.345910714285715,179.3452601799598L30.433453571428572,183.76636608563936L30.783625,138.16802391639123L31.483967857142858,176.4991797373845L32.14053928571429,136.77891126779411L32.184310714285715,159.92409905653733L32.75333928571428,140.399133506188L32.797110714285715,128.8434611980732L33.32236785714286,148.3988575568566L33.45368214285714,149.29927500211275L33.803853571428576,155.92049745412973L33.93516785714286,155.38286053584173L34.06648214285715,174.84170309213494L34.154025,142.82347015967736L34.372882142857144,178.3869779733511L34.460425,173.36932252737193L34.94191071428571,159.956726866502L35.116996428571426,147.84841258709247L35.29208214285715,128.41656250586877L35.379625,173.54722771277795L35.42339642857143,165.0352049754216L35.55471071428571,143.79288799579328L36.56145357142857,158.84507006131685L36.605225,147.92287172170785L37.13048214285715,135.59806709289552L37.39311071428572,135.86182673527642L37.436882142857144,134.11299793536847L37.48065357142857,148.52659008319563L38.00591071428571,158.2052336179293L38.35608214285714,173.40602232126088L38.531167857142854,158.70980644226074L38.61871071428571,135.89613735492412L38.83756785714286,136.68372864356408L39.056425000000004,145.72821781451887L39.143967857142854,129.15771551865797L39.62545357142857,140.63036402188814L39.888082142857144,135.9975214444674L39.93185357142857,143.42828442500186L40.54465357142857,161.35092689807598L40.588424999999994,190.24183722275953L40.67596785714286,190.31286321786735L40.98236785714286,154.461501458975L41.24499642857143,178.40966733785777L41.63893928571429,182.02739912179803L41.814025,174.3511484879714L41.94533928571428,174.50005377255954L42.03288214285715,168.98115216768704L42.207967857142854,168.81470982478217L42.25173928571428,146.10063294630785L42.470596428571426,131.20070360623873L42.51436785714286,151.32316008347732L42.77699642857143,126.34765187777005L43.78373928571429,143.3300633943998L43.87128214285714,150.01332127497747L43.91505357142857,145.28991860609787L43.958825,146.9970770909236L44.09013928571429,130.474083005465L44.177682142857144,168.9929889678955L44.79048214285714,148.40862720196063L44.834253571428576,140.43071215702938L44.921796428571426,153.5853912646954L45.00933928571428,143.97371732271637L45.09688214285715,135.13355968181904L45.271967857142855,138.1445632641132L45.35951071428572,166.55634547013503L45.534596428571426,175.96804812504695L45.62213928571428,180.82281382634088L45.797225,142.19154915442834L46.05985357142857,150.9386640401987L46.147396428571426,148.33685329143816L46.32248214285714,164.6248175547673L47.022825,140.4790046398456L47.28545357142857,124.61533434941218L47.46053928571428,131.97567901611328L47.54808214285714,117.52880982619065L48.29219642857143,154.95507369408242L48.335967857142855,143.98810430673453L48.68613928571428,127.03366690415604L48.729910714285715,149.60448162372296L48.948767857142855,128.77992993868313L48.99253928571429,138.42497960604155L49.342710714285715,128.88618067227878L49.60533928571429,139.67116769643928L49.64911071428571,136.93734987699068L49.86796785714286,143.1889670738807L50.26191071428571,169.98310692126935L50.34945357142857,158.71837111253004L50.65585357142857,147.02255295973558L51.006025,156.46381645202638L51.049796428571426,149.79492478003868L51.399967857142855,122.37855306772084L51.75013928571429,143.30188152606672L51.83768214285715,140.52825798621544L52.538025,121.69597637469951L53.019510714285715,133.76503548255334L53.107053571428565,180.74163384070764L53.19459642857143,170.87568164238562L53.32591071428571,165.03592172769402L53.457225,148.31955255361703L53.50099642857143,136.0889437161959L54.026253571428576,142.30214714637168L54.90168214285714,160.46770371657152L55.38316785714286,136.38987579345704L55.42693928571429,145.7709061255822L55.68956785714286,156.1790424640362L55.95219642857143,157.6653529533973L56.65253928571428,148.78836047832783L56.69631071428571,143.7157384432279L56.78385357142857,133.58183775681715L56.915167857142855,129.24201701237607L57.309110714285715,133.90854175274188L57.87813928571429,123.19578050466684L58.22831071428572,160.33244529137244L58.359624999999994,160.69879140120287L58.972425,140.4432968726525L59.19128214285714,178.98983934842624L59.366367857142855,186.8846734560453L59.585225,144.85082993140588L60.241796428571426,126.41144802386943L60.63573928571429,169.14446001786453L60.723282142857144,152.07455538236178L60.89836785714285,127.7264858832726L61.20476785714286,143.66071991553673L62.16773928571428,178.40031839517445L62.692996428571426,187.48943058894233L62.99939642857143,162.08113385714017L63.61219642857143,132.55355274493877L64.3125392857143,174.8265344326313L64.44385357142858,180.40745848142186L64.88156785714285,134.75323949960563L64.96911071428572,126.61380588824932L65.18796785714285,141.75995002159706L65.31928214285713,149.67128501305214L65.406825,143.37826758164627L65.88831071428571,116.06310336773211L66.19471071428572,139.31554949833796L66.36979642857143,134.6480431189904L66.45733928571428,144.7348562974196L66.85128214285714,126.83988409775955L67.68293928571428,153.35212475703312L68.29573928571429,159.21410399216873L68.33951071428571,183.69470643997192L68.42705357142857,150.02625917287975L68.60213928571429,131.87128248948318L68.99608214285715,168.92569735600398L69.52133928571429,121.47657227149375L69.696425,157.62581731356107L69.78396785714285,145.7181209564209L69.91528214285714,147.30440800006573L70.002825,145.5024720118596L70.09036785714287,126.66715718782865L70.52808214285714,135.61258911719688L70.70316785714286,128.1583447089562L70.74693928571429,153.4862509213961L71.00956785714286,145.8713760962853L71.09711071428572,151.68900498610276L71.31596785714285,150.88859525827263L71.62236785714286,156.44484848609338L71.841225,156.0525564633883L71.88499642857143,146.7431650015024L72.41025357142857,155.79366865891677L72.84796785714285,149.35711379418007L72.93551071428571,153.3992070711576L72.97928214285714,143.09470376234788L73.28568214285714,135.85844034048228L73.50453928571429,125.75351618253268L73.679625,138.866363965548L73.72339642857143,138.1706831711989L74.24865357142858,127.50419399554913L74.598825,148.61229911217322L74.7739107142857,168.37126350402832L74.99276785714285,135.4075719980093L75.08031071428572,133.9072173191951L75.91196785714286,149.68530842707708L75.99951071428572,141.99816108116738L76.21836785714285,176.66532862736628L76.26213928571428,136.929413663424L76.34968214285715,138.43944449791542L76.48099642857143,140.73950254000152L76.65608214285714,154.6886599907508L76.91871071428572,138.5982518709623L77.09379642857144,155.07897834777833L77.31265357142857,171.02671121450572L77.57528214285715,168.17889862060548L77.70659642857143,151.55039652310884L77.92545357142856,147.3733668400691L78.05676785714286,147.88204800532415L78.275625,164.842980326139L78.4507107142857,150.24811997046837L78.62579642857143,172.1989569590642L79.01973928571428,158.01661869929387L79.32613928571429,151.3290966620812L79.45745357142857,137.9143871013935L79.50122499999999,165.1115728525015L79.89516785714285,144.3251492720384L80.33288214285714,150.06257981520432L80.98945357142857,153.38484086256761L81.16453928571428,160.79448042649489L81.646025,148.33816214341383L81.68979642857143,138.54890503516563L81.86488214285714,142.13462448120117L82.43391071428572,179.1866475765522L83.48442499999999,175.5859957915086L84.31608214285714,186.02340470827545L84.88511071428572,188.04699633671686L85.23528214285714,157.13827514648438L85.27905357142858,178.2533218530508L85.41036785714286,179.91603130927453L85.97939642857143,161.52105947641226L86.06693928571428,166.64435278085563L86.548425,176.60081832592306L86.67973928571428,176.6508377662072L86.85482499999999,179.18398312788744L87.02991071428572,181.46435385483963L87.20499642857143,171.17360647641695L87.51139642857143,175.74547576904297L87.55516785714286,181.6834021788377L87.68648214285714,175.3447774887085L87.81779642857143,185.643029990563L88.34305357142857,166.82842047764703L88.60568214285715,151.17777363703803L88.78076785714286,140.37724139873797L89.21848214285714,145.31498416020318L89.34979642857142,137.83654157198393L89.96259642857143,152.42904131962703L90.09391071428571,147.99435477623572L90.31276785714286,165.20733199486367L90.44408214285714,167.01803001990686L90.838025,150.70407309898962L91.31951071428571,177.66300364274244L91.53836785714286,144.33984788747932L91.62591071428571,156.87850438631497L92.676425,146.2335229726938L93.02659642857144,138.00326438316932L93.11413928571429,147.17754284785346L93.24545357142857,155.26419129004844L93.50808214285713,145.04808742816633L93.55185357142858,156.72342620262734L93.85825357142858,165.27812426640438L94.208425,158.24640012887807L94.38351071428572,145.9375406411978L94.55859642857142,157.9080047607422L94.86499642857143,156.74032181959885L94.95253928571428,135.43719775860126L95.21516785714286,175.25336041083702L95.6091107142857,153.91189270019532L95.95928214285715,187.71281838050254L96.046825,167.80261146838848L96.17813928571428,157.11414968050443L96.30945357142856,189.14473620194656L96.35322500000001,165.51494337228627L96.65962499999999,174.8296351652879L96.8347107142857,170.0960836997399L96.87848214285715,172.68373599419226L97.18488214285715,161.2830094264104L97.57882500000001,149.82312742379997L97.75391071428571,140.86506403409516L97.84145357142857,144.68668327331542L98.23539642857143,150.3548537327693L98.71688214285714,177.43717993222748L99.54853928571428,177.64855952629674L99.76739642857143,175.9324857858511L99.89871071428571,170.6663510249211L100.24888214285716,127.64667188204253L101.08053928571428,182.72207620327288L101.562025,166.70531308100774L101.91219642857143,136.04884194594163L102.30613928571428,129.4893329033485L102.48122500000001,129.15573146526629L102.87516785714286,176.97539929610033L103.094025,154.73632401686447L103.13779642857143,156.7882974771353L103.18156785714287,147.39335799584023L103.88191071428571,138.21698640676647L104.10076785714287,168.43734494722807L104.58225357142857,193.37180090684154L104.71356785714286,128.4017859825721L104.97619642857143,162.77317895155687L105.01996785714286,175.73391424325797L105.19505357142856,187.3293169608483L107.42739642857143,179.2004554455097L107.51493928571429,137.76244600736177L107.996425,165.48675631009615L108.08396785714287,144.7401384500357L108.43413928571428,178.54798234792855L111.060425,182.5210908156175L111.41059642857144,150.1351743551401L111.93585357142858,171.65157636495735L112.06716785714286,179.72835647876445L112.46111071428572,162.0904074888963L112.89882499999999,168.073452934852L113.24899642857143,138.37831280048078L113.38031071428571,157.73826951246994L113.511625,157.89045991163988L113.77425357142857,175.36352731264554L113.9931107142857,161.52863731384278L114.03688214285714,140.31939221895658L114.21196785714287,129.30152822641224L114.25573928571428,143.41350790170523L114.56213928571428,148.22814586345964L114.95608214285714,144.27060857919548L115.08739642857142,133.27848014831542L115.96282500000001,167.1319702588595L116.40053928571429,188.6039855663593L117.494825,189.71626173899722L117.801225,176.89894312345064L118.15139642857143,173.62600034567026L118.23893928571428,186.5346931897677L118.414025,165.99889398721547L118.67665357142857,150.17739521906927L118.85173928571429,169.72696147331826L119.333225,192.25740823745727L119.68339642857144,193.74238260709322L120.252425,127.29533861600436L121.30293928571427,187.3303674184359L122.13459642857143,160.85458114330584L122.35345357142856,151.87738098731407L122.39722499999999,163.45800198775072L122.83493928571428,143.00465266887957L122.96625357142857,146.82743533207818L123.18511071428571,150.88181727482723L123.53528214285714,156.9874818948599L123.97299642857142,160.14953842163087L124.41071071428571,177.78183389810414L124.71711071428572,161.52721419701209L125.32991071428572,158.99762922433706L126.03025357142857,180.32412044818585L126.20533928571427,171.27829126211313L126.2491107142857,174.1398545925434L126.380425,169.9834393281203L126.42419642857143,159.809127836961L127.73733928571428,169.40183900686412L127.86865357142857,167.6826177890484L128.04373928571428,173.255013524569L128.0875107142857,171.73645177987908L128.30636785714285,184.96570558547975L129.35688214285713,185.91099665715143L130.23231071428572,163.18011245727538L130.58248214285715,181.94340925950272L130.8013392857143,167.388107916025L130.88888214285714,158.2892806126521L131.02019642857144,163.90755109053393L131.10773928571427,162.18534859877366L131.1515107142857,172.04078323657694L131.63299642857143,153.90320337735687L131.67676785714286,178.52592403705304L131.80808214285713,182.1180578965407L131.895625,144.45976885282076L132.11448214285716,173.51969767350417L132.202025,186.0912689429063L133.734025,181.53281408456658L133.77779642857143,159.17073528583234L134.25928214285716,142.719047663762L134.30305357142856,165.4574110177847L134.74076785714286,160.83712978363036L134.7845392857143,169.59830703735352L134.91585357142858,183.9350378916814L135.52865357142858,187.3619110107422L136.09768214285714,165.99046176030086L136.44785357142857,175.96910247802734L136.491625,172.5986969727736L136.798025,160.05925360459548L136.9293392857143,171.6714948067298L136.97311071428572,172.02612357506385L137.01688214285716,177.2123690238366L137.14819642857142,177.4336870633639L137.97985357142858,166.9090291390052L138.330025,151.92459834172175L138.37379642857144,176.20112765385554L138.5051107142857,150.55967867924616L138.8115107142857,163.8777279633742L138.942825,176.33545897557187L139.03036785714286,172.44466275435227L139.16168214285716,171.86926389840932L139.33676785714286,157.90859686044547L139.73071071428572,190.2616569812481L139.99333928571428,173.4213779596182L140.21219642857145,169.933627642118L140.38728214285715,153.66852414057806L140.474825,151.31650675260101L140.9125392857143,161.9731587630052L140.9563107142857,172.79124104426458L141.13139642857143,154.23011512756347L141.35025357142857,150.8721618945782L141.394025,151.1348723778358L141.43779642857143,159.35432255084697L141.56911071428573,157.20324510427622L141.9630535714286,134.565393271813L142.006825,160.21597304710974L142.05059642857142,143.7131311269907L142.26945357142856,162.93837217184213L142.48831071428572,164.01185153080868L142.619625,155.5660894247202L142.75093928571428,155.79751730698806L142.83848214285715,156.6888506962703L142.92602499999998,164.08525631244368L143.05733928571428,160.41901130676268L143.36373928571427,164.4678462101863L143.88899642857143,153.55729249807504L143.97653928571427,164.3555238577036L144.54556785714286,169.43412402226375L144.5893392857143,163.29142979841967L145.07082499999999,161.53088885087234L145.50853928571428,143.04297814002405L145.683625,166.1872154529278L145.94625357142857,148.6323993389423L146.25265357142857,150.27448398883527L146.296425,151.4785914494441L146.69036785714286,150.25616006117602L146.7341392857143,156.54056607759915L147.56579642857145,154.5962924370399L147.60956785714285,148.1936015202449L148.0035107142857,152.04784856942985L148.09105357142857,141.26038926931528L148.17859642857144,131.62999147268442L148.52876785714284,155.31761010976936L148.8789392857143,137.03926373995267L149.054025,165.6655704204853L149.1853392857143,158.61267092778132L149.27288214285716,152.2051860809326L149.31665357142856,156.6170404287485L149.44796785714286,147.8812897021954L149.71059642857142,155.6702106769268L149.88568214285715,154.15371868426985L149.92945357142858,151.4958298609807L150.54225357142857,145.1162827711839L150.67356785714287,143.84796365591194L150.80488214285714,141.69793017460748L151.11128214285714,137.79399349506085L151.24259642857143,145.37263077955978L151.3301392857143,146.45807938208947L151.59276785714286,146.25841193565955L151.81162500000002,159.5266703092135L152.07425357142859,148.25943885216347L152.16179642857142,141.1294729086069L152.5995107142857,164.8374774345985L152.730825,159.9026692023644L152.8621392857143,142.2914166377141L153.2123107142857,139.06114399249736L153.60625357142857,136.03150485112118L154.04396785714286,137.4495213141808L154.262825,132.4077404022217L154.83185357142858,133.90917540330153L155.6635107142857,140.28058891296388L155.794825,128.75861434936525L156.407625,147.8416605729323L156.45139642857143,135.38122356121357L156.714025,133.27487561152532L156.97665357142856,130.08838718120867L157.28305357142855,148.1144938835731L157.326825,150.3487249814547L157.37059642857142,137.05114728487453L157.45813928571428,148.65652480492224L157.63322499999998,146.8817163320688L157.80831071428574,142.5071123269888L157.98339642857144,177.71836496499867L158.02716785714284,152.65856305635893L158.0709392857143,134.6966108762301L158.28979642857144,134.1609528174767L158.3773392857143,160.17976666964017L158.81505357142856,158.1367422250601L159.1214535714286,144.62709415142353L160.34705357142857,147.07780521099383L160.56591071428574,142.13312865037184L160.95985357142857,161.27916337526761L161.09116785714286,160.0150331057035L161.1787107142857,147.42708690349872L161.48511071428572,145.42710914611817L161.70396785714286,148.6905601501465L162.05413928571429,158.39800362220177L162.22922499999999,141.7303554241474L162.27299642857145,156.89966415992149L162.4043107142857,149.122860453679L162.49185357142855,132.04367179870604L162.79825357142857,146.2839605184702L163.14842499999997,150.61985990084133L163.32351071428573,148.44945091834435L163.4110535714286,146.02884345421424L164.37402500000002,128.2657484788161L164.50533928571429,144.73544320326585L165.81848214285714,170.34106235504152L166.1686535714286,169.4637523797842L167.65688214285714,158.60516061049242L167.8757392857143,153.80243216294508L168.357225,156.160723730234L168.75116785714283,165.85752758613L168.970025,161.2191769233117L169.05756785714286,146.9042888347919L169.1451107142857,151.94720200758715L169.276425,157.5793946192815L169.36396785714285,149.87635926466723L169.582825,148.73756455641526L169.62659642857142,154.56013799814076L169.97676785714287,144.71988240755522L170.02053928571428,177.71345157623293L170.45825357142854,143.03578464801495L170.6333392857143,150.03363444988543L171.07105357142856,154.78205592815692L171.2461392857143,154.4887328514686L171.421225,159.5842390207144L171.77139642857145,145.99371739901028L171.99025357142855,151.19736486581655L172.64682499999998,158.2199685903696L172.69059642857144,149.14895958533654L172.953225,144.16603026756874L173.259625,153.88911244319036L173.4347107142857,150.5288271683913L173.87242500000002,154.78072110689604L173.91619642857142,150.8225190089299L173.95996785714286,137.70046251737156L174.0037392857143,134.12539567213793L174.26636785714285,148.72722358703612L174.3539107142857,156.40485578683706L174.48522499999999,141.58166568462664L174.61653928571428,140.67634004446177L174.6603107142857,144.9741061283992L174.791625,143.56250927264875L175.2731107142857,133.6182207254263L175.53573928571427,161.96255810077375L175.79836785714284,149.1805278484638L176.1923107142857,146.8721752166748L176.23608214285716,152.2413509075458L176.45493928571426,150.37140655517578L176.58625357142859,147.96224115811862L176.84888214285712,144.60139494675857L177.02396785714285,127.41739945044885L177.19905357142858,142.48134560218224L177.549225,133.93766370920036L177.68053928571427,165.74173833406888L177.94316785714287,152.77814122713528L177.98693928571427,157.59206243661734L178.33711071428573,162.81036177415115L178.468425,135.93230737539437L178.51219642857143,170.53330258589526L179.03745357142856,154.44061695979192L179.60648214285715,157.56900171133188L179.65025357142858,152.7653020125169L179.69402499999998,150.2080285879282L179.73779642857144,149.86857367295485L180.3505964285714,152.98469572800857L181.4011107142857,162.6788455229539L181.532425,172.68326595012957L181.61996785714285,168.78105622805083L181.70751071428572,172.132937842149L181.838825,168.8548531458928L182.01391071428571,155.24423129741962L182.145225,154.57695570725662L182.18899642857141,154.4664979494535L182.97688214285716,172.0134245945857L183.41459642857143,165.50738371335544L183.72099642857142,174.62243402921237L183.89608214285715,174.25881988818827L183.93985357142859,177.6492139522846L184.15871071428572,174.4941665355976L184.20248214285715,156.72585692772498L184.33379642857142,173.42877920590914L184.81528214285714,174.35689549079308L184.85905357142857,168.57010512718787L185.3843107142857,174.86514556591328L185.42808214285714,166.41185496403622L185.515625,151.74726967444786L185.55939642857143,171.03564205169678L185.6907107142857,179.75611245081973L185.73448214285716,165.64039839231052L185.77825357142856,159.63478563748873L186.08465357142856,177.94262013068567L186.17219642857143,167.90161417447604L186.91631071428571,168.92244859842154L186.96008214285715,172.96261235750637L187.00385357142855,165.9810297159048L187.047625,174.77632801349347L187.2227107142857,159.63951204740084L187.354025,168.89517305814303L188.01059642857143,174.77985983628494L188.0981392857143,174.18224425682655L188.36076785714286,177.08945639683648L188.62339642857143,180.4081726367657L188.79848214285713,160.12576094407302L189.49882499999998,161.60952904040997L189.89276785714287,181.95120523892916L189.9803107142857,178.15119244502142L190.06785357142857,156.82244189335748L190.28671071428573,164.3831058355478L190.41802499999997,169.50949727571927L190.81196785714286,179.94628033271204L190.94328214285716,172.569276369535L191.07459642857145,171.03672756781944L192.256425,160.81447677612306L192.51905357142857,157.43989800673265L192.65036785714287,157.48361470149112L192.82545357142857,167.76374064225416L193.08808214285713,184.81952188198383L193.21939642857143,164.29826418069695L193.3069392857143,172.4002085318932L193.52579642857143,183.45035883830144L193.6133392857143,173.39740051856407L193.74465357142856,176.7272420002864L194.48876785714288,176.51842557466946L194.66385357142858,169.58586255587065L195.014025,167.19976048102745L195.05779642857144,175.50672454833983L195.45173928571427,164.02871858156644L195.71436785714286,161.94005831204927L195.75813928571426,164.84583175365742L195.80191071428573,173.8247848364023L195.933225,161.3833547445444L196.1958535714286,154.6962430220384L196.4147107142857,165.28542682941145L196.54602500000001,147.65051624591536L196.89619642857141,162.2655053945688L197.07128214285711,170.918375147306L197.158825,158.536196576632L197.55276785714284,164.83795007558967L197.771625,172.09039755601148L198.03425357142856,164.76395319425143L198.29688214285716,173.26353924091046L198.60328214285713,158.93836731543908L199.39116785714285,155.2692449129545L199.4349392857143,174.19196715721716L200.09151071428573,170.43196004720835L200.13528214285714,170.6526210638193L200.222825,155.24556611868053L200.3979107142857,159.0592075934777L200.57299642857143,170.22867248241718L201.31711071428572,162.52654085892897L201.57973928571428,161.33276397998517L201.84236785714285,158.861809862577L201.97368214285714,164.09689574608436L202.76156785714286,152.12360097444974L202.9366535714286,156.2698103097769L203.24305357142856,165.84883826329158L203.37436785714286,169.4941572189331L203.85585357142858,167.17417813814603L204.29356785714285,161.52514184805062L204.33733928571428,166.6690106171828L204.46865357142858,152.8842569204477L204.9501392857143,177.53299361008865L205.60671071428573,154.5655863541823L205.65048214285713,163.599293077909L206.21951071428572,161.2471484404344L206.48213928571428,167.44062300461988L206.56968214285712,166.36142780597393L206.61345357142858,166.3476407124446L206.87608214285714,161.836931683467L207.31379642857144,158.18204824007475L207.4451107142857,158.48001981881947L207.53265357142857,141.3041215456449L207.576425,155.52696929344765L207.6201964285714,176.74735780862662L207.79528214285716,163.32806207216703L208.23299642857143,158.13406219482422L208.2767678571429,174.04100250831019L208.802025,161.04194434239312L208.84579642857145,169.3411254149217L209.58991071428574,161.5181015748244L210.07139642857143,159.77273448063775L210.46533928571426,164.97319291921764L210.68419642857143,158.9572054349459L210.9030535714286,163.09492800785947L211.16568214285715,168.21436487344596L211.559625,147.45131105276255L211.9097964285714,150.54025884775015L212.30373928571427,150.42359443077675L212.785225,154.56416323735164L213.00408214285716,160.84847576434797L213.13539642857143,149.4265712444599L213.17916785714286,161.5646826817439L213.48556785714285,156.23475177471454L213.83573928571428,162.64738892775316L214.1859107142857,146.09590653639574L214.36099642857144,162.65851936340331L214.4923107142857,157.18746616656964L214.623625,169.4731688426091L214.6673964285714,156.8988435305082L215.01756785714286,150.99526150043195L215.10511071428573,163.0441191013043L215.58659642857145,164.22469579256497L215.93676785714285,154.5889535170335L216.41825357142858,158.14327609722432L216.59333928571428,150.67483168381912L216.9435107142857,156.64401732224684L217.9502535714286,162.95641043736384L218.21288214285715,149.5130645458515L218.38796785714285,168.94671689547025L219.04453928571428,144.76793597294736L219.30716785714284,145.86398004385143L219.43848214285714,155.15075225830077L219.526025,157.21515461848333L219.832425,158.87579172574556L219.9637392857143,150.2267732180082L220.138825,155.678198829064L220.31391071428573,146.18479420588565L220.35768214285713,156.9014923976018L220.40145357142856,152.20521205021785L220.48899642857143,151.92511772742637L221.058025,151.6329217177171L221.14556785714285,166.1113955277663L221.23311071428571,149.91104384202222L221.40819642857142,156.2488998413086L221.5395107142857,163.20168773944562L221.58328214285717,156.85306487450234L221.670825,151.87883526728703L222.02099642857144,155.61314057570237L222.4587107142857,148.41940445533166L223.07151071428572,155.92415912334735L223.202825,155.3662246117225L223.3341392857143,149.77785257192758L223.9469392857143,145.84559898376466L224.07825357142858,137.9429429274339L224.734825,155.07549846355732L224.95368214285713,148.80348499004657L224.9974535714286,160.73479781517617L225.1725392857143,152.2851558978741L225.347625,147.6541727212759L225.39139642857143,159.96410214350774L225.43516785714286,158.51887506338267L225.52271071428572,147.6613869887132L225.74156785714285,142.60319348848782L225.7853392857143,150.09605422386755L225.82911071428572,149.92670332101676L226.22305357142858,155.5113046205961L226.573225,152.98665900597206L226.7483107142857,148.50245422950158L226.83585357142857,144.97757043104906L227.09848214285714,157.48802947998047L227.44865357142857,153.24052435067983L227.492425,148.75041415874773L227.7550535714286,139.5345484806941L227.88636785714286,142.59300314096305L228.23653928571426,156.40310545701246L228.49916785714288,139.80506013723522L228.63048214285712,148.24392999502328L228.67425357142858,142.73540831345778L228.80556785714288,163.90548912928656L228.93688214285714,152.97464042076697L229.06819642857144,139.46575065025917L229.59345357142857,152.48220044649563L229.76853928571427,149.01838082533615L230.0749392857143,151.49713871295637L230.33756785714286,157.25750532883865L230.5126535714286,141.04672437814565L230.556425,142.8754450871394L230.6877392857143,150.1454218350924L230.73151071428572,162.76203033740705L231.03791071428572,163.4583941239577L231.12545357142858,141.9499361184927L231.21299642857142,158.5800742809589L231.47562499999998,148.02566334651067L231.73825357142857,156.2405948638916L231.86956785714284,152.41091475853554L232.00088214285714,149.72585686903733L232.088425,152.8824027134822L232.17596785714287,150.97354079026442L232.87631071428572,144.48106886056752L232.9638535714286,156.64564299950234L233.05139642857142,161.04126135019158L233.09516785714285,152.86958427429198L233.1389392857143,150.13820237379807L233.44533928571428,154.90153541564942L233.48911071428572,146.20066143916202L234.27699642857144,146.60202713012694L234.40831071428573,145.74269828796386L235.15242500000002,141.81668771597055L235.72145357142858,146.5674412360558L236.29048214285714,157.15253747793344L236.378025,137.31757137592024L237.03459642857143,144.13215073805588L237.20968214285713,152.21416625976562L237.38476785714286,144.48827793414776L237.69116785714286,161.48891988900994L237.86625357142856,154.30990315950834L238.08511071428572,156.8436224423922L239.35448214285717,139.40790147047775L239.442025,149.55780962430515L239.8797392857143,142.09256462684044L239.92351071428573,151.12663492056038L240.93025357142858,152.99871394817646L241.32419642857144,149.51520441495455L242.37471071428573,149.52313024080715L242.89996785714285,155.4764901968149L242.98751071428572,147.33007084773138L243.20636785714285,161.69079991854153L243.64408214285714,169.7052485539363L243.77539642857144,158.4688789954552L243.81916785714287,166.08066866948056L244.1693392857143,175.72934624598577L244.25688214285714,171.21982661027175L244.4757392857143,167.5853783974281L244.73836785714286,170.66798189603367L244.82591071428573,168.0300608561589L245.65756785714285,162.88347829672006L246.09528214285714,158.70201565669132L246.27036785714287,162.78555071904108L246.44545357142857,173.00385937323938L246.75185357142857,170.47778804485614L246.9269392857143,164.30937124399037L246.9707107142857,161.26865879939155L247.05825357142857,167.4713680414053L247.102025,159.08146846477803L247.62728214285713,160.85627953456L248.021225,152.79270999615008L248.5027107142857,160.72643310840314L248.940425,166.25978402357836L248.98419642857144,166.61900935539833L249.07173928571427,173.22381402529203L249.29059642857143,171.60360070742092L249.3781392857143,169.9710104282086L249.59699642857143,168.49753915346585L249.859625,180.43231108738826L250.16602500000002,169.27249119098371L250.34111071428572,171.62572913536658L250.73505357142858,178.92218156961295L251.4353964285714,178.14868121513953L251.61048214285717,175.63542053516096L251.78556785714287,177.6332791988666L254.41185357142857,180.86309218773476L254.49939642857143,176.845947603079L254.67448214285713,181.9742867396428L263.341225,183.2588106888991L264.17288214285713,168.3029175391564L264.47928214285713,181.41184396010178L264.566825,178.22010713723992L264.6981392857143,172.17652988433838L265.1358535714286,173.76255204127384L265.6611107142857,183.5826009310209L266.75539642857143,179.07787522536057L266.93048214285716,162.0587561240563L268.3311678571429,149.3548388847938L268.46248214285714,139.5464787703294L268.90019642857146,147.0353402357835L269.5129964285714,150.9127051426814L269.7318535714286,145.9650057572585L269.81939642857145,153.04224885793832L270.388425,147.59466150723972L271.0887678571429,145.7583577669584L271.2200821428571,147.05821917607236L271.35139642857143,159.3135351914626L271.52648214285716,161.15670001690205L271.65779642857143,155.73676995497485L271.9641964285714,158.23286493741548L272.2705964285714,160.63960480323203L272.40191071428575,172.0901404600877L272.70831071428574,159.89261908897987L272.839625,171.64827307187593L273.146025,166.61613455552322L273.2335678571429,167.94641119150015L273.36488214285714,165.83134794968825L273.40865357142854,166.4538421043983L273.452425,168.05979828467736L273.4961964285714,163.014064847506L273.8025964285714,168.3303411043607L274.10899642857146,145.88049650925856L274.5029392857143,158.3947626554049L274.6342535714286,146.70952438941367L274.678025,135.45088357191818L274.8531107142857,139.69810823293832L275.2470535714286,145.81618097745456L275.7285392857143,147.55991979745718L276.25379642857143,150.509713774461L276.73528214285716,159.97831253638634L277.4793964285714,139.27384802011343L277.91711071428574,152.94072453425483L278.2235107142857,146.8803451538086L278.354825,148.60619633014386L278.7925392857143,143.3837159376878L278.83631071428573,142.39422384408806L278.9238535714286,145.8583914536696L279.18648214285713,151.74211217440092L279.4928821428571,146.1933952331543L280.3683107142857,143.26726966271033L280.6309392857143,145.86912715618428L281.19996785714284,132.85659872201774L281.2437392857143,136.03546257019042L281.8127678571429,156.77689696091872L282.03162499999996,182.93321687991804L282.1629392857143,165.29239438863902L282.5131107142857,184.52395116365875L282.7319678571429,134.06861642690805L282.7757392857143,123.88894747220553L283.257225,134.454270700308L283.65116785714287,125.64846522991473L283.95756785714286,126.17555342454176L284.0013392857143,120.75294333237869" style="fill: none;" fill="none"></path></g></g></g></g></g></g><g transform="translate(30, 177)" clip-path="url(#clip_1)"><clipPath id="clip_1"><rect width="299" height="23"></rect></clipPath><g><g><line x1="0" y1="0" x2="0" y2="5" style="visibility: inherit;" fill="rgb(0, 0, 0)" stroke="rgb(204, 204, 204)" stroke-width="1px"></line><line x1="21.372767857142858" y1="0" x2="21.372767857142858" y2="5" style="visibility: inherit;" fill="rgb(0, 0, 0)" stroke="rgb(204, 204, 204)" stroke-width="1px"></line><line x1="42.745535714285715" y1="0" x2="42.745535714285715" y2="5" style="visibility: inherit;" fill="rgb(0, 0, 0)" stroke="rgb(204, 204, 204)" stroke-width="1px"></line><line x1="64.11830357142857" y1="0" x2="64.11830357142857" y2="5" style="visibility: inherit;" fill="rgb(0, 0, 0)" stroke="rgb(204, 204, 204)" stroke-width="1px"></line><line x1="85.49107142857143" y1="0" x2="85.49107142857143" y2="5" style="visibility: inherit;" fill="rgb(0, 0, 0)" stroke="rgb(204, 204, 204)" stroke-width="1px"></line><line x1="106.86383928571429" y1="0" x2="106.86383928571429" y2="5" style="visibility: inherit;" fill="rgb(0, 0, 0)" stroke="rgb(204, 204, 204)" stroke-width="1px"></line><line x1="128.23660714285714" y1="0" x2="128.23660714285714" y2="5" style="visibility: inherit;" fill="rgb(0, 0, 0)" stroke="rgb(204, 204, 204)" stroke-width="1px"></line><line x1="149.609375" y1="0" x2="149.609375" y2="5" style="visibility: inherit;" fill="rgb(0, 0, 0)" stroke="rgb(204, 204, 204)" stroke-width="1px"></line><line x1="170.98214285714286" y1="0" x2="170.98214285714286" y2="5" style="visibility: inherit;" fill="rgb(0, 0, 0)" stroke="rgb(204, 204, 204)" stroke-width="1px"></line><line x1="192.35491071428572" y1="0" x2="192.35491071428572" y2="5" style="visibility: inherit;" fill="rgb(0, 0, 0)" stroke="rgb(204, 204, 204)" stroke-width="1px"></line><line x1="213.72767857142858" y1="0" x2="213.72767857142858" y2="5" style="visibility: inherit;" fill="rgb(0, 0, 0)" stroke="rgb(204, 204, 204)" stroke-width="1px"></line><line x1="235.10044642857142" y1="0" x2="235.10044642857142" y2="5" style="visibility: inherit;" fill="rgb(0, 0, 0)" stroke="rgb(204, 204, 204)" stroke-width="1px"></line><line x1="256.4732142857143" y1="0" x2="256.4732142857143" y2="5" style="visibility: inherit;" fill="rgb(0, 0, 0)" stroke="rgb(204, 204, 204)" stroke-width="1px"></line><line x1="277.84598214285717" y1="0" x2="277.84598214285717" y2="5" style="visibility: inherit;" fill="rgb(0, 0, 0)" stroke="rgb(204, 204, 204)" stroke-width="1px"></line><line x1="299.21875" y1="0" x2="299.21875" y2="5" style="visibility: inherit;" fill="rgb(0, 0, 0)" stroke="rgb(204, 204, 204)" stroke-width="1px"></line></g><g transform="translate(0, 8)"><text x="0" y="0" dx="0em" dy="0.95em" style="text-anchor: middle; visibility: hidden; font-family: Roboto, sans-serif; font-size: 12px; font-weight: 200;" fill="rgb(33, 33, 33)" stroke="none" stroke-width="1px">-10M</text><text x="21.372767857142858" y="0" dx="0em" dy="0.95em" style="text-anchor: middle; visibility: inherit; font-family: Roboto, sans-serif; font-size: 12px; font-weight: 200;" fill="rgb(33, 33, 33)" stroke="none" stroke-width="1px">0</text><text x="42.745535714285715" y="0" dx="0em" dy="0.95em" style="text-anchor: middle; visibility: hidden; font-family: Roboto, sans-serif; font-size: 12px; font-weight: 200;" fill="rgb(33, 33, 33)" stroke="none" stroke-width="1px">10M</text><text x="64.11830357142857" y="0" dx="0em" dy="0.95em" style="text-anchor: middle; visibility: inherit; font-family: Roboto, sans-serif; font-size: 12px; font-weight: 200;" fill="rgb(33, 33, 33)" stroke="none" stroke-width="1px">20M</text><text x="85.49107142857143" y="0" dx="0em" dy="0.95em" style="text-anchor: middle; visibility: hidden; font-family: Roboto, sans-serif; font-size: 12px; font-weight: 200;" fill="rgb(33, 33, 33)" stroke="none" stroke-width="1px">30M</text><text x="106.86383928571429" y="0" dx="0em" dy="0.95em" style="text-anchor: middle; visibility: inherit; font-family: Roboto, sans-serif; font-size: 12px; font-weight: 200;" fill="rgb(33, 33, 33)" stroke="none" stroke-width="1px">40M</text><text x="128.23660714285714" y="0" dx="0em" dy="0.95em" style="text-anchor: middle; visibility: hidden; font-family: Roboto, sans-serif; font-size: 12px; font-weight: 200;" fill="rgb(33, 33, 33)" stroke="none" stroke-width="1px">50M</text><text x="149.609375" y="0" dx="0em" dy="0.95em" style="text-anchor: middle; visibility: inherit; font-family: Roboto, sans-serif; font-size: 12px; font-weight: 200;" fill="rgb(33, 33, 33)" stroke="none" stroke-width="1px">60M</text><text x="170.98214285714286" y="0" dx="0em" dy="0.95em" style="text-anchor: middle; visibility: hidden; font-family: Roboto, sans-serif; font-size: 12px; font-weight: 200;" fill="rgb(33, 33, 33)" stroke="none" stroke-width="1px">70M</text><text x="192.35491071428572" y="0" dx="0em" dy="0.95em" style="text-anchor: middle; visibility: inherit; font-family: Roboto, sans-serif; font-size: 12px; font-weight: 200;" fill="rgb(33, 33, 33)" stroke="none" stroke-width="1px">80M</text><text x="213.72767857142858" y="0" dx="0em" dy="0.95em" style="text-anchor: middle; visibility: hidden; font-family: Roboto, sans-serif; font-size: 12px; font-weight: 200;" fill="rgb(33, 33, 33)" stroke="none" stroke-width="1px">90M</text><text x="235.10044642857142" y="0" dx="0em" dy="0.95em" style="text-anchor: middle; visibility: inherit; font-family: Roboto, sans-serif; font-size: 12px; font-weight: 200;" fill="rgb(33, 33, 33)" stroke="none" stroke-width="1px">100M</text><text x="256.4732142857143" y="0" dx="0em" dy="0.95em" style="text-anchor: middle; visibility: hidden; font-family: Roboto, sans-serif; font-size: 12px; font-weight: 200;" fill="rgb(33, 33, 33)" stroke="none" stroke-width="1px">110M</text><text x="277.84598214285717" y="0" dx="0em" dy="0.95em" style="text-anchor: middle; visibility: inherit; font-family: Roboto, sans-serif; font-size: 12px; font-weight: 200;" fill="rgb(33, 33, 33)" stroke="none" stroke-width="1px">120M</text><text x="299.21875" y="0" dx="0em" dy="0.95em" style="text-anchor: middle; visibility: hidden; font-family: Roboto, sans-serif; font-size: 12px; font-weight: 200;" fill="rgb(33, 33, 33)" stroke="none" stroke-width="1px">130M</text></g><line x1="0" y1="0" x2="299.21875" y2="0" fill="rgb(0, 0, 0)" stroke="rgb(204, 204, 204)" stroke-width="1px"></line></g></g></g></g></svg>