<svg viewBox="0 0 330 200" xmlns="http://www.w3.org/2000/svg"><g><g><g><g><g><line x1="30.78125" y1="177" x2="25.78125" y2="177" style="visibility: inherit;" fill="rgb(0, 0, 0)" stroke="rgb(204, 204, 204)" stroke-width="1px"></line><line x1="30.78125" y1="164.35714285714286" x2="25.78125" y2="164.35714285714286" style="visibility: inherit;" fill="rgb(0, 0, 0)" stroke="rgb(204, 204, 204)" stroke-width="1px"></line><line x1="30.78125" y1="151.71428571428572" x2="25.78125" y2="151.71428571428572" style="visibility: inherit;" fill="rgb(0, 0, 0)" stroke="rgb(204, 204, 204)" stroke-width="1px"></line><line x1="30.78125" y1="139.07142857142856" x2="25.78125" y2="139.07142857142856" style="visibility: inherit;" fill="rgb(0, 0, 0)" stroke="rgb(204, 204, 204)" stroke-width="1px"></line><line x1="30.78125" y1="126.42857142857143" x2="25.78125" y2="126.42857142857143" style="visibility: inherit;" fill="rgb(0, 0, 0)" stroke="rgb(204, 204, 204)" stroke-width="1px"></line><line x1="30.78125" y1="113.78571428571428" x2="25.78125" y2="113.78571428571428" style="visibility: inherit;" fill="rgb(0, 0, 0)" stroke="rgb(204, 204, 204)" stroke-width="1px"></line><line x1="30.78125" y1="101.14285714285714" x2="25.78125" y2="101.14285714285714" style="visibility: inherit;" fill="rgb(0, 0, 0)" stroke="rgb(204, 204, 204)" stroke-width="1px"></line><line x1="30.78125" y1="88.5" x2="25.78125" y2="88.5" style="visibility: inherit;" fill="rgb(0, 0, 0)" stroke="rgb(204, 204, 204)" stroke-width="1px"></line><line x1="30.78125" y1="75.85714285714286" x2="25.78125" y2="75.85714285714286" style="visibility: inherit;" fill="rgb(0, 0, 0)" stroke="rgb(204, 204, 204)" stroke-width="1px"></line><line x1="30.78125" y1="63.21428571428571" x2="25.78125" y2="63.21428571428571" style="visibility: inherit;" fill="rgb(0, 0, 0)" stroke="rgb(204, 204, 204)" stroke-width="1px"></line><line x1="30.78125" y1="50.57142857142857" x2="25.78125" y2="50.57142857142857" style="visibility: inherit;" fill="rgb(0, 0, 0)" stroke="rgb(204, 204, 204)" stroke-width="1px"></line><line x1="30.78125" y1="37.92857142857143" x2="25.78125" y2="37.92857142857143" style="visibility: inherit;" fill="rgb(0, 0, 0)" stroke="rgb(204, 204, 204)" stroke-width="1px"></line><line x1="30.78125" y1="25.285714285714295" x2="25.78125" y2="25.285714285714295" style="visibility: inherit;" fill="rgb(0, 0, 0)" stroke="rgb(204, 204, 204)" stroke-width="1px"></line><line x1="30.78125" y1="12.642857142857137" x2="25.78125" y2="12.642857142857137" style="visibility: inherit;" fill="rgb(0, 0, 0)" stroke="rgb(204, 204, 204)" stroke-width="1px"></line><line x1="30.78125" y1="0" x2="25.78125" y2="0" style="visibility: inherit;" fill="rgb(0, 0, 0)" stroke="rgb(204, 204, 204)" stroke-width="1px"></line></g><g transform="translate(20.78125, 0)"><text x="0" y="177" dx="0em" dy="0.3em" style="text-anchor: end; visibility: hidden; font-family: Roboto, sans-serif; font-size: 12px; font-weight: 200;" fill="rgb(33, 33, 33)" stroke="none" stroke-width="1px">6</text><text x="0" y="164.35714285714286" dx="0em" dy="0.3em" style="text-anchor: end; visibility: inherit; font-family: Roboto, sans-serif; font-size: 12px; font-weight: 200;" fill="rgb(33, 33, 33)" stroke="none" stroke-width="1px">8</text><text x="0" y="151.71428571428572" dx="0em" dy="0.3em" style="text-anchor: end; visibility: hidden; font-family: Roboto, sans-serif; font-size: 12px; font-weight: 200;" fill="rgb(33, 33, 33)" stroke="none" stroke-width="1px">10</text><text x="0" y="139.07142857142856" dx="0em" dy="0.3em" style="text-anchor: end; visibility: inherit; font-family: Roboto, sans-serif; font-size: 12px; font-weight: 200;" fill="rgb(33, 33, 33)" stroke="none" stroke-width="1px">12</text><text x="0" y="126.42857142857143" dx="0em" dy="0.3em" style="text-anchor: end; visibility: hidden; font-family: Roboto, sans-serif; font-size: 12px; font-weight: 200;" fill="rgb(33, 33, 33)" stroke="none" stroke-width="1px">14</text><text x="0" y="113.78571428571428" dx="0em" dy="0.3em" style="text-anchor: end; visibility: inherit; font-family: Roboto, sans-serif; font-size: 12px; font-weight: 200;" fill="rgb(33, 33, 33)" stroke="none" stroke-width="1px">16</text><text x="0" y="101.14285714285714" dx="0em" dy="0.3em" style="text-anchor: end; visibility: hidden; font-family: Roboto, sans-serif; font-size: 12px; font-weight: 200;" fill="rgb(33, 33, 33)" stroke="none" stroke-width="1px">18</text><text x="0" y="88.5" dx="0em" dy="0.3em" style="text-anchor: end; visibility: inherit; font-family: Roboto, sans-serif; font-size: 12px; font-weight: 200;" fill="rgb(33, 33, 33)" stroke="none" stroke-width="1px">20</text><text x="0" y="75.85714285714286" dx="0em" dy="0.3em" style="text-anchor: end; visibility: hidden; font-family: Roboto, sans-serif; font-size: 12px; font-weight: 200;" fill="rgb(33, 33, 33)" stroke="none" stroke-width="1px">22</text><text x="0" y="63.21428571428571" dx="0em" dy="0.3em" style="text-anchor: end; visibility: inherit; font-family: Roboto, sans-serif; font-size: 12px; font-weight: 200;" fill="rgb(33, 33, 33)" stroke="none" stroke-width="1px">24</text><text x="0" y="50.57142857142857" dx="0em" dy="0.3em" style="text-anchor: end; visibility: hidden; font-family: Roboto, sans-serif; font-size: 12px; font-weight: 200;" fill="rgb(33, 33, 33)" stroke="none" stroke-width="1px">26</text><text x="0" y="37.92857142857143" dx="0em" dy="0.3em" style="text-anchor: end; visibility: inherit; font-family: Roboto, sans-serif; font-size: 12px; font-weight: 200;" fill="rgb(33, 33, 33)" stroke="none" stroke-width="1px">28</text><text x="0" y="25.285714285714295" dx="0em" dy="0.3em" style="text-anchor: end; visibility: hidden; font-family: Roboto, sans-serif; font-size: 12px; font-weight: 200;" fill="rgb(33, 33, 33)" stroke="none" stroke-width="1px">30</text><text x="0" y="12.642857142857137" dx="0em" dy="0.3em" style="text-anchor: end; visibility: inherit; font-family: Roboto, sans-serif; font-size: 12px; font-weight: 200;" fill="rgb(33, 33, 33)" stroke="none" stroke-width="1px">32</text><text x="0" y="0" dx="0em" dy="0.3em" style="text-anchor: end; visibility: hidden; font-family: Roboto, sans-serif; font-size: 12px; font-weight: 200;" fill="rgb(33, 33, 33)" stroke="none" stroke-width="1px">34</text></g><line x1="30.78125" y1="0" x2="30.78125" y2="177" fill="rgb(0, 0, 0)" stroke="rgb(204, 204, 204)" stroke-width="1px"></line></g></g><g transform="translate(30, 0)" clip-path="url(#clip_0)"><clipPath id="clip_0"><rect width="299" height="177"></rect></clipPath><g><g><g><line x1="0" y1="0" x2="0" y2="177" fill="rgb(0, 0, 0)" stroke="rgb(66, 66, 66)" stroke-width="1px" opacity="0.25"></line><line x1="21.372767857142858" y1="0" x2="21.372767857142858" y2="177" fill="rgb(0, 0, 0)" stroke="rgb(66, 66, 66)" stroke-width="1px" opacity="0.25"></line><line x1="42.745535714285715" y1="0" x2="42.745535714285715" y2="177" fill="rgb(0, 0, 0)" stroke="rgb(66, 66, 66)" stroke-width="1px" opacity="0.25"></line><line x1="64.11830357142857" y1="0" x2="64.11830357142857" y2="177" fill="rgb(0, 0, 0)" stroke="rgb(66, 66, 66)" stroke-width="1px" opacity="0.25"></line><line x1="85.49107142857143" y1="0" x2="85.49107142857143" y2="177" fill="rgb(0, 0, 0)" stroke="rgb(66, 66, 66)" stroke-width="1px" opacity="0.25"></line><line x1="106.86383928571429" y1="0" x2="106.86383928571429" y2="177" fill="rgb(0, 0, 0)" stroke="rgb(66, 66, 66)" stroke-width="1px" opacity="0.25"></line><line x1="128.23660714285714" y1="0" x2="128.23660714285714" y2="177" fill="rgb(0, 0, 0)" stroke="rgb(66, 66, 66)" stroke-width="1px" opacity="0.25"></line><line x1="149.609375" y1="0" x2="149.609375" y2="177" fill="rgb(0, 0, 0)" stroke="rgb(66, 66, 66)" stroke-width="1px" opacity="0.25"></line><line x1="170.98214285714286" y1="0" x2="170.98214285714286" y2="177" fill="rgb(0, 0, 0)" stroke="rgb(66, 66, 66)" stroke-width="1px" opacity="0.25"></line><line x1="192.35491071428572" y1="0" x2="192.35491071428572" y2="177" fill="rgb(0, 0, 0)" stroke="rgb(66, 66, 66)" stroke-width="1px" opacity="0.25"></line><line x1="213.72767857142858" y1="0" x2="213.72767857142858" y2="177" fill="rgb(0, 0, 0)" stroke="rgb(66, 66, 66)" stroke-width="1px" opacity="0.25"></line><line x1="235.10044642857142" y1="0" x2="235.10044642857142" y2="177" fill="rgb(0, 0, 0)" stroke="rgb(66, 66, 66)" stroke-width="1px" opacity="0.25"></line><line x1="256.4732142857143" y1="0" x2="256.4732142857143" y2="177" fill="rgb(0, 0, 0)" stroke="rgb(66, 66, 66)" stroke-width="1px" opacity="0.25"></line><line x1="277.84598214285717" y1="0" x2="277.84598214285717" y2="177" fill="rgb(0, 0, 0)" stroke="rgb(66, 66, 66)" stroke-width="1px" opacity="0.25"></line><line x1="299.21875" y1="0" x2="299.21875" y2="177" fill="rgb(0, 0, 0)" stroke="rgb(66, 66, 66)" stroke-width="1px" opacity="0.25"></line></g><g><line x1="0" y1="177" x2="299.21875" y2="177" fill="rgb(0, 0, 0)" stroke="rgb(66, 66, 66)" stroke-width="1px" opacity="0.25"></line><line x1="0" y1="164.35714285714286" x2="299.21875" y2="164.35714285714286" fill="rgb(0, 0, 0)" stroke="rgb(66, 66, 66)" stroke-width="1px" opacity="0.25"></line><line x1="0" y1="151.71428571428572" x2="299.21875" y2="151.71428571428572" fill="rgb(0, 0, 0)" stroke="rgb(66, 66, 66)" stroke-width="1px" opacity="0.25"></line><line x1="0" y1="139.07142857142856" x2="299.21875" y2="139.07142857142856" fill="rgb(0, 0, 0)" stroke="rgb(66, 66, 66)" stroke-width="1px" opacity="0.25"></line><line x1="0" y1="126.42857142857143" x2="299.21875" y2="126.42857142857143" fill="rgb(0, 0, 0)" stroke="rgb(66, 66, 66)" stroke-width="1px" opacity="0.25"></line><line x1="0" y1="113.78571428571428" x2="299.21875" y2="113.78571428571428" fill="rgb(0, 0, 0)" stroke="rgb(66, 66, 66)" stroke-width="1px" opacity="0.25"></line><line x1="0" y1="101.14285714285714" x2="299.21875" y2="101.14285714285714" fill="rgb(0, 0, 0)" stroke="rgb(66, 66, 66)" stroke-width="1px" opacity="0.25"></line><line x1="0" y1="88.5" x2="299.21875" y2="88.5" fill="rgb(0, 0, 0)" stroke="rgb(66, 66, 66)" stroke-width="1px" opacity="0.25"></line><line x1="0" y1="75.85714285714286" x2="299.21875" y2="75.85714285714286" fill="rgb(0, 0, 0)" stroke="rgb(66, 66, 66)" stroke-width="1px" opacity="0.25"></line><line x1="0" y1="63.21428571428571" x2="299.21875" y2="63.21428571428571" fill="rgb(0, 0, 0)" stroke="rgb(66, 66, 66)" stroke-width="1px" opacity="0.25"></line><line x1="0" y1="50.57142857142857" x2="299.21875" y2="50.57142857142857" fill="rgb(0, 0, 0)" stroke="rgb(66, 66, 66)" stroke-width="1px" opacity="0.25"></line><line x1="0" y1="37.92857142857143" x2="299.21875" y2="37.92857142857143" fill="rgb(0, 0, 0)" stroke="rgb(66, 66, 66)" stroke-width="1px" opacity="0.25"></line><line x1="0" y1="25.285714285714295" x2="299.21875" y2="25.285714285714295" fill="rgb(0, 0, 0)" stroke="rgb(66, 66, 66)" stroke-width="1px" opacity="0.25"></line><line x1="0" y1="12.642857142857137" x2="299.21875" y2="12.642857142857137" fill="rgb(0, 0, 0)" stroke="rgb(66, 66, 66)" stroke-width="1px" opacity="0.25"></line><line x1="0" y1="0" x2="299.21875" y2="0" fill="rgb(0, 0, 0)" stroke="rgb(66, 66, 66)" stroke-width="1px" opacity="0.25"></line></g></g></g><g><g><line x1="0" y1="214.92857142857142" x2="299.21875" y2="214.92857142857142" fill="rgb(0, 0, 0)" stroke="rgb(153, 153, 153)" stroke-width="1.5px"></line></g></g><g><g><line x1="21.372767857142858" y1="0" x2="21.372767857142858" y2="177" fill="rgb(0, 0, 0)" stroke="rgb(153, 153, 153)" stroke-width="1.5px"></line></g></g><g><g><g><g><g><path stroke="rgb(0, 119, 187)" stroke-width="2px" d="M21.63539642857143,8.420147487095418L22.07311071428571,38.88656667244153L22.116882142857143,49.136719481339156L22.24819642857143,61.631314881641444L22.598367857142858,80.67065980633294L22.642139285714283,94.97820527586768L23.211167857142858,109.75127538502755L23.517567857142858,119.89798976070514L23.561339285714286,126.01335644821252L23.60511071428571,128.7641395400809L24.174139285714283,129.6387350173851L24.217910714285715,131.61674532949147L24.39299642857143,136.87740878273718L24.524310714285715,141.21172242370562L24.56808214285714,142.04495126142928L24.830710714285715,143.74735584684248L25.049567857142858,139.58506744684186L25.355967857142858,138.76411431877082L25.793682142857143,139.6281250930411L25.968767857142854,142.92411144322278L26.143853571428572,142.17269258829407L26.756653571428572,141.22652141215832L26.931739285714283,140.82378051548463L26.975510714285715,141.9116240268322L27.063053571428572,144.090445731701L27.15059642857143,144.60402007588496L27.413225,141.9750378819864L27.763396428571426,142.88544159819114L27.850939285714286,141.0137216860893L27.894710714285715,141.39425243832332L28.026025,141.09797850610636L28.332424999999997,140.2444044348217L28.463739285714283,141.82058831488138L28.551282142857143,142.3824770425548L28.638825,144.23496729946802L28.98899642857143,145.54374678544352L29.207853571428572,145.85423714392854L29.514253571428572,146.1700880733819L29.820653571428572,146.20067058471457L29.864424999999997,147.3692556531593L30.345910714285715,148.80461391226387L30.433453571428572,150.35757493023902L30.783625,150.50382418487064L31.483967857142858,151.1483157341819L32.14053928571429,150.75697989168776L32.184310714285715,150.75796345272764L32.75333928571428,150.02305404942652L32.797110714285715,149.7266259568069L33.32236785714286,150.46712257796884L33.45368214285714,150.60992778724784L33.803853571428576,150.44261273184048L33.93516785714286,149.97547090242708L34.06648214285715,149.9329077042573L34.154025,149.8937527782418L34.372882142857144,150.8221190660286L34.460425,151.68535864017258L34.94191071428571,152.54294410274622L35.116996428571426,153.1333075438587L35.29208214285715,152.32003415318582L35.379625,152.42616660059423L35.42339642857143,153.06295303158524L35.55471071428571,153.1701807704496L36.56145357142857,153.6037862830994L36.605225,153.20966479358876L37.13048214285715,153.63230437328838L37.39311071428572,152.25830712384797L37.436882142857144,151.94089909175187L37.48065357142857,152.37082353836317L38.00591071428571,151.9874587536242L38.35608214285714,152.10126467945835L38.531167857142854,152.63409511578143L38.61871071428571,152.08467577245665L38.83756785714286,152.25135013194975L39.056425000000004,152.20752810601593L39.143967857142854,151.62102383019516L39.62545357142857,151.45436594366967L39.888082142857144,150.79016164185919L39.93185357142857,150.58622034530455L40.54465357142857,150.68867163055072L40.588424999999994,150.8866244387782L40.67596785714286,151.66751579031086L40.98236785714286,151.66510882368368L41.24499642857143,151.84594286502042L41.63893928571429,152.4042358266323L41.814025,152.57612004687698L41.94533928571428,153.06163365362514L42.03288214285715,153.54821974402503L42.207967857142854,153.4175354841767L42.25173928571428,153.5163413081934L42.470596428571426,152.91720312665748L42.51436785714286,153.1475485166407L42.77699642857143,152.91824323032975L43.78373928571429,152.88813256099212L43.87128214285714,152.3938558613841L43.91505357142857,151.89326259176536L43.958825,151.34993586310046L44.09013928571429,150.9927396066268L44.177682142857144,151.28691044050854L44.79048214285714,150.92801794845738L44.834253571428576,150.6143656548883L44.921796428571426,150.16219156564568L45.00933928571428,150.05984824009747L45.09688214285715,150.35904059446878L45.271967857142855,150.70881667542494L45.35951071428572,151.223561945568L45.534596428571426,151.7703503310529L45.62213928571428,151.89704843960095L45.797225,151.92758551822635L46.05985357142857,152.0942483247195L46.147396428571426,151.99448631728663L46.32248214285714,152.3250480255209L47.022825,151.85951655334136L47.28545357142857,151.46024431613188L47.46053928571428,151.17235152678336L47.54808214285714,151.4366051294423L48.29219642857143,151.58817806658195L48.335967857142855,151.15556183373192L48.68613928571428,150.8134363100336L48.729910714285715,151.01609656676155L48.948767857142855,150.89279721580922L48.99253928571429,151.0348146849985L49.342710714285715,151.07653007658922L49.60533928571429,150.93517486919788L49.64911071428571,151.1762369338476L49.86796785714286,151.03078325716004L50.26191071428571,151.4190452923526L50.34945357142857,151.71333498721154L50.65585357142857,151.9408226660024L51.006025,151.95932612595112L51.049796428571426,152.03964515364544L51.399967857142855,152.03950619446246L51.75013928571429,152.24356485747649L51.83768214285715,152.36469952638814L52.538025,151.95177720451187L53.019510714285715,151.93762477847432L53.107053571428565,152.10998480204861L53.19459642857143,152.34829959072684L53.32591071428571,152.5144536983568L53.457225,152.3810907707724L53.50099642857143,152.2179955546515L54.026253571428576,151.86696610452927L54.90168214285714,151.50018135316165L55.38316785714286,151.39084232720725L55.42693928571429,151.43753955565188L55.68956785714286,151.76976277620133L55.95219642857143,151.7833131824905L56.65253928571428,152.07792305719897L56.69631071428571,151.95618020067548L56.78385357142857,151.62085222729095L56.915167857142855,151.42644225817182L57.309110714285715,151.42959760748658L57.87813928571429,151.6329031979526L58.22831071428572,151.85822578340003L58.359624999999994,151.72667618856826L58.972425,151.71594308103545L59.19128214285714,152.13879693574518L59.366367857142855,152.40782386884453L59.585225,152.4673413116842L60.241796428571426,151.97619898938612L60.63573928571429,152.07557622873634L60.723282142857144,151.8214675578161L60.89836785714285,151.26428097251113L61.20476785714286,151.27230028380728L62.16773928571428,151.6678860663233L62.25528214285714,151.93387548129957L62.692996428571426,152.32123616988304L62.99939642857143,152.5259083701241L63.61219642857143,152.61491218009263L64.3125392857143,152.84705804569467L64.44385357142858,153.13982865694376L64.88156785714285,152.98658276175698L64.96911071428572,152.5393102316988L65.18796785714285,152.73835882716136L65.31928214285713,152.52385427913572L65.406825,152.22166837191682L65.88831071428571,152.0135202595661L66.19471071428572,151.89754796113442L66.36979642857143,151.82489690984397L66.45733928571428,151.54995059294097L66.85128214285714,151.3611685628247L67.68293928571428,151.5760290795378L68.29573928571429,151.66831697606452L68.33951071428571,151.75173606454382L68.42705357142857,151.79648010749577L68.60213928571429,151.60799658737506L68.99608214285715,151.80653451404748L69.52133928571429,151.66314268355947L69.696425,151.67867130144393L69.78396785714285,151.51962593144285L69.91528214285714,151.51894194937788L70.002825,151.4094499615793L70.09036785714287,151.5646826557962L70.52808214285714,151.32789912764994L70.70316785714286,151.4454495853102L70.74693928571429,151.4783483250327L71.00956785714286,151.21755584880663L71.09711071428572,151.2810066734957L71.31596785714285,151.20121129651568L71.62236785714286,151.26630439531527L71.841225,151.41152475286245L71.88499642857143,151.38534282511756L72.41025357142857,151.52724118511395L72.84796785714285,151.4135556092725L72.93551071428571,151.52112997234426L72.97928214285714,151.60042543956916L73.28568214285714,151.72339562076587L73.50453928571429,151.7706127587434L73.679625,151.87699277061026L73.72339642857143,151.8712952606733L74.24865357142858,151.81325767307138L74.598825,151.84886327168337L74.7739107142857,151.85011770815353L74.99276785714285,151.91612460530794L75.08031071428572,152.01154726299006L75.91196785714286,152.0256815687049L75.99951071428572,152.02748283078785L76.21836785714285,152.19997788041493L76.26213928571428,152.24704607391834L76.34968214285715,152.32889983848634L76.48099642857143,152.31580752458297L76.65608214285714,152.17715710723294L76.91871071428572,152.1724178225873L77.09379642857144,152.3108742998271L77.31265357142857,152.44517571658534L77.57528214285715,152.67166789522483L77.70659642857143,152.81467555398072L77.92545357142856,152.82531661910934L78.05676785714286,152.78866610304908L78.275625,152.79573451435218L78.4507107142857,152.73142618416293L78.62579642857143,152.9096963771335L79.01973928571428,152.89717944949487L79.32613928571429,152.90254217295643L79.45745357142857,152.77033181100984L79.50122499999999,152.9023904847939L79.89516785714285,153.05022997083447L80.33288214285714,152.92150769753488L80.98945357142857,152.9469104713654L81.16453928571428,153.22342635003022L81.646025,152.82387718193786L81.68979642857143,152.73955915790927L81.86488214285714,152.57777878021577L82.43391071428572,152.46875856556517L83.48442499999999,152.6287556330942L84.31608214285714,152.77534079556122L84.403625,153.0446322824916L84.44739642857142,153.22032329268194L84.88511071428572,153.4857676530993L85.23528214285714,153.59950741683824L85.27905357142858,153.8074687310264L85.41036785714286,153.9712259252183L85.97939642857143,153.95839356915766L86.06693928571428,154.19334554373327L86.548425,154.31690591843065L86.67973928571428,154.48597186348348L86.85482499999999,154.38829356533034L87.02991071428572,154.4935592893098L87.20499642857143,154.52767862651777L87.51139642857143,154.72984122830297L87.55516785714286,154.81579746151982L87.68648214285714,154.87820835842658L87.81779642857143,155.12283684686807L88.34305357142857,155.24826323087777L88.60568214285715,155.18870967683156L88.78076785714286,155.0087820058916L89.21848214285714,154.79973050056367L89.34979642857142,154.6941588547044L89.96259642857143,154.77110511642945L90.09391071428571,154.74807291865378L90.31276785714286,154.9629761775588L90.44408214285714,154.96922923852244L90.838025,154.900664966811L91.31951071428571,155.06950590975364L91.53836785714286,155.01780530163228L91.62591071428571,155.0888381259222L92.676425,155.15709738983134L93.02659642857144,155.1142548080636L93.11413928571429,155.08304713490926L93.24545357142857,154.84335325592994L93.50808214285713,154.62026786923664L93.55185357142858,154.74418673542772L93.85825357142858,154.84123516445283L94.208425,154.8018679784585L94.38351071428572,154.77345764470277L94.55859642857142,154.87789915198874L94.86499642857143,154.8726127634877L94.95253928571428,154.86765847326126L95.21516785714286,155.07094818663808L95.6091107142857,154.98733565344855L95.95928214285715,155.17956768472158L96.046825,155.14293801697903L96.17813928571428,155.25326660733373L96.30945357142856,155.43345067814246L96.35322500000001,155.45774707099883L96.65962499999999,155.6323099872352L96.8347107142857,155.61005679648574L96.87848214285715,155.66876506762682L97.18488214285715,155.61220120204453L97.57882500000001,155.71343182369588L97.75391071428571,155.660592302336L97.84145357142857,155.68798525486616L98.23539642857143,155.84840206984362L98.71688214285714,156.0354369876445L99.15459642857144,156.07526807605842L99.24213928571429,156.09242113574825L99.54853928571428,156.23060905506807L99.76739642857143,156.39539488483214L99.89871071428571,156.52227997894784L100.24888214285716,156.11857594172716L101.08053928571428,156.19344028458957L101.562025,156.07567127113512L101.91219642857143,156.07382282701803L102.30613928571428,155.88735332880054L102.48122500000001,155.6127224328315L102.87516785714286,155.6733913155808L103.094025,155.77451010437065L103.13779642857143,155.92992015408038L103.18156785714287,155.97166778475963L103.88191071428571,155.84365379675677L104.10076785714287,155.97542860153024L104.58225357142857,156.0974541550358L104.71356785714286,156.09478036414785L104.97619642857143,156.07808554545323L105.01996785714286,156.05963760925283L105.19505357142856,156.21252675148324L105.41391071428572,156.37766946722226L105.67653928571428,156.5738579490964L105.7203107142857,156.76687108612748L106.20179642857143,156.8900317339428L106.37688214285716,157.09007139454982L106.42065357142857,157.20418159189597L106.59573928571429,157.39928919887188L106.68328214285714,157.50492091979413L107.077225,157.7011857719684L107.25231071428571,157.73950716237937L107.29608214285714,157.83174819105122L107.383625,157.9168897957697L107.42739642857143,158.08860955946795L107.51493928571429,157.8866818780647L107.996425,157.95575790837782L108.08396785714287,158.00566207577208L108.43413928571428,158.132508440783L108.47791071428571,158.2916969190833L108.60922500000001,158.44302328661033L110.14122499999999,158.61876905782444L111.060425,158.76378393943747L111.41059642857144,158.73155194500444L111.93585357142858,158.63687206309683L112.06716785714286,158.80213034448153L112.46111071428572,158.92172512218954L112.89882499999999,158.90596317269598L113.24899642857143,158.94474857816252L113.38031071428571,158.9870309252194L113.511625,159.02181377985104L113.77425357142857,159.1762798036266L113.9931107142857,159.24208131592835L114.03688214285714,158.9890305291228L114.21196785714287,158.7959659214644L114.25573928571428,158.91787068616628L114.56213928571428,158.71759127118688L114.95608214285714,158.6868204702549L115.08739642857142,158.64067871464835L115.96282500000001,158.70254394200657L116.40053928571429,158.79256230424355L117.188425,158.97005030390966L117.494825,159.09379799385752L117.801225,159.214258662485L118.15139642857143,159.30685829050464L118.23893928571428,159.44183751105464L118.414025,159.42453502129666L118.67665357142857,159.5432260357514L118.85173928571429,159.59499995773464L119.333225,159.76772556731225L119.46453928571428,159.9402402909543L119.68339642857144,159.87366774341427L120.252425,159.82930988715125L121.30293928571427,159.93551789691497L122.13459642857143,159.97601664829162L122.35345357142856,159.79319116207287L122.39722499999999,159.891511362255L122.83493928571428,159.82181398685324L122.96625357142857,159.90965124829484L123.18511071428571,159.9175719652524L123.53528214285714,160.01465830397888L123.97299642857142,160.0369515481045L124.41071071428571,160.1196416194836L124.71711071428572,160.1842615745604L125.32991071428572,160.1702952634826L126.03025357142857,160.22918263788142L126.20533928571427,160.38545709557795L126.2491107142857,160.44395448444718L126.380425,160.59005932998613L126.42419642857143,160.53689158342348L127.73733928571428,160.64818729984168L127.86865357142857,160.7736076804429L128.04373928571428,160.79567275951715L128.0875107142857,160.7549158092128L128.30636785714285,160.7841193368344L128.87539642857143,160.92105551259033L129.22556785714286,161.07308405580505L129.35688214285713,161.2261923418695L130.23231071428572,161.27573777622828L130.58248214285715,161.4192259808761L130.8013392857143,161.55419401537998L130.88888214285714,161.60894863253066L131.02019642857144,161.63934938807057L131.10773928571427,161.65619491115666L131.1515107142857,161.64624579418356L131.63299642857143,161.68769395693877L131.67676785714286,161.80570670431524L131.7205392857143,161.92895720283002L131.80808214285713,162.06344555903118L131.895625,162.11474373226582L132.11448214285716,162.10714146726954L132.202025,162.24225781582356L132.55219642857142,162.35802411669317L133.734025,162.46676840296496L133.77779642857143,162.42984556877943L134.25928214285716,162.33131340685634L134.30305357142856,162.37656283479652L134.74076785714286,162.4367834889171L134.7845392857143,162.4821795888356L134.91585357142858,162.59593996838151L135.22225357142858,162.7183687749358L135.52865357142858,162.86182585566965L136.09768214285714,162.95866675074856L136.44785357142857,163.04625085784608L136.491625,163.13086813149812L136.798025,163.09595396200157L136.9293392857143,163.12233043246937L136.97311071428572,163.20582960889305L137.01688214285716,163.31346330710295L137.14819642857142,163.372971000196L137.97985357142858,163.3581517028302L138.330025,163.3079490716653L138.37379642857144,163.4048206815036L138.5051107142857,163.3973070123001L138.8115107142857,163.4249696572655L138.942825,163.39646855130377L139.03036785714286,163.50991247115266L139.16168214285716,163.5287614991593L139.33676785714286,163.59987031836326L139.73071071428572,163.68326102595574L139.99333928571428,163.7438666436753L140.21219642857145,163.76699323571663L140.38728214285715,163.78339678331642L140.474825,163.80060300745646L140.9125392857143,163.76996584252134L140.9563107142857,163.8397786289733L141.13139642857143,163.80146017327706L141.35025357142857,163.67717792879347L141.394025,163.572132090667L141.43779642857143,163.55012697220678L141.56911071428573,163.49619664932206L141.9630535714286,163.56920260769883L142.006825,163.58532557226707L142.05059642857142,163.47202682147238L142.26945357142856,163.4501820711789L142.48831071428572,163.45078161316428L142.619625,163.3751760561963L142.75093928571428,163.4517639390772L142.83848214285715,163.42759259665948L142.92602499999998,163.4997082676617L143.05733928571428,163.54880370788354L143.36373928571427,163.537564400639L143.88899642857143,163.53474125668913L143.97653928571427,163.56738593713158L144.54556785714286,163.55108793507844L144.5893392857143,163.65689051595803L145.07082499999999,163.69899284314872L145.50853928571428,163.65488449020464L145.683625,163.70520880182517L145.94625357142857,163.67556986693992L146.25265357142857,163.7180968283899L146.296425,163.62147984037415L146.69036785714286,163.51220207966801L146.7341392857143,163.5617080730296L147.56579642857145,163.51893647982376L147.60956785714285,163.62025952740774L148.0035107142857,163.6466642910946L148.09105357142857,163.65656917125642L148.17859642857144,163.59966548451825L148.52876785714284,163.5757876800589L148.8789392857143,163.5246266958555L149.054025,163.63882598082566L149.1853392857143,163.5953297401146L149.27288214285716,163.59609407511866L149.31665357142856,163.64399809654495L149.44796785714286,163.63884174919727L149.71059642857142,163.60278769629926L149.88568214285715,163.6400063646839L149.92945357142858,163.6377349079194L150.54225357142857,163.62854072676046L150.67356785714287,163.71909268087398L150.80488214285714,163.6981383215309L151.11128214285714,163.64287330705986L151.24259642857143,163.68247406214778L151.3301392857143,163.64102463029266L151.59276785714286,163.6457378039363L151.81162500000002,163.63727162405957L152.07425357142859,163.63599723260515L152.16179642857142,163.47061930632887L152.5995107142857,163.52268507888792L152.730825,163.54495933057424L152.8621392857143,163.48883103440127L153.2123107142857,163.43857829806066L153.60625357142857,163.30633042150976L154.04396785714286,163.168415582441L154.262825,163.11323028260313L154.83185357142858,163.0543881380697L155.6635107142857,162.86274504208228L155.794825,162.66599307043032L156.407625,162.6154717541504L156.45139642857143,162.5299612077525L156.714025,162.45886014581382L156.97665357142856,162.34829667692344L157.28305357142855,162.36412181012906L157.326825,162.41379092601494L157.37059642857142,162.36741843842503L157.45813928571428,162.34796634752465L157.63322499999998,162.3138046292071L157.80831071428574,162.27229954425712L157.98339642857144,162.33068134209194L158.02716785714284,162.39895167286818L158.0709392857143,162.40330926150438L158.28979642857144,162.34094926085393L158.3773392857143,162.3270722495105L158.81505357142856,162.32491742745128L159.1214535714286,162.1821085649891L160.34705357142857,162.2017487830735L160.56591071428574,162.2207026930827L160.95985357142857,162.28772635887415L161.09116785714286,162.3454234305153L161.1787107142857,162.3512228879857L161.48511071428572,162.38039350492303L161.70396785714286,162.40952047898722L162.05413928571429,162.5083663160596L162.22922499999999,162.5050762257849L162.27299642857145,162.43666529484852L162.4043107142857,162.44031471724676L162.49185357142855,162.32556188632114L162.79825357142857,162.2602136061808L163.14842499999997,162.17031427402304L163.32351071428573,162.20009870037188L163.4110535714286,162.12482904399147L164.37402500000002,162.02765333374936L164.50533928571429,161.88190095436144L165.81848214285714,161.8990515081373L166.1686535714286,161.98249609522134L167.65688214285714,162.00421930062353L167.8757392857143,161.91420231860707L168.357225,161.8642898634259L168.75116785714283,161.91323912753134L168.970025,161.93096047793028L169.05756785714286,161.9332304048976L169.1451107142857,161.93231610074014L169.276425,161.98659456841398L169.36396785714285,162.03954456544153L169.582825,162.07871610919514L169.62659642857142,162.07353376318153L169.97676785714287,162.04560687555448L170.02053928571428,162.09934762112894L170.45825357142854,162.1567011832594L170.6333392857143,162.12773270268863L171.07105357142856,161.97243692793336L171.2461392857143,161.98524846411715L171.421225,161.9976574332474L171.77139642857145,161.95387035535157L171.99025357142855,161.90131863935767L172.64682499999998,161.92334640679215L172.69059642857144,161.95943613847246L172.953225,161.99520570538493L173.259625,161.9784161313134L173.4347107142857,162.0474556161235L173.87242500000002,162.01380942904447L173.91619642857142,161.98263513641362L173.95996785714286,161.97386883824097L174.0037392857143,161.96615161834004L174.26636785714285,161.9543368346762L174.3539107142857,161.99957514006084L174.48522499999999,161.93173745846184L174.61653928571428,161.97009656793674L174.6603107142857,161.96710672795953L174.791625,161.93502639010885L175.2731107142857,161.7969593153109L175.53573928571427,161.85232625994192L175.79836785714284,161.88792491587378L176.1923107142857,161.8478747016169L176.23608214285716,161.7554951407779L176.45493928571426,161.7587656858555L176.58625357142859,161.68230561483972L176.84888214285712,161.5436044887212L177.02396785714285,161.48634130169364L177.19905357142858,161.4555181095639L177.549225,161.44644521919906L177.68053928571427,161.53707002061947L177.94316785714287,161.43868869668438L177.98693928571427,161.4479849320565L178.33711071428573,161.46281995808062L178.468425,161.32640112032033L178.51219642857143,161.36133583168504L179.03745357142856,161.309276864623L179.60648214285715,161.322150363017L179.65025357142858,161.34250640328798L179.69402499999998,161.33549055032736L179.73779642857144,161.36336265933807L180.3505964285714,161.37655200392405L181.4011107142857,161.41105172549862L181.532425,161.47365406974325L181.61996785714285,161.52998413709068L181.70751071428572,161.5333184311532L181.838825,161.50225097240863L182.01391071428571,161.47169310745386L182.145225,161.49136867143508L182.18899642857141,161.46757881294232L182.97688214285716,161.57067584415347L183.41459642857143,161.58281631992605L183.72099642857142,161.62427223306847L183.89608214285715,161.62664410391935L183.93985357142859,161.69048375147403L184.15871071428572,161.70440291334108L184.20248214285715,161.80448463696956L184.33379642857142,161.79665509669343L184.81528214285714,161.86761015092074L184.85905357142857,161.88252754611858L185.3843107142857,161.9041225898829L185.42808214285714,161.92215029783605L185.515625,161.8447632463388L185.55939642857143,161.8993454125629L185.6907107142857,161.98299560356978L185.73448214285716,162.05532635033876L185.77825357142856,161.98757783701294L186.08465357142856,162.04240605053167L186.17219642857143,162.10164817322988L186.91631071428571,162.14164895589005L186.96008214285715,162.15641673046747L187.00385357142855,162.15966672929613L187.047625,162.16690613874954L187.2227107142857,162.2535869444607L187.354025,162.30704549544072L188.01059642857143,162.36743145388607L188.0981392857143,162.43537104370736L188.36076785714286,162.46347090770274L188.62339642857143,162.52610595909718L188.79848214285713,162.5693180129496L189.49882499999998,162.6173107259966L189.89276785714287,162.67920648088003L189.9803107142857,162.7699393529682L190.06785357142857,162.81697234828988L190.28671071428573,162.8045396504957L190.41802499999997,162.81656451951517L190.81196785714286,162.87658989857795L190.94328214285716,162.94965857563128L191.07459642857145,162.98505891145925L192.256425,162.95829903753807L192.51905357142857,162.9135507966335L192.65036785714287,162.92958749846338L192.82545357142857,162.96927332477742L193.08808214285713,163.0346386898444L193.21939642857143,163.0586634057705L193.3069392857143,163.12573406334315L193.52579642857143,163.2071308805856L193.6133392857143,163.27334929457112L193.74465357142856,163.34508225503703L194.48876785714288,163.30748184023082L194.66385357142858,163.3510467918418L195.014025,163.35432446326485L195.05779642857144,163.38562048339094L195.45173928571427,163.45967887848062L195.71436785714286,163.4566742820987L195.75813928571426,163.37624747066806L195.80191071428573,163.44350257030695L195.933225,163.4824029274887L196.1958535714286,163.4554675775917L196.4147107142857,163.49183678072527L196.54602500000001,163.35000883961285L196.89619642857141,163.3764922437643L197.07128214285711,163.4463974668727L197.158825,163.38805427945795L197.55276785714284,163.44634529206851L197.771625,163.51363521785524L198.03425357142856,163.5522216371384L198.29688214285716,163.62969335516294L198.60328214285713,163.6892974117688L199.39116785714285,163.69232670670263L199.4349392857143,163.68203617295163L200.09151071428573,163.7323269712567L200.13528214285714,163.80367505237533L200.222825,163.87026768981144L200.3979107142857,163.89712305750683L200.57299642857143,163.9732430702714L201.31711071428572,164.02689769270904L201.57973928571428,164.06621582532293L201.84236785714285,164.1262115541623L201.97368214285714,164.13134690510034L202.76156785714286,164.10352355749504L202.9366535714286,164.1444562039517L203.24305357142856,164.15789341488968L203.37436785714286,164.2187355667947L203.85585357142858,164.200882850096L204.29356785714285,164.25909920349824L204.33733928571428,164.26607702341892L204.46865357142858,164.22927511591885L204.9501392857143,164.25980342929086L205.60671071428573,164.28417319758654L205.65048214285713,164.29940469574703L206.21951071428572,164.3385160168546L206.48213928571428,164.34971098844096L206.56968214285712,164.41516085109282L206.61345357142858,164.43985714502327L206.87608214285714,164.406921536349L207.31379642857144,164.45425975139827L207.4451107142857,164.503590036964L207.53265357142857,164.50426855809076L207.576425,164.46178966279192L207.6201964285714,164.47697298344966L207.79528214285716,164.496433904242L208.23299642857143,164.4831963769029L208.2767678571429,164.5378161045134L208.802025,164.47152602345994L208.84579642857145,164.4928874339997L209.58991071428574,164.46279498835423L210.07139642857143,164.43126382127082L210.46533928571426,164.46821507305665L210.68419642857143,164.4493787673758L210.9030535714286,164.42697733079487L211.16568214285715,164.4786242934801L211.559625,164.47341942035877L211.9097964285714,164.4895208989166L212.30373928571427,164.48374504289183L212.785225,164.4580866250311L213.00408214285716,164.4311901244456L213.13539642857143,164.4664116254087L213.17916785714286,164.52218337049382L213.48556785714285,164.463180949219L213.83573928571428,164.50705480143125L214.1859107142857,164.43126679667085L214.36099642857144,164.3837806506297L214.4923107142857,164.43770061066905L214.623625,164.47694929981617L214.6673964285714,164.47724136674591L215.01756785714286,164.50730517577244L215.10511071428573,164.58967787682113L215.58659642857145,164.6314133083008L215.93676785714285,164.66674216736914L216.41825357142858,164.66051392037454L216.59333928571428,164.64818295810838L216.9435107142857,164.63055612426288L217.9502535714286,164.66707018760957L218.21288214285715,164.68889784505893L218.38796785714285,164.72065637534982L219.04453928571428,164.7585163044622L219.30716785714284,164.77224899959697L219.43848214285714,164.69242437335453L219.526025,164.71556059100314L219.832425,164.69514084012738L219.9637392857143,164.73622096465286L220.138825,164.66589789582522L220.31391071428573,164.69367250959203L220.35768214285713,164.7504470943591L220.40145357142856,164.78048768646448L220.48899642857143,164.80186998961474L221.058025,164.79287956066847L221.14556785714285,164.81817213496967L221.23311071428571,164.89091133166957L221.40819642857142,164.90357091181957L221.5395107142857,164.96067060776016L221.58328214285717,164.94621082777155L221.670825,164.95930428684645L222.02099642857144,164.92369623412122L222.4587107142857,164.865454524417L223.07151071428572,164.88281279624948L223.202825,164.91757851671142L223.3341392857143,164.91296457541816L223.9469392857143,164.8926972652062L224.07825357142858,164.9057540469841L224.734825,164.94356255723065L224.95368214285713,164.98728599743524L224.9974535714286,164.9968522191001L225.1725392857143,165.00449497617268L225.347625,164.98875966749134L225.39139642857143,165.00441600276832L225.43516785714286,165.06281934255944L225.52271071428572,165.03178370615373L225.74156785714285,165.065863758888L225.7853392857143,165.10731305747888L225.82911071428572,165.13080457569885L226.22305357142858,165.17838934661515L226.573225,165.22654988524997L226.7483107142857,165.20267016772632L226.83585357142857,165.2576295075961L227.09848214285714,165.2168714165482L227.44865357142857,165.15715855859048L227.492425,165.16625978528933L227.7550535714286,165.1089545762538L227.88636785714286,165.06786817526935L228.23653928571426,165.0560052252673L228.49916785714288,164.8989792683086L228.63048214285712,164.8102321092495L228.67425357142858,164.73957992916874L228.80556785714288,164.76733035789448L228.93688214285714,164.8171816352873L229.06819642857144,164.82381183604863L229.59345357142857,164.84453648759992L229.76853928571427,164.88678973013566L230.0749392857143,164.8917496261459L230.33756785714286,164.91632996484762L230.5126535714286,164.8274492727744L230.556425,164.74970937703503L230.6877392857143,164.76170463983004L230.73151071428572,164.7952635502815L231.03791071428572,164.81534539185148L231.12545357142858,164.7470772392175L231.21299642857142,164.7512328533226L231.47562499999998,164.68234495052099L231.73825357142857,164.69641802039146L231.86956785714284,164.6521760207702L232.00088214285714,164.63923451468767L232.088425,164.57330003810006L232.17596785714287,164.59033861452698L232.87631071428572,164.5046848824955L232.9638535714286,164.49395043272656L233.05139642857142,164.53583827950206L233.09516785714285,164.4771062077479L233.1389392857143,164.5069656779056L233.44533928571428,164.5197829377265L233.48911071428572,164.4418310455816L234.27699642857144,164.441410118592L234.40831071428573,164.37229716579395L235.15242500000002,164.30286395083968L235.72145357142858,164.32872906963598L236.29048214285714,164.29855112464315L236.378025,164.30591723538626L237.03459642857143,164.30303312436408L237.20968214285713,164.28346415120038L237.38476785714286,164.30390030103806L237.69116785714286,164.35901540229227L237.86625357142856,164.3668223914883L238.08511071428572,164.33107840849374L239.35448214285717,164.32972656290903L239.442025,164.3096963694168L239.8797392857143,164.28943376004477L239.92351071428573,164.29827211470425L240.93025357142858,164.35263242611566L241.32419642857144,164.3574275161993L242.37471071428573,164.38794779304416L242.89996785714285,164.43246913609426L242.98751071428572,164.402566230824L243.20636785714285,164.38715112572916L243.64408214285714,164.38242393176392L243.77539642857144,164.39358937548937L243.81916785714287,164.45803089655521L244.1693392857143,164.51343295771414L244.25688214285714,164.5342764005425L244.4757392857143,164.54563620936733L244.73836785714286,164.5992136901757L244.82591071428573,164.64374271155046L245.65756785714285,164.67209952122207L246.09528214285714,164.68782887284053L246.27036785714287,164.71751929608428L246.44545357142857,164.73925231290647L246.75185357142857,164.75803597415572L246.9269392857143,164.81620105863334L246.9707107142857,164.84097631156035L247.05825357142857,164.8743374444761L247.102025,164.90380030414474L247.62728214285713,164.91699236665278L248.021225,164.8306114637599L248.5027107142857,164.86713110667048L248.940425,164.8800964965673L248.98419642857144,164.92036176717303L249.07173928571427,164.94896614113227L249.29059642857143,164.97416450171764L249.3781392857143,164.95379240664604L249.59699642857143,165.00915184063174L249.859625,165.03585215939032L250.16602500000002,165.0752771281464L250.34111071428572,165.10718779036202L250.73505357142858,165.1575369204955L251.391625,165.22474262232376L251.4353964285714,165.27625374396058L251.61048214285717,165.2926557269965L251.78556785714287,165.33351361018705L251.91688214285713,165.39176719362456L252.4421392857143,165.42674113141223L252.83608214285715,165.39564669352134L253.05493928571428,165.41480061948485L253.14248214285712,165.4361666318322L253.23002499999998,165.50240124186405L253.31756785714288,165.57708766157265L253.62396785714284,165.61563007748634L254.23676785714287,165.64616325775353L254.28053928571427,165.70351075797603L254.41185357142857,165.7720586582097L254.49939642857143,165.8043739734966L254.67448214285713,165.85512425860458L254.7182535714286,165.9168347111369L254.93711071428572,165.98813811520117L255.0246535714286,166.04533713043224L255.11219642857145,166.0696279313818L255.33105357142855,166.10855157561417L256.1627107142857,166.1877839549205L256.4253392857143,166.26440228709825L256.51288214285717,166.30945776069436L256.64419642857143,166.34796784123304L257.0381392857143,166.381433319362L257.51962499999996,166.43137401620305L257.6071678571428,166.4801380216915L257.9135678571428,166.46840398292287L257.9573392857143,166.5354232843608L258.132425,166.59780593768045L258.5701392857143,166.6340811643045L258.65768214285714,166.69341077697044L258.8765392857143,166.72358589858501L259.051625,166.76472173555428L259.358025,166.8045193926565L259.79573928571426,166.8471690617884L259.8832821428571,166.86083084541926L259.9270535714286,166.90738977583595L260.10213928571426,166.95347125592895L260.1896821428571,167.01673440521523L260.277225,167.06491741420498L260.32099642857145,167.11296983335066L260.4085392857143,167.1737190016953L260.890025,167.19437176685824L262.02808214285716,167.24802726091886L262.115625,167.26414007187017L262.37825357142856,167.29503354151458L262.5095678571429,167.3562088864108L262.5533392857143,167.41123592280692L262.5971107142857,167.47708231583346L262.64088214285715,167.53473989727127L262.94728214285715,167.5558607289341L263.1223678571428,167.6199347269121L263.2099107142857,167.68257028302247L263.341225,167.7427347131909L264.17288214285713,167.78957904326464L264.47928214285713,167.84215249664445L264.566825,167.8451406822105L264.6981392857143,167.86480515922437L265.1358535714286,167.8793541550167L265.6611107142857,167.9275915614655L266.75539642857143,167.95653251028114L266.93048214285716,167.97701649357813L268.3311678571429,167.90152642945046L268.46248214285714,167.91579986035572L268.90019642857146,167.87875475245983L269.5129964285714,167.89255485482647L269.7318535714286,167.78056568684065L269.81939642857145,167.6806888471964L270.388425,167.60506211437888L271.0887678571429,167.5706326880624L271.2200821428571,167.58223583238563L271.35139642857143,167.56813547330876L271.52648214285716,167.57430190932783L271.65779642857143,167.57168902238618L271.9641964285714,167.48310663087804L272.2705964285714,167.4719042764104L272.40191071428575,167.48290830982043L272.70831071428574,167.48112767550654L272.839625,167.46883291552822L273.146025,167.47804460048278L273.2335678571429,167.43874731232424L273.36488214285714,167.47414084727896L273.40865357142854,167.49819248024227L273.452425,167.50107672137673L273.4961964285714,167.51599912708176L273.8025964285714,167.55913414160426L274.10899642857146,167.5272544065778L274.5029392857143,167.54465221137167L274.6342535714286,167.52071126441942L274.678025,167.43845350588472L274.8531107142857,167.42020892461372L275.2470535714286,167.39673626461106L275.7285392857143,167.37848938267518L276.25379642857143,167.34209702705522L276.73528214285716,167.34555189802091L277.4793964285714,167.2789888124085L277.91711071428574,167.27253116901505L278.2235107142857,167.3290700660598L278.354825,167.29688765419817L278.7925392857143,167.27650604427507L278.83631071428573,167.18709807855373L278.9238535714286,167.09164178413312L279.18648214285713,167.13639483406462L279.4928821428571,167.12876963563275L280.3683107142857,167.15052404075675L280.6309392857143,167.10274753572082L281.19996785714284,167.0619186543094L281.2437392857143,166.99135727220255L281.8127678571429,166.90606500562674L282.03162499999996,166.92168715273496L282.1629392857143,166.95309370503333L282.5131107142857,166.9918454810201L282.7319678571429,166.94501602938774L282.7757392857143,166.8044985332796L283.257225,166.74662444575355L283.65116785714287,166.69596032514548L283.95756785714286,166.56103661110225L284.0013392857143,166.5955279997505" style="fill: none;" fill="none"></path></g></g></g></g><g opacity="0.2"><g><g><g><path stroke="rgb(0, 119, 187)" stroke-width="2px" d="M21.63539642857143,8.420147487095418L22.07311071428571,69.32251943860736L22.116882142857143,69.60628489085606L22.24819642857143,99.04018347603935L22.598367857142858,156.63783635411946L22.642139285714283,166.30160537787845L23.211167857142858,198.07997810840607L23.517567857142858,190.64144989422388L23.561339285714286,174.71664966855732L23.60511071428571,153.39773164476668L24.174139285714283,138.33673105921065L24.217910714285715,153.2447442667825L24.39299642857143,199.59653926747185L24.524310714285715,197.16495057514734L24.56808214285714,153.62304394585746L24.830710714285715,169.08008633341106L25.049567857142858,73.55170379366193L25.355967857142858,124.93284957749503L25.793682142857143,155.0334070750645L25.968767857142854,204.92535619650567L26.143853571428572,127.30111854416984L26.756653571428572,121.57404204777309L26.931739285714283,132.06466453416007L26.975510714285715,166.63397026062012L27.063053571428572,195.733503980296L27.15059642857143,157.27779466765267L27.413225,74.53662974493844L27.763396428571426,167.12517326218742L27.850939285714286,89.35868740081787L27.894710714285715,152.26564795630318L28.026025,132.3462054388864L28.332424999999997,114.20277776036943L28.463739285714283,191.4347829222679L28.551282142857143,160.6129219191415L28.638825,206.12943248237883L28.98899642857143,190.53576580115728L29.207853571428572,156.82749560901095L29.514253571428572,157.637170621327L29.820653571428572,147.34042137009757L29.864424999999997,192.0440165570804L30.433453571428572,212.70953271325146L30.783625,156.51601675578524L31.483967857142858,178.26021220002855L32.14053928571429,133.92013008253915L32.184310714285715,150.8012204851423L32.75333928571428,116.99987196922302L32.797110714285715,136.123806646892L33.32236785714286,185.1536237852914L33.45368214285714,157.43521305492948L33.803853571428576,142.28674374307906L33.93516785714286,126.76046909604753L34.06648214285715,147.77728874342782L34.154025,147.87361345972334L34.372882142857144,199.59931693758284L35.116996428571426,185.82612138135093L35.29208214285715,106.51561566761562L35.379625,158.50370723860604L35.42339642857143,190.12740910904748L35.55471071428571,159.51230141094754L36.56145357142857,179.65746014458793L36.605225,129.15838663918632L37.13048214285715,179.82032535757338L37.39311071428572,65.83381400789533L37.436882142857144,131.6787929534912L37.48065357142857,180.21759397642953L38.00591071428571,126.79826831817627L38.35608214285714,159.68515900203158L38.531167857142854,188.63808509281702L38.61871071428571,114.44800850323269L38.83756785714286,163.82407133919853L39.056425000000004,149.12409251076835L39.143967857142854,109.80835594449724L39.62545357142857,139.41849415642875L39.888082142857144,102.2063958304269L39.93185357142857,135.47994783946444L40.54465357142857,158.3721695627485L40.588424999999994,165.91532083920072L40.67596785714286,211.67408214083738L40.98236785714286,151.47792904717582L41.24499642857143,166.0752441031592L41.63893928571429,196.84847854716438L41.814025,166.41740242072513L41.94533928571428,192.6044111251831L42.03288214285715,193.6248152937208L42.207967857142854,142.534223147801L42.25173928571428,161.83531379699707L42.470596428571426,101.92457158224923L42.51436785714286,172.9627476760319L42.77699642857143,132.98316754613603L43.78373928571429,150.24294345719474L43.87128214285714,108.52183198928833L43.91505357142857,107.00491966520036L43.958825,102.13560819625854L44.09013928571429,118.31355469567436L44.177682142857144,178.46698660509927L44.79048214285714,117.44257501193455L44.834253571428576,121.06585652487618L44.921796428571426,107.1547179222107L45.00933928571428,140.23319700786044L45.09688214285715,179.3566187279565L45.534596428571426,206.24307807428497L45.62213928571428,164.6330500500543L45.797225,155.02468371391296L46.05985357142857,169.14693428788868L46.147396428571426,141.6975340502603L46.32248214285714,186.7401421410697L47.022825,102.97599281583513L47.28545357142857,109.17738022123064L47.46053928571428,120.4274355002812L47.54808214285714,179.89279195240564L48.29219642857143,168.0454305921282L48.335967857142855,103.79841225487846L48.68613928571428,113.05769041606358L48.729910714285715,173.56104847363065L48.948767857142855,137.06689422471183L48.99253928571429,167.0855835505894L49.342710714285715,155.8281492846353L49.60533928571429,134.70890399387906L49.64911071428571,179.06108246530806L49.86796785714286,134.07695163999284L50.26191071428571,197.01682223592485L50.65585357142857,179.0580289874758L51.006025,154.18127274513245L51.049796428571426,161.75516980034965L51.399967857142855,152.02257544653756L51.75013928571429,177.28500734056746L51.83768214285715,167.33611643314362L52.538025,100.55592625481742L53.019510714285715,150.1637158053262L53.107053571428565,173.8647082533155L53.19459642857143,182.63561684744698L53.32591071428571,173.77577458109172L53.457225,135.19961265155246L53.50099642857143,131.06411249297005L54.026253571428576,106.03236436843872L54.90168214285714,103.28985295976912L55.38316785714286,136.92442069734847L55.42693928571429,157.6564259188516L55.68956785714286,196.3011162706784L55.95219642857143,153.6113364355905L56.65253928571428,192.07696276903152L56.69631071428571,135.3221195084708L56.78385357142857,105.51489482607161L56.915167857142855,124.52853655815125L57.309110714285715,151.86887669563293L57.87813928571429,180.11134922504425L58.22831071428572,183.61428211416518L58.359624999999994,133.07372893605913L58.972425,150.1848520210811L59.19128214285714,212.82153250170606L59.366367857142855,191.24537988219942L59.585225,161.11032833371846L60.241796428571426,80.23430483681815L60.63573928571429,166.67652000699726L60.723282142857144,114.27017733028957L60.89836785714285,68.45090675354004L61.20476785714286,152.47101167270114L62.16773928571428,211.13535468067442L62.99939642857143,183.8143708195005L63.61219642857143,166.29633036681582L64.3125392857143,188.7281039101737L64.44385357142858,198.6384133866855L64.88156785714285,129.04182999474662L64.96911071428572,82.27580043247768L65.18796785714285,184.17513636180334L65.31928214285713,118.46562572887966L65.406825,103.98781830923897L65.88831071428571,118.61493567058018L66.19471071428572,133.1918650695256L66.36979642857143,140.0458286149161L66.45733928571428,106.74223014286586L66.85128214285714,120.43772629329136L67.68293928571428,186.9507085255214L68.29573928571429,166.9396164587566L68.33951071428571,165.62500533035825L68.42705357142857,159.27503442764282L68.60213928571429,119.94792192322868L68.99608214285715,185.32046484947205L69.52133928571429,127.33903230939592L69.696425,154.32572967665536L69.78396785714285,124.27646337236678L69.91528214285714,151.4012153148651L70.002825,132.4732096195221L70.09036785714287,178.53984204360418L70.52808214285714,109.98605448859078L70.70316785714286,172.06639066764285L70.74693928571429,157.27660703659058L71.00956785714286,105.03945657185146L71.09711071428572,162.5682931627546L71.31596785714285,136.9408666746957L71.62236785714286,162.95257922581266L71.841225,177.60218622003282L71.88499642857143,146.6419677053179L72.41025357142857,177.35099019323076L72.84796785714285,130.63130235671997L72.93551071428571,171.27402673448833L72.97928214285714,166.2253829751696L73.28568214285714,174.5037200791495L73.50453928571429,160.5560482570103L73.679625,171.7570218188422L73.72339642857143,150.80193185806274L74.24865357142858,140.87311914988925L74.598825,158.58940958976746L74.7739107142857,152.08861255645752L74.99276785714285,164.5188204390662L75.08031071428572,170.30770197936465L75.91196785714286,154.74717593193054L75.99951071428572,152.3757600443704L76.21836785714285,185.69117152690887L76.26213928571428,161.42356753349304L76.34968214285715,168.3531084230968L76.48099642857143,149.74225749288286L76.65608214285714,124.81145198004586L76.91871071428572,151.23321676254272L77.09379642857144,179.8601712839944L77.70659642857143,181.61242747306824L77.92545357142856,154.97661781311035L78.05676785714286,145.34983716692244L78.275625,154.23601228850228L78.4507107142857,139.57665405954634L78.62579642857143,189.51788459505354L79.01973928571428,150.3168659550803L79.32613928571429,154.01229756219047L79.45745357142857,125.30616361754281L79.50122499999999,180.4395423276084L79.89516785714285,183.99489375523157L80.33288214285714,125.87666661398751L80.98945357142857,158.3041309629168L81.16453928571428,211.75610592535563L81.646025,67.93302726745605L81.68979642857143,134.75847704069955L81.86488214285714,117.95048924854824L82.43391071428572,129.0486181804112L83.48442499999999,187.12540483474731L85.41036785714286,190.17390154940742L85.97939642857143,151.11149362155368L86.06693928571428,206.50079778262548L86.67973928571428,192.38757501329695L86.85482499999999,132.41485895429338L87.02991071428572,178.25532000405448L87.20499642857143,162.25586179324557L87.51139642857143,200.67674849714552L87.55516785714286,174.41800567081998L87.68648214285714,169.15904872758048L87.81779642857143,211.2870530720268L88.34305357142857,184.1413913624627L88.60568214285715,141.42422216279166L88.78076785714286,113.28431694848197L89.21848214285714,106.16120726721627L89.34979642857142,130.0506532532828L89.96259642857143,172.79151780264718L90.09391071428571,149.3364373275212L90.31276785714286,205.62075110844202L90.44408214285714,156.44799624170574L90.838025,138.63383173942566L91.31951071428571,195.25553522791182L91.53836785714286,142.67313981056213L91.62591071428571,172.10349961689542L92.676425,171.55924206120628L93.02659642857144,144.78702664375305L93.11413928571429,147.53676632472445L93.24545357142857,96.7018404006958L93.50808214285713,100.3386560848781L93.55185357142858,184.99003212792533L93.85825357142858,178.6018671308245L94.208425,145.1338028567178L94.38351071428572,147.77484716687883L94.55859642857142,180.68466154166632L94.86499642857143,153.56240844726562L94.95253928571428,153.63604157311576L95.21516785714286,205.76051403369223L95.6091107142857,134.07616792406355L95.95928214285715,203.4000106368746L96.046825,145.92716452053617L96.17813928571428,183.09364455086845L96.30945357142856,201.03573560714722L96.35322500000001,161.62497649874004L96.65962499999999,200.0722397650991L96.8347107142857,149.9283116544996L96.87848214285715,170.70198042052132L97.18488214285715,141.08607285363334L97.57882500000001,181.78553223609924L97.75391071428571,142.01251551083158L97.84145357142857,162.78368241446358L98.23539642857143,197.5204622064318L98.71688214285714,204.7604397577899L99.15459642857144,166.48119388307842L99.24213928571429,160.5863358633859L99.54853928571428,192.53618413209915L99.89871071428571,190.04505865062987L100.24888214285716,49.16416413443429L101.08053928571428,176.08241031851085L101.562025,124.7019909790584L101.91219642857143,155.58004290716988L102.30613928571428,105.93877662931169L102.48122500000001,81.8480362210955L102.87516785714286,172.01310702732633L103.094025,183.08222641263689L103.13779642857143,198.01259210280008L103.18156785714287,167.30669091429027L103.88191071428571,120.99306740079606L104.10076785714287,191.94563006503242L104.58225357142857,189.49502420425415L104.71356785714286,155.36104253360202L104.97619642857143,151.48462077549527L105.01996785714286,150.9704609257834L105.19505357142856,198.50015383958817L107.077225,213.25706661599023L107.25231071428571,168.61442041397095L107.29608214285714,184.07404604979925L107.42739642857143,207.18763662661826L107.51493928571429,100.00645698819841L107.996425,177.80480693067824L108.08396785714287,172.38117619923185L108.43413928571428,194.76235635791505L111.060425,201.0515711903572L111.41059642857144,149.30957998548234L111.93585357142858,130.8933890206473L112.06716785714286,207.343450656959L112.46111071428572,194.13464963436127L112.89882499999999,154.25398349761963L113.24899642857143,170.41916748455594L113.38031071428571,171.5257291623524L113.511625,169.3609942368099L113.77425357142857,205.19959950021334L113.9931107142857,178.8938435145787L114.03688214285714,83.23764896392822L114.21196785714287,100.86651890618461L114.25573928571428,195.5808602316039L114.56213928571428,98.34349618639266L114.95608214285714,149.38951901027133L115.08739642857142,144.6669372490474L115.96282500000001,177.48110813753945L118.23893928571428,200.97524479457311L118.414025,154.0885591506958L118.67665357142857,196.2287355831691L118.85173928571429,175.6332175050463L119.333225,213.39268432451146L119.46453928571428,213.61850943203484L119.68339642857144,139.1137070315225L120.252425,145.9662900311606L121.30293928571427,193.2012786269188L122.13459642857143,172.68853752953666L122.35345357142856,102.279184954507L122.39722499999999,190.8887831057821L122.83493928571428,137.80076582091195L122.96625357142857,187.7220357145582L123.18511071428571,162.4309559890202L123.53528214285714,190.8880581685475L123.97299642857142,167.1413720675877L124.41071071428571,186.52760440962655L124.71711071428572,180.86525682040624L125.32991071428572,155.69102913992745L126.03025357142857,179.15544487748826L126.380425,207.84451566849435L126.42419642857143,143.3050137928554L127.73733928571428,196.79468398434776L127.86865357142857,201.59205786670958L128.04373928571428,167.99168275083812L128.0875107142857,147.43556448391507L128.30636785714285,170.34744843414853L128.87539642857143,205.85573551910264L130.88888214285714,179.7961507354464L131.02019642857144,171.7574860198157L131.10773928571427,167.2740310600826L131.1515107142857,158.3216801711491L131.63299642857143,175.56543813432964L131.67676785714286,201.3973165154457L131.895625,179.42656537464686L132.11448214285716,159.5365423474993L132.202025,208.01924664207868L133.734025,199.4525013225419L133.77779642857143,149.84745025634766L134.25928214285716,128.6891156264714L134.30305357142856,177.85599563802992L136.491625,192.52082932846886L136.798025,150.94652744701932L136.9293392857143,172.31798156670163L136.97311071428572,192.3705231632505L137.14819642857142,184.2351780448641L137.97985357142858,158.15319330351693L138.330025,145.6428384099688L138.37379642857144,197.55432174886977L138.5051107142857,160.74370602199008L138.8115107142857,173.2124455996922L138.942825,153.29394354139055L139.03036785714286,203.79445486409324L139.16168214285716,170.23428889683316L139.33676785714286,188.94251954555511L139.99333928571428,185.4211060319628L140.21219642857145,172.05367638383595L140.38728214285715,169.67159894534518L140.474825,169.9879458802087L140.9125392857143,152.73327919415067L140.9563107142857,189.03362652233668L141.13139642857143,149.94874855450223L141.35025357142857,118.66800529616219L141.394025,125.46258125986373L141.43779642857143,155.55289619309562L141.56911071428573,143.86224184717452L141.9630535714286,190.19421637058258L142.006825,169.4755403484617L142.05059642857142,122.0087150165013L142.26945357142856,155.44195216042655L142.48831071428572,163.67095133236478L142.619625,135.56279264177596L142.75093928571428,191.67384491647994L142.83848214285715,154.50538751057218L142.92602499999998,190.16470494440622L143.05733928571428,181.73289063998632L143.36373928571427,159.3676575933184L143.88899642857143,162.48555084637235L143.97653928571427,175.71990251541138L144.54556785714286,157.47367542130607L144.5893392857143,203.1761866424765L145.07082499999999,179.45135491234916L145.50853928571428,147.12441720281328L145.683625,182.5966420514243L145.94625357142857,152.53081522669112L146.25265357142857,179.73546700818198L146.296425,127.17149192946297L146.69036785714286,122.21783454077584L146.7341392857143,182.30000255789076L147.56579642857145,147.30311046327864L147.60956785714285,202.09727581909723L148.0035107142857,173.69011744431089L148.09105357142857,167.43016837324413L148.17859642857144,141.88511344364713L148.52876785714284,154.4492312499455L148.8789392857143,143.93835874966214L149.054025,207.4287920466491L149.1853392857143,146.88982691083635L149.27288214285716,163.89012050628662L149.31665357142856,182.10127329826355L149.44796785714286,161.6489521775927L149.71059642857142,149.6670388494219L149.88568214285715,178.04870234216963L149.92945357142858,162.75698181561063L150.54225357142857,160.0578942980085L150.67356785714287,198.9410874928747L150.80488214285714,155.53473809787204L151.11128214285714,142.07904696464539L151.24259642857143,179.15838079793113L151.3301392857143,147.41744858878L151.59276785714286,165.4933681828635L151.81162500000002,160.31327114786419L152.07425357142859,163.1348715509687L152.16179642857142,98.33930029187883L152.5995107142857,184.05942371913366L152.730825,172.34424509320942L152.8621392857143,141.28184509277344L153.2123107142857,143.52591919898987L153.60625357142857,110.82336453029087L154.04396785714286,108.35345363616943L154.262825,141.14635266576494L154.83185357142858,139.59651824406217L155.6635107142857,86.3477110862732L155.794825,83.9931993484497L156.407625,142.383864232472L156.45139642857143,128.23549481800626L156.714025,133.90088081359863L156.97665357142856,117.87406488827297L157.28305357142855,168.73923621858867L157.326825,182.45247750622886L157.37059642857142,143.63111799103874L157.45813928571428,154.47698685101102L157.63322499999998,148.4705035686493L157.80831071428574,145.42861267498563L157.98339642857144,186.057944553239L158.02716785714284,190.18552315235138L158.0709392857143,164.17946239880155L158.28979642857144,136.88613315990995L158.3773392857143,156.65439687456401L158.81505357142856,161.44279268809726L159.1214535714286,103.63589368547713L160.34705357142857,170.26506180422646L160.56591071428574,170.0134045907429L160.95985357142857,189.88320623976844L161.09116785714286,186.13477282864707L161.1787107142857,164.7458267722811L161.48511071428572,174.44207780701774L161.70396785714286,174.47021320887973L162.05413928571429,203.49557349085808L162.22922499999999,161.13889176504952L162.27299642857145,133.98962157113212L162.4043107142857,163.9599676813398L162.49185357142855,114.47457647323608L162.79825357142857,134.97248574665616L163.14842499999997,124.57844117709568L163.32351071428573,174.6719115461622L163.4110535714286,130.56303467069353L164.37402500000002,121.22396217073714L164.50533928571429,100.59665536880493L165.81848214285714,169.12035426071714L166.1686535714286,197.16536805459432L167.65688214285714,171.17595071452004L167.8757392857143,123.8563072340829L168.357225,140.73325599942888L168.75116785714283,182.6646716083799L168.970025,169.4538977316448L169.05756785714286,162.89814714023044L169.1451107142857,161.54313244138447L169.276425,185.12194357599532L169.582825,178.81982455934798L169.62659642857142,159.8557438169207L169.97676785714287,150.07832091195243L170.02053928571428,185.15909773962838L170.45825357142854,186.79936996528082L170.6333392857143,149.66457315853665L171.07105357142856,95.07093960898263L171.2461392857143,167.5117441586086L171.421225,167.35754202093395L171.77139642857145,143.01581055777413L171.99025357142855,139.1427527495793L172.64682499999998,171.47537541389465L172.69059642857144,177.62964039189475L172.953225,177.5465966463089L173.259625,154.6694071974073L173.4347107142857,192.14134503262383L173.87242500000002,147.32869577407837L173.91619642857142,148.35886022022794L173.95996785714286,158.13789878572734L174.0037392857143,158.58490623746601L174.26636785714285,156.77114643369404L174.3539107142857,181.87113812991552L174.48522499999999,132.09510888372148L174.61653928571428,178.8627963066101L174.6603107142857,160.64876185144695L174.791625,147.7715676171439L175.2731107142857,100.76341806139266L175.53573928571427,186.35851769787925L175.79836785714284,177.664199250085L176.1923107142857,144.07653992516654L176.23608214285716,120.71295527049473L176.45493928571426,163.21362294469563L176.58625357142859,127.62771708624703L176.84888214285712,99.6906556401934L177.02396785714285,135.9184911591666L177.19905357142858,147.67602058819364L177.549225,157.38540489333016L177.68053928571427,202.15084732430321L177.94316785714287,117.29460944448198L177.98693928571427,165.62435725757052L178.33711071428573,168.13567246709553L178.468425,99.889755657741L178.51219642857143,177.11345795222692L179.03745357142856,137.8072646345411L179.60648214285715,167.14093800953458L179.65025357142858,170.55451823983876L179.69402499999998,158.1566717965262L179.73779642857144,174.0071757520948L180.3505964285714,167.36691646916526L181.4011107142857,177.09900442191534L181.61996785714285,187.20607030391693L181.70751071428572,163.05495061193196L181.838825,147.3075053010668L182.01391071428571,147.49321583339145L182.145225,170.50247045925687L182.18899642857141,150.55932354927063L182.97688214285716,208.89900846566474L183.41459642857143,167.16264995506833L183.72099642857142,180.70001333100456L183.89608214285715,162.7193272794996L183.93985357142859,191.1347598859242L184.15871071428572,168.13171771594455L184.20248214285715,208.07200805630004L184.33379642857142,158.1728766305106L184.81528214285714,194.74607465948378L184.85905357142857,168.80279558045524L185.3843107142857,171.9337467466082L185.42808214285714,170.3045942442758L185.515625,125.82034758159092L185.55939642857143,187.3369870356151L185.73448214285716,195.84163115705763L185.77825357142856,130.30563824517387L186.08465357142856,187.71142540659224L186.91631071428571,180.9113302741732L186.96008214285715,169.09376519066947L187.00385357142855,163.6881147112165L187.047625,165.57536898340496L187.2227107142857,203.1104758296694L188.0981392857143,194.56604908193862L188.36076785714286,175.76752531528473L188.62339642857143,192.21397590637207L190.06785357142857,185.2329720088414L190.28671071428573,156.87260147503446L190.41802499999997,168.5601933002472L190.81196785714286,191.5787575670651L191.07459642857145,179.94919538497925L192.256425,150.12083448682512L192.51905357142857,141.42332390376498L192.65036785714287,170.6394911323275L192.82545357142857,182.06944237436568L193.08808214285713,194.52780977317266L193.21939642857143,174.64624786376953L193.3069392857143,195.50986159699303L193.74465357142856,198.09130431073052L194.48876785714288,145.0751326765333L194.66385357142858,184.49798211029596L195.014025,164.94702775137765L195.05779642857144,178.6092039176396L195.45173928571427,199.52247961929865L195.71436785714286,161.9920449256897L195.75813928571426,124.13001700810024L195.80191071428573,196.2966430612973L195.933225,182.5045222725187L196.1958535714286,150.2704518863133L196.4147107142857,181.31331023148127L196.54602500000001,93.77993038722447L196.89619642857141,176.3807167155402L197.07128214285711,197.80767600876945L197.158825,134.68038276263644L197.55276785714284,192.15789500304632L198.60328214285713,193.1681575860296L199.39116785714285,165.19207763671875L199.4349392857143,158.58218734604972L200.09151071428573,188.68108095441545L201.84236785714285,194.1000576189586L201.97368214285714,166.6995311123984L202.76156785714286,150.17521231515067L202.9366535714286,184.6556567123958L203.24305357142856,170.89792146001545L203.37436785714286,194.76707372495108L203.85585357142858,155.22831119809834L204.29356785714285,193.5468732374055L204.33733928571428,167.77997394970487L204.46865357142858,145.6783045700618L204.9501392857143,179.66351284299577L205.60671071428573,176.59250690255848L205.65048214285713,171.99983509949277L206.21951071428572,184.1309197119304L206.48213928571428,170.02047913415092L206.56968214285712,197.60075842482703L206.61345357142858,176.97397761685508L206.87608214285714,147.67491132872445L207.31379642857144,188.5263513156346L207.4451107142857,189.61287096568518L207.53265357142857,164.84997056211742L207.576425,142.79828115871976L207.6201964285714,172.22763117722104L207.79528214285716,174.44019387449535L208.23299642857143,157.71288360868184L208.2767678571429,192.4996207697051L208.802025,130.50295983042037L208.84579642857145,175.44936076232364L209.58991071428574,149.013461964471L210.07139642857143,148.22798568861825L210.46533928571426,183.47469929286413L210.68419642857143,154.7514863695417L210.9030535714286,152.88272779328483L211.16568214285715,191.11910365309035L211.559625,161.7861326081412L211.9097964285714,172.81051989964078L212.30373928571427,161.49608537128995L212.785225,151.17347349439348L213.00408214285716,150.49261726651872L213.13539642857143,182.73618267263686L213.17916785714286,193.47837345089232L213.48556785714285,133.80134286199296L213.83573928571428,187.32804664543696L214.1859107142857,124.97383189201355L214.36099642857144,139.63839881760734L214.4923107142857,192.56155844245637L214.623625,184.96722599438257L214.6673964285714,164.6298579147884L215.01756785714286,180.2311613048826L215.93676785714285,183.19470170566015L216.41825357142858,161.3912000656128L216.59333928571428,158.16960310935974L216.9435107142857,155.36122339112418L217.9502535714286,183.8858095407486L218.21288214285715,176.1879406826837L218.38796785714285,181.4663850239345L219.04453928571428,184.7392671448844L219.30716785714284,172.0262131690979L219.43848214285714,122.48941622461592L219.526025,176.9584811414991L219.832425,153.88009071350098L219.9637392857143,186.5130453790937L220.138825,127.35423639842442L220.31391071428573,179.44319823810034L220.40145357142856,180.76144761698586L220.48899642857143,176.186789223126L221.058025,160.0017681803022L221.14556785714285,178.30868804454803L221.23311071428571,203.7223055234977L221.40819642857142,171.66770231723785L221.5395107142857,195.4961028609957L221.58328214285717,157.2067839758737L221.670825,171.9734962156841L222.02099642857144,145.83189480645316L222.4587107142857,133.61131586347307L223.07151071428572,174.2057753971645L223.202825,183.60597472531455L223.3341392857143,162.43060030256L223.9469392857143,153.97926092147827L224.07825357142858,171.94251532214028L224.734825,185.3372996704919L224.95368214285713,188.59160470962524L224.9974535714286,170.1656172956739L225.1725392857143,169.13749051094055L225.347625,156.47232157843453L225.39139642857143,173.48527821472715L225.43516785714286,196.72596566166197L225.52271071428572,148.1917538983481L225.74156785714285,183.57335707119532L226.573225,191.46828527109963L226.7483107142857,152.1802349771772L226.83585357142857,195.2537899528231L227.09848214285714,142.95311328342984L227.44865357142857,132.51248584474837L227.492425,170.14596411160062L227.7550535714286,133.72871650968278L227.88636785714286,142.55047621045793L228.23653928571426,158.54916879108976L228.49916785714288,78.69939116069249L228.63048214285712,116.05243175370353L228.67425357142858,125.89141855921065L228.80556785714288,180.03839130061013L228.93688214285714,192.2727078795433L229.06819642857144,168.4783582857677L229.59345357142857,176.2771818126951L229.76853928571427,188.21447156156813L230.0749392857143,167.63228569711956L230.33756785714286,178.50890033585685L230.5126535714286,115.63807511329651L230.556425,121.69136432238987L230.6877392857143,171.41094492162975L230.73151071428572,183.41263501984733L231.03791071428572,175.96500665800912L231.12545357142858,126.81354475021362L231.21299642857142,167.06216250147136L231.47562499999998,126.34339356422424L231.73825357142857,172.5348870073046L231.86956785714284,139.99055252756392L232.00088214285714,157.41959299360005L232.088425,127.76153356688363L232.17596785714287,174.1106262547629L232.87631071428572,116.60803811890739L232.9638535714286,158.48664031709941L233.05139642857142,187.99589921746934L233.09516785714285,131.55734712736947L233.1389392857143,181.256511926651L233.44533928571428,171.71518645967754L233.48911071428572,120.64677950314113L234.27699642857144,164.20474025181363L234.40831071428573,125.48275290216719L235.15242500000002,125.20281560080392L235.72145357142858,178.90547265325273L236.29048214285714,147.2780978679657L236.378025,168.46363045488087L237.03459642857143,162.67387778418404L237.20968214285713,153.2209916455405L237.38476785714286,175.8654566492353L237.69116785714286,195.5637360385486L237.86625357142856,168.79031339713504L238.08511071428572,144.06284901074002L239.35448214285717,163.56259356226238L239.442025,152.93450127329146L239.8797392857143,152.7735139642443L239.92351071428573,169.32521157605308L240.93025357142858,195.29421763760703L241.32419642857144,167.0888269288199L242.37471071428573,181.78614112309046L242.89996785714285,189.83111776624406L242.98751071428572,147.33066712106978L243.20636785714285,155.57989822115215L243.64408214285714,161.6795713560922L243.77539642857144,170.7823896748679L243.81916785714287,201.35858889136995L244.1693392857143,196.26143010173524L244.25688214285714,176.48743169648307L244.4757392857143,171.0650157247271L244.73836785714286,195.3700361251831L245.65756785714285,180.98216312272208L246.09528214285714,173.7415894951139L246.27036785714287,181.81979569367L246.44545357142857,177.26709641729082L246.75185357142857,175.59368205070496L246.9269392857143,198.39418489592416L247.102025,181.94958206585474L247.62728214285713,172.55482654912132L248.021225,114.78220908982414L248.5027107142857,186.04164326190948L248.940425,172.4030147450311L248.98419642857144,188.3003728560039L249.29059642857143,179.62665407998222L249.3781392857143,153.09920219012668L249.59699642857143,197.2460817524365L251.4353964285714,195.40069298233306L251.61048214285717,174.89156300680978L251.78556785714287,189.26161551475525L252.4421392857143,185.93785515853338L252.83608214285715,147.1469098499843L253.05493928571428,176.66377079486847L253.14248214285712,177.99307659694128L257.6071678571428,195.53632255962916L257.9135678571428,159.47190989766804L257.9573392857143,206.52309299366814L259.79573928571426,192.41423642635345L259.8832821428571,175.05607703753878L259.9270535714286,194.85511516673225L262.02808214285716,199.60488734926497L262.115625,176.98732490198952L262.37825357142856,185.9497435263225L264.47928214285713,199.79491886922293L264.566825,169.6624505690166L264.6981392857143,179.83173746722085L265.1358535714286,176.73891106673648L265.6611107142857,197.32039610828673L266.93048214285716,180.47460758686066L268.3311678571429,121.814528294972L268.46248214285714,176.63533396380288L268.90019642857146,145.23379295212882L269.5129964285714,176.33364251681735L269.7318535714286,99.23694440296718L269.81939642857145,106.51184177398682L270.388425,121.25878327233451L271.0887678571429,146.45797531945365L271.2200821428571,174.70193992342266L271.35139642857143,158.91070297786166L271.52648214285716,171.36278557777405L271.65779642857143,165.9654002870832L271.9641964285714,112.9924852507455L272.2705964285714,160.5765816143581L272.40191071428575,174.2603792973927L272.70831071428574,166.3837388072695L272.839625,159.88697791099548L273.146025,173.16217022282737L273.2335678571429,143.17510986328125L273.36488214285714,189.34095770972115L273.40865357142854,182.36692888396126L273.452425,169.28521493503024L273.4961964285714,176.7524000235966L273.8025964285714,194.274458527565L274.10899642857146,147.77069347245353L274.5029392857143,178.3330465384892L274.6342535714286,152.665837424142L274.678025,116.36804018701827L274.8531107142857,156.08600991112846L275.2470535714286,152.80579703194755L275.7285392857143,156.02908199174064L276.25379642857143,144.6926371029445L276.73528214285716,169.49705636501312L277.4793964285714,125.80209905760628L277.91711071428574,163.24620744160245L278.2235107142857,202.6021546636309L278.354825,147.20708114760262L278.7925392857143,154.5456885950906L278.83631071428573,111.30737543106079L278.9238535714286,107.39603008542741L279.18648214285713,195.14038173641478L279.4928821428571,162.35449545724052L280.3683107142857,180.7794610261917L280.6309392857143,137.15340440613883L281.19996785714284,141.45259267943246L281.2437392857143,122.70651759420122L281.8127678571429,113.3443375314985L282.03162499999996,176.737859078816L282.1629392857143,186.69903322628565L282.5131107142857,191.37022582973754L282.7319678571429,137.46772272246224L282.7757392857143,78.30234861373901L283.257225,130.2744162082672L283.65116785714287,134.74878307751248L283.95756785714286,81.4327391215733L284.0013392857143,188.37009945937567" style="fill: none;" fill="none"></path></g></g></g></g></g></g><g transform="translate(30, 177)" clip-path="url(#clip_1)"><clipPath id="clip_1"><rect width="299" height="23"></rect></clipPath><g><g><line x1="0" y1="0" x2="0" y2="5" style="visibility: inherit;" fill="rgb(0, 0, 0)" stroke="rgb(204, 204, 204)" stroke-width="1px"></line><line x1="21.372767857142858" y1="0" x2="21.372767857142858" y2="5" style="visibility: inherit;" fill="rgb(0, 0, 0)" stroke="rgb(204, 204, 204)" stroke-width="1px"></line><line x1="42.745535714285715" y1="0" x2="42.745535714285715" y2="5" style="visibility: inherit;" fill="rgb(0, 0, 0)" stroke="rgb(204, 204, 204)" stroke-width="1px"></line><line x1="64.11830357142857" y1="0" x2="64.11830357142857" y2="5" style="visibility: inherit;" fill="rgb(0, 0, 0)" stroke="rgb(204, 204, 204)" stroke-width="1px"></line><line x1="85.49107142857143" y1="0" x2="85.49107142857143" y2="5" style="visibility: inherit;" fill="rgb(0, 0, 0)" stroke="rgb(204, 204, 204)" stroke-width="1px"></line><line x1="106.86383928571429" y1="0" x2="106.86383928571429" y2="5" style="visibility: inherit;" fill="rgb(0, 0, 0)" stroke="rgb(204, 204, 204)" stroke-width="1px"></line><line x1="128.23660714285714" y1="0" x2="128.23660714285714" y2="5" style="visibility: inherit;" fill="rgb(0, 0, 0)" stroke="rgb(204, 204, 204)" stroke-width="1px"></line><line x1="149.609375" y1="0" x2="149.609375" y2="5" style="visibility: inherit;" fill="rgb(0, 0, 0)" stroke="rgb(204, 204, 204)" stroke-width="1px"></line><line x1="170.98214285714286" y1="0" x2="170.98214285714286" y2="5" style="visibility: inherit;" fill="rgb(0, 0, 0)" stroke="rgb(204, 204, 204)" stroke-width="1px"></line><line x1="192.35491071428572" y1="0" x2="192.35491071428572" y2="5" style="visibility: inherit;" fill="rgb(0, 0, 0)" stroke="rgb(204, 204, 204)" stroke-width="1px"></line><line x1="213.72767857142858" y1="0" x2="213.72767857142858" y2="5" style="visibility: inherit;" fill="rgb(0, 0, 0)" stroke="rgb(204, 204, 204)" stroke-width="1px"></line><line x1="235.10044642857142" y1="0" x2="235.10044642857142" y2="5" style="visibility: inherit;" fill="rgb(0, 0, 0)" stroke="rgb(204, 204, 204)" stroke-width="1px"></line><line x1="256.4732142857143" y1="0" x2="256.4732142857143" y2="5" style="visibility: inherit;" fill="rgb(0, 0, 0)" stroke="rgb(204, 204, 204)" stroke-width="1px"></line><line x1="277.84598214285717" y1="0" x2="277.84598214285717" y2="5" style="visibility: inherit;" fill="rgb(0, 0, 0)" stroke="rgb(204, 204, 204)" stroke-width="1px"></line><line x1="299.21875" y1="0" x2="299.21875" y2="5" style="visibility: inherit;" fill="rgb(0, 0, 0)" stroke="rgb(204, 204, 204)" stroke-width="1px"></line></g><g transform="translate(0, 8)"><text x="0" y="0" dx="0em" dy="0.95em" style="text-anchor: middle; visibility: hidden; font-family: Roboto, sans-serif; font-size: 12px; font-weight: 200;" fill="rgb(33, 33, 33)" stroke="none" stroke-width="1px">-10M</text><text x="21.372767857142858" y="0" dx="0em" dy="0.95em" style="text-anchor: middle; visibility: inherit; font-family: Roboto, sans-serif; font-size: 12px; font-weight: 200;" fill="rgb(33, 33, 33)" stroke="none" stroke-width="1px">0</text><text x="42.745535714285715" y="0" dx="0em" dy="0.95em" style="text-anchor: middle; visibility: hidden; font-family: Roboto, sans-serif; font-size: 12px; font-weight: 200;" fill="rgb(33, 33, 33)" stroke="none" stroke-width="1px">10M</text><text x="64.11830357142857" y="0" dx="0em" dy="0.95em" style="text-anchor: middle; visibility: inherit; font-family: Roboto, sans-serif; font-size: 12px; font-weight: 200;" fill="rgb(33, 33, 33)" stroke="none" stroke-width="1px">20M</text><text x="85.49107142857143" y="0" dx="0em" dy="0.95em" style="text-anchor: middle; visibility: hidden; font-family: Roboto, sans-serif; font-size: 12px; font-weight: 200;" fill="rgb(33, 33, 33)" stroke="none" stroke-width="1px">30M</text><text x="106.86383928571429" y="0" dx="0em" dy="0.95em" style="text-anchor: middle; visibility: inherit; font-family: Roboto, sans-serif; font-size: 12px; font-weight: 200;" fill="rgb(33, 33, 33)" stroke="none" stroke-width="1px">40M</text><text x="128.23660714285714" y="0" dx="0em" dy="0.95em" style="text-anchor: middle; visibility: hidden; font-family: Roboto, sans-serif; font-size: 12px; font-weight: 200;" fill="rgb(33, 33, 33)" stroke="none" stroke-width="1px">50M</text><text x="149.609375" y="0" dx="0em" dy="0.95em" style="text-anchor: middle; visibility: inherit; font-family: Roboto, sans-serif; font-size: 12px; font-weight: 200;" fill="rgb(33, 33, 33)" stroke="none" stroke-width="1px">60M</text><text x="170.98214285714286" y="0" dx="0em" dy="0.95em" style="text-anchor: middle; visibility: hidden; font-family: Roboto, sans-serif; font-size: 12px; font-weight: 200;" fill="rgb(33, 33, 33)" stroke="none" stroke-width="1px">70M</text><text x="192.35491071428572" y="0" dx="0em" dy="0.95em" style="text-anchor: middle; visibility: inherit; font-family: Roboto, sans-serif; font-size: 12px; font-weight: 200;" fill="rgb(33, 33, 33)" stroke="none" stroke-width="1px">80M</text><text x="213.72767857142858" y="0" dx="0em" dy="0.95em" style="text-anchor: middle; visibility: hidden; font-family: Roboto, sans-serif; font-size: 12px; font-weight: 200;" fill="rgb(33, 33, 33)" stroke="none" stroke-width="1px">90M</text><text x="235.10044642857142" y="0" dx="0em" dy="0.95em" style="text-anchor: middle; visibility: inherit; font-family: Roboto, sans-serif; font-size: 12px; font-weight: 200;" fill="rgb(33, 33, 33)" stroke="none" stroke-width="1px">100M</text><text x="256.4732142857143" y="0" dx="0em" dy="0.95em" style="text-anchor: middle; visibility: hidden; font-family: Roboto, sans-serif; font-size: 12px; font-weight: 200;" fill="rgb(33, 33, 33)" stroke="none" stroke-width="1px">110M</text><text x="277.84598214285717" y="0" dx="0em" dy="0.95em" style="text-anchor: middle; visibility: inherit; font-family: Roboto, sans-serif; font-size: 12px; font-weight: 200;" fill="rgb(33, 33, 33)" stroke="none" stroke-width="1px">120M</text><text x="299.21875" y="0" dx="0em" dy="0.95em" style="text-anchor: middle; visibility: hidden; font-family: Roboto, sans-serif; font-size: 12px; font-weight: 200;" fill="rgb(33, 33, 33)" stroke="none" stroke-width="1px">130M</text></g><line x1="0" y1="0" x2="299.21875" y2="0" fill="rgb(0, 0, 0)" stroke="rgb(204, 204, 204)" stroke-width="1px"></line></g></g></g></g></svg>